<svg width="255" height="259" viewBox="0 0 255 259" fill="none" xmlns="http://www.w3.org/2000/svg">
<g filter="url(#filter0_d_5_2392)">
<path d="M239 145.309H236.784C235.66 143.862 234.102 142.529 232.094 141.371L145.715 91.4719C135.483 85.574 117.639 86.3132 105.834 93.1272L25.9432 139.282C22.8112 141.098 20.4341 143.155 18.7958 145.309H16.1777V159.789H16.242C16.5632 163.212 18.8118 166.458 23.0682 168.917L109.448 218.816C119.679 224.714 137.523 223.975 149.329 217.161L229.219 171.006C234.824 167.776 238.021 163.742 238.776 159.772H238.984V145.293L239 145.309Z" fill="url(#paint0_linear_5_2392)"/>
<path d="M109.462 205.976L23.0829 156.077C12.8517 150.179 14.1366 139.861 25.9419 133.031L105.832 86.8761C117.638 80.0621 135.498 79.3229 145.713 85.2208L232.093 135.12C242.308 141.018 241.039 151.336 229.234 158.166L149.343 204.321C137.538 211.135 119.677 211.874 109.462 205.976Z" fill="url(#paint1_linear_5_2392)"/>
<path d="M236.204 133.401H234.036C232.928 132.002 231.418 130.685 229.458 129.56L145.103 80.8333C135.112 75.064 117.686 75.7872 106.153 82.4565L28.1422 127.519C25.0744 129.287 22.7615 131.295 21.1714 133.417H18.6016V145.47H18.6658C18.987 148.812 21.1714 151.978 25.3314 154.389L109.687 203.115C119.677 208.885 137.104 208.162 148.636 201.492L226.648 156.43C232.125 153.264 235.241 149.343 235.979 145.47H236.172V133.417L236.204 133.401Z" fill="url(#paint2_linear_5_2392)"/>
<path d="M238.823 125.381H236.606C235.482 123.935 233.924 122.601 231.916 121.444L145.537 71.5444C135.306 65.6465 117.461 66.3857 105.656 73.1997L25.7655 119.355C22.6334 121.171 20.2563 123.228 18.618 125.381H16V139.861H16.0642C16.3855 143.284 18.6341 146.53 22.8904 148.989L109.27 198.889C119.501 204.787 137.345 204.047 149.151 197.233L229.041 151.078C234.647 147.848 237.843 143.814 238.598 139.845H238.807V125.365L238.823 125.381Z" fill="url(#paint3_linear_5_2392)"/>
<path d="M109.286 186.064L22.9065 136.165C12.6913 130.267 13.9602 119.949 25.7655 113.119L105.656 66.9643C117.461 60.1503 135.322 59.411 145.537 65.3089L231.916 115.209C242.131 121.106 240.863 131.424 229.057 138.254L149.167 184.409C137.362 191.223 119.501 191.962 109.286 186.064Z" fill="url(#paint4_linear_5_2392)"/>
<path style="mix-blend-mode:color-dodge" d="M229.057 136.47L149.167 182.625C137.361 189.439 119.501 190.179 109.286 184.281L22.9063 134.381C18.8106 132.019 16.578 128.933 16.1283 125.655C15.5019 129.897 17.7023 134.06 22.9063 137.065L109.286 186.964C119.517 192.862 137.361 192.123 149.167 185.309L229.057 139.154C236.124 135.072 239.385 129.737 238.694 124.851C238.084 128.949 234.839 133.144 229.057 136.486V136.47Z" fill="url(#paint5_radial_5_2392)"/>
</g>
<path d="M82.9668 30.5569V140.601L132.15 112.25V2.19995L82.9668 30.5569Z" fill="url(#paint6_linear_5_2392)"/>
<path d="M88.0703 33.5043L127.045 11.0317V16.5665L88.0703 39.039V33.5043Z" fill="#242424"/>
<path d="M126.045 11.6073V15.991L127.045 16.5665V11.0317L126.045 11.6073Z" fill="#242424"/>
<g style="mix-blend-mode:screen" opacity="0.5">
<path d="M126.044 15.9908L88.0703 37.8825V39.0389L127.045 16.5664L126.044 15.9908Z" fill="#242424"/>
</g>
<path d="M88.0703 52.1847L127.045 29.7122V35.2469L88.0703 57.7195V52.1847Z" fill="#242424"/>
<path d="M126.045 30.2931V34.6714L127.045 35.2469V29.7122L126.045 30.2931Z" fill="#242424"/>
<g style="mix-blend-mode:screen" opacity="0.5">
<path d="M126.044 34.6714L88.0703 56.563V57.7195L127.045 35.2469L126.044 34.6714Z" fill="#242424"/>
</g>
<path d="M88.0703 70.8654L127.045 48.3982V53.933L88.0703 76.4001V70.8654Z" fill="#242424"/>
<path d="M126.045 48.9737V53.3521L127.045 53.933V48.3982L126.045 48.9737Z" fill="#242424"/>
<g style="mix-blend-mode:screen" opacity="0.5">
<path d="M126.044 53.3521L88.0703 75.2437V76.4001L127.045 53.933L126.044 53.3521Z" fill="#242424"/>
</g>
<path d="M88.0703 89.5458L127.045 67.0786V72.6134L88.0703 95.0805V89.5458Z" fill="#242424"/>
<path d="M126.045 67.6541V72.0325L127.045 72.6134V67.0786L126.045 67.6541Z" fill="#242424"/>
<g style="mix-blend-mode:screen" opacity="0.5">
<path d="M126.044 72.0326L88.0703 93.9296V95.0807L127.045 72.6135L126.044 72.0326Z" fill="#242424"/>
</g>
<path d="M88.0703 108.232L127.045 85.7593V91.294L88.0703 113.767V108.232Z" fill="#242424"/>
<path d="M126.045 86.3348V90.7185L127.045 91.294V85.7593L126.045 86.3348Z" fill="#242424"/>
<g style="mix-blend-mode:screen" opacity="0.5">
<path d="M126.044 90.7185L88.0703 112.61V113.767L127.045 91.294L126.044 90.7185Z" fill="#242424"/>
</g>
<path d="M88.0703 126.912L127.045 104.44V109.974L88.0703 132.447V126.912Z" fill="#242424"/>
<path d="M126.045 105.021V109.399L127.045 109.974V104.44L126.045 105.021Z" fill="#242424"/>
<g style="mix-blend-mode:screen" opacity="0.5">
<path d="M126.044 109.399L88.0703 131.291V132.447L127.045 109.974L126.044 109.399Z" fill="#242424"/>
</g>
<path d="M82.9786 30.557V140.601L79.1865 138.401V28.3678L82.9786 30.557Z" fill="#242424"/>
<path d="M79.1865 28.3677L82.9786 30.5569L132.151 2.19993L128.338 0L79.1865 28.3677Z" fill="url(#paint7_linear_5_2392)"/>
<path d="M84.6357 81.1867V91.7882L87.8684 89.9003V79.2987L84.6357 81.1867Z" fill="url(#paint8_linear_5_2392)"/>
<path d="M84.6355 81.1872V91.7887L84.1514 91.5091V80.9075L84.6355 81.1872Z" fill="url(#paint9_linear_5_2392)"/>
<path d="M84.1514 80.9073L84.6355 81.1871L87.8681 79.2991L87.3786 79.0194L84.1514 80.9073Z" fill="#242424"/>
<g style="mix-blend-mode:multiply">
<path d="M86.9764 87.4153C86.9764 87.0173 86.6967 86.856 86.3471 87.055C85.9975 87.254 85.7178 87.7434 85.7178 88.1415C85.7178 88.4588 85.8953 88.6202 86.1427 88.5772V89.739L86.5515 89.5023V88.3405C86.7989 88.0984 86.9764 87.7327 86.9764 87.4153Z" fill="#242424"/>
</g>
<path d="M86.1567 84.3229C87.2432 84.3552 90.2768 83.0481 91.557 81.7949C92.7349 80.6384 92.8318 79.4013 93.1276 79.8585C93.4234 80.3157 92.2939 82.8653 90.7824 83.8872C88.5987 85.3664 86.8936 85.7806 86.2481 85.7322C85.3122 85.6622 85.4305 84.296 86.1567 84.3175V84.3229Z" fill="url(#paint10_linear_5_2392)"/>
<g style="mix-blend-mode:multiply">
<path d="M93.1303 79.8582C93.0712 79.7668 93.0227 79.7452 92.9689 79.7721C93.0012 80.5144 91.947 82.6874 90.5808 83.6126C88.397 85.0917 86.6973 85.5059 86.0465 85.4575C85.8797 85.4468 85.7506 85.393 85.6484 85.3123C85.7399 85.5328 85.9335 85.7103 86.2562 85.7318C86.9017 85.7802 88.6014 85.3661 90.7905 83.8869C92.302 82.8596 93.4315 80.31 93.1357 79.8582H93.1303Z" fill="#242424"/>
</g>
<path d="M129.881 17.5474L147.097 65.707V73.1881L92.6594 110.126L90.333 35.7826L129.881 17.5474Z" fill="url(#paint11_linear_5_2392)"/>
<g style="mix-blend-mode:multiply" opacity="0.1">
<path d="M147.262 152.753C154.827 156.321 157.991 154.232 162.842 151.436C167.692 148.639 169.7 146.084 164.047 143.32C158.505 140.62 153.285 142.677 148.451 145.473C143.6 148.27 143.166 150.809 147.278 152.753H147.262Z" fill="black"/>
</g>
<path d="M165.733 99.3341C165.637 101.214 165.83 107.948 164.192 112.255C162.537 116.546 164.4 119.278 164.786 121.592C165.38 125.256 165.043 128.711 164.481 133.581C163.918 138.434 163.967 140.748 164.529 141.793C165.091 142.838 164.722 144.3 161.606 145.136C158.49 145.971 154.844 146.019 155.181 143.159C155.293 142.211 157.976 144.38 158.859 142.966C159.759 141.552 160.786 139.286 160.272 134.143C159.759 129.001 159.148 125.835 158.859 123.006C158.57 120.178 158.008 116.69 157.446 112.914C156.883 109.137 156.273 97.9038 156.273 97.9038L165.75 99.3341H165.733Z" fill="#E0CBAE"/>
<path d="M162.328 141.038C162.328 139.495 161.942 135.541 161.942 132.922C161.942 130.302 160.079 121.239 160.931 119.39C162.151 116.707 160.465 113.042 160.465 111.66C160.465 110.391 160.545 100.668 160.545 98.5789L165.733 99.3663C165.637 101.247 165.829 107.98 164.191 112.287C162.537 116.578 164.4 119.31 164.785 121.624C165.38 125.288 165.042 128.744 164.48 133.613C163.918 138.466 163.966 140.781 164.528 141.825C165.091 142.87 164.721 144.332 161.605 145.168C160.834 145.377 160.015 145.537 159.244 145.618L159.935 145.232C159.935 145.232 162.328 142.597 162.328 141.054V141.038Z" fill="#EAD6BB"/>
<path d="M152.865 71.0827L153.243 70.894C153.581 70.7246 153.795 70.3783 153.795 69.9995L153.795 66.6991C153.795 66.0772 153.234 65.6061 152.621 65.7143L146.037 66.8775C145.942 66.8943 145.85 66.9247 145.764 66.9679L145.559 67.0699C145.199 67.2501 144.982 67.6291 145.009 68.0312L145.336 72.9153C145.383 73.6064 146.1 74.0422 146.735 73.7646L152.865 71.0827Z" fill="url(#paint12_linear_5_2392)"/>
<path d="M153.549 71.0847L153.926 70.896C154.265 70.7266 154.479 70.3803 154.479 70.0015L154.479 66.7715C154.479 66.1267 153.878 65.6504 153.25 65.7981L146.58 67.3673L146.464 67.3916C145.972 67.4939 145.632 67.9451 145.67 68.4459L146.009 72.9309C146.061 73.6179 146.775 74.0479 147.407 73.7717L153.549 71.0847Z" fill="url(#paint13_linear_5_2392)"/>
<path d="M153.163 70.8711L148.079 72.905C147.454 73.1547 146.767 72.7296 146.711 72.0596L146.429 68.6791C146.388 68.1907 146.708 67.7448 147.183 67.6259L152.55 66.2843C153.181 66.1265 153.792 66.6038 153.792 67.2544V69.9426C153.792 70.3515 153.543 70.7193 153.163 70.8711Z" fill="#D9D9D9"/>
<path d="M164.833 141.729C164.833 141.729 165.973 143.014 165.845 144.059C165.7 145.104 164.865 146.405 164.833 147.386C164.801 148.366 164.865 149.105 164.833 149.153C164.801 149.186 164.126 149.234 164.126 149.234L163.837 149.009V145.473C163.837 145.473 161.974 145.264 160.994 146.004C159.998 146.727 157.188 147.289 155.999 146.775C154.811 146.261 153.975 142.693 154.104 142.147C154.232 141.6 157.107 143.127 157.573 143.32C158.039 143.529 158.2 143.545 158.2 143.545C158.2 143.545 156.722 143.127 156.352 143.673C155.999 144.22 156.352 145.393 157.509 145.586C158.681 145.795 160.159 144.139 161.396 143.705C162.633 143.272 164.512 142.548 164.849 141.745L164.833 141.729Z" fill="#88302C"/>
<path d="M159.693 105.779C159.019 107.595 158.135 111.211 157.332 113.75C156.529 116.305 155.549 119.005 156.031 120.837C156.497 122.685 157.718 125.803 157.718 129.997C157.718 134.192 157.252 143.063 157.862 144.38C158.473 145.698 159.035 146.952 158.713 147.755C158.376 148.559 155.501 149.25 153.188 150.777C150.731 152.4 147.759 149.073 148.948 148.366C150.137 147.659 150.313 148.511 151.213 147.948C152.112 147.386 154.136 145.634 154.04 143.513C153.943 141.391 151.582 127.474 150.924 124.405C150.265 121.335 149.928 119.358 149.703 115.823C149.462 112.287 149.333 107.562 149.703 104.22C150.072 100.877 161.589 100.636 159.693 105.779Z" fill="#E0CBAE"/>
<path d="M152.915 150.937L155.132 148.157C155.132 148.157 154.666 146.614 154.907 145.762C155.132 144.911 155.678 144.364 155.678 141.745C155.678 139.125 153.509 127.442 153.044 125.577C152.578 123.713 153.654 121.945 153.509 120.467C153.349 119.005 151.887 114.746 152.273 111.805C152.498 110.037 153.269 105.328 153.847 101.857C153.445 101.889 153.06 101.954 152.69 102.034C156.079 101.279 160.962 102.291 159.693 105.778C159.019 107.594 158.135 111.21 157.332 113.749C156.529 116.289 155.549 119.005 156.031 120.837C156.497 122.685 157.718 125.802 157.718 129.997C157.718 134.191 157.252 143.062 157.862 144.396C158.473 145.714 159.035 146.968 158.713 147.771C158.376 148.575 155.501 149.266 153.188 150.792C152.514 151.242 151.791 151.307 151.148 151.162C151.727 151.291 152.337 151.258 152.947 150.937H152.915Z" fill="#EAD6BB"/>
<path d="M162.536 90.3667L150.458 90.8649C150.458 90.8649 149.703 99.5431 149.414 102.805C149.124 106.068 149.108 116.514 149.108 116.514C149.108 116.514 152.53 118.282 155.453 117.719C158.376 117.157 165.09 115.598 165.09 115.598C165.09 115.598 165.331 112.384 165.507 109.427C165.684 106.373 166.31 99.8163 165.315 96.9396C164.319 94.063 162.536 90.3828 162.536 90.3828V90.3667Z" fill="url(#paint14_linear_5_2392)"/>
<path d="M162.536 90.3667L150.458 90.8649C150.458 90.8649 149.703 99.5431 149.414 102.805C149.124 106.068 149.108 116.514 149.108 116.514C149.108 116.514 152.53 118.282 155.453 117.719C158.376 117.157 165.09 115.598 165.09 115.598C165.09 115.598 165.331 112.384 165.507 109.427C165.684 106.373 166.31 99.8163 165.315 96.9396C164.319 94.063 162.536 90.3828 162.536 90.3828V90.3667Z" fill="url(#paint15_linear_5_2392)"/>
<path d="M158.328 145.361C158.328 145.361 159.661 146.598 159.372 148.012C159.067 149.427 158.264 149.523 158.264 150.552V153.187L157.654 153.428L156.979 153.171V149.121C156.979 149.121 155.357 149.555 153.815 150.712C152.273 151.853 150.362 151.966 149.254 151.403C148.145 150.841 146.089 147.98 146.635 147.402C147.182 146.823 151.133 147.996 151.133 147.996C151.133 147.996 149.639 148.157 149.398 148.912C149.157 149.668 150.474 150.632 151.486 150.182C152.514 149.732 153.654 148.302 155.662 147.482C157.67 146.663 158.2 145.65 158.312 145.345L158.328 145.361Z" fill="#88302C"/>
<g style="mix-blend-mode:multiply">
<path d="M149.414 102.805C149.671 99.8483 150.313 92.4237 150.426 91.0737L152.964 91.5237C152.964 91.5237 153.188 100.877 153.269 105.136C153.333 108.494 152.915 115.051 152.723 117.687C150.731 117.349 149.093 116.498 149.093 116.498C149.093 116.498 149.109 106.052 149.398 102.789L149.414 102.805Z" fill="#C2C1BF"/>
</g>
<path d="M164.753 70.166C165.7 72.2713 167.098 79.5835 166.52 81.7691C166.15 83.1833 162.793 91.4436 162.793 91.4436L160.015 87.5224L164.753 70.166Z" fill="url(#paint16_linear_5_2392)"/>
<path d="M154.971 72.1746C153.75 73.2192 149.831 76.144 149.125 78.3136C148.418 80.4831 149.06 81.5117 149.462 83.1669C149.896 85.0151 150.635 86.2364 150.313 89.7238C149.976 93.2111 149.189 102.773 149.044 103.898C148.9 105.023 150.121 105.489 151.245 105.666C152.369 105.859 158.553 106.084 161.99 104.766C165.427 103.448 166.262 102.918 166.262 102.114C166.262 101.311 166.198 97.5663 164.56 94.1914C162.89 90.7523 162.279 87.4418 162.424 85.6097C162.568 83.7616 165.54 75.9833 165.395 73.0584C165.251 70.1336 163.982 67.5301 161.91 68.2051C159.838 68.864 154.971 72.1746 154.971 72.1746Z" fill="url(#paint17_linear_5_2392)"/>
<path d="M156.321 105.763C155.678 105.216 153.414 103.031 153.285 99.8325C153.125 96.1202 153.831 92.6328 154.682 92.5203C155.534 92.4078 156.224 90.9775 156.224 89.8847C156.224 84.8385 157.734 75.9675 156.497 74.6818C155.935 74.1033 154.49 73.814 152.98 73.814C153.815 73.1069 154.554 72.5123 154.988 72.1587C154.988 72.1587 159.838 68.8482 161.926 68.1893C163.998 67.5304 165.267 70.1178 165.412 73.0426C165.556 75.9675 162.585 83.7457 162.44 85.5938C162.296 87.442 162.922 90.7526 164.576 94.1756C166.215 97.5505 166.279 101.295 166.279 102.098C166.279 102.902 165.444 103.416 162.007 104.75C159.389 105.763 155.18 105.859 152.819 105.763C153.767 105.795 155.004 105.811 156.321 105.73V105.763Z" fill="url(#paint18_linear_5_2392)"/>
<path d="M161.958 68.7837C161.958 68.7837 161.187 69.6033 159.501 69.8925C157.83 70.1818 156.947 69.9408 156.385 70.3425C155.823 70.7443 155.02 71.9174 155.02 71.9174C155.02 71.9174 156.112 71.0657 157.284 70.9693C158.457 70.8729 160.705 70.8568 161.476 70.3104C162.247 69.764 162.119 69.4104 162.119 69.2658C162.119 69.1212 161.958 68.7676 161.958 68.7676V68.7837Z" fill="url(#paint19_linear_5_2392)"/>
<g style="mix-blend-mode:multiply">
<path d="M161.7 68.3818C161.7 68.3818 163.162 69.6675 162.985 70.8407C162.809 71.9977 161.62 73.1066 159.516 72.9459C157.412 72.7852 156.223 72.5441 155.211 72.9941C154.264 73.412 152.465 74.2958 152.465 74.2958C152.465 74.2958 154.328 71.2746 155.902 71.0174C157.476 70.7603 159.532 70.9531 160.464 70.4871C161.395 70.021 161.989 69.8603 162.102 69.2657C162.214 68.6711 161.7 68.3818 161.7 68.3818Z" fill="#C2C1BF"/>
</g>
<path d="M161.702 68.3818C161.702 68.3818 163.035 69.1211 162.858 70.3103C162.681 71.4674 161.493 72.5763 159.389 72.4156C157.285 72.2549 156.016 72.2066 155.004 72.6566C154.056 73.0745 152.45 74.3119 152.45 74.3119C152.45 74.3119 154.313 71.2906 155.887 71.0335C157.461 70.7764 159.517 70.9692 160.449 70.5032C161.38 70.0371 161.975 69.8764 162.087 69.2818C162.2 68.6872 161.686 68.3979 161.686 68.3979L161.702 68.3818Z" fill="url(#paint20_linear_5_2392)"/>
<path style="mix-blend-mode:color-dodge" d="M154.858 72.4158C155.87 71.9658 157.139 72.014 159.243 72.1747C161.347 72.3354 162.535 71.2426 162.712 70.0695C162.76 69.6999 162.68 69.3784 162.519 69.1052C162.76 69.4266 162.937 69.8284 162.873 70.3105C162.696 71.4676 161.508 72.5765 159.403 72.4158C157.299 72.2551 156.031 72.2069 155.019 72.6568C154.071 73.0747 152.465 74.3121 152.465 74.3121C152.465 74.3121 152.642 74.0229 152.931 73.6211C153.477 73.2193 154.28 72.6729 154.858 72.4318V72.4158Z" fill="url(#paint21_radial_5_2392)"/>
<path d="M141.672 75.6796C141.752 75.1486 141.762 74.6583 141.675 74.225C141.384 72.9055 141.207 70.0662 141.844 69.6916C142.482 69.3171 144.497 69.1944 144.497 69.1944C144.497 69.1944 144.035 66.9031 145.429 66.9028C146.358 67.3674 145.213 67.5877 145.429 68.2966C145.349 69.1445 145.699 70.0344 145.82 70.3357C145.942 70.6371 146.159 71.1983 146.159 71.1983C146.159 71.1983 146.55 70.0557 146.762 69.782C146.966 69.4946 147.486 69.3008 147.646 69.6356C147.791 69.9785 146.867 71.8631 146.818 72.4136C146.777 72.978 145.793 74.413 145.512 74.7273C145.225 75.0636 144.729 75.9326 144.729 75.9326C144.729 75.9326 141.51 76.7994 141.67 75.6438L141.672 75.6796Z" fill="#EAD6BB"/>
<path d="M144.511 75.2706L145.43 74.8541L145.586 74.0082L141.248 73.8718L141.194 74.8542L144.511 75.2706Z" fill="url(#paint22_linear_5_2392)"/>
<path d="M154.248 57.1485C152.835 58.2734 151.871 62.3233 152.771 65.0714C153.67 67.8195 154.859 68.0605 155.341 68.3016C155.822 68.5426 157.284 70.9532 156.722 72.046C156.16 73.1389 160.561 72.5282 161.653 71.6121C162.745 70.7122 162.793 70.3265 162.793 70.3265C162.793 70.3265 161.653 68.5748 162.183 67.2891C162.697 66.0034 164.929 61.3108 162.183 58.0806C159.436 54.8504 155.63 56.0396 154.265 57.1324L154.248 57.1485Z" fill="#E0CBAE"/>
<path d="M153.156 74.4248C154.633 73.6855 156.737 74.1998 157.283 76.1283C157.846 78.1692 156.898 80.4995 154.296 81.6405C151.694 82.7816 145.558 87.201 144.659 87.7635C143.76 88.3259 142.282 89.3705 140.435 87.7635C138.588 86.1564 140.782 74.3367 140.782 74.3367L145.429 74.8013C145.429 74.8013 145.626 80.8412 144.964 83.6288C144.663 84.8928 142.442 83.3119 142.442 83.3119C142.442 83.3119 151.453 75.2926 153.172 74.4408L153.156 74.4248Z" fill="url(#paint23_linear_5_2392)"/>
<g style="mix-blend-mode:multiply" opacity="0.5">
<path d="M154.376 80.7564C151.774 81.8974 145.639 86.3169 144.74 86.8793C143.84 87.4418 142.362 88.4864 140.515 86.8793C139.854 86.3037 140.783 78.0533 141.248 74.3364H140.782C140.782 74.3364 138.604 86.1401 140.451 87.7632C142.298 89.3703 143.776 88.3257 144.675 87.7632C145.575 87.2008 151.694 82.7813 154.312 81.6403C156.481 80.6921 157.492 78.9243 157.444 77.1887C157.171 78.619 156.191 79.9689 154.393 80.7564H154.376Z" fill="#C2C1BF"/>
</g>
<path d="M152.289 60.6036C152.289 60.6036 153.622 61.7929 154.521 62.1625C155.421 62.5482 156.175 64.1071 156.416 64.4928C156.657 64.8785 156.689 65.4088 156.609 66.2445C156.159 70.5514 153.268 70.4711 153.702 74.6334C154.36 80.8528 161.01 84.6937 165.363 82.8134C168.623 81.3992 169.876 76.6583 167.29 70.7764C165.957 67.723 165.812 66.6944 164.913 61.4072C164.254 57.502 160.673 54.1272 156.513 54.9468C150.907 56.0396 152.272 60.6036 152.272 60.6036H152.289Z" fill="#3D281F"/>
<g style="mix-blend-mode:multiply">
<path d="M167.157 70.8939C166.194 68.6922 165.84 67.5191 165.391 65.0442C163.913 69.4797 159.721 72.6778 154.79 72.6778C154.421 72.6778 154.051 72.6617 153.682 72.6296C153.537 73.2081 153.473 73.8991 153.569 74.767C154.244 80.9863 160.877 84.8272 165.23 82.947C168.49 81.5327 169.743 76.7919 167.157 70.91V70.8939Z" fill="#C2C1BF"/>
</g>
<defs>
<filter id="filter0_d_5_2392" x="0.5" y="61.3274" width="254" height="196.97" filterUnits="userSpaceOnUse" color-interpolation-filters="sRGB">
<feFlood flood-opacity="0" result="BackgroundImageFix"/>
<feColorMatrix in="SourceAlpha" type="matrix" values="0 0 0 0 0 0 0 0 0 0 0 0 0 0 0 0 0 0 127 0" result="hardAlpha"/>
<feOffset dy="20"/>
<feGaussianBlur stdDeviation="7.75"/>
<feComposite in2="hardAlpha" operator="out"/>
<feColorMatrix type="matrix" values="0 0 0 0 0 0 0 0 0 0 0 0 0 0 0 0 0 0 0.25 0"/>
<feBlend mode="normal" in2="BackgroundImageFix" result="effect1_dropShadow_5_2392"/>
<feBlend mode="normal" in="SourceGraphic" in2="effect1_dropShadow_5_2392" result="shape"/>
</filter>
<linearGradient id="paint0_linear_5_2392" x1="16.1777" y1="155.144" x2="239" y2="155.144" gradientUnits="userSpaceOnUse">
<stop offset="0.04" stop-color="#174600"/>
<stop offset="0.15" stop-color="#184800"/>
<stop offset="0.21" stop-color="#1D5103"/>
<stop offset="0.27" stop-color="#256007"/>
<stop offset="0.33" stop-color="#31750C"/>
<stop offset="0.34" stop-color="#367E0F"/>
<stop offset="0.38" stop-color="#368811"/>
<stop offset="0.45" stop-color="#36A316"/>
<stop offset="0.49" stop-color="#36B81B"/>
<stop offset="0.53" stop-color="#36A416"/>
<stop offset="0.59" stop-color="#367E0F"/>
<stop offset="0.64" stop-color="#2F710B"/>
<stop offset="0.77" stop-color="#215905"/>
<stop offset="0.9" stop-color="#194B01"/>
<stop offset="1" stop-color="#174600"/>
</linearGradient>
<linearGradient id="paint1_linear_5_2392" x1="210.313" y1="-68.0616" x2="118.543" y2="168.705" gradientUnits="userSpaceOnUse">
<stop stop-color="#174600"/>
<stop offset="1" stop-color="#367E0F"/>
</linearGradient>
<linearGradient id="paint2_linear_5_2392" x1="294.942" y1="141.95" x2="26.6163" y2="141.95" gradientUnits="userSpaceOnUse">
<stop offset="0.04" stop-color="#089C21"/>
<stop offset="0.13" stop-color="#11A430"/>
<stop offset="0.31" stop-color="#28BB58"/>
<stop offset="0.56" stop-color="#4EDF99"/>
<stop offset="0.63" stop-color="#5BEBAE"/>
<stop offset="0.87" stop-color="#42C97D"/>
</linearGradient>
<linearGradient id="paint3_linear_5_2392" x1="16" y1="135.217" x2="238.823" y2="135.217" gradientUnits="userSpaceOnUse">
<stop offset="0.04" stop-color="#174600"/>
<stop offset="0.15" stop-color="#184800"/>
<stop offset="0.21" stop-color="#1D5103"/>
<stop offset="0.27" stop-color="#256007"/>
<stop offset="0.33" stop-color="#31750C"/>
<stop offset="0.34" stop-color="#367E0F"/>
<stop offset="0.38" stop-color="#368811"/>
<stop offset="0.45" stop-color="#36A316"/>
<stop offset="0.49" stop-color="#36B81B"/>
<stop offset="0.53" stop-color="#36A416"/>
<stop offset="0.59" stop-color="#367E0F"/>
<stop offset="0.64" stop-color="#2F710B"/>
<stop offset="0.77" stop-color="#215905"/>
<stop offset="0.9" stop-color="#194B01"/>
<stop offset="1" stop-color="#174600"/>
</linearGradient>
<linearGradient id="paint4_linear_5_2392" x1="210.137" y1="-87.9896" x2="118.367" y2="148.793" gradientUnits="userSpaceOnUse">
<stop stop-color="#174600"/>
<stop offset="1" stop-color="#367E0F"/>
</linearGradient>
<radialGradient id="paint5_radial_5_2392" cx="0" cy="0" r="1" gradientUnits="userSpaceOnUse" gradientTransform="translate(127.403 157.893) scale(82.1551 82.2017)">
<stop stop-color="white"/>
<stop offset="1"/>
</radialGradient>
<linearGradient id="paint6_linear_5_2392" x1="-5.12684" y1="44.816" x2="119.123" y2="74.1304" gradientUnits="userSpaceOnUse">
<stop offset="0.1" stop-color="#3E3E3E"/>
<stop offset="0.715" stop-color="#646464"/>
<stop offset="1" stop-color="#747474"/>
</linearGradient>
<linearGradient id="paint7_linear_5_2392" x1="86.5393" y1="-9.09014" x2="122.846" y2="37.1674" gradientUnits="userSpaceOnUse">
<stop offset="0.1" stop-color="#212121"/>
<stop offset="1" stop-color="#5C5C5C"/>
</linearGradient>
<linearGradient id="paint8_linear_5_2392" x1="80.7268" y1="91.8367" x2="92.8782" y2="91.2823" gradientUnits="userSpaceOnUse">
<stop offset="0.04" stop-color="#A9A9A9"/>
<stop offset="0.58" stop-color="#FDFDFD"/>
<stop offset="1" stop-color="#9B9B9B"/>
</linearGradient>
<linearGradient id="paint9_linear_5_2392" x1="83.566" y1="91.831" x2="85.3893" y2="91.8167" gradientUnits="userSpaceOnUse">
<stop offset="0.04" stop-color="#A9A9A9"/>
<stop offset="0.58" stop-color="#FDFDFD"/>
<stop offset="1" stop-color="#9B9B9B"/>
</linearGradient>
<linearGradient id="paint10_linear_5_2392" x1="76.3942" y1="85.759" x2="103.638" y2="79.6541" gradientUnits="userSpaceOnUse">
<stop offset="0.04" stop-color="#A9A9A9"/>
<stop offset="0.58" stop-color="#FDFDFD"/>
<stop offset="1" stop-color="#9B9B9B"/>
</linearGradient>
<linearGradient id="paint11_linear_5_2392" x1="65.2082" y1="43.2637" x2="150.434" y2="71.0696" gradientUnits="userSpaceOnUse">
<stop stop-color="#D9D9D9" stop-opacity="0"/>
<stop offset="1" stop-color="white" stop-opacity="0.24"/>
</linearGradient>
<linearGradient id="paint12_linear_5_2392" x1="145.622" y1="71.5536" x2="146.614" y2="67.6879" gradientUnits="userSpaceOnUse">
<stop stop-color="#C1C6BF"/>
<stop offset="0.74" stop-color="#EEEFED"/>
<stop offset="1" stop-color="white"/>
</linearGradient>
<linearGradient id="paint13_linear_5_2392" x1="145.445" y1="71.3061" x2="145.723" y2="71.2926" gradientUnits="userSpaceOnUse">
<stop stop-color="#C1C6BF"/>
<stop offset="0.74" stop-color="#EEEFED"/>
<stop offset="1" stop-color="#7B7B7B"/>
</linearGradient>
<linearGradient id="paint14_linear_5_2392" x1="166.969" y1="104.091" x2="139.134" y2="104.091" gradientUnits="userSpaceOnUse">
<stop offset="0.04" stop-color="#089C21"/>
<stop offset="0.19" stop-color="#11A430"/>
<stop offset="0.48" stop-color="#28BB58"/>
<stop offset="0.88" stop-color="#4EDF99"/>
<stop offset="1" stop-color="#5BEBAE"/>
</linearGradient>
<linearGradient id="paint15_linear_5_2392" x1="149.135" y1="104.097" x2="165.881" y2="104.097" gradientUnits="userSpaceOnUse">
<stop offset="0.04" stop-color="#AD3511"/>
<stop offset="0.34" stop-color="#B32B13"/>
<stop offset="0.92" stop-color="#FF2222"/>
<stop offset="1" stop-color="#FF2222"/>
</linearGradient>
<linearGradient id="paint16_linear_5_2392" x1="160.025" y1="80.8043" x2="166.662" y2="80.8043" gradientUnits="userSpaceOnUse">
<stop offset="0.04" stop-color="#AD3511"/>
<stop offset="0.34" stop-color="#B32B13"/>
<stop offset="0.92" stop-color="#FF2222"/>
<stop offset="1" stop-color="#FF2222"/>
</linearGradient>
<linearGradient id="paint17_linear_5_2392" x1="148.837" y1="86.9544" x2="166.28" y2="86.9544" gradientUnits="userSpaceOnUse">
<stop offset="0.04" stop-color="#AD3511"/>
<stop offset="0.34" stop-color="#B32B13"/>
<stop offset="0.92" stop-color="#FF2222"/>
<stop offset="1" stop-color="#FF2222"/>
</linearGradient>
<linearGradient id="paint18_linear_5_2392" x1="152.841" y1="86.9377" x2="166.292" y2="86.9377" gradientUnits="userSpaceOnUse">
<stop offset="0.04" stop-color="#AD3511"/>
<stop offset="0.34" stop-color="#B32B13"/>
<stop offset="0.92" stop-color="#FF2222"/>
<stop offset="1" stop-color="#FF2222"/>
</linearGradient>
<linearGradient id="paint19_linear_5_2392" x1="161.942" y1="73.171" x2="157.909" y2="69.8787" gradientUnits="userSpaceOnUse">
<stop offset="0.04" stop-color="#A4A390"/>
<stop offset="0.58" stop-color="#C1C6BF"/>
<stop offset="1" stop-color="#DADED7"/>
</linearGradient>
<linearGradient id="paint20_linear_5_2392" x1="162.89" y1="71.3388" x2="152.466" y2="71.3388" gradientUnits="userSpaceOnUse">
<stop offset="0.04" stop-color="#089C21"/>
<stop offset="0.19" stop-color="#11A430"/>
<stop offset="0.48" stop-color="#28BB58"/>
<stop offset="0.88" stop-color="#4EDF99"/>
<stop offset="1" stop-color="#5BEBAE"/>
</linearGradient>
<radialGradient id="paint21_radial_5_2392" cx="0" cy="0" r="1" gradientUnits="userSpaceOnUse" gradientTransform="translate(159.307 73.9425) rotate(180) scale(4.11177 4.11411)">
<stop stop-color="white"/>
<stop offset="1"/>
</radialGradient>
<linearGradient id="paint22_linear_5_2392" x1="141.87" y1="78.3766" x2="142.862" y2="74.5109" gradientUnits="userSpaceOnUse">
<stop stop-color="#C1C6BF"/>
<stop offset="0.74" stop-color="#EEEFED"/>
<stop offset="1" stop-color="white"/>
</linearGradient>
<linearGradient id="paint23_linear_5_2392" x1="139.724" y1="81.3604" x2="157.457" y2="81.3604" gradientUnits="userSpaceOnUse">
<stop offset="0.04" stop-color="#AD3511"/>
<stop offset="0.34" stop-color="#B32B13"/>
<stop offset="0.92" stop-color="#FF2222"/>
<stop offset="1" stop-color="#FF2222"/>
</linearGradient>
</defs>
</svg>
