<svg width="240" height="230" viewBox="0 0 240 230" fill="none" xmlns="http://www.w3.org/2000/svg">
<g opacity="0.2">
<path opacity="0.09" d="M108.604 112.293L29.247 158.228C25.0639 160.632 22.281 164.749 22.16 169.003C22.039 173.811 24.822 178.394 30.1458 181.456L102.606 223.31C106.737 225.696 111.905 226.994 117.125 226.976C120.306 226.976 123.279 226.457 125.889 225.524C126.978 225.126 128.119 224.59 129.069 224.053L208.305 178.17C212.488 175.766 215.254 171.649 215.375 167.412C215.496 162.604 212.713 158.021 207.389 154.96L135.171 113.244C133.615 112.345 131.662 111.48 129.865 110.909C126.961 109.975 123.815 109.456 120.617 109.439C116.036 109.422 111.871 110.39 108.604 112.293Z" fill="black"/>
<path opacity="0.18" d="M109.26 115.215L33.9998 158.799C30.2489 160.978 27.2759 165.008 27.0512 168.813C26.7919 173.31 29.1946 177.703 34.311 180.66L103.521 220.646C107.428 222.912 112.337 224.122 117.28 224.105C120.288 224.105 123.105 223.586 125.577 222.687C126.545 222.324 127.721 221.77 128.568 221.286L203.62 177.841C207.371 175.662 210.31 171.649 210.534 167.844C210.794 163.348 208.391 158.955 203.275 155.997L134.531 116.288C133.131 115.475 131.109 114.558 129.484 114.022C126.735 113.123 123.745 112.604 120.703 112.569C116.364 112.517 112.371 113.434 109.26 115.233V115.215Z" fill="black"/>
<path opacity="0.27" d="M109.935 118.121L38.7538 159.335C35.4177 161.272 32.2545 165.233 31.9433 168.605C31.5631 172.808 33.5855 176.993 38.4772 179.83L104.438 217.931C108.137 220.058 112.787 221.217 117.436 221.182C120.288 221.165 122.933 220.663 125.249 219.799C126.114 219.47 127.306 218.899 128.067 218.467L198.919 177.443C202.255 175.506 205.367 171.58 205.678 168.19C206.058 163.987 204.036 159.802 199.144 156.966L133.892 119.262C132.647 118.536 130.556 117.567 129.121 117.083C126.511 116.218 123.676 115.682 120.807 115.63C116.693 115.561 112.89 116.409 109.935 118.104V118.121Z" fill="black"/>
<path opacity="0.36" d="M110.591 121.044L43.5068 159.889C40.5855 161.583 37.2322 165.475 36.852 168.415C36.3334 172.358 37.9928 176.302 42.6771 179.017L105.405 215.25C108.88 217.256 113.27 218.329 117.626 218.277C120.305 218.242 122.794 217.758 124.955 216.945C125.716 216.668 126.926 216.046 127.6 215.665L194.252 177.08C197.173 175.385 200.474 171.545 200.855 168.588C201.373 164.645 199.714 160.684 195.03 157.986L133.252 122.289C132.163 121.666 130.002 120.629 128.758 120.196C126.303 119.366 123.624 118.813 120.91 118.744C117.021 118.64 113.391 119.435 110.608 121.044H110.591Z" fill="black"/>
<path opacity="0.45" d="M111.248 123.95L48.26 160.425C45.7536 161.878 42.1756 165.7 41.7435 168.208C41.1039 171.891 42.3658 175.61 46.8426 178.187L106.321 212.552C109.571 214.437 113.702 215.423 117.781 215.371C120.288 215.337 122.621 214.852 124.644 214.074C125.283 213.832 126.545 213.192 127.098 212.863L189.55 176.717C192.056 175.264 195.548 171.494 195.997 168.986C196.637 165.302 195.375 161.584 190.898 159.007L132.595 125.333C131.661 124.797 129.432 123.707 128.36 123.327C126.061 122.531 123.537 121.961 120.979 121.874C117.315 121.753 113.875 122.479 111.265 123.984L111.248 123.95Z" fill="black"/>
<path opacity="0.55" d="M111.905 126.872L52.9963 160.978C50.9048 162.189 46.6181 165.89 46.6181 168C45.097 171.2 46.7391 174.901 50.9912 177.374L107.238 209.871C110.28 211.635 114.152 212.535 117.937 212.466C120.288 212.414 122.449 211.929 124.315 211.203C124.851 210.996 126.13 210.338 126.597 210.062L184.848 176.336C186.94 175.126 191.14 171.476 191.14 169.366C192.661 166.167 191.019 162.466 186.767 159.992L131.938 128.325C131.16 127.875 128.879 126.717 127.98 126.405C125.837 125.627 123.468 125.056 121.066 124.953C117.626 124.814 114.376 125.454 111.922 126.872H111.905Z" fill="black"/>
<path opacity="0.64" d="M112.561 129.778L57.7498 161.514C56.0731 162.483 51.5098 166.098 51.5098 167.792C49.7294 170.681 51.1122 174.192 55.1742 176.544L108.171 207.156C110.988 208.782 114.601 209.612 118.093 209.543C120.271 209.491 122.276 209.007 124.004 208.315C124.436 208.142 125.733 207.467 126.113 207.243L180.164 175.956C181.841 174.987 186.3 171.442 186.3 169.747C188.081 166.859 186.698 163.348 182.636 160.996L131.299 131.334C130.676 130.971 128.326 129.761 127.617 129.501C125.612 128.758 123.417 128.169 121.169 128.048C117.954 127.875 114.878 128.463 112.596 129.795L112.561 129.778Z" fill="black"/>
<path opacity="0.73" d="M113.218 132.701L62.4861 162.068C61.2416 162.794 56.3844 166.322 56.3844 167.602C54.3621 170.162 55.4856 173.517 59.323 175.731L109.087 204.475C111.697 205.98 115.033 206.741 118.248 206.637C120.254 206.568 122.103 206.101 123.676 205.461C123.987 205.323 125.318 204.614 125.595 204.458L175.445 175.593C176.69 174.866 181.409 171.407 181.409 170.127C183.431 167.568 182.308 164.212 178.47 161.999L130.607 134.344C130.141 134.067 127.721 132.787 127.185 132.597C125.335 131.888 123.296 131.283 121.187 131.144C118.197 130.954 115.31 131.473 113.184 132.701H113.218Z" fill="black"/>
<path opacity="0.82" d="M113.876 135.606L67.2399 162.604C66.4102 163.088 61.2765 166.547 61.2765 167.395C58.9948 169.643 59.8591 172.808 63.489 174.901L110.004 201.777C112.389 203.161 115.483 203.835 118.404 203.732C120.254 203.662 121.931 203.195 123.365 202.59C123.573 202.504 124.921 201.76 125.111 201.656L170.761 175.229C171.591 174.745 176.569 171.373 176.569 170.525C178.851 168.277 177.987 165.112 174.357 163.019L129.968 137.37C129.657 137.198 127.168 135.831 126.822 135.693C125.111 135.018 123.244 134.396 121.291 134.24C118.525 134.015 115.829 134.482 113.876 135.606Z" fill="black"/>
<path opacity="0.91" d="M114.532 138.529L71.9926 163.157C71.5778 163.4 66.1675 166.772 66.1675 167.187C63.6266 169.107 64.2488 172.099 67.6713 174.088L110.954 199.097C113.132 200.359 115.949 200.947 118.576 200.826C120.253 200.757 121.774 200.29 123.053 199.719C123.157 199.667 124.523 198.906 124.626 198.854L166.076 174.866C166.491 174.624 171.729 171.355 171.729 170.923C174.27 169.003 173.647 166.011 170.225 164.022L129.311 140.397C129.155 140.311 126.614 138.875 126.441 138.806C124.886 138.149 123.174 137.526 121.377 137.353C118.853 137.111 116.329 137.491 114.532 138.529Z" fill="black"/>
<path d="M122.743 196.848L166.872 171.286C169.655 169.678 169.309 166.859 166.094 165.008L126.061 141.884C122.846 140.034 117.972 139.826 115.189 141.435L71.0597 166.997C68.2768 168.605 68.6225 171.424 71.8376 173.275L111.87 196.399C115.085 198.249 119.96 198.457 122.743 196.848Z" fill="black"/>
</g>
<path d="M239.989 90.3798H237.604C236.394 88.8233 234.717 87.3878 232.556 86.1425L139.596 32.4413C128.586 26.0768 109.382 26.8896 96.6769 34.2227L10.6999 83.8942C7.32928 85.8485 4.77104 88.0623 3.00794 90.3798H0.19043V105.963H0.259586C0.605291 109.647 3.02523 113.14 7.60583 115.786L100.566 169.487C111.559 175.835 130.781 175.039 143.485 167.706L229.462 118.035C235.495 114.558 238.935 110.217 239.747 105.945H239.972V90.3625L239.989 90.3798Z" fill="url(#paint0_linear_51_1071)"/>
<path d="M100.583 155.669L7.62266 101.967C-3.37078 95.6202 -2.00524 84.5167 10.6994 77.1663L96.6764 27.4949C109.381 20.1618 128.602 19.3662 139.596 25.7135L232.556 79.4147C243.567 85.762 242.184 96.8654 229.479 104.216L143.502 153.887C130.798 161.22 111.576 162.016 100.583 155.669Z" fill="url(#paint1_linear_51_1071)"/>
<path d="M236.998 77.5641H234.665C233.472 76.0594 231.847 74.6412 229.738 73.4306L138.956 20.9919C128.205 14.783 109.45 15.5613 97.0394 22.7387L13.0848 71.2341C9.78335 73.1365 7.29423 75.2985 5.58299 77.5814H2.81738V90.5527H2.88649C3.23219 94.1501 5.58303 97.5572 10.0599 100.151L100.842 152.59C111.594 158.799 130.348 158.021 142.759 150.843L226.714 102.348C232.608 98.9408 235.961 94.7208 236.756 90.5527H236.964V77.5814L236.998 77.5641Z" fill="url(#paint2_linear_51_1071)"/>
<path d="M239.799 68.9512H237.413C236.203 67.3946 234.527 65.9591 232.366 64.7139L139.406 11.0127C128.412 4.66539 109.191 5.46096 96.4864 12.7941L10.5094 62.4655C7.1388 64.4199 4.58061 66.6336 2.81751 68.9512H0V84.534H0.0691559C0.414861 88.2179 2.8348 91.7115 7.4154 94.3576L100.376 148.059C111.386 154.406 130.59 153.611 143.295 146.277L229.272 96.606C235.305 93.1297 238.744 88.7886 239.557 84.5167H239.781V68.9339L239.799 68.9512Z" fill="url(#paint3_linear_51_1071)"/>
<path d="M100.392 134.24L7.43223 80.5389C-3.56121 74.1916 -2.19567 63.0881 10.509 55.7377L96.486 6.06629C109.191 -1.26682 128.412 -2.06239 139.405 4.2849L232.366 57.9861C243.376 64.3334 241.994 75.4368 229.289 82.7872L143.312 132.459C130.607 139.792 111.386 140.587 100.392 134.24Z" fill="url(#paint4_linear_51_1071)"/>
<path style="mix-blend-mode:color-dodge" d="M229.289 80.8848L143.312 130.556C130.607 137.889 111.386 138.685 100.393 132.338L7.43253 78.6364C3.02479 76.094 0.622133 72.7734 0.138145 69.2452C-0.535981 73.8111 1.8321 78.2905 7.43253 81.5247L100.393 135.226C111.403 141.573 130.607 140.778 143.312 133.444L229.289 83.773C236.895 79.3801 240.404 73.6381 239.66 68.3804C239.003 72.7907 235.512 77.3047 229.289 80.9021V80.8848Z" fill="url(#paint5_radial_51_1071)"/>
<defs>
<linearGradient id="paint0_linear_51_1071" x1="0.19043" y1="100.964" x2="239.989" y2="100.964" gradientUnits="userSpaceOnUse">
<stop offset="0.04" stop-color="#174600"/>
<stop offset="0.15" stop-color="#184800"/>
<stop offset="0.21" stop-color="#1D5103"/>
<stop offset="0.27" stop-color="#256007"/>
<stop offset="0.33" stop-color="#31750C"/>
<stop offset="0.34" stop-color="#367E0F"/>
<stop offset="0.38" stop-color="#368811"/>
<stop offset="0.45" stop-color="#36A316"/>
<stop offset="0.49" stop-color="#36B81B"/>
<stop offset="0.53" stop-color="#36A416"/>
<stop offset="0.59" stop-color="#367E0F"/>
<stop offset="0.64" stop-color="#2F710B"/>
<stop offset="0.77" stop-color="#215905"/>
<stop offset="0.9" stop-color="#194B01"/>
<stop offset="1" stop-color="#174600"/>
</linearGradient>
<linearGradient id="paint1_linear_51_1071" x1="209.117" y1="-139.247" x2="110.356" y2="115.576" gradientUnits="userSpaceOnUse">
<stop stop-color="#174600"/>
<stop offset="1" stop-color="#367E0F"/>
</linearGradient>
<linearGradient id="paint2_linear_51_1071" x1="300.193" y1="86.7824" x2="11.4427" y2="86.7824" gradientUnits="userSpaceOnUse">
<stop offset="0.04" stop-color="#62C421"/>
<stop offset="0.21" stop-color="#6DCA30"/>
<stop offset="0.54" stop-color="#8ADA58"/>
<stop offset="0.63" stop-color="#94E065"/>
<stop offset="0.87" stop-color="#62C421"/>
</linearGradient>
<linearGradient id="paint3_linear_51_1071" x1="0" y1="79.5358" x2="239.799" y2="79.5358" gradientUnits="userSpaceOnUse">
<stop offset="0.04" stop-color="#174600"/>
<stop offset="0.15" stop-color="#184800"/>
<stop offset="0.21" stop-color="#1D5103"/>
<stop offset="0.27" stop-color="#256007"/>
<stop offset="0.33" stop-color="#31750C"/>
<stop offset="0.34" stop-color="#367E0F"/>
<stop offset="0.38" stop-color="#368811"/>
<stop offset="0.45" stop-color="#36A316"/>
<stop offset="0.49" stop-color="#36B81B"/>
<stop offset="0.53" stop-color="#36A416"/>
<stop offset="0.59" stop-color="#367E0F"/>
<stop offset="0.64" stop-color="#2F710B"/>
<stop offset="0.77" stop-color="#215905"/>
<stop offset="0.9" stop-color="#194B01"/>
<stop offset="1" stop-color="#174600"/>
</linearGradient>
<linearGradient id="paint4_linear_51_1071" x1="208.927" y1="-160.675" x2="110.165" y2="94.1297" gradientUnits="userSpaceOnUse">
<stop stop-color="#174600"/>
<stop offset="1" stop-color="#367E0F"/>
</linearGradient>
<radialGradient id="paint5_radial_51_1071" cx="0" cy="0" r="1" gradientUnits="userSpaceOnUse" gradientTransform="translate(119.891 103.922) scale(88.4142 88.4643)">
<stop stop-color="white"/>
<stop offset="1"/>
</radialGradient>
</defs>
</svg>
