<svg width="10" height="10" viewBox="0 0 10 10" fill="none" xmlns="http://www.w3.org/2000/svg">
<path d="M3.31038 5.0583C3.31038 4.15685 4.04098 3.42588 4.94247 3.42588C5.84396 3.42588 6.57495 4.15685 6.57495 5.0583C6.57495 5.95975 5.84396 6.69072 4.94247 6.69072C4.04098 6.69072 3.31038 5.95975 3.31038 5.0583ZM2.42789 5.0583C2.42789 6.44705 3.55366 7.57278 4.94247 7.57278C6.33128 7.57278 7.45705 6.44705 7.45705 5.0583C7.45705 3.66955 6.33128 2.54382 4.94247 2.54382C3.55366 2.54382 2.42789 3.66955 2.42789 5.0583ZM6.96895 2.44412C6.9689 2.56034 7.00332 2.67397 7.06786 2.77063C7.13239 2.86729 7.22414 2.94264 7.3315 2.98716C7.43886 3.03168 7.55701 3.04336 7.67101 3.02073C7.78501 2.99811 7.88974 2.94218 7.97196 2.86003C8.05418 2.77789 8.11019 2.6732 8.13291 2.55923C8.15563 2.44525 8.14404 2.32709 8.0996 2.2197C8.05517 2.11231 7.97989 2.0205 7.88327 1.9559C7.78666 1.89129 7.67306 1.85678 7.55683 1.85673H7.5566C7.40081 1.8568 7.25141 1.91871 7.14123 2.02884C7.03105 2.13897 6.96909 2.28834 6.96895 2.44412ZM2.96406 9.04423C2.48661 9.02249 2.22711 8.94296 2.05465 8.87578C1.82602 8.78677 1.66289 8.68077 1.49137 8.50949C1.31986 8.33822 1.21369 8.17525 1.12507 7.94663C1.05785 7.77426 0.97832 7.51469 0.956616 7.03726C0.932875 6.52109 0.928135 6.36604 0.928135 5.05834C0.928135 3.75064 0.933267 3.59602 0.956616 3.07942C0.978359 2.602 1.05847 2.34293 1.12507 2.17005C1.21408 1.94143 1.3201 1.7783 1.49137 1.6068C1.66265 1.43529 1.82563 1.32912 2.05465 1.24051C2.22703 1.17329 2.48661 1.09376 2.96406 1.07206C3.48025 1.04832 3.63531 1.04358 4.94247 1.04358C6.24963 1.04358 6.40485 1.04871 6.92147 1.07206C7.39891 1.0938 7.65799 1.17391 7.83087 1.24051C8.05951 1.32912 8.22264 1.43552 8.39415 1.6068C8.56567 1.77807 8.67144 1.94143 8.76045 2.17005C8.82768 2.34242 8.90721 2.602 8.92891 3.07942C8.95265 3.59602 8.95739 3.75064 8.95739 5.05834C8.95739 6.36604 8.95265 6.52066 8.92891 7.03726C8.90717 7.51469 8.82725 7.77418 8.76045 7.94663C8.67144 8.17525 8.56543 8.33838 8.39415 8.50949C8.22287 8.68061 8.05951 8.78677 7.83087 8.87578C7.6585 8.943 7.39891 9.02253 6.92147 9.04423C6.40528 9.06797 6.25022 9.07271 4.94247 9.07271C3.63472 9.07271 3.48009 9.06797 2.96406 9.04423ZM2.92351 0.191093C2.40219 0.214833 2.04596 0.297492 1.73486 0.418543C1.41267 0.54355 1.13992 0.711258 0.867372 0.983367C0.594821 1.25548 0.427537 1.52864 0.302525 1.85082C0.18147 2.1621 0.0988077 2.51812 0.0750667 3.03942C0.050934 3.56155 0.0454102 3.72847 0.0454102 5.0583C0.0454102 6.38813 0.050934 6.55506 0.0750667 7.07718C0.0988077 7.59852 0.18147 7.9545 0.302525 8.26579C0.427537 8.58776 0.59486 8.86124 0.867372 9.13324C1.13988 9.40523 1.41267 9.5727 1.73486 9.69806C2.04654 9.81911 2.40219 9.90177 2.92351 9.92551C3.44593 9.94925 3.61259 9.95516 4.94247 9.95516C6.27235 9.95516 6.43929 9.94964 6.96143 9.92551C7.48279 9.90177 7.83879 9.81911 8.15008 9.69806C8.47207 9.5727 8.74502 9.40534 9.01757 9.13324C9.29012 8.86113 9.45705 8.58776 9.58241 8.26579C9.70347 7.9545 9.78652 7.59848 9.80987 7.07718C9.83361 6.55467 9.83914 6.38813 9.83914 5.0583C9.83914 3.72847 9.83361 3.56155 9.80987 3.03942C9.78613 2.51808 9.70347 2.1619 9.58241 1.85082C9.45705 1.52884 9.28969 1.25591 9.01757 0.983367C8.74545 0.710827 8.47207 0.54355 8.15047 0.418543C7.83879 0.297492 7.48275 0.214442 6.96182 0.191093C6.43968 0.167353 6.27275 0.161438 4.94286 0.161438C3.61298 0.161438 3.44593 0.166962 2.92351 0.191093Z" fill="#242424"/>
</svg>
