<svg width="12" height="8" viewBox="0 0 12 8" fill="none" xmlns="http://www.w3.org/2000/svg">
<path opacity="0.3" d="M10.702 0.249878H1.41553L1.7595 7.73067H10.3581L10.702 0.249878Z" fill="#242424"/>
<path opacity="0.3" d="M10.702 0.249878H1.41553L5.69324 3.44196H6.48867L10.702 0.249878Z" fill="#242424"/>
<path opacity="0.1" d="M2.18896 7.73091L6.05861 4.24823L9.92826 7.73091H2.18896Z" fill="#242424"/>
<path fill-rule="evenodd" clip-rule="evenodd" d="M2.18921 0.895262C2.18921 0.53928 1.90081 0.250366 1.54431 0.250366C1.18833 0.250366 0.899414 0.53928 0.899414 0.895262C0.899414 2.26863 0.899414 5.47712 0.899414 6.95728C0.899414 7.38498 1.24611 7.73116 1.67329 7.73116C1.94776 7.73116 2.18921 7.73116 2.18921 7.73116C2.18921 7.73116 2.18921 2.71077 2.18921 0.895262Z" fill="#242424"/>
<path fill-rule="evenodd" clip-rule="evenodd" d="M9.92773 0.894774C9.92773 0.538791 10.2166 0.249878 10.5726 0.249878C10.5731 0.249878 10.5737 0.249878 10.5737 0.249878C10.9296 0.249878 11.2175 0.538275 11.2175 0.893742C11.2175 2.2666 11.2175 5.47611 11.2175 6.9568C11.2175 7.38449 10.8713 7.73067 10.4437 7.73067C10.1697 7.73067 9.92773 7.73067 9.92773 7.73067C9.92773 7.73067 9.92773 2.71028 9.92773 0.894774Z" fill="#242424"/>
<path fill-rule="evenodd" clip-rule="evenodd" d="M1.22122 1.45318C1.07315 1.36753 0.965326 1.2272 0.920957 1.06211C0.876589 0.897018 0.899805 0.721606 0.985447 0.573538L0.985963 0.572506C1.07161 0.424438 1.21245 0.316611 1.37754 0.272243C1.54264 0.227874 1.71856 0.25109 1.86663 0.336732L6.05846 2.7569L10.2513 0.336216C10.3994 0.250574 10.5748 0.227358 10.7399 0.271727C10.905 0.316095 11.0453 0.423922 11.1309 0.57199L11.1315 0.572506C11.2171 0.720574 11.2403 0.897018 11.196 1.06211C11.1516 1.2272 11.0432 1.36805 10.8952 1.45369L7.34825 3.50136L6.05846 4.24635L4.76866 3.50136L1.22122 1.45318Z" fill="#242424"/>
</svg>
