<svg width="12" height="8" viewBox="0 0 12 8" fill="none" xmlns="http://www.w3.org/2000/svg">
<path fill-rule="evenodd" clip-rule="evenodd" d="M10.2377 0.482818C10.7038 0.60828 11.0714 0.975705 11.1968 1.44171C11.4299 2.29306 11.4209 4.06745 11.4209 4.06745C11.4209 4.06745 11.4209 5.83288 11.1968 6.68423C11.0714 7.15023 10.7038 7.51766 10.2377 7.64312C9.38619 7.86716 5.98 7.86716 5.98 7.86716C5.98 7.86716 2.58277 7.86716 1.72226 7.63416C1.25615 7.5087 0.888645 7.14127 0.763154 6.67527C0.539062 5.83288 0.539062 4.05849 0.539062 4.05849C0.539062 4.05849 0.539062 2.29306 0.763154 1.44171C0.888645 0.975705 1.26512 0.599318 1.72226 0.473856C2.57381 0.249817 5.98 0.249817 5.98 0.249817C5.98 0.249817 9.38619 0.249817 10.2377 0.482818ZM7.61232 4.05836L4.89184 5.69065V2.42607L7.61232 4.05836Z" fill="#242424"/>
</svg>
