<svg width="40" height="40" viewBox="0 0 40 40" fill="none" xmlns="http://www.w3.org/2000/svg">
<path d="M19.967 33.3334V31.6667H30.642C30.8975 31.6667 31.1325 31.5601 31.347 31.3467C31.5614 31.1334 31.6681 30.8979 31.667 30.6401V9.36008C31.667 9.10342 31.5603 8.86786 31.347 8.65341C31.1337 8.43897 30.8981 8.3323 30.6403 8.33341H19.9687V6.66675H30.642C31.4087 6.66675 32.0487 6.92397 32.562 7.43841C33.0753 7.95286 33.3325 8.59341 33.3337 9.36008V30.6417C33.3337 31.4084 33.0764 32.049 32.562 32.5634C32.0475 33.0779 31.4075 33.3345 30.642 33.3334H19.967ZM18.7837 25.8984L17.612 24.6984L21.4787 20.8334H6.66699V19.1667H21.4787L17.612 15.3001L18.782 14.1034L24.6803 20.0001L18.7837 25.8984Z" fill="#242424"/>
</svg>
