<svg width="643" height="727" viewBox="0 0 643 727" fill="none" xmlns="http://www.w3.org/2000/svg">
<g clip-path="url(#clip0_54_1393)">
<path d="M407.813 62.3339L7.0458 166.855C2.00598 168.17 -1.01386 173.32 0.300796 178.359L141.608 719.967C142.922 725.006 148.074 728.025 153.113 726.711L553.88 622.189C558.92 620.875 561.94 615.724 560.625 610.686L419.319 69.0776C418.004 64.0387 412.853 61.0195 407.813 62.3339Z" fill="#B3B3B3"/>
<path d="M18.7322 163.846L398.675 64.7124C403.197 63.55 407.847 66.2624 409.075 70.7831L548.275 604.165C549.438 608.686 546.725 613.336 542.203 614.563L162.26 713.696C157.739 714.859 153.088 712.146 151.861 707.625L12.6604 174.179C11.4977 169.658 14.2107 165.008 18.7322 163.781V163.846Z" fill="white"/>
<path d="M384.656 68.3762L7.51457 166.736C2.1986 168.122 -0.986708 173.555 0.399979 178.87L135.136 695.294C136.523 700.609 141.957 703.794 147.273 702.407L524.414 604.048C529.73 602.661 532.915 597.229 531.528 591.914L396.792 75.4894C395.405 70.1745 389.972 66.9898 384.656 68.3762Z" fill="#B3B3B3"/>
<g style="mix-blend-mode:multiply">
<path d="M30.5508 160.716L23.488 162.558L163.246 698.23L170.309 696.388L30.5508 160.716Z" fill="#AEAEAE"/>
</g>
<path d="M189.689 261.936L184.107 263.358L189.593 215.73L195.981 214.102L223.551 253.309L217.783 254.779L210.204 244.227L191.289 249.046L189.689 261.936ZM194.135 220.847L191.651 243.736L207.342 239.739L194.135 220.847ZM233.735 250.714L228.463 252.058L217.39 208.648L222.352 207.383L254.213 234.93L245.671 201.442L250.942 200.099L262.015 243.509L257.054 244.773L225.193 217.227L233.735 250.714ZM275.706 240.021L270.435 241.364L259.362 197.954L264.323 196.69L296.185 224.237L287.643 190.749L292.914 189.406L303.987 232.816L299.026 234.08L267.165 206.533L275.706 240.021ZM307.429 212.192L301.086 187.324L306.481 185.949L312.904 211.127C315.197 220.119 319.981 223.854 327.485 221.942C335.113 219.998 337.524 214.431 335.23 205.439L328.808 180.261L334.204 178.886L340.547 203.754C343.711 216.157 339.604 224.138 328.75 226.903C317.897 229.668 310.592 224.595 307.429 212.192ZM353.215 220.274L347.633 221.696L353.119 174.067L359.507 172.439L387.077 211.646L381.309 213.116L373.73 202.564L354.815 207.384L353.215 220.274ZM357.661 179.184L355.177 202.074L370.868 198.076L357.661 179.184ZM317.715 304.65L292.536 311.065L281.463 267.655L286.858 266.281L296.666 304.73L316.45 299.689L317.715 304.65ZM271.272 391.815L260.199 348.405L276.82 344.17C285.503 341.958 292.599 345.698 294.671 353.822C296.222 359.899 293.765 365.544 288.578 368.517L302.839 383.772L296.762 385.321L283.328 370.977L272.412 373.758L276.667 390.44L271.272 391.815ZM277.713 349.226L266.86 351.991L271.147 368.797L281.938 366.048C287.644 364.594 290.449 360.313 289.152 355.228C287.855 350.143 283.357 347.788 277.713 349.226ZM309.186 382.155L298.113 338.745L325.773 331.698L327.039 336.659L304.774 342.332L308.317 356.223L326.861 351.499L328.126 356.46L309.583 361.184L313.316 375.82L336.387 369.942L337.652 374.903L309.186 382.155ZM343.708 373.36L332.635 329.95L349.318 325.699C358.001 323.487 365.035 327.243 367.107 335.367C369.18 343.491 364.818 350.216 356.136 352.428L344.848 355.303L349.103 371.985L343.708 373.36ZM350.149 330.771L339.296 333.536L343.583 350.342L354.374 347.593C360.08 346.139 362.901 341.92 361.588 336.773C360.275 331.626 355.855 329.318 350.149 330.771ZM319.052 431.858C322.311 444.633 316.187 456.1 303.969 459.213C291.751 462.325 280.882 455.188 277.623 442.413C274.365 429.638 280.489 418.171 292.706 415.059C304.924 411.946 315.793 419.083 319.052 431.858ZM283.143 441.007C285.69 450.991 293.649 456.558 302.704 454.252C311.758 451.945 316.079 443.249 313.532 433.264C310.986 423.28 303.027 417.713 293.972 420.02C284.917 422.327 280.596 431.023 283.143 441.007ZM331.408 451.826L320.335 408.416L336.956 404.181C345.638 401.969 352.735 405.709 354.807 413.833C356.357 419.91 353.9 425.555 348.714 428.528L362.975 443.783L356.897 445.332L343.463 430.988L332.548 433.769L336.803 450.451L331.408 451.826ZM337.849 409.237L326.996 412.002L331.283 428.808L342.074 426.059C347.78 424.605 350.585 420.324 349.287 415.239C347.99 410.154 343.493 407.799 337.849 409.237ZM354.296 405.047L353.031 400.086L386.583 391.537L387.848 396.498L373.77 400.085L383.578 438.534L378.182 439.909L368.374 401.46L354.296 405.047Z" fill="#787878"/>
</g>
<g clip-path="url(#clip1_54_1393)">
<path d="M490.24 35.0579L82.0911 105.119C76.9584 106 73.5113 110.876 74.3916 116.011L169.016 667.911C169.897 673.046 174.771 676.494 179.904 675.613L588.053 605.552C593.185 604.671 596.632 599.795 595.752 594.66L501.127 42.7596C500.247 37.625 495.373 34.1768 490.24 35.0579Z" fill="#DBDBDB"/>
<path d="M93.9896 103.114L480.934 36.6507C485.538 35.877 489.94 38.9767 490.777 43.5875L584.004 587.109C584.777 591.714 581.678 596.118 577.069 596.956L190.125 663.419C185.521 664.193 181.119 661.093 180.282 656.482L87.0604 112.896C86.2873 108.291 89.3861 103.887 93.9951 103.049L93.9896 103.114Z" fill="white"/>
<path d="M466.656 39.109L82.5683 105.039C77.1544 105.969 73.5184 111.113 74.447 116.529L164.672 642.767C165.6 648.183 170.742 651.82 176.156 650.89L560.244 584.96C565.657 584.031 569.293 578.887 568.365 573.471L478.14 47.2327C477.211 41.8168 472.07 38.1796 466.656 39.109Z" fill="#DBDBDB"/>
<g style="mix-blend-mode:multiply">
<path d="M106.03 101L98.8369 102.235L192.425 648.086L199.617 646.851L106.03 101Z" fill="#AEAEAE"/>
</g>
<path d="M201.089 224.519L195.406 225.461L204.935 178.469L211.438 177.391L235.562 218.802L229.69 219.776L223.039 208.617L203.782 211.811L201.089 224.519ZM209.023 183.954L204.596 206.551L220.57 203.902L209.023 183.954ZM245.929 217.083L240.563 217.973L233.233 173.776L238.284 172.939L267.678 203.096L262.024 169.002L267.391 168.112L274.72 212.308L269.669 213.146L240.275 182.988L245.929 217.083ZM288.658 209.996L283.292 210.886L275.962 166.69L281.013 165.852L310.407 196.01L304.753 161.915L310.12 161.025L317.449 205.222L312.398 206.059L283.004 175.902L288.658 209.996ZM322.637 184.964L318.438 159.646L323.931 158.735L328.182 184.369C329.701 193.524 334.148 197.652 341.788 196.385C349.554 195.097 352.43 189.754 350.912 180.599L346.661 154.965L352.154 154.054L356.353 179.373C358.447 192 353.674 199.603 342.625 201.436C331.576 203.268 324.731 197.592 322.637 184.964ZM367.565 196.911L361.883 197.853L371.411 150.861L377.914 149.782L402.038 191.194L396.166 192.167L389.515 181.009L370.258 184.203L367.565 196.911ZM375.499 156.346L371.073 178.943L387.046 176.294L375.499 156.346ZM432.673 186.113L407.039 190.364L399.709 146.168L405.202 145.257L411.694 184.402L431.835 181.062L432.673 186.113ZM214.709 296.257L207.38 252.061L224.301 249.255C233.14 247.789 239.891 252.118 241.263 260.39C242.289 266.577 239.36 271.993 233.939 274.514L246.847 290.928L240.659 291.954L228.498 276.519L217.386 278.362L220.202 295.346L214.709 296.257ZM224.76 254.368L213.711 256.201L216.548 273.311L227.534 271.489C233.343 270.526 236.502 266.499 235.644 261.321C234.785 256.144 230.505 253.416 224.76 254.368ZM253.307 289.856L245.978 245.66L274.137 240.99L274.975 246.041L252.308 249.8L254.654 263.943L273.532 260.812L274.37 265.863L255.492 268.994L257.963 283.894L281.45 279.999L282.287 285.05L253.307 289.856ZM288.452 284.028L281.123 239.831L298.107 237.015C306.946 235.549 313.634 239.889 315.006 248.16C316.378 256.431 311.459 262.761 302.62 264.227L291.129 266.133L293.945 283.117L288.452 284.028ZM298.503 242.139L287.453 243.971L290.291 261.082L301.277 259.26C307.086 258.296 310.256 254.332 309.387 249.092C308.518 243.852 304.311 241.176 298.503 242.139ZM362.81 248.99C364.967 261.997 357.888 272.902 345.449 274.965C333.011 277.027 322.791 268.991 320.634 255.985C318.477 242.978 325.556 232.073 337.994 230.01C350.432 227.948 360.653 235.984 362.81 248.99ZM326.253 255.053C327.939 265.218 335.394 271.442 344.612 269.914C353.83 268.385 358.876 260.087 357.191 249.922C355.505 239.757 348.05 233.533 338.832 235.062C329.614 236.59 324.567 244.888 326.253 255.053ZM373.417 269.937L366.087 225.741L383.008 222.935C391.848 221.469 398.599 225.799 399.971 234.07C400.997 240.257 398.067 245.673 392.647 248.194L405.554 264.608L399.366 265.634L387.205 250.199L376.093 252.042L378.91 269.026L373.417 269.937ZM383.467 228.049L372.418 229.881L375.256 246.991L386.241 245.169C392.05 244.206 395.21 240.179 394.351 235.001C393.493 229.824 389.213 227.096 383.467 228.049ZM400.211 225.272L399.373 220.221L433.531 214.556L434.368 219.607L420.036 221.984L426.528 261.129L421.035 262.04L414.543 222.895L400.211 225.272Z" fill="#787878"/>
</g>
<defs>
<clipPath id="clip0_54_1393">
<rect width="561" height="665" fill="white" transform="translate(0 62)"/>
</clipPath>
<clipPath id="clip1_54_1393">
<rect width="560.905" height="665.281" fill="white" transform="translate(84.0059) rotate(4.88545)"/>
</clipPath>
</defs>
</svg>
