<svg width="343" height="172" viewBox="0 0 343 172" fill="none" xmlns="http://www.w3.org/2000/svg">
<path d="M81.5465 56.3239C81.5085 56.1378 81.5298 55.9396 81.6221 55.7532L82.4535 54.0803C82.6838 53.6209 83.2538 53.4223 83.7279 53.636C84.1984 53.8487 84.4013 54.3888 84.1687 54.8535L83.3436 56.5153C83.1169 56.9756 82.5475 57.1773 82.0727 56.9687C81.7897 56.8426 81.6046 56.5995 81.5485 56.3251L81.5465 56.3239Z" fill="url(#paint0_linear_5_1348)"/>
<path d="M63.8244 137.651C63.7243 137.161 64.0573 136.676 64.57 136.566C65.0861 136.456 65.5887 136.767 65.6951 137.263C65.9553 138.478 66.2598 139.633 66.6059 140.697C66.7636 141.192 66.4789 141.696 65.9761 141.854C65.4731 142.011 64.9396 141.751 64.7828 141.268C64.4199 140.147 64.0982 138.933 63.8261 137.659L63.8248 137.653L63.8244 137.651ZM63.2094 134.061C63.2053 134.041 63.2014 134.022 63.1988 134.001C63.0421 132.831 62.9189 131.589 62.8306 130.318C62.7963 129.814 63.1944 129.37 63.7176 129.328C64.2425 129.287 64.6984 129.672 64.7322 130.164C64.8166 131.4 64.937 132.603 65.0884 133.738C65.1546 134.239 64.7864 134.703 64.2643 134.776C63.7643 134.847 63.3051 134.53 63.2094 134.061ZM66.1088 144.561C66.0266 144.159 66.2364 143.733 66.6425 143.546C67.1205 143.326 67.6878 143.517 67.9092 143.971C68.4499 145.081 69.0571 146.081 69.7166 146.942C70.0309 147.347 69.9317 147.919 69.507 148.225C69.0803 148.529 68.4842 148.448 68.1754 148.045C67.4436 147.09 66.7727 145.989 66.1795 144.773C66.1466 144.704 66.1236 144.633 66.1091 144.562L66.1088 144.561ZM62.6957 126.786C62.685 126.734 62.679 126.679 62.678 126.623C62.6579 125.425 62.6655 124.195 62.6993 122.933C62.7143 122.427 63.151 122.021 63.6767 122.025C64.2041 122.029 64.6122 122.448 64.6047 122.949C64.5707 124.185 64.5631 125.391 64.583 126.563C64.592 127.068 64.171 127.493 63.6459 127.508C63.1771 127.522 62.7823 127.21 62.6953 126.784L62.6957 126.786ZM62.892 119.485C62.8765 119.409 62.8706 119.33 62.8746 119.248C62.9551 118.047 63.0598 116.822 63.1837 115.573C63.2353 115.07 63.7004 114.694 64.2247 114.733C64.7476 114.774 65.1319 115.203 65.0813 115.719C64.9565 116.947 64.8565 118.154 64.777 119.334C64.7413 119.84 64.2895 120.231 63.7633 120.207C63.3235 120.187 62.9712 119.881 62.89 119.483L62.892 119.485ZM70.6212 150.271C70.5703 150.021 70.6281 149.75 70.8044 149.53C71.1283 149.125 71.7271 149.043 72.1426 149.347C73.0739 150.027 74.0972 150.528 75.1795 150.831C75.6816 150.972 75.9669 151.478 75.8092 151.966C75.6531 152.453 75.1199 152.731 74.6178 152.59C73.315 152.224 72.0885 151.627 70.9738 150.813C70.7843 150.674 70.6657 150.48 70.6229 150.27L70.6212 150.271ZM63.6251 112.201C63.6061 112.108 63.6016 112.01 63.6152 111.909C63.7737 110.711 63.9537 109.494 64.1545 108.26C64.2356 107.759 64.723 107.408 65.2435 107.479C65.7637 107.549 66.1169 108.018 66.0378 108.513C65.8404 109.729 65.6634 110.928 65.5073 112.112C65.4399 112.613 64.9636 112.977 64.4411 112.921C64.0238 112.876 63.7037 112.577 63.6271 112.202L63.6251 112.201ZM64.7952 104.965C64.773 104.856 64.7718 104.742 64.7927 104.626C65.0177 103.435 65.2618 102.228 65.5237 101.009C65.6298 100.512 66.1359 100.185 66.651 100.281C67.1664 100.377 67.4957 100.856 67.3895 101.352C67.1297 102.557 66.8896 103.749 66.6667 104.925C66.5714 105.424 66.0761 105.761 65.5587 105.68C65.1615 105.616 64.867 105.325 64.7939 104.967L64.7952 104.965ZM66.3359 97.7889C66.3107 97.6659 66.312 97.5375 66.3434 97.4063C66.6269 96.2247 66.9246 95.0288 67.2427 93.8238C67.3722 93.3325 67.8894 93.0264 68.4001 93.1422C68.9089 93.2567 69.2186 93.7487 69.0898 94.2432C68.7776 95.4355 68.4807 96.6181 68.2015 97.7873C68.0832 98.2829 67.5713 98.5978 67.0592 98.4921C66.6799 98.4152 66.4071 98.1292 66.3372 97.787L66.3359 97.7889ZM77.709 152.282C77.7 152.238 77.6939 152.192 77.6928 152.144C77.6703 151.64 78.0772 151.205 78.6047 151.176C79.2283 151.139 79.8814 151.053 80.5449 150.918C81.0569 150.813 81.5783 150.679 82.0994 150.518C82.6028 150.363 83.1352 150.627 83.2887 151.11C83.4522 151.582 83.1564 152.108 82.6531 152.263C82.0723 152.442 81.4854 152.592 80.9108 152.709C80.1551 152.864 79.4069 152.962 78.6866 153.004C78.2104 153.032 77.7996 152.717 77.7106 152.282L77.709 152.282ZM68.2002 90.6779C68.1729 90.5438 68.1765 90.4018 68.2162 90.2606C68.5513 89.0883 68.9016 87.9063 69.2657 86.7165C69.4148 86.2294 69.9448 85.9437 70.4492 86.0789C70.9536 86.214 71.2419 86.7186 71.0927 87.2057C70.7316 88.385 70.3843 89.5566 70.0536 90.7166C69.9136 91.2068 69.3876 91.5031 68.8815 91.3765C68.52 91.2861 68.2663 91.0094 68.1986 90.6782L68.2002 90.6779ZM70.3595 83.6413C70.3298 83.4962 70.3361 83.3422 70.3871 83.1889C70.7672 82.027 71.1647 80.8583 71.5748 79.6838C71.7441 79.2024 72.2848 78.9359 72.7825 79.0889C73.2802 79.2418 73.5484 79.7571 73.3812 80.2397C72.9724 81.4041 72.5815 82.5632 72.2037 83.7114C72.044 84.1974 71.5086 84.4727 71.0072 84.3271C70.6625 84.2266 70.4239 83.9567 70.3591 83.6397L70.3595 83.6413ZM84.9595 150.162C84.8793 149.77 85.0772 149.353 85.4699 149.159C86.5041 148.648 87.5776 148.034 88.6611 147.335C89.1021 147.051 89.6922 147.16 89.9819 147.579C90.2682 147.999 90.146 148.567 89.7052 148.853C88.5578 149.591 87.4196 150.241 86.3198 150.785C85.848 151.019 85.2753 150.843 85.0427 150.393C85.0036 150.319 84.9756 150.241 84.9595 150.162ZM72.79 76.6824C72.7585 76.5279 72.7687 76.3598 72.8283 76.1982C73.2538 75.0484 73.6937 73.8941 74.1462 72.7339C74.3318 72.2574 74.8817 72.0104 75.3744 72.1808C75.8668 72.3496 76.1179 72.8733 75.9292 73.352C75.4814 74.5014 75.0451 75.6485 74.6243 76.7874C74.4459 77.2657 73.9016 77.5231 73.4056 77.3616C73.078 77.2527 72.8545 76.9896 72.792 76.6836L72.79 76.6824ZM75.4742 69.8064C75.4404 69.6408 75.4537 69.4623 75.5235 69.292C75.9913 68.1566 76.47 67.0157 76.9636 65.8717C77.166 65.4017 77.7246 65.1725 78.21 65.3576C78.6958 65.5442 78.9244 66.0757 78.724 66.547C78.2354 67.6818 77.7597 68.8122 77.2972 69.9399C77.102 70.4118 76.5473 70.6517 76.0579 70.4724C75.7445 70.3573 75.5361 70.1009 75.4755 69.8045L75.4742 69.8064ZM91.3328 146.107C91.2658 145.779 91.3891 145.425 91.6812 145.201C92.6259 144.478 93.5897 143.688 94.5457 142.852C94.9387 142.509 95.5403 142.532 95.8923 142.904C96.2398 143.278 96.2083 143.855 95.8156 144.199C94.8272 145.062 93.8295 145.878 92.8524 146.628C92.4372 146.946 91.8397 146.884 91.5157 146.49C91.4218 146.375 91.3605 146.243 91.3328 146.107ZM78.3995 63.0191C78.3638 62.844 78.382 62.6563 78.4618 62.4758C78.9683 61.3538 79.4861 60.2279 80.0174 59.1009C80.2366 58.6372 80.8004 58.4252 81.2792 58.628C81.7579 58.8308 81.9691 59.3692 81.75 59.8328C81.224 60.9522 80.7088 62.066 80.2076 63.1804C79.9976 63.6471 79.4341 63.8689 78.9517 63.6734C78.6544 63.5534 78.4555 63.3017 78.3975 63.0178L78.3995 63.0191ZM97.0178 141.176C96.9585 140.886 97.0484 140.57 97.2849 140.343C98.1449 139.515 99.0185 138.637 99.9062 137.709C100.265 137.334 100.868 137.304 101.253 137.643C101.641 137.981 101.658 138.561 101.299 138.936C100.394 139.885 99.4994 140.781 98.6223 141.625C98.2469 141.988 97.6442 141.992 97.275 141.637C97.1384 141.506 97.0522 141.345 97.0178 141.176ZM102.21 135.764C102.155 135.496 102.225 135.205 102.427 134.98L104.926 132.19C105.272 131.803 105.873 131.755 106.272 132.081C106.669 132.41 106.707 132.987 106.363 133.373L103.863 136.164C103.516 136.55 102.914 136.599 102.518 136.272C102.351 136.136 102.249 135.956 102.21 135.765L102.21 135.764ZM107.208 130.181C107.153 129.914 107.223 129.624 107.424 129.399L109.92 126.604C110.264 126.217 110.866 126.168 111.264 126.493C111.664 126.822 111.702 127.397 111.356 127.785L108.862 130.579C108.516 130.967 107.914 131.016 107.516 130.691C107.349 130.555 107.246 130.374 107.207 130.183L107.208 130.181ZM112.198 124.592C112.143 124.325 112.213 124.035 112.414 123.81L114.907 121.014C115.253 120.626 115.854 120.576 116.253 120.902C116.652 121.226 116.693 121.804 116.347 122.193L113.853 124.989C113.507 125.377 112.907 125.427 112.508 125.102C112.341 124.965 112.237 124.786 112.198 124.593L112.198 124.592ZM117.187 119.001C117.133 118.734 117.202 118.444 117.403 118.219L119.897 115.425C120.241 115.037 120.844 114.988 121.241 115.314C121.641 115.64 121.68 116.217 121.333 116.605L118.841 119.399C118.495 119.787 117.895 119.837 117.495 119.511C117.328 119.374 117.225 119.194 117.186 119.003L117.187 119.001ZM122.177 113.413C122.122 113.145 122.192 112.856 122.394 112.63L124.894 109.837C125.242 109.451 125.843 109.402 126.24 109.728C126.635 110.057 126.676 110.636 126.331 111.02L123.831 113.813C123.485 114.199 122.883 114.248 122.485 113.922C122.32 113.785 122.216 113.605 122.177 113.413ZM127.177 107.832C127.122 107.564 127.192 107.273 127.394 107.048L129.903 104.26C130.252 103.875 130.853 103.828 131.249 104.156C131.644 104.485 131.681 105.062 131.334 105.448L128.829 108.23C128.481 108.617 127.88 108.664 127.485 108.339C127.318 108.202 127.216 108.022 127.177 107.832ZM132.196 102.268C132.141 101.998 132.211 101.706 132.418 101.481C133.263 100.547 134.103 99.621 134.939 98.7043C135.288 98.321 135.891 98.2766 136.285 98.607C136.68 98.9369 136.714 99.5148 136.363 99.8985C135.529 100.813 134.691 101.737 133.846 102.67C133.497 103.056 132.896 103.1 132.501 102.772C132.338 102.636 132.235 102.458 132.196 102.268ZM137.243 96.7257C137.188 96.4545 137.261 96.1602 137.467 95.9341C138.319 95.0046 139.164 94.0827 140.007 93.1713C140.36 92.7889 140.962 92.7496 141.353 93.0822C141.745 93.416 141.774 93.9948 141.423 94.3738C140.581 95.2849 139.738 96.2029 138.888 97.1305C138.538 97.5126 137.934 97.557 137.543 97.2263C137.381 97.0901 137.282 96.9134 137.243 96.7241L137.243 96.7257ZM142.326 91.2143C142.27 90.94 142.345 90.6437 142.556 90.4182C143.417 89.4933 144.271 88.5796 145.119 87.6754C145.476 87.297 146.077 87.2612 146.466 87.5957C146.854 87.9337 146.88 88.5116 146.526 88.8894C145.68 89.7916 144.827 90.7051 143.967 91.6265C143.613 92.0061 143.01 92.0438 142.621 91.7109C142.463 91.5756 142.366 91.4001 142.328 91.214L142.326 91.2143ZM147.463 85.7478C147.406 85.4703 147.484 85.1718 147.7 84.9438C148.571 84.0267 149.435 83.1207 150.294 82.229C150.655 81.8547 151.258 81.8252 151.641 82.1657C152.027 82.5091 152.044 83.0872 151.684 83.4596C150.827 84.3509 149.965 85.2547 149.095 86.1683C148.738 86.5435 148.134 86.5765 147.748 86.2382C147.595 86.1035 147.498 85.9311 147.461 85.7482L147.463 85.7478ZM152.667 80.3431C152.609 80.0624 152.691 79.7566 152.912 79.5291C153.797 78.6223 154.678 77.7294 155.551 76.848C155.916 76.4777 156.521 76.4592 156.899 76.8043C157.277 77.1541 157.285 77.7323 156.921 78.099C156.049 78.977 155.175 79.867 154.294 80.7697C153.931 81.1412 153.327 81.1659 152.946 80.8231C152.799 80.689 152.706 80.5191 152.67 80.3409L152.667 80.3431ZM157.957 75.0145C157.898 74.7275 157.984 74.4175 158.215 74.188C159.118 73.2955 160.014 72.4192 160.904 71.554C161.277 71.1922 161.88 71.1838 162.253 71.5381C162.624 71.8928 162.622 72.4714 162.246 72.8339C161.36 73.6933 160.467 74.5674 159.57 75.4554C159.2 75.8216 158.595 75.8335 158.222 75.4842C158.08 75.3522 157.994 75.1876 157.958 75.0141L157.957 75.0145ZM163.357 69.7898C163.297 69.4965 163.388 69.1789 163.63 68.9505C164.556 68.0764 165.475 67.2184 166.387 66.3767C166.771 66.0239 167.374 66.032 167.735 66.3937C168.096 66.7601 168.077 67.3374 167.694 67.6899C166.786 68.5259 165.872 69.3762 164.954 70.2455C164.576 70.6036 163.971 70.604 163.606 70.2465C163.474 70.1175 163.389 69.9573 163.356 69.7917L163.357 69.7898ZM168.893 64.7C168.831 64.3973 168.93 64.0682 169.186 63.8418C170.139 62.9901 171.087 62.1606 172.028 61.3492C172.423 61.0089 173.024 61.0357 173.373 61.4095C173.721 61.7803 173.682 62.3616 173.287 62.7034C172.356 63.5081 171.416 64.3309 170.471 65.1727C170.081 65.5218 169.479 65.5035 169.124 65.1357C169.002 65.0095 168.925 64.8577 168.893 64.7ZM174.599 59.789C174.535 59.4737 174.645 59.1324 174.92 58.9071C175.906 58.0913 176.887 57.2978 177.863 56.5235C178.272 56.2001 178.872 56.25 179.204 56.639C179.533 57.0267 179.47 57.6048 179.061 57.9298C178.095 58.6937 177.124 59.4818 176.147 60.2877C175.745 60.6195 175.143 60.5813 174.805 60.2004C174.696 60.0797 174.628 59.9376 174.598 59.791L174.599 59.789ZM180.519 55.117C180.451 54.7874 180.577 54.4299 180.876 54.2061C181.906 53.4341 182.932 52.689 183.951 51.9683C184.379 51.6656 184.975 51.7509 185.281 52.1566C185.591 52.5664 185.489 53.1373 185.062 53.4382C184.056 54.148 183.047 54.8831 182.033 55.6439C181.615 55.956 181.016 55.8893 180.697 55.4929C180.605 55.3787 180.548 55.2507 180.52 55.1166L180.519 55.117ZM186.693 50.7659C186.621 50.4158 186.77 50.0371 187.098 49.8206C188.179 49.1103 189.256 48.4303 190.328 47.7826C190.777 47.5119 191.364 47.6384 191.639 48.0635C191.914 48.4952 191.772 49.0581 191.325 49.3285C190.274 49.962 189.219 50.6294 188.159 51.3272C187.72 51.6155 187.128 51.5115 186.835 51.0949C186.763 50.9914 186.716 50.8794 186.692 50.7643L186.693 50.7659ZM193.173 46.8581C193.096 46.4797 193.276 46.0766 193.648 45.8725C194.786 45.249 195.934 44.6564 197.057 44.1099C197.53 43.8803 198.1 44.0595 198.331 44.5101C198.563 44.9654 198.366 45.5132 197.893 45.7412C196.799 46.2719 195.681 46.8502 194.57 47.4598C194.109 47.7117 193.529 47.5607 193.275 47.1231C193.227 47.0377 193.193 46.9477 193.175 46.8562L193.173 46.8581ZM199.993 43.5514C199.908 43.1366 200.135 42.701 200.559 42.5222C201.761 42.0172 202.973 41.5512 204.159 41.1364C204.657 40.9624 205.201 41.2062 205.372 41.6806C205.554 42.1526 205.281 42.683 204.785 42.855C203.636 43.2573 202.462 43.709 201.298 44.1981C200.813 44.4023 200.254 44.1913 200.049 43.7287C200.024 43.6699 200.005 43.6097 199.992 43.5498L199.993 43.5514ZM207.16 41.0557C207.064 40.589 207.361 40.1193 207.847 39.9856C208.985 39.6726 210.133 39.3971 211.26 39.1667L211.624 39.0924C212.138 38.9941 212.632 39.3087 212.733 39.8007L212.735 39.8101C212.831 40.3063 212.489 40.7885 211.971 40.8894L211.627 40.9597C210.543 41.181 209.438 41.4446 208.343 41.7454C207.833 41.8857 207.311 41.6047 207.174 41.1185C207.17 41.0964 207.164 41.0762 207.159 41.0542L207.16 41.0557ZM214.62 39.5958C214.615 39.569 214.609 39.5406 214.607 39.5131C214.552 39.0101 214.934 38.5543 215.457 38.4935C216.737 38.347 218.04 38.2485 219.327 38.2056C219.854 38.1884 220.29 38.5953 220.297 39.0885C220.306 39.5942 219.888 40.018 219.362 40.0352C218.127 40.0771 216.88 40.1692 215.653 40.3113C215.159 40.3679 214.714 40.0531 214.62 39.5942L214.62 39.5958ZM222.205 39.3475C222.189 39.2702 222.184 39.1909 222.189 39.1077C222.226 38.6023 222.682 38.2151 223.207 38.241C224.481 38.306 225.778 38.4255 227.06 38.5957C227.582 38.6649 227.935 39.1298 227.855 39.6274C227.774 40.1286 227.288 40.4792 226.768 40.4097C225.538 40.247 224.295 40.1329 223.074 40.072C222.635 40.0482 222.286 39.7433 222.205 39.3475ZM229.701 40.3412C229.675 40.2167 229.676 40.0835 229.71 39.9516C229.832 39.4569 230.349 39.1461 230.858 39.2572C232.089 39.52 233.342 39.8389 234.585 40.2028C235.086 40.3484 235.363 40.8553 235.2 41.3452C235.04 41.828 234.503 42.1021 234.001 41.9564C232.805 41.6062 231.598 41.3007 230.414 41.0464C230.04 40.9669 229.771 40.6834 229.701 40.3444L229.701 40.3412ZM236.928 42.4493C236.894 42.2821 236.909 42.1049 236.979 41.933C237.174 41.4611 237.729 41.2229 238.219 41.4021C239.39 41.833 240.58 42.3145 241.752 42.8307C242.225 43.038 242.43 43.5793 242.202 44.0447C241.977 44.5046 241.408 44.7095 240.931 44.4981C239.795 43.9976 238.643 43.533 237.508 43.1144C237.197 42.999 236.987 42.7429 236.926 42.448L236.928 42.4493ZM243.791 45.4597C243.75 45.2579 243.779 45.04 243.89 44.8432C244.141 44.3944 244.722 44.2216 245.183 44.4559C246.27 45.0076 247.39 45.6117 248.511 46.25C248.96 46.5066 249.102 47.0657 248.828 47.5044C248.553 47.94 247.967 48.086 247.517 47.8313C246.422 47.2073 245.331 46.617 244.271 46.078C244.013 45.9467 243.843 45.7152 243.791 45.4581L243.791 45.4597ZM250.274 49.1539C250.227 48.9237 250.271 48.6765 250.418 48.4642C250.712 48.0394 251.305 47.9184 251.74 48.1941C252.778 48.8495 253.825 49.5408 254.876 50.264C255.303 50.5579 255.393 51.1294 255.082 51.541C254.77 51.9546 254.175 52.0532 253.75 51.7606C252.718 51.0498 251.693 50.3753 250.675 49.7324C250.457 49.5946 250.319 49.3829 250.273 49.1543L250.274 49.1539ZM256.403 53.364C256.351 53.1117 256.411 52.84 256.59 52.6178C256.916 52.2145 257.516 52.1363 257.928 52.443C258.912 53.1718 259.902 53.9289 260.899 54.7176C261.298 55.0352 261.354 55.6119 261.014 56.0065C260.676 56.3992 260.076 56.4577 259.671 56.1396C258.692 55.3655 257.717 54.6183 256.749 53.9011C256.563 53.7633 256.445 53.5706 256.403 53.3625L256.403 53.364Z" fill="#2FA817"/>
<path d="M262.319 58.0428C262.263 57.7716 262.335 57.4792 262.54 57.2535C262.89 56.8698 263.493 56.8254 263.886 57.1542C264.36 57.5518 264.838 57.957 265.314 58.3657C265.703 58.7017 265.732 59.2775 265.376 59.659C265.021 60.0371 264.418 60.0748 264.029 59.7403C263.558 59.3338 263.087 58.9354 262.62 58.5447C262.458 58.4085 262.357 58.2305 262.318 58.0413L262.319 58.0428Z" fill="url(#paint1_linear_5_1348)"/>
<path d="M67.8788 94.3774C65.1239 95.5169 61.0384 93.1618 58.2847 88.8462L0.783203 2.18256V85.1173C0.783203 87.1187 2.19939 89.5582 3.94761 90.5654L122.27 158.752C124.018 159.759 125.434 158.954 125.434 156.951V73.4921L67.88 94.3774H67.8788Z" fill="url(#paint2_linear_5_1348)"/>
<path style="mix-blend-mode:color-dodge" d="M66.6433 96.6006C63.8884 97.7402 59.8029 95.385 57.0492 91.0694L0.783203 1.81915L58.2858 88.8466C61.0396 93.1622 65.125 95.5173 67.88 94.3778L125.434 70.5605L66.6421 96.6006H66.6433Z" fill="url(#paint3_radial_5_1348)"/>
<path d="M3.64224 90.4711L0.783203 85.5001L57.937 62.8016C60.5336 61.7242 64.3867 63.9435 66.9844 68.0131L124.348 158.993L124.286 158.956L3.64224 90.4711Z" fill="url(#paint4_linear_5_1348)"/>
<path style="mix-blend-mode:color-dodge" d="M66.2444 74.3994C63.6467 70.3297 59.7936 68.1104 57.1971 69.1878L4.58008 91.006L3.64495 90.4673L3.58276 90.431L57.9398 67.8914C60.5363 66.8139 64.3894 69.0332 66.9871 73.1029L121.393 158.324L121.331 158.288L118.91 156.893L66.2444 74.3994Z" fill="url(#paint5_radial_5_1348)"/>
<path d="M58.3475 64.9507C61.1026 63.8087 65.1883 66.169 67.9422 70.494L125.447 157.901V74.2311C125.447 72.2252 124.031 69.7804 122.283 68.7711L3.95308 0.435287C2.20474 -0.574097 0.788475 0.233398 0.788475 2.24042V85.9329L58.3463 64.9507H58.3475Z" fill="url(#paint6_linear_5_1348)"/>
<path opacity="0.2" d="M122.467 68.7244L122.529 68.7607L59.4058 88.5254C56.8093 89.6028 52.9561 87.3835 50.3584 83.3138L4.42808 0.725594L4.49027 0.761917L122.467 68.7256V68.7244Z" fill="black"/>
<path d="M122.519 68.7626L122.581 68.7989L59.4006 87.4378C56.8041 88.5153 52.9509 86.296 50.3532 82.2263L4.85904 0.977264L4.92123 1.01358L122.519 68.7626Z" fill="#C2C2C2"/>
<path d="M342.991 11.9267L264.197 39.9981L269.107 63.7247L342.991 11.9267Z" fill="#BFBFBF"/>
<path style="mix-blend-mode:multiply" d="M342.991 11.9267L264.197 39.9981L269.107 63.7247L342.991 11.9267Z" fill="url(#paint7_linear_5_1348)"/>
<path d="M342.994 11.9269L264.201 39.9983L251.571 39.6358L244.815 32.0393L342.994 11.9269Z" fill="url(#paint8_linear_5_1348)"/>
<path d="M342.994 11.9269L277.691 49.7089L269.11 63.725L342.994 11.9269Z" fill="url(#paint9_linear_5_1348)"/>
<g style="mix-blend-mode:multiply">
<path d="M342.994 11.9269L277.691 49.7089L269.11 63.725L342.994 11.9269Z" fill="url(#paint10_linear_5_1348)"/>
</g>
<path d="M342.991 11.9266L277.688 49.7086L286.189 61.1183L297.46 66.5184L342.991 11.9266Z" fill="url(#paint11_linear_5_1348)"/>
<path d="M297.464 66.5132L286.193 61.113L277.692 49.7034L269.11 63.7194L264.201 39.9927L251.571 39.6302L244.816 32.0337L251.867 39.4503L264.426 39.9273L269.273 62.7634L277.692 49.7034L286.27 60.6694L297.464 66.5132Z" fill="#C8C8C8"/>
<defs>
<linearGradient id="paint0_linear_5_1348" x1="297.063" y1="68.6111" x2="84.9327" y2="50.6271" gradientUnits="userSpaceOnUse">
<stop offset="0.02" stop-color="#FFE585"/>
<stop offset="0.1" stop-color="#DBED70"/>
<stop offset="0.18" stop-color="#B4F759"/>
<stop offset="0.22" stop-color="#90ED6E"/>
<stop offset="0.33" stop-color="#35D5A4"/>
<stop offset="0.38" stop-color="#00C7C5"/>
<stop offset="0.52" stop-color="#2D9BE0"/>
<stop offset="0.64" stop-color="#5277F7"/>
<stop offset="0.68" stop-color="#5A76F6"/>
<stop offset="0.73" stop-color="#7273F5"/>
<stop offset="0.8" stop-color="#9970F4"/>
<stop offset="0.85" stop-color="#BB6DF3"/>
<stop offset="1" stop-color="#F36DD4"/>
</linearGradient>
<linearGradient id="paint1_linear_5_1348" x1="297.748" y1="60.5518" x2="85.6162" y2="42.5662" gradientUnits="userSpaceOnUse">
<stop offset="0.02" stop-color="#FFE585"/>
<stop offset="0.1" stop-color="#DBED70"/>
<stop offset="0.18" stop-color="#B4F759"/>
<stop offset="0.22" stop-color="#90ED6E"/>
<stop offset="0.33" stop-color="#35D5A4"/>
<stop offset="0.38" stop-color="#00C7C5"/>
<stop offset="0.52" stop-color="#2D9BE0"/>
<stop offset="0.64" stop-color="#5277F7"/>
<stop offset="0.68" stop-color="#5A76F6"/>
<stop offset="0.73" stop-color="#7273F5"/>
<stop offset="0.8" stop-color="#9970F4"/>
<stop offset="0.85" stop-color="#BB6DF3"/>
<stop offset="1" stop-color="#F36DD4"/>
</linearGradient>
<linearGradient id="paint2_linear_5_1348" x1="43.7465" y1="157.256" x2="128.181" y2="65.3975" gradientUnits="userSpaceOnUse">
<stop offset="0.09" stop-color="#939393"/>
<stop offset="0.37" stop-color="#D3D3D3"/>
<stop offset="0.52" stop-color="#A6A6A6"/>
<stop offset="0.57" stop-color="#E8E8E8"/>
<stop offset="0.78" stop-color="#F4F4F4"/>
<stop offset="1" stop-color="#F1F1F1"/>
</linearGradient>
<radialGradient id="paint3_radial_5_1348" cx="0" cy="0" r="1" gradientUnits="userSpaceOnUse" gradientTransform="translate(83.1517 33.8993) rotate(180) scale(38.9374 38.8653)">
<stop stop-color="white"/>
<stop offset="0.07" stop-color="#D8D8D8"/>
<stop offset="0.16" stop-color="#A5A5A5"/>
<stop offset="0.26" stop-color="#797979"/>
<stop offset="0.37" stop-color="#545454"/>
<stop offset="0.47" stop-color="#353535"/>
<stop offset="0.59" stop-color="#1D1D1D"/>
<stop offset="0.7" stop-color="#0D0D0D"/>
<stop offset="0.84" stop-color="#030303"/>
<stop offset="1"/>
</radialGradient>
<linearGradient id="paint4_linear_5_1348" x1="43.3723" y1="157.807" x2="88.1551" y2="79.1988" gradientUnits="userSpaceOnUse">
<stop offset="0.09" stop-color="#DDDDDD"/>
<stop offset="0.37" stop-color="#EEEEEE"/>
<stop offset="0.52" stop-color="#DEDEDE"/>
<stop offset="0.57" stop-color="#E8E8E8"/>
<stop offset="0.78" stop-color="#F4F4F4"/>
<stop offset="1" stop-color="#F1F1F1"/>
</linearGradient>
<radialGradient id="paint5_radial_5_1348" cx="0" cy="0" r="1" gradientUnits="userSpaceOnUse" gradientTransform="translate(73.9929 107.971) rotate(180) scale(34.8425 34.778)">
<stop stop-color="white"/>
<stop offset="0.07" stop-color="#D8D8D8"/>
<stop offset="0.16" stop-color="#A5A5A5"/>
<stop offset="0.26" stop-color="#797979"/>
<stop offset="0.37" stop-color="#545454"/>
<stop offset="0.47" stop-color="#353535"/>
<stop offset="0.59" stop-color="#1D1D1D"/>
<stop offset="0.7" stop-color="#0D0D0D"/>
<stop offset="0.84" stop-color="#030303"/>
<stop offset="1"/>
</radialGradient>
<linearGradient id="paint6_linear_5_1348" x1="82.4813" y1="1.94174" x2="-2.47481" y2="93.848" gradientUnits="userSpaceOnUse">
<stop offset="0.09" stop-color="#DDDDDD"/>
<stop offset="0.37" stop-color="#EEEEEE"/>
<stop offset="0.52" stop-color="#DEDEDE"/>
<stop offset="0.57" stop-color="#E8E8E8"/>
<stop offset="0.78" stop-color="#F4F4F4"/>
<stop offset="1" stop-color="#F1F1F1"/>
</linearGradient>
<linearGradient id="paint7_linear_5_1348" x1="301.929" y1="26.8918" x2="307.121" y2="40.6702" gradientUnits="userSpaceOnUse">
<stop stop-color="white"/>
<stop offset="1" stop-color="#E6E7E8"/>
</linearGradient>
<linearGradient id="paint8_linear_5_1348" x1="128.872" y1="27.8349" x2="437.795" y2="-80.3431" gradientUnits="userSpaceOnUse">
<stop offset="0.04" stop-color="#A9A9A9"/>
<stop offset="0.58" stop-color="#FDFDFD"/>
<stop offset="1" stop-color="#9B9B9B"/>
</linearGradient>
<linearGradient id="paint9_linear_5_1348" x1="186.624" y1="55.925" x2="438.01" y2="29.2169" gradientUnits="userSpaceOnUse">
<stop offset="0.04" stop-color="#A9A9A9"/>
<stop offset="0.58" stop-color="#FDFDFD"/>
<stop offset="1" stop-color="#9B9B9B"/>
</linearGradient>
<linearGradient id="paint10_linear_5_1348" x1="186.624" y1="55.925" x2="438.01" y2="29.2169" gradientUnits="userSpaceOnUse">
<stop offset="0.04" stop-color="#A9A9A9"/>
<stop offset="0.58" stop-color="#FDFDFD"/>
<stop offset="1" stop-color="#9B9B9B"/>
</linearGradient>
<linearGradient id="paint11_linear_5_1348" x1="202.411" y1="57.4958" x2="379.12" y2="20.5389" gradientUnits="userSpaceOnUse">
<stop offset="0.04" stop-color="#A9A9A9"/>
<stop offset="0.58" stop-color="#FDFDFD"/>
<stop offset="1" stop-color="#9B9B9B"/>
</linearGradient>
</defs>
</svg>
