<svg width="372" height="412" viewBox="0 0 372 412" fill="none" xmlns="http://www.w3.org/2000/svg">
<g filter="url(#filter0_d_5_1228)">
<g filter="url(#filter1_d_5_1228)">
<path d="M339.28 242.62H336.233C334.687 240.631 332.545 238.798 329.785 237.207L211.035 168.607C196.969 160.477 172.437 161.515 156.208 170.883L46.3781 234.335C42.0723 236.831 38.8043 239.659 36.5521 242.62H32.9529V262.526H33.0412C33.4828 267.232 36.5742 271.695 42.4256 275.075L161.176 343.675C175.22 351.783 199.774 350.767 216.003 341.399L325.833 277.947C333.539 273.506 337.933 267.961 338.971 262.504H339.258V242.598L339.28 242.62Z" fill="url(#paint0_linear_5_1228)"/>
<path d="M161.196 326.022L42.4457 257.422C28.4023 249.314 30.1467 235.13 46.3761 225.74L156.206 162.288C172.435 152.921 196.989 151.904 211.033 160.013L329.783 228.613C343.849 236.721 342.082 250.905 325.853 260.294L216.023 323.746C199.794 333.114 175.24 334.13 161.196 326.022Z" fill="url(#paint1_linear_5_1228)"/>
<path d="M335.459 226.249H332.478C330.955 224.326 328.879 222.515 326.185 220.968L210.217 153.981C196.483 146.05 172.525 147.044 156.671 156.213L49.4244 218.162C45.2069 220.593 42.0272 223.354 39.8412 226.271H36.3083V242.841H36.3966C36.8382 247.436 39.8413 251.788 45.5602 255.102L161.529 322.089C175.263 330.021 199.221 329.027 215.075 319.858L322.321 257.908C329.851 253.556 334.134 248.165 335.15 242.841H335.415V226.271L335.459 226.249Z" fill="url(#paint2_linear_5_1228)"/>
<path d="M339.036 215.246H335.989C334.444 213.258 332.302 211.424 329.542 209.833L210.791 141.233C196.748 133.125 172.194 134.141 155.964 143.509L46.1343 206.961C41.8286 209.458 38.5607 212.286 36.3084 215.246H32.7092V235.152H32.7976C33.2392 239.858 36.3305 244.321 42.1819 247.701L160.933 316.301C174.998 324.409 199.53 323.393 215.759 314.025L325.589 250.573C333.295 246.133 337.689 240.587 338.727 235.13H339.014V215.224L339.036 215.246Z" fill="url(#paint3_linear_5_1228)"/>
<path d="M160.955 298.648L42.2045 230.049C28.1611 221.94 29.9055 207.757 46.1349 198.367L155.965 134.915C172.194 125.547 196.748 124.531 210.792 132.639L329.542 201.239C343.608 209.347 341.841 223.531 325.612 232.921L215.782 296.373C199.552 305.74 174.999 306.757 160.955 298.648Z" fill="url(#paint4_linear_5_1228)"/>
<path style="mix-blend-mode:color-dodge" d="M325.611 230.491L215.781 293.943C199.552 303.31 174.998 304.326 160.954 296.218L42.2038 227.618C36.5732 224.371 33.504 220.129 32.8857 215.622C32.0246 221.454 35.0496 227.177 42.2038 231.308L160.954 299.908C175.02 308.016 199.552 307 215.781 297.632L325.611 234.18C335.327 228.568 339.809 221.233 338.86 214.517C338.021 220.151 333.56 225.917 325.611 230.513V230.491Z" fill="url(#paint5_radial_5_1228)"/>
</g>
<g opacity="0.2">
<path opacity="0.09" d="M164.518 174.198L166.572 173.027C166.748 172.916 174.101 168.608 174.322 168.564C178.871 166.09 184.501 164.786 190.11 164.919C190.861 164.919 191.589 165.007 192.296 165.051C196.05 165.36 200.201 166.686 202.983 168.299L242.176 190.967L281.348 213.612C284.837 215.645 287.795 219.047 288.679 222.405C288.921 223.311 289.098 224.217 289.142 225.167C289.429 230.337 286.316 235.308 280.531 238.644L278.477 239.815C278.301 239.925 270.948 244.234 270.727 244.278C266.178 246.752 260.548 248.056 254.939 247.923C254.188 247.923 253.46 247.835 252.753 247.791C248.999 247.481 244.848 246.156 242.066 244.543L202.873 221.875L163.701 199.23C160.212 197.197 157.254 193.795 156.37 190.436C156.127 189.531 155.951 188.625 155.907 187.675C155.62 182.505 158.733 177.534 164.518 174.198Z" fill="black"/>
<path opacity="0.18" d="M164.849 174.794L166.88 173.689C167.256 173.468 174.101 169.514 174.542 169.425C179.113 167.106 184.655 165.935 190.065 166.244C190.794 166.288 191.5 166.376 192.207 166.443C195.585 166.774 200.09 168.365 202.607 169.823L241.094 192.071L279.514 214.275C282.672 216.086 286.05 219.666 286.934 222.67C287.199 223.532 287.441 224.394 287.552 225.277C288.126 230.27 285.211 235.197 279.448 238.511L277.417 239.616C277.041 239.837 270.196 243.792 269.755 243.88C265.184 246.2 259.642 247.349 254.232 247.061C253.503 247.017 252.797 246.929 252.09 246.862C248.712 246.531 244.207 244.94 241.69 243.482L203.203 221.234L164.782 199.03C161.625 197.219 158.247 193.64 157.363 190.635C157.098 189.773 156.855 188.912 156.745 188.028C156.171 183.035 159.086 178.108 164.849 174.794Z" fill="black"/>
<path opacity="0.27" d="M165.202 175.413L167.211 174.374C167.763 174.065 174.1 170.442 174.785 170.309C179.356 168.144 184.832 167.128 190.043 167.57C190.749 167.636 191.434 167.746 192.118 167.835C195.121 168.188 200.001 170.044 202.231 171.325L240.012 193.154L277.682 214.938C280.486 216.55 284.306 220.284 285.189 222.913C285.476 223.731 285.785 224.548 285.94 225.388C286.801 230.182 284.085 235.087 278.366 238.379L276.357 239.417C275.805 239.726 269.467 243.35 268.783 243.482C264.212 245.647 258.736 246.642 253.525 246.222C252.819 246.156 252.134 246.045 251.45 245.957C248.447 245.603 243.567 243.747 241.337 242.466L203.556 220.638L165.886 198.854C163.082 197.241 159.262 193.507 158.379 190.878C158.092 190.061 157.783 189.243 157.628 188.404C156.767 183.609 159.483 178.705 165.202 175.413Z" fill="black"/>
<path opacity="0.36" d="M165.557 176.009L167.544 175.037C168.273 174.617 174.124 171.348 175.007 171.171C179.578 169.16 184.988 168.299 190 168.873C190.685 168.962 191.347 169.116 192.009 169.205C194.637 169.558 199.892 171.701 201.835 172.828L238.887 194.258L275.806 215.601C278.257 217.015 282.541 220.903 283.402 223.179C283.711 223.974 284.087 224.725 284.285 225.52C285.433 230.138 282.938 234.976 277.219 238.268L275.232 239.24C274.504 239.66 268.652 242.93 267.769 243.107C263.198 245.117 257.788 245.957 252.776 245.404C252.091 245.316 251.429 245.161 250.767 245.073C248.139 244.72 242.884 242.577 240.941 241.45L203.889 220.019L166.97 198.677C164.519 197.263 160.235 193.375 159.374 191.099C159.065 190.304 158.69 189.553 158.491 188.757C157.343 184.14 159.838 179.301 165.557 176.009Z" fill="black"/>
<path opacity="0.45" d="M165.909 176.628L167.874 175.7C168.78 175.17 174.145 172.253 175.249 172.032C179.82 170.177 185.164 169.47 189.977 170.177C190.662 170.287 191.302 170.464 191.942 170.574C194.173 170.928 199.825 173.358 201.503 174.33L237.848 195.341L274.039 216.263C276.137 217.478 280.906 221.522 281.723 223.444C282.054 224.217 282.518 224.902 282.761 225.653C284.218 230.094 281.9 234.888 276.225 238.18L274.26 239.108C273.354 239.638 267.989 242.554 266.885 242.775C262.314 244.631 256.993 245.316 252.157 244.631C251.494 244.521 250.832 244.344 250.192 244.233C247.961 243.88 242.309 241.45 240.631 240.478L204.286 219.467L168.095 198.544C165.997 197.329 161.228 193.286 160.411 191.364C160.08 190.591 159.638 189.906 159.373 189.155C157.916 184.714 160.234 179.92 165.909 176.65V176.628Z" fill="black"/>
<path opacity="0.55" d="M166.262 177.225L168.205 176.363C169.31 175.722 174.145 173.159 175.47 172.872C180.041 171.171 185.296 170.597 189.955 171.458C190.618 171.569 191.236 171.812 191.854 171.922C193.709 172.254 199.737 175.015 201.128 175.811L236.766 196.402L272.206 216.882C273.951 217.898 279.581 221.964 279.979 223.643C280.486 224.306 280.862 224.99 281.149 225.72C282.915 229.961 280.796 234.734 275.121 238.003L273.178 238.865C272.074 239.506 267.238 242.069 265.913 242.356C261.342 244.057 256.087 244.587 251.428 243.77C250.766 243.637 250.147 243.416 249.529 243.306C247.674 242.974 241.646 240.213 240.255 239.417L204.617 218.826L169.177 198.346C167.433 197.33 161.802 193.264 161.405 191.585C160.897 190.923 160.521 190.238 160.234 189.509C158.468 185.267 160.588 180.494 166.262 177.225Z" fill="black"/>
<path opacity="0.64" d="M166.617 177.821L168.538 177.026C169.818 176.275 174.168 174.065 175.714 173.734C180.285 172.187 185.474 171.79 189.934 172.762C190.574 172.894 191.17 173.16 191.767 173.292C193.246 173.601 199.627 176.672 200.754 177.313L235.663 197.506L270.352 217.567C271.743 218.385 277.904 222.582 278.213 223.93C278.765 224.549 279.185 225.189 279.516 225.874C281.591 229.939 279.648 234.645 274.018 237.915L272.097 238.71C270.816 239.462 266.466 241.671 264.92 242.002C260.35 243.549 255.161 243.924 250.7 242.974C250.06 242.82 249.464 242.577 248.868 242.444C247.388 242.135 241.007 239.064 239.881 238.423L204.971 218.23L170.282 198.169C168.891 197.352 162.73 193.154 162.421 191.806C161.869 191.188 161.45 190.547 161.118 189.862C159.043 185.797 160.986 181.091 166.617 177.821Z" fill="black"/>
<path opacity="0.73" d="M166.969 178.44L168.868 177.711C170.325 176.871 174.189 174.993 175.956 174.617C180.526 173.226 185.649 172.983 189.911 174.109C190.529 174.264 191.103 174.573 191.699 174.706C192.803 174.949 199.56 178.373 200.399 178.859L234.602 198.633L268.541 218.252C269.6 218.848 276.247 223.201 276.49 224.217C277.086 224.791 277.55 225.388 277.947 226.006C280.332 229.873 278.565 234.557 272.957 237.804L271.058 238.533C269.6 239.373 265.736 241.251 263.97 241.626C259.399 243.018 254.276 243.239 250.015 242.135C249.396 241.958 248.822 241.671 248.226 241.538C247.122 241.295 240.365 237.871 239.526 237.385L205.323 217.611L171.385 197.992C170.325 197.396 163.679 193.043 163.436 192.027C162.84 191.453 162.376 190.856 161.979 190.237C159.594 186.371 161.36 181.687 166.969 178.44Z" fill="black"/>
<path opacity="0.82" d="M167.301 179.036L169.178 178.373C170.834 177.423 174.168 175.899 176.155 175.479C180.726 174.242 185.783 174.153 189.845 175.413C190.442 175.589 191.016 175.81 191.568 176.076C192.319 176.12 199.429 180.03 199.981 180.362L233.477 199.715L266.665 218.892C267.371 219.29 274.548 223.775 274.702 224.438C275.342 224.946 275.872 225.52 276.292 226.095C279.008 229.762 277.418 234.424 271.832 237.65L269.955 238.312C268.299 239.262 264.964 240.787 262.977 241.207C258.406 242.444 253.35 242.51 249.287 241.273C248.691 241.074 248.117 240.875 247.565 240.61C246.814 240.566 239.704 236.655 239.152 236.324L205.655 216.97L172.468 197.793C171.761 197.396 164.585 192.911 164.43 192.248C163.79 191.74 163.26 191.165 162.841 190.591C160.125 186.923 161.715 182.262 167.301 179.036Z" fill="black"/>
<path opacity="0.91" d="M167.654 179.655L169.509 179.058C171.342 177.998 174.19 176.805 176.398 176.363C180.969 175.28 185.937 175.346 189.823 176.738C190.419 176.937 190.971 177.18 191.501 177.467C191.877 177.49 199.362 181.709 199.627 181.886L232.395 200.842L264.854 219.599C265.207 219.798 272.891 224.416 272.98 224.747C273.664 225.211 274.238 225.741 274.724 226.272C277.771 229.74 276.336 234.38 270.771 237.583L268.917 238.18C267.084 239.24 264.235 240.433 262.027 240.875C257.457 241.958 252.489 241.869 248.602 240.5C248.028 240.279 247.454 240.058 246.924 239.771C246.549 239.749 239.063 235.529 238.798 235.352L206.03 216.396L173.572 197.639C173.218 197.44 165.534 192.822 165.446 192.491C164.761 192.027 164.187 191.497 163.702 190.966C160.654 187.498 162.09 182.858 167.654 179.655Z" fill="black"/>
<path d="M246.282 238.865L206.36 215.8L166.438 192.734C160.918 189.531 161.602 183.963 167.984 180.274L169.839 179.721C176.22 176.032 185.869 175.634 191.412 178.837L231.334 201.903L271.256 224.968C276.776 228.172 276.092 233.739 269.71 237.429L267.855 237.981C261.474 241.671 251.825 242.069 246.282 238.865Z" fill="black"/>
</g>
<path d="M254.388 236.479L180.638 193.574C173.881 189.663 168.405 179.191 168.405 170.177V10.5525C168.405 5.97916 164.629 4.96285 166.925 3.30585C167.014 3.23957 172.269 0.853501 172.379 0.809314C174.83 -0.140699 177.458 -0.56047 180.66 1.29537L254.41 44.2006C261.166 48.1111 266.642 58.5834 266.642 67.5974V227.222C266.642 232.016 265.097 235.418 262.624 236.987C262.469 237.075 256.132 240.102 255.977 240.146C253.791 240.875 257.346 238.18 254.41 236.479H254.388Z" fill="url(#paint6_linear_5_1228)"/>
<path style="mix-blend-mode:screen" opacity="0.6" d="M249.728 238.622L175.978 195.717C169.221 191.806 163.745 181.334 163.745 172.32V12.6955C163.745 3.68139 169.221 -0.472148 175.978 3.43837L249.728 46.3436C256.485 50.2541 261.961 60.7264 261.961 69.7404V229.365C261.961 238.379 256.485 242.532 249.728 238.622Z" fill="url(#paint7_radial_5_1228)"/>
<path d="M248.669 239.196L174.919 196.291C168.162 192.381 162.686 181.908 162.686 172.894V13.2699C162.686 4.25586 168.162 0.102312 174.919 4.01283L248.669 46.9181C255.425 50.8286 260.901 61.3009 260.901 70.3149V229.939C260.901 238.953 255.425 243.107 248.669 239.196Z" fill="#A4A4A4"/>
<path d="M164.341 173.955V14.1316C164.341 6.22218 169.132 2.59888 175.072 6.02334L248.513 48.7518C254.43 52.1763 259.244 61.345 259.244 69.2544V229.078C259.244 236.987 254.452 240.61 248.513 237.186L175.072 194.457C169.154 191.033 164.341 181.864 164.341 173.955Z" fill="url(#paint8_linear_5_1228)"/>
<path d="M166.726 158.666V15.9433C166.726 9.33744 170.745 6.28856 175.713 9.16069L247.873 51.138C252.841 54.0101 256.86 61.6765 256.86 68.3045V211.027C256.86 217.633 252.841 220.682 247.873 217.81L175.713 175.833C170.745 172.961 166.726 165.294 166.726 158.666Z" fill="url(#paint9_linear_5_1228)"/>
<path d="M176.376 10.8838C171.695 8.18841 167.919 10.3536 167.919 15.7001V160.213C167.919 165.581 171.717 172.121 176.376 174.816L247.189 216.02C251.87 218.716 255.646 216.551 255.646 211.204V66.6916C255.646 61.3229 251.848 54.7832 247.189 52.0879L176.376 10.8838Z" fill="white"/>
<g style="mix-blend-mode:multiply">
<path d="M247.189 52.1101L176.376 10.906C171.694 8.21063 167.919 10.3758 167.919 15.7224V160.235C167.919 165.604 171.717 172.143 176.376 174.839L247.189 216.043C251.87 218.738 255.646 216.573 255.646 211.226V66.7138C255.646 61.3451 251.848 54.8055 247.189 52.1101ZM254.917 211.226C254.917 212.883 254.52 214.253 253.791 215.181C253.106 216.021 252.135 216.484 250.987 216.484C249.949 216.484 248.757 216.109 247.564 215.424L176.751 174.22C172.291 171.635 168.647 165.383 168.647 160.257V15.7445C168.647 12.4967 170.149 10.4862 172.578 10.4862C173.616 10.4862 174.808 10.8618 176 11.5467L246.813 52.7508C251.274 55.3357 254.917 61.5881 254.917 66.7138V211.226Z" fill="#B0AFAC"/>
</g>
<g style="mix-blend-mode:multiply">
<path d="M216.166 209.194C216.166 212.331 213.958 213.59 211.22 212.022C208.481 210.431 206.273 206.609 206.273 203.472C206.273 200.334 208.481 199.075 211.22 200.644C213.958 202.234 216.166 206.057 216.166 209.194Z" fill="#86B260"/>
</g>
<path d="M208.989 199.959C209.651 199.959 210.402 200.179 211.219 200.643C213.957 202.234 216.165 206.056 216.165 209.194C216.165 211.425 215.061 212.706 213.427 212.706C212.765 212.706 212.014 212.485 211.197 212.022C208.459 210.431 206.251 206.609 206.251 203.471C206.251 201.24 207.355 199.959 208.989 199.959ZM208.989 198.876C206.715 198.876 205.169 200.732 205.169 203.471C205.169 207.006 207.576 211.182 210.667 212.949C211.617 213.502 212.544 213.767 213.427 213.767C215.701 213.767 217.247 211.911 217.247 209.171C217.247 205.637 214.84 201.461 211.749 199.693C210.8 199.141 209.872 198.876 208.989 198.876Z" fill="#36B81B"/>
<g style="mix-blend-mode:multiply" opacity="0.1">
<path d="M172.786 246.154C162.385 251.059 158.036 248.187 151.367 244.342C144.699 240.498 141.939 236.985 149.711 233.185C157.329 229.474 164.505 232.302 171.152 236.146C177.798 239.99 178.416 243.481 172.763 246.154H172.786Z" fill="black"/>
</g>
<path d="M147.16 172.469C147.3 175.086 147.021 184.457 149.392 190.451C151.787 196.423 149.09 200.225 148.532 203.446C147.672 208.546 148.16 213.354 148.974 220.131C149.787 226.886 149.718 230.107 148.904 231.56C148.09 233.014 148.625 235.05 153.135 236.213C157.645 237.376 162.923 237.443 162.435 233.462C162.272 232.142 158.389 235.161 157.111 233.193C155.809 231.225 154.321 228.071 155.065 220.914C155.809 213.757 156.692 209.351 157.111 205.414C157.529 201.478 158.343 196.624 159.157 191.368C159.97 186.112 160.854 170.478 160.854 170.478L147.137 172.469H147.16Z" fill="url(#paint10_radial_5_1228)"/>
<path d="M152.075 230.048C152.075 227.927 152.604 222.492 152.604 218.891C152.604 215.29 155.166 202.829 153.996 200.288C152.317 196.599 154.636 191.561 154.636 189.661C154.636 187.916 154.525 174.55 154.525 171.677L147.393 172.76C147.526 175.345 147.261 184.602 149.513 190.523C151.787 196.422 149.226 200.178 148.696 203.359C147.879 208.397 148.343 213.147 149.116 219.841C149.888 226.513 149.822 229.695 149.049 231.131C148.277 232.567 148.784 234.577 153.068 235.726C154.128 236.013 155.254 236.234 156.314 236.345L155.342 235.814C155.342 235.814 152.052 232.191 152.052 230.07L152.075 230.048Z" fill="url(#paint11_radial_5_1228)"/>
<path d="M148.651 230.998C148.651 230.998 147.083 232.766 147.26 234.202C147.459 235.638 148.607 237.427 148.651 238.775C148.695 240.123 148.607 241.139 148.651 241.205C148.695 241.249 149.623 241.316 149.623 241.316L150.02 241.006V236.146C150.02 236.146 152.581 235.859 153.928 236.875C155.275 237.891 159.162 238.642 160.796 237.935C162.43 237.228 163.578 232.324 163.401 231.572C163.224 230.821 159.272 232.92 158.632 233.185C157.991 233.473 157.77 233.495 157.77 233.495C157.77 233.495 159.802 232.92 160.31 233.671C160.796 234.423 160.31 236.035 158.72 236.3C157.108 236.588 155.077 234.29 153.376 233.716C151.676 233.119 149.093 232.125 148.629 231.02L148.651 230.998Z" fill="#461C05"/>
<path d="M184.532 144.702L180.579 165.933L168.06 158.775L172.012 137.477L184.532 144.702Z" fill="#7B110D"/>
<path d="M183.759 145.386L179.784 166.618L168.06 158.775L172.012 137.477L183.759 145.386Z" fill="url(#paint12_linear_5_1228)"/>
<path d="M182.302 144.878L178.349 166.088L168.06 158.775L172.012 137.477L182.302 144.878Z" fill="#7B110D"/>
<path d="M155.718 181.576C156.646 184.072 157.86 189.043 158.964 192.534C160.068 196.047 161.415 199.758 160.753 202.277C160.112 204.818 158.434 209.104 158.434 214.87C158.434 220.637 159.074 232.832 158.235 234.644C157.396 236.455 156.623 238.179 157.065 239.283C157.529 240.388 161.481 241.338 164.661 243.437C168.039 245.668 172.124 241.095 170.49 240.123C168.856 239.151 168.613 240.322 167.377 239.549C166.14 238.775 163.358 236.367 163.491 233.451C163.623 230.534 166.869 211.402 167.774 207.182C168.68 202.962 169.143 200.244 169.452 195.384C169.784 190.523 169.96 184.028 169.452 179.433C168.945 174.837 153.113 174.506 155.718 181.576Z" fill="url(#paint13_radial_5_1228)"/>
<path d="M165.014 243.658L161.967 239.836C161.967 239.836 162.607 237.715 162.276 236.544C161.967 235.373 161.216 234.622 161.216 231.02C161.216 227.419 164.197 211.335 164.837 208.795C165.478 206.232 163.998 203.801 164.197 201.769C164.418 199.758 166.427 193.904 165.897 189.861C165.588 187.43 164.528 180.957 163.733 176.185C164.285 176.229 164.815 176.317 165.323 176.428C160.664 175.389 153.951 176.781 155.696 181.576C156.623 184.072 157.838 189.043 158.942 192.534C160.046 196.047 161.393 199.758 160.73 202.277C160.09 204.818 158.412 209.104 158.412 214.87C158.412 220.637 159.052 232.832 158.213 234.666C157.374 236.478 156.601 238.201 157.043 239.305C157.506 240.41 161.459 241.36 164.639 243.459C165.566 244.078 166.56 244.166 167.443 243.967C166.648 244.144 165.809 244.1 164.97 243.658H165.014Z" fill="url(#paint14_radial_5_1228)"/>
<path d="M151.809 160.388L168.414 161.073C168.414 161.073 169.452 173.003 169.849 177.488C170.247 181.973 170.269 196.334 170.269 196.334C170.269 196.334 165.566 198.764 161.547 197.991C157.528 197.218 148.299 195.074 148.299 195.074C148.299 195.074 147.967 190.656 147.724 186.591C147.482 182.393 146.62 173.379 147.989 169.424C149.358 165.469 151.809 160.41 151.809 160.41V160.388Z" fill="url(#paint15_linear_5_1228)"/>
<path d="M151.809 160.388L168.414 161.073C168.414 161.073 169.452 173.003 169.849 177.488C170.247 181.973 170.269 196.334 170.269 196.334C170.269 196.334 165.566 198.764 161.547 197.991C157.528 197.218 148.299 195.074 148.299 195.074C148.299 195.074 147.967 190.656 147.724 186.591C147.482 182.393 146.62 173.379 147.989 169.424C149.358 165.469 151.809 160.41 151.809 160.41V160.388Z" fill="#7C3123"/>
<path d="M157.571 235.991C157.571 235.991 155.738 237.692 156.136 239.636C156.555 241.58 157.659 241.713 157.659 243.127V246.75L158.498 247.082L159.426 246.728V241.161C159.426 241.161 161.656 241.757 163.775 243.348C165.895 244.917 168.523 245.071 170.046 244.298C171.548 243.525 174.396 239.592 173.646 238.797C172.917 238.023 167.463 239.614 167.463 239.614C167.463 239.614 169.516 239.835 169.848 240.873C170.179 241.912 168.368 243.237 166.977 242.619C165.564 242 163.996 240.034 161.236 238.907C158.476 237.78 157.747 236.366 157.593 235.969L157.571 235.991Z" fill="#461C05"/>
<path d="M175.832 156.433L179.387 154.931C179.387 154.931 180.69 152.943 181.595 152.677C182.501 152.412 183.053 152.324 183.119 152.015C183.207 151.595 183.274 151.286 183.274 151.286C183.274 151.286 184.554 151.087 184.709 152.368C184.841 153.672 184.356 153.694 184.356 153.694C184.356 153.694 184.687 153.76 184.753 154.18C184.819 154.6 184.643 154.953 184.444 155.174L184.245 155.373C184.245 155.373 184.444 155.616 184.311 156.102C184.179 156.588 183.693 156.853 183.693 156.853C183.693 156.853 183.759 157.737 183.274 157.936C182.788 158.134 182.39 158.201 181.706 158.444C181.021 158.687 177.113 159.968 177.113 159.968L175.81 156.411L175.832 156.433Z" fill="url(#paint16_radial_5_1228)"/>
<path d="M179.409 155.24C179.409 155.24 179.454 153.362 179.984 152.368C180.514 151.374 181.176 150.313 181.375 149.938C181.573 149.562 182.125 149.076 182.523 149.43C182.788 149.673 182.766 149.85 182.413 150.822C182.081 151.816 182.412 152.39 182.037 153.208C181.662 154.025 179.387 155.218 179.387 155.218L179.409 155.24Z" fill="url(#paint17_radial_5_1228)"/>
<g style="mix-blend-mode:multiply">
<path d="M169.85 177.488C169.496 173.423 168.613 163.216 168.458 161.36L164.97 161.979C164.97 161.979 164.661 174.837 164.55 180.692C164.462 185.309 165.036 194.323 165.301 197.947C168.039 197.483 170.291 196.312 170.291 196.312C170.291 196.312 170.269 181.951 169.872 177.466L169.85 177.488Z" fill="#C2C1BF"/>
</g>
<path d="M148.74 132.616C147.437 135.511 145.516 145.563 146.311 148.568C146.819 150.512 151.433 161.868 151.433 161.868L155.253 156.477L148.74 132.616Z" fill="url(#paint18_linear_5_1228)"/>
<path d="M162.188 135.379C163.866 136.815 169.254 140.836 170.225 143.818C171.197 146.801 170.314 148.215 169.762 150.49C169.165 153.031 168.15 154.71 168.591 159.504C169.055 164.299 170.137 177.444 170.336 178.991C170.534 180.537 168.856 181.178 167.311 181.421C165.765 181.686 157.264 181.995 152.539 180.184C147.813 178.372 146.665 177.643 146.665 176.538C146.665 175.434 146.753 170.286 149.006 165.646C151.302 160.918 152.141 156.367 151.942 153.849C151.744 151.308 147.659 140.615 147.857 136.594C148.056 132.573 149.8 128.994 152.649 129.921C155.497 130.827 162.188 135.379 162.188 135.379Z" fill="url(#paint19_linear_5_1228)"/>
<path d="M160.332 181.553C161.215 180.802 164.328 177.797 164.505 173.401C164.726 168.297 163.754 163.503 162.584 163.348C161.414 163.194 160.464 161.227 160.464 159.725C160.464 152.788 158.389 140.592 160.089 138.825C160.862 138.029 162.849 137.632 164.925 137.632C163.776 136.66 162.761 135.842 162.164 135.356C162.164 135.356 155.496 130.805 152.626 129.899C149.777 128.993 148.033 132.55 147.834 136.571C147.635 140.592 151.72 151.285 151.919 153.826C152.118 156.367 151.256 160.918 148.982 165.624C146.73 170.263 146.642 175.411 146.642 176.516C146.642 177.621 147.79 178.328 152.515 180.161C156.114 181.553 161.899 181.686 165.145 181.553C163.843 181.597 162.142 181.619 160.332 181.509V181.553Z" fill="url(#paint20_linear_5_1228)"/>
<path d="M155.982 112.29C159.625 111.429 164.351 113.064 165.256 117.482C166.161 121.901 165.212 126.762 164.682 127.601C163.865 128.86 161.502 128.639 160.862 129.678C160.222 130.716 159.758 132.992 160.288 133.765C160.796 134.538 161.657 135.312 161.657 135.312L155.695 134.605L152.317 132.462C152.317 132.462 153.862 129.612 153.156 128.374C152.449 127.137 148.453 123.492 149.711 117.924C150.749 113.373 154.9 112.533 156.004 112.29H155.982Z" fill="url(#paint21_radial_5_1228)"/>
<path d="M152.604 130.716C152.604 130.716 153.664 131.843 155.982 132.241C158.279 132.639 159.493 132.307 160.266 132.859C161.039 133.412 162.143 135.025 162.143 135.025C162.143 135.025 160.641 133.854 159.029 133.721C157.418 133.589 154.326 133.566 153.266 132.815C152.206 132.064 152.383 131.578 152.383 131.379C152.383 131.18 152.604 130.694 152.604 130.694V130.716Z" fill="url(#paint22_linear_5_1228)"/>
<g style="mix-blend-mode:multiply">
<path d="M152.933 130.164C152.933 130.164 150.924 131.932 151.167 133.545C151.41 135.135 153.044 136.66 155.936 136.439C158.829 136.218 160.463 135.887 161.854 136.505C163.157 137.08 165.63 138.295 165.63 138.295C165.63 138.295 163.068 134.141 160.905 133.788C158.741 133.434 155.914 133.699 154.633 133.059C153.331 132.418 152.536 132.197 152.381 131.379C152.227 130.562 152.933 130.164 152.933 130.164Z" fill="#C2C1BF"/>
</g>
<path d="M152.934 130.164C152.934 130.164 151.102 131.181 151.344 132.816C151.587 134.406 153.221 135.931 156.114 135.71C159.006 135.489 160.751 135.423 162.142 136.041C163.445 136.616 165.653 138.317 165.653 138.317C165.653 138.317 163.091 134.163 160.928 133.81C158.764 133.456 155.937 133.721 154.657 133.081C153.354 132.44 152.559 132.219 152.404 131.402C152.25 130.584 152.956 130.186 152.956 130.186L152.934 130.164Z" fill="url(#paint23_linear_5_1228)"/>
<path style="mix-blend-mode:color-dodge" d="M162.341 135.71C160.95 135.091 159.206 135.157 156.313 135.378C153.421 135.599 151.787 134.097 151.544 132.484C151.478 131.976 151.588 131.534 151.809 131.158C151.478 131.6 151.235 132.153 151.323 132.815C151.566 134.406 153.2 135.931 156.092 135.71C158.985 135.489 160.729 135.422 162.121 136.041C163.423 136.615 165.631 138.317 165.631 138.317C165.631 138.317 165.388 137.919 164.991 137.367C164.24 136.814 163.136 136.063 162.341 135.732V135.71Z" fill="url(#paint24_radial_5_1228)"/>
<path d="M162.055 118.455C162.055 118.455 163.468 117.24 165.257 117.483C167.663 117.792 165.455 112.799 160.068 111.341C155.983 110.236 150.131 111.783 149.16 116.488C147.813 122.984 151.412 125.79 151.765 128.198C152.096 130.584 159.405 130.186 158.5 126.386C158.036 124.464 157.815 122.741 159.339 122.873C160.929 123.006 160.929 119.67 162.055 118.455Z" fill="#582611"/>
<path d="M158.213 143.575C158.213 146.955 159.516 157.781 159.759 160.675C160.024 163.569 161.923 165.889 163.976 165.513C166.008 165.116 173.029 162.464 174.796 161.89C176.584 161.316 179.654 160.52 179.654 160.52C179.654 160.52 179.919 158.443 179.3 157.25C178.682 156.057 177.799 155.085 177.799 155.085C177.799 155.085 175.48 155.792 172.875 156.477C170.578 157.096 165.831 158.134 165.831 158.134C165.831 158.134 165.831 151.086 166.383 147.817C166.935 144.547 167.818 140.791 165.919 138.957C163.689 136.792 158.213 137.654 158.169 143.597L158.213 143.575Z" fill="url(#paint25_linear_5_1228)"/>
<g style="mix-blend-mode:multiply" opacity="0.5">
<path d="M175.436 159.858C173.647 160.432 166.648 163.105 164.616 163.481C162.585 163.879 160.664 161.537 160.399 158.642C160.134 155.748 158.831 144.923 158.853 141.542C158.853 141.123 158.897 140.747 158.942 140.371C158.5 141.211 158.213 142.249 158.213 143.553C158.213 146.933 159.516 157.759 159.759 160.653C160.023 163.547 161.922 165.867 163.976 165.491C166.007 165.094 173.029 162.443 174.796 161.868C176.584 161.294 179.653 160.498 179.653 160.498C179.653 160.498 179.764 159.593 179.653 158.642C178.66 158.908 176.694 159.416 175.414 159.836L175.436 159.858Z" fill="#C2C1BF"/>
</g>
<g style="mix-blend-mode:multiply">
<path d="M161.7 118.852C155.761 118.852 152.647 117.88 149.733 114.831C149.468 115.339 149.269 115.87 149.136 116.466C147.789 122.962 151.389 125.767 151.742 128.176C152.073 130.562 159.382 130.164 158.477 126.364C158.013 124.442 157.792 122.719 159.316 122.851C160.751 122.962 160.905 120.266 161.744 118.852H161.7Z" fill="#C2C1BF"/>
</g>
<path d="M147.945 118.565C151.655 116.29 153.377 119.626 154.437 122.63C155.497 125.635 156.38 128.33 152.494 128.993C147.04 129.921 144.015 120.973 147.967 118.565H147.945Z" fill="#582611"/>
<g style="mix-blend-mode:multiply">
<path d="M154.436 122.653C153.641 120.377 152.448 117.925 150.351 117.836C152.338 119.714 152.25 122.299 149.423 122.476C148.032 122.564 146.994 122.343 146.177 121.923C145.979 125.348 148.628 129.678 152.493 129.015C156.379 128.353 155.496 125.657 154.436 122.653Z" fill="#C2C1BF"/>
</g>
<path opacity="0.5" d="M213.692 90.6407L176.751 69.3206V27.9619L213.692 49.3041V90.6407Z" fill="url(#paint26_linear_5_1228)"/>
<path opacity="0.5" d="M199.649 111.629L203.094 113.618V110.414L199.649 108.426V111.629ZM205.523 136.926L208.967 138.915V135.711L205.523 133.723V136.926ZM229.282 125.548L219.544 119.914V123.118L229.282 128.752V125.548ZM217.27 118.589L205.39 111.718V114.921L217.27 121.792V118.589ZM211.242 140.24L223.121 147.111V143.908L211.242 137.037V140.24ZM241.183 128.221L245.533 130.74V127.536L241.183 125.018V128.221ZM242.044 118.103L237.606 115.54V118.743L242.044 121.306V118.103ZM235.155 150.845L225.417 145.211V148.415L235.155 154.048V150.845ZM248.05 136.374L238.313 130.74V133.944L248.05 139.577V136.374ZM241.249 157.561V154.358L237.452 152.171V155.374L241.249 157.561ZM243.546 158.887L250.877 163.107V159.903L243.546 155.683V158.887ZM207.09 120.113L195.056 113.154V116.357L207.09 123.317V120.113ZM235.31 114.214L225.572 108.58V111.784L235.31 117.418V114.214ZM219.411 127.227L209.387 121.439V124.642L219.411 130.431V127.227ZM181.896 101.356L197.353 110.282V107.078L181.896 98.1523V101.356ZM192.34 100.008L199.782 104.316V101.113L192.34 96.8046V100.008ZM184.458 92.2534V95.4569L190.044 98.6826V95.479L184.458 92.2534ZM246.858 143.09L234.162 135.755V138.959L246.858 146.294V143.09ZM216.254 110.613L202.078 102.416V105.62L216.254 113.816V110.613ZM231.865 134.43L221.708 128.553V131.756L231.865 137.633V134.43ZM238.887 123.692L228.73 117.815V121.019L238.887 126.896V123.692ZM226.433 116.49L218.55 111.939V115.142L226.433 119.693V116.49ZM236.016 129.436L231.578 126.874V130.077L236.016 132.64V129.436ZM182.183 90.9278L176.796 87.8127V91.0162L182.183 94.1313V90.9278ZM223.276 107.277L211.396 100.406V103.609L223.276 110.48V107.277ZM244.319 119.428V122.632L250.987 126.498V123.295L244.319 119.428ZM179.6 96.8267L176.796 95.2139V98.4174L179.6 100.03V96.8267ZM176.796 127.735L190.066 135.402V132.198L176.796 124.532V127.735ZM185.473 122.146L176.796 117.13V120.334L185.473 125.349V122.146ZM183.044 106.216L176.796 102.615V105.819L183.044 109.42V106.216ZM185.606 85.5149L176.773 80.4114V83.6149L185.606 88.7185V85.5149ZM192.782 111.85L185.341 107.542V110.746L192.782 115.054V111.85ZM203.226 132.397L187.77 123.471V126.675L203.226 135.601V132.397ZM209.1 99.0802L205.655 97.0918V100.295L209.1 102.284V99.0802ZM203.381 95.7662L187.924 86.8405V90.0441L203.381 98.9698V95.7662ZM192.34 136.705L197.927 139.931V136.727L192.34 133.502V136.705ZM226.433 156.412L230.165 158.555V155.352L226.433 153.209V156.412ZM232.439 159.881L242.596 165.758V162.554L232.439 156.678V159.881ZM200.223 141.256L207.665 145.565V142.361L200.223 138.053V141.256ZM209.961 146.89L224.137 155.087V151.883L209.961 143.687V146.89Z" fill="#9C9C9C"/>
<path opacity="0.5" d="M245.841 91.1486L249.286 93.1369V89.9334L245.841 87.945V91.1486ZM228.088 80.8972L243.545 89.8229V86.6194L228.088 77.6937V80.8972ZM245.996 80.6321L238.554 76.3239V79.5275L245.996 83.8357V80.6321ZM230.671 74.9762L236.258 78.2019V74.9983L230.671 71.7727V74.9762ZM228.375 70.4471L222.987 67.3319V70.5355L228.375 73.6506V70.4471ZM222.987 77.9367L225.792 79.5496V76.346L222.987 74.7332V77.9367ZM231.82 65.0343L222.987 59.9307V63.1342L231.82 68.2378V65.0343ZM234.094 66.3598V69.5634L249.551 78.4891V75.2856L234.094 66.3598Z" fill="#9C9C9C"/>
<path d="M235.287 188.094L195.476 165.095C192.826 163.571 190.662 159.439 190.662 155.904V155.86C190.662 152.325 192.804 150.69 195.476 152.215L235.287 175.214C237.937 176.738 240.101 180.87 240.101 184.405V184.449C240.101 187.984 237.959 189.619 235.287 188.094Z" fill="url(#paint27_linear_5_1228)"/>
<path d="M243.059 102.659L224.931 92.1872C223.517 91.3697 222.369 89.1825 222.369 87.2825V86.0232C222.369 84.1231 223.517 83.2615 224.931 84.0789L243.059 94.5512C244.472 95.3686 245.62 97.5558 245.62 99.4559V100.715C245.62 102.615 244.472 103.477 243.059 102.659Z" fill="url(#paint28_linear_5_1228)"/>
</g>
<defs>
<filter id="filter0_d_5_1228" x="28.7092" y="0" width="314.571" height="357.148" filterUnits="userSpaceOnUse" color-interpolation-filters="sRGB">
<feFlood flood-opacity="0" result="BackgroundImageFix"/>
<feColorMatrix in="SourceAlpha" type="matrix" values="0 0 0 0 0 0 0 0 0 0 0 0 0 0 0 0 0 0 127 0" result="hardAlpha"/>
<feOffset dy="4"/>
<feGaussianBlur stdDeviation="2"/>
<feComposite in2="hardAlpha" operator="out"/>
<feColorMatrix type="matrix" values="0 0 0 0 0 0 0 0 0 0 0 0 0 0 0 0 0 0 0.25 0"/>
<feBlend mode="normal" in2="BackgroundImageFix" result="effect1_dropShadow_5_1228"/>
<feBlend mode="normal" in="SourceGraphic" in2="effect1_dropShadow_5_1228" result="shape"/>
</filter>
<filter id="filter1_d_5_1228" x="0.809229" y="125.266" width="370.371" height="285.783" filterUnits="userSpaceOnUse" color-interpolation-filters="sRGB">
<feFlood flood-opacity="0" result="BackgroundImageFix"/>
<feColorMatrix in="SourceAlpha" type="matrix" values="0 0 0 0 0 0 0 0 0 0 0 0 0 0 0 0 0 0 127 0" result="hardAlpha"/>
<feOffset dy="30"/>
<feGaussianBlur stdDeviation="15.95"/>
<feComposite in2="hardAlpha" operator="out"/>
<feColorMatrix type="matrix" values="0 0 0 0 0 0 0 0 0 0 0 0 0 0 0 0 0 0 0.25 0"/>
<feBlend mode="normal" in2="BackgroundImageFix" result="effect1_dropShadow_5_1228"/>
<feBlend mode="normal" in="SourceGraphic" in2="effect1_dropShadow_5_1228" result="shape"/>
</filter>
<linearGradient id="paint0_linear_5_1228" x1="32.9529" y1="256.141" x2="339.28" y2="256.141" gradientUnits="userSpaceOnUse">
<stop offset="0.04" stop-color="#174600"/>
<stop offset="0.15" stop-color="#184800"/>
<stop offset="0.21" stop-color="#1D5103"/>
<stop offset="0.27" stop-color="#256007"/>
<stop offset="0.33" stop-color="#31750C"/>
<stop offset="0.34" stop-color="#367E0F"/>
<stop offset="0.38" stop-color="#368811"/>
<stop offset="0.45" stop-color="#36A316"/>
<stop offset="0.49" stop-color="#36B81B"/>
<stop offset="0.53" stop-color="#36A416"/>
<stop offset="0.59" stop-color="#367E0F"/>
<stop offset="0.64" stop-color="#2F710B"/>
<stop offset="0.77" stop-color="#215905"/>
<stop offset="0.9" stop-color="#194B01"/>
<stop offset="1" stop-color="#174600"/>
</linearGradient>
<linearGradient id="paint1_linear_5_1228" x1="299.842" y1="-50.7134" x2="173.68" y2="274.806" gradientUnits="userSpaceOnUse">
<stop stop-color="#174600"/>
<stop offset="1" stop-color="#367E0F"/>
</linearGradient>
<linearGradient id="paint2_linear_5_1228" x1="416.187" y1="238.024" x2="47.3267" y2="238.024" gradientUnits="userSpaceOnUse">
<stop offset="0.04" stop-color="#62C421"/>
<stop offset="0.21" stop-color="#6DCA30"/>
<stop offset="0.54" stop-color="#8ADA58"/>
<stop offset="0.63" stop-color="#94E065"/>
<stop offset="0.87" stop-color="#62C421"/>
</linearGradient>
<linearGradient id="paint3_linear_5_1228" x1="32.7092" y1="228.767" x2="339.036" y2="228.767" gradientUnits="userSpaceOnUse">
<stop offset="0.04" stop-color="#174600"/>
<stop offset="0.15" stop-color="#184800"/>
<stop offset="0.21" stop-color="#1D5103"/>
<stop offset="0.27" stop-color="#256007"/>
<stop offset="0.33" stop-color="#31750C"/>
<stop offset="0.34" stop-color="#367E0F"/>
<stop offset="0.38" stop-color="#368811"/>
<stop offset="0.45" stop-color="#36A316"/>
<stop offset="0.49" stop-color="#36B81B"/>
<stop offset="0.53" stop-color="#36A416"/>
<stop offset="0.59" stop-color="#367E0F"/>
<stop offset="0.64" stop-color="#2F710B"/>
<stop offset="0.77" stop-color="#215905"/>
<stop offset="0.9" stop-color="#194B01"/>
<stop offset="1" stop-color="#174600"/>
</linearGradient>
<linearGradient id="paint4_linear_5_1228" x1="299.601" y1="-78.087" x2="173.439" y2="247.41" gradientUnits="userSpaceOnUse">
<stop stop-color="#174600"/>
<stop offset="1" stop-color="#367E0F"/>
</linearGradient>
<radialGradient id="paint5_radial_5_1228" cx="0" cy="0" r="1" gradientUnits="userSpaceOnUse" gradientTransform="translate(185.862 259.919) scale(112.943 113.007)">
<stop stop-color="white"/>
<stop offset="1"/>
</radialGradient>
<linearGradient id="paint6_linear_5_1228" x1="166.346" y1="120.128" x2="266.742" y2="120.128" gradientUnits="userSpaceOnUse">
<stop offset="0.04" stop-color="#313131"/>
<stop offset="0.34" stop-color="#151515"/>
<stop offset="0.92" stop-color="#656565"/>
<stop offset="1" stop-color="#222222"/>
</linearGradient>
<radialGradient id="paint7_radial_5_1228" cx="0" cy="0" r="1" gradientUnits="userSpaceOnUse" gradientTransform="translate(259.09 53.767) scale(89.6261 89.6768)">
<stop stop-color="#B5E87F"/>
<stop offset="1" stop-color="#374605"/>
</radialGradient>
<linearGradient id="paint8_linear_5_1228" x1="89.7515" y1="186.725" x2="268.673" y2="91.3655" gradientUnits="userSpaceOnUse">
<stop stop-color="#1F1F1F"/>
<stop offset="1" stop-color="#1F1F1F"/>
</linearGradient>
<linearGradient id="paint9_linear_5_1228" x1="166.726" y1="113.463" x2="256.838" y2="113.463" gradientUnits="userSpaceOnUse">
<stop stop-color="#174600"/>
<stop offset="1" stop-color="#367E0F"/>
</linearGradient>
<radialGradient id="paint10_radial_5_1228" cx="0" cy="0" r="1" gradientUnits="userSpaceOnUse" gradientTransform="translate(126.19 203.155) scale(50.5894 48.6689)">
<stop offset="0.03" stop-color="#EAD3BB"/>
<stop offset="1" stop-color="#E59E91"/>
</radialGradient>
<radialGradient id="paint11_radial_5_1228" cx="0" cy="0" r="1" gradientUnits="userSpaceOnUse" gradientTransform="translate(137.17 204.862) scale(39.5689 39.5913)">
<stop offset="0.03" stop-color="#EACBBB"/>
<stop offset="1" stop-color="#E5B491"/>
</radialGradient>
<linearGradient id="paint12_linear_5_1228" x1="158.013" y1="156.058" x2="216.331" y2="142.992" gradientUnits="userSpaceOnUse">
<stop offset="0.04" stop-color="#A4A390"/>
<stop offset="0.58" stop-color="#C1C6BF"/>
<stop offset="1" stop-color="#DADED7"/>
</linearGradient>
<radialGradient id="paint13_radial_5_1228" cx="0" cy="0" r="1" gradientUnits="userSpaceOnUse" gradientTransform="translate(134.3 204.597) scale(43.8746 43.8994)">
<stop offset="0.03" stop-color="#EAD4BB"/>
<stop offset="1" stop-color="#E5B491"/>
</radialGradient>
<radialGradient id="paint14_radial_5_1228" cx="0" cy="0" r="1" gradientUnits="userSpaceOnUse" gradientTransform="translate(142.845 214.406) scale(42.7706 42.7948)">
<stop offset="0.03" stop-color="#EBCC8D"/>
<stop offset="1" stop-color="#E5A791"/>
</radialGradient>
<linearGradient id="paint15_linear_5_1228" x1="145.693" y1="179.256" x2="183.959" y2="179.256" gradientUnits="userSpaceOnUse">
<stop offset="0.04" stop-color="#089C21"/>
<stop offset="0.19" stop-color="#11A430"/>
<stop offset="0.48" stop-color="#28BB58"/>
<stop offset="0.88" stop-color="#4EDF99"/>
<stop offset="1" stop-color="#5BEBAE"/>
</linearGradient>
<radialGradient id="paint16_radial_5_1228" cx="0" cy="0" r="1" gradientUnits="userSpaceOnUse" gradientTransform="translate(184.665 153.473) scale(6.64631 6.65008)">
<stop offset="0.03" stop-color="#EACFBB"/>
<stop offset="1" stop-color="#E5C291"/>
</radialGradient>
<radialGradient id="paint17_radial_5_1228" cx="0" cy="0" r="1" gradientUnits="userSpaceOnUse" gradientTransform="translate(184.665 153.274) scale(6.845 6.84894)">
<stop offset="0.03" stop-color="#EAD3BB"/>
<stop offset="1" stop-color="#E5B191"/>
</radialGradient>
<linearGradient id="paint18_linear_5_1228" x1="146.139" y1="147.241" x2="155.262" y2="147.241" gradientUnits="userSpaceOnUse">
<stop offset="0.04" stop-color="#AD3511"/>
<stop offset="0.34" stop-color="#B32B13"/>
<stop offset="0.92" stop-color="#FF2222"/>
<stop offset="1" stop-color="#FF2222"/>
</linearGradient>
<linearGradient id="paint19_linear_5_1228" x1="146.704" y1="155.697" x2="170.684" y2="155.697" gradientUnits="userSpaceOnUse">
<stop offset="0.04" stop-color="#AD3511"/>
<stop offset="0.34" stop-color="#B32B13"/>
<stop offset="0.92" stop-color="#FF2222"/>
<stop offset="1" stop-color="#FF2222"/>
</linearGradient>
<linearGradient id="paint20_linear_5_1228" x1="146.671" y1="155.674" x2="165.164" y2="155.674" gradientUnits="userSpaceOnUse">
<stop offset="0.04" stop-color="#AD3511"/>
<stop offset="0.34" stop-color="#B32B13"/>
<stop offset="0.92" stop-color="#FF2222"/>
<stop offset="1" stop-color="#FF2222"/>
</linearGradient>
<radialGradient id="paint21_radial_5_1228" cx="0" cy="0" r="1" gradientUnits="userSpaceOnUse" gradientTransform="translate(157.528 123.691) scale(10.0026 10.0083)">
<stop offset="0.03" stop-color="#EAD3BB"/>
<stop offset="1" stop-color="#E5BB91"/>
</radialGradient>
<linearGradient id="paint22_linear_5_1228" x1="152.604" y1="136.748" x2="158.149" y2="132.222" gradientUnits="userSpaceOnUse">
<stop offset="0.04" stop-color="#A4A390"/>
<stop offset="0.58" stop-color="#C1C6BF"/>
<stop offset="1" stop-color="#DADED7"/>
</linearGradient>
<linearGradient id="paint23_linear_5_1228" x1="151.345" y1="134.24" x2="165.667" y2="134.24" gradientUnits="userSpaceOnUse">
<stop offset="0.04" stop-color="#AD3511"/>
<stop offset="0.34" stop-color="#B32B13"/>
<stop offset="0.92" stop-color="#FF2222"/>
<stop offset="1" stop-color="#FF2222"/>
</linearGradient>
<radialGradient id="paint24_radial_5_1228" cx="0" cy="0" r="1" gradientUnits="userSpaceOnUse" gradientTransform="translate(156.225 137.809) scale(5.6527 5.65588)">
<stop stop-color="white"/>
<stop offset="1"/>
</radialGradient>
<linearGradient id="paint25_linear_5_1228" x1="158.204" y1="151.714" x2="179.731" y2="151.714" gradientUnits="userSpaceOnUse">
<stop offset="0.04" stop-color="#AD3511"/>
<stop offset="0.34" stop-color="#B32B13"/>
<stop offset="0.92" stop-color="#FF2222"/>
<stop offset="1" stop-color="#FF2222"/>
</linearGradient>
<linearGradient id="paint26_linear_5_1228" x1="176.811" y1="59.2997" x2="213.729" y2="59.2997" gradientUnits="userSpaceOnUse">
<stop offset="0.04" stop-color="#AD3511"/>
<stop offset="0.34" stop-color="#B32B13"/>
<stop offset="0.92" stop-color="#FF2222"/>
<stop offset="1" stop-color="#FF2222"/>
</linearGradient>
<linearGradient id="paint27_linear_5_1228" x1="190.742" y1="170.153" x2="240.15" y2="170.153" gradientUnits="userSpaceOnUse">
<stop offset="0.04" stop-color="#AD3511"/>
<stop offset="0.34" stop-color="#B32B13"/>
<stop offset="0.92" stop-color="#FF2222"/>
<stop offset="1" stop-color="#FF2222"/>
</linearGradient>
<linearGradient id="paint28_linear_5_1228" x1="222.407" y1="93.3687" x2="245.643" y2="93.3687" gradientUnits="userSpaceOnUse">
<stop offset="0.04" stop-color="#AD3511"/>
<stop offset="0.34" stop-color="#B32B13"/>
<stop offset="0.92" stop-color="#FF2222"/>
<stop offset="1" stop-color="#FF2222"/>
</linearGradient>
</defs>
</svg>
