<svg width="394" height="390" viewBox="0 0 394 390" fill="none" xmlns="http://www.w3.org/2000/svg">
<g filter="url(#filter0_d_5_1078)">
<path d="M363.01 210.674H359.75C358.096 208.547 355.805 206.585 352.852 204.883L225.796 131.485C210.747 122.81 184.499 123.897 167.135 133.92L49.6238 201.81C45.0169 204.481 41.5204 207.507 39.1107 210.674H35.2598V231.972H35.3543C35.8268 237.007 39.1343 241.782 45.3949 245.399L172.451 318.797C187.5 327.472 213.747 326.385 231.112 316.362L348.623 248.472C356.868 243.721 361.569 237.788 362.68 231.949H362.987V210.651L363.01 210.674Z" fill="url(#paint0_linear_5_1078)"/>
<path d="M172.474 299.91L45.4186 226.512C30.3694 217.837 32.2594 202.661 49.6238 192.615L167.135 124.725C184.499 114.702 210.77 113.615 225.796 122.29L352.852 195.688C367.877 204.363 366.011 219.539 348.646 229.585L231.135 297.475C213.771 307.498 187.5 308.585 172.474 299.91Z" fill="url(#paint1_linear_5_1078)"/>
<path d="M358.899 193.158H355.709C354.079 191.102 351.858 189.163 348.976 187.509L224.897 115.837C210.202 107.351 184.569 108.414 167.606 118.224L52.8595 184.507C48.3471 187.107 44.9451 190.062 42.6062 193.182H38.8262V210.911H38.9207C39.3932 215.828 42.6062 220.484 48.7251 224.03L172.804 295.702C187.499 304.188 213.132 303.124 230.095 293.314L344.842 227.032C352.898 222.375 357.481 216.608 358.568 210.911H358.851V193.182L358.899 193.158Z" fill="url(#paint2_linear_5_1078)"/>
<path d="M362.751 181.363H359.49C357.837 179.235 355.545 177.273 352.592 175.571L225.536 102.174C210.487 93.4986 184.24 94.5859 166.875 104.609L49.364 172.498C44.7572 175.169 41.2606 178.195 38.8509 181.363H35V202.661H35.0945C35.567 207.696 38.8745 212.471 45.1352 216.088L172.191 289.485C187.24 298.16 213.487 297.073 230.852 287.05L348.363 219.161C356.608 214.409 361.31 208.476 362.42 202.637H362.727V181.339L362.751 181.363Z" fill="url(#paint3_linear_5_1078)"/>
<path d="M172.214 270.622L45.158 197.224C30.1324 188.549 31.9988 173.373 49.3632 163.327L166.874 95.437C184.239 85.4143 210.51 84.3269 225.535 93.0022L352.591 166.4C367.617 175.075 365.75 190.251 348.386 200.297L230.875 268.187C213.51 278.21 187.239 279.297 172.214 270.622Z" fill="url(#paint4_linear_5_1078)"/>
<path style="mix-blend-mode:color-dodge" d="M348.386 197.674L230.875 265.563C213.511 275.586 187.24 276.673 172.214 267.998L45.1587 194.601C39.1343 191.126 35.8504 186.587 35.1889 181.765C34.2675 188.005 37.5042 194.128 45.1587 198.548L172.214 271.946C187.263 280.621 213.511 279.534 230.875 269.511L348.386 201.621C358.781 195.617 363.577 187.769 362.561 180.583C361.664 186.611 356.891 192.78 348.386 197.697V197.674Z" fill="url(#paint5_radial_5_1078)"/>
</g>
<path d="M221.075 66.7184L216.444 69.3896L211.79 66.6948L216.444 64L221.075 66.7184Z" fill="url(#paint6_linear_5_1078)"/>
<path d="M142.7 37.9913V174.811L203.851 139.561V2.73486L142.7 37.9913Z" fill="url(#paint7_linear_5_1078)"/>
<path d="M149.047 41.6561L197.504 13.7158V20.5972L149.047 48.5375V41.6561Z" fill="#242424"/>
<path d="M196.261 14.4314V19.8817L197.505 20.5972V13.7158L196.261 14.4314Z" fill="#242424"/>
<g style="mix-blend-mode:screen" opacity="0.5">
<path d="M196.26 19.8816L149.047 47.0997V48.5375L197.504 20.5972L196.26 19.8816Z" fill="#242424"/>
</g>
<path d="M149.047 64.8822L197.504 36.9419V43.8233L149.047 71.7636V64.8822Z" fill="#242424"/>
<path d="M196.261 37.6641V43.1078L197.505 43.8233V36.9419L196.261 37.6641Z" fill="#242424"/>
<g style="mix-blend-mode:screen" opacity="0.5">
<path d="M196.26 43.1074L149.047 70.3255V71.7633L197.504 43.823L196.26 43.1074Z" fill="#242424"/>
</g>
<path d="M149.047 88.1075L197.504 60.1738V67.0553L149.047 94.9889V88.1075Z" fill="#242424"/>
<path d="M196.261 60.8894V66.333L197.505 67.0553V60.1738L196.261 60.8894Z" fill="#242424"/>
<g style="mix-blend-mode:screen" opacity="0.5">
<path d="M196.26 66.333L149.047 93.5511V94.9889L197.504 67.0552L196.26 66.333Z" fill="#242424"/>
</g>
<path d="M149.047 111.333L197.504 83.3994V90.2808L149.047 118.214V111.333Z" fill="#242424"/>
<path d="M196.261 84.115V89.5586L197.505 90.2808V83.3994L196.261 84.115Z" fill="#242424"/>
<g style="mix-blend-mode:screen" opacity="0.5">
<path d="M196.26 89.5586L149.047 116.783V118.214L197.504 90.2809L196.26 89.5586Z" fill="#242424"/>
</g>
<path d="M149.047 134.566L197.504 106.625V113.507L149.047 141.447V134.566Z" fill="#242424"/>
<path d="M196.261 107.341V112.791L197.505 113.507V106.625L196.261 107.341Z" fill="#242424"/>
<g style="mix-blend-mode:screen" opacity="0.5">
<path d="M196.26 112.791L149.047 140.009V141.447L197.504 113.507L196.26 112.791Z" fill="#242424"/>
</g>
<path d="M149.047 157.791L197.504 129.851V136.732L149.047 164.673V157.791Z" fill="#242424"/>
<path d="M196.261 130.573V136.017L197.505 136.732V129.851L196.261 130.573Z" fill="#242424"/>
<g style="mix-blend-mode:screen" opacity="0.5">
<path d="M196.26 136.017L149.047 163.235V164.672L197.504 136.732L196.26 136.017Z" fill="#242424"/>
</g>
<path d="M142.715 37.9913V174.811L138 172.075V35.2695L142.715 37.9913Z" fill="#242424"/>
<path d="M138 35.2698L142.715 37.9916L203.852 2.73519L199.11 0L138 35.2698Z" fill="url(#paint8_linear_5_1078)"/>
<path d="M144.774 100.941V114.122L148.794 111.774V98.5933L144.774 100.941Z" fill="url(#paint9_linear_5_1078)"/>
<path d="M144.774 100.941V114.122L144.172 113.774V100.593L144.774 100.941Z" fill="url(#paint10_linear_5_1078)"/>
<path d="M144.172 100.593L144.774 100.941L148.793 98.5933L148.184 98.2456L144.172 100.593Z" fill="#242424"/>
<g style="mix-blend-mode:multiply">
<path d="M147.684 108.684C147.684 108.19 147.336 107.989 146.902 108.236C146.467 108.484 146.119 109.092 146.119 109.587C146.119 109.982 146.34 110.182 146.647 110.129V111.573L147.156 111.279V109.835C147.463 109.534 147.684 109.079 147.684 108.684Z" fill="#242424"/>
</g>
<path d="M146.665 104.839C148.016 104.88 151.788 103.255 153.38 101.696C154.844 100.259 154.965 98.7204 155.332 99.2889C155.7 99.8573 154.296 103.027 152.417 104.298C149.702 106.137 147.582 106.652 146.779 106.592C145.615 106.505 145.763 104.806 146.665 104.833V104.839Z" fill="url(#paint11_linear_5_1078)"/>
<g style="mix-blend-mode:multiply">
<path d="M155.335 99.2886C155.261 99.1749 155.201 99.1482 155.134 99.1816C155.174 100.104 153.863 102.806 152.165 103.956C149.45 105.796 147.336 106.31 146.527 106.25C146.32 106.237 146.159 106.17 146.032 106.07C146.146 106.344 146.387 106.565 146.788 106.591C147.59 106.652 149.704 106.137 152.425 104.298C154.305 103.02 155.709 99.8504 155.341 99.2886H155.335Z" fill="#242424"/>
</g>
<path d="M104.7 79.9913V216.811L165.851 181.561V44.7349L104.7 79.9913Z" fill="url(#paint12_linear_5_1078)"/>
<path d="M111.047 83.6561L159.504 55.7158V62.5972L111.047 90.5375V83.6561Z" fill="#242424"/>
<path d="M158.261 56.4314V61.8817L159.505 62.5972V55.7158L158.261 56.4314Z" fill="#242424"/>
<g style="mix-blend-mode:screen" opacity="0.5">
<path d="M158.26 61.8816L111.047 89.0997V90.5375L159.504 62.5972L158.26 61.8816Z" fill="#242424"/>
</g>
<path d="M111.047 106.882L159.504 78.9419V85.8233L111.047 113.764V106.882Z" fill="#242424"/>
<path d="M158.261 79.6641V85.1078L159.505 85.8233V78.9419L158.261 79.6641Z" fill="#242424"/>
<g style="mix-blend-mode:screen" opacity="0.5">
<path d="M158.26 85.1074L111.047 112.325V113.763L159.504 85.823L158.26 85.1074Z" fill="#242424"/>
</g>
<path d="M111.047 130.107L159.504 102.174V109.055L111.047 136.989V130.107Z" fill="#242424"/>
<path d="M158.261 102.889V108.333L159.505 109.055V102.174L158.261 102.889Z" fill="#242424"/>
<g style="mix-blend-mode:screen" opacity="0.5">
<path d="M158.26 108.333L111.047 135.551V136.989L159.504 109.055L158.26 108.333Z" fill="#242424"/>
</g>
<path d="M111.047 153.333L159.504 125.399V132.281L111.047 160.214V153.333Z" fill="#242424"/>
<path d="M158.261 126.115V131.559L159.505 132.281V125.399L158.261 126.115Z" fill="#242424"/>
<g style="mix-blend-mode:screen" opacity="0.5">
<path d="M158.26 131.559L111.047 158.783V160.214L159.504 132.281L158.26 131.559Z" fill="#242424"/>
</g>
<path d="M111.047 176.566L159.504 148.625V155.507L111.047 183.447V176.566Z" fill="#242424"/>
<path d="M158.261 149.341V154.791L159.505 155.507V148.625L158.261 149.341Z" fill="#242424"/>
<g style="mix-blend-mode:screen" opacity="0.5">
<path d="M158.26 154.791L111.047 182.009V183.447L159.504 155.507L158.26 154.791Z" fill="#242424"/>
</g>
<path d="M111.047 199.791L159.504 171.851V178.732L111.047 206.673V199.791Z" fill="#242424"/>
<path d="M158.261 172.573V178.017L159.505 178.732V171.851L158.261 172.573Z" fill="#242424"/>
<g style="mix-blend-mode:screen" opacity="0.5">
<path d="M158.26 178.017L111.047 205.235V206.672L159.504 178.732L158.26 178.017Z" fill="#242424"/>
</g>
<path d="M104.715 79.9913V216.811L100 214.075V77.2695L104.715 79.9913Z" fill="#242424"/>
<path d="M100 77.2698L104.715 79.9916L165.852 44.7352L161.11 42L100 77.2698Z" fill="url(#paint13_linear_5_1078)"/>
<path d="M106.774 142.941V156.122L110.794 153.774V140.593L106.774 142.941Z" fill="url(#paint14_linear_5_1078)"/>
<path d="M106.774 142.941V156.122L106.172 155.774V142.593L106.774 142.941Z" fill="url(#paint15_linear_5_1078)"/>
<path d="M106.172 142.593L106.774 142.941L110.793 140.593L110.184 140.246L106.172 142.593Z" fill="#242424"/>
<g style="mix-blend-mode:multiply">
<path d="M109.684 150.684C109.684 150.19 109.336 149.989 108.902 150.236C108.467 150.484 108.119 151.092 108.119 151.587C108.119 151.982 108.34 152.182 108.647 152.129V153.573L109.156 153.279V151.835C109.463 151.534 109.684 151.079 109.684 150.684Z" fill="#242424"/>
</g>
<path d="M108.665 146.839C110.016 146.88 113.788 145.255 115.38 143.696C116.844 142.259 116.965 140.72 117.332 141.289C117.7 141.857 116.296 145.027 114.417 146.298C111.702 148.137 109.582 148.652 108.779 148.592C107.615 148.505 107.763 146.806 108.665 146.833V146.839Z" fill="url(#paint16_linear_5_1078)"/>
<g style="mix-blend-mode:multiply">
<path d="M117.335 141.289C117.261 141.175 117.201 141.148 117.134 141.182C117.174 142.104 115.863 144.806 114.165 145.956C111.45 147.796 109.336 148.31 108.527 148.25C108.32 148.237 108.159 148.17 108.032 148.07C108.146 148.344 108.387 148.565 108.788 148.591C109.59 148.652 111.704 148.137 114.425 146.298C116.305 145.02 117.709 141.85 117.341 141.289H117.335Z" fill="#242424"/>
</g>
<path d="M165.561 60.9459V222.811L237.905 181.108V19.2356L165.561 60.9459Z" fill="url(#paint17_linear_5_1078)"/>
<path d="M173.068 65.2815L230.396 32.2266V40.3677L173.068 73.4226V65.2815Z" fill="#242424"/>
<path d="M228.925 33.0731V39.5211L230.396 40.3677V32.2266L228.925 33.0731Z" fill="#242424"/>
<g style="mix-blend-mode:screen" opacity="0.5">
<path d="M228.925 39.521L173.068 71.7215V73.4225L230.396 40.3675L228.925 39.521Z" fill="#242424"/>
</g>
<path d="M173.068 92.759L230.396 59.7041V67.8452L173.068 100.9V92.759Z" fill="#242424"/>
<path d="M228.925 60.5586V66.9987L230.396 67.8452V59.7041L228.925 60.5586Z" fill="#242424"/>
<g style="mix-blend-mode:screen" opacity="0.5">
<path d="M228.925 66.9983L173.068 99.1988V100.9L230.396 67.8448L228.925 66.9983Z" fill="#242424"/>
</g>
<path d="M173.068 120.236L230.396 87.189V95.3301L173.068 128.377V120.236Z" fill="#242424"/>
<path d="M228.925 88.0355V94.4756L230.396 95.3301V87.189L228.925 88.0355Z" fill="#242424"/>
<g style="mix-blend-mode:screen" opacity="0.5">
<path d="M228.925 94.4756L173.068 126.676V128.377L230.396 95.33L228.925 94.4756Z" fill="#242424"/>
</g>
<path d="M173.068 147.713L230.396 114.666V122.807L173.068 155.854V147.713Z" fill="#242424"/>
<path d="M228.925 115.513V121.953L230.396 122.807V114.666L228.925 115.513Z" fill="#242424"/>
<g style="mix-blend-mode:screen" opacity="0.5">
<path d="M228.925 121.953L173.068 154.161V155.854L230.396 122.807L228.925 121.953Z" fill="#242424"/>
</g>
<path d="M173.068 175.198L230.396 142.144V150.285L173.068 183.34V175.198Z" fill="#242424"/>
<path d="M228.925 142.99V149.438L230.396 150.285V142.144L228.925 142.99Z" fill="#242424"/>
<g style="mix-blend-mode:screen" opacity="0.5">
<path d="M228.925 149.438L173.068 181.638V183.339L230.396 150.285L228.925 149.438Z" fill="#242424"/>
</g>
<path d="M173.068 202.676L230.396 169.621V177.762L173.068 210.817V202.676Z" fill="#242424"/>
<path d="M228.925 170.475V176.915L230.396 177.762V169.621L228.925 170.475Z" fill="#242424"/>
<g style="mix-blend-mode:screen" opacity="0.5">
<path d="M228.925 176.915L173.068 209.116V210.817L230.396 177.762L228.925 176.915Z" fill="#242424"/>
</g>
<path d="M165.578 60.9459V222.811L160 219.575V57.7258L165.578 60.9459Z" fill="#242424"/>
<path d="M160 57.7261L165.578 60.9462L237.906 19.2359L232.297 16L160 57.7261Z" fill="url(#paint18_linear_5_1078)"/>
<path d="M168.015 135.418V151.012L172.77 148.235V132.641L168.015 135.418Z" fill="url(#paint19_linear_5_1078)"/>
<path d="M168.014 135.418V151.012L167.302 150.601V135.007L168.014 135.418Z" fill="url(#paint20_linear_5_1078)"/>
<path d="M167.302 135.007L168.014 135.418L172.769 132.641L172.049 132.23L167.302 135.007Z" fill="#242424"/>
<g style="mix-blend-mode:multiply">
<path d="M171.457 144.58C171.457 143.994 171.045 143.757 170.531 144.05C170.017 144.342 169.605 145.062 169.605 145.648C169.605 146.115 169.867 146.352 170.23 146.289V147.998L170.832 147.649V145.941C171.196 145.585 171.457 145.047 171.457 144.58Z" fill="#242424"/>
</g>
<path d="M170.252 140.031C171.85 140.078 176.312 138.156 178.195 136.312C179.928 134.611 180.07 132.792 180.505 133.464C180.941 134.137 179.279 137.887 177.056 139.39C173.844 141.566 171.336 142.175 170.386 142.104C169.01 142.001 169.184 139.991 170.252 140.023V140.031Z" fill="url(#paint21_linear_5_1078)"/>
<g style="mix-blend-mode:multiply">
<path d="M180.508 133.464C180.421 133.329 180.35 133.298 180.271 133.337C180.318 134.429 178.767 137.626 176.758 138.986C173.546 141.162 171.046 141.771 170.088 141.7C169.843 141.684 169.653 141.605 169.503 141.486C169.637 141.811 169.922 142.072 170.397 142.104C171.346 142.175 173.846 141.566 177.066 139.39C179.29 137.879 180.951 134.129 180.516 133.464H180.508Z" fill="#242424"/>
</g>
<path d="M237 20L243.373 95.3889V106.323L163.417 161.5L163.417 61L237 20Z" fill="url(#paint22_linear_5_1078)"/>
<g style="mix-blend-mode:multiply" opacity="0.1">
<path d="M243.732 223.717C254.859 228.964 259.514 225.891 266.648 221.778C273.783 217.665 276.736 213.907 268.42 209.841C260.27 205.87 252.591 208.895 245.48 213.008C238.346 217.122 237.708 220.856 243.756 223.717H243.732Z" fill="black"/>
</g>
<path d="M270.9 145.142C270.759 147.908 271.042 157.813 268.632 164.148C266.199 170.459 268.94 174.478 269.507 177.882C270.381 183.271 269.885 188.353 269.058 195.516C268.231 202.655 268.302 206.059 269.129 207.595C269.955 209.132 269.412 211.283 264.829 212.512C260.245 213.741 254.883 213.812 255.379 209.604C255.544 208.21 259.489 211.401 260.789 209.321C262.112 207.241 263.624 203.908 262.868 196.343C262.112 188.779 261.214 184.122 260.789 179.962C260.364 175.802 259.537 170.672 258.71 165.117C257.883 159.562 256.985 143.039 256.985 143.039L270.924 145.142H270.9Z" fill="#E0CBAE"/>
<path d="M265.892 206.484C265.892 204.215 265.325 198.4 265.325 194.547C265.325 190.694 262.585 177.362 263.837 174.643C265.633 170.696 263.152 165.306 263.152 163.273C263.152 161.406 263.27 147.104 263.27 144.031L270.901 145.19C270.759 147.955 271.043 157.86 268.633 164.195C266.2 170.507 268.94 174.525 269.507 177.929C270.381 183.319 269.885 188.401 269.058 195.563C268.231 202.702 268.302 206.106 269.129 207.643C269.956 209.179 269.413 211.33 264.829 212.559C263.695 212.867 262.49 213.103 261.356 213.221L262.372 212.654C262.372 212.654 265.892 208.777 265.892 206.508V206.484Z" fill="#EAD6BB"/>
<path d="M251.974 103.587L252.79 103.18C253.128 103.01 253.343 102.664 253.343 102.285L253.343 96.5782C253.343 95.9563 252.781 95.4852 252.169 95.5934L241.863 97.414C241.768 97.4307 241.676 97.4612 241.59 97.5043L240.948 97.8251C240.588 98.0053 240.371 98.3843 240.398 98.7864L240.945 106.952C240.991 107.643 241.709 108.078 242.343 107.801L251.974 103.587Z" fill="url(#paint23_linear_5_1078)"/>
<path d="M252.979 103.59L253.795 103.183C254.134 103.013 254.348 102.667 254.348 102.288L254.348 96.6516C254.348 96.0067 253.746 95.5304 253.119 95.6781L242.729 98.1225L242.153 98.2424C241.661 98.3447 241.322 98.7958 241.36 99.2967L241.939 106.968C241.991 107.655 242.706 108.085 243.337 107.809L252.979 103.59Z" fill="url(#paint24_linear_5_1078)"/>
<path d="M252.709 103.158L244.342 106.504C243.718 106.754 243.03 106.329 242.974 105.659L242.474 99.6529C242.433 99.1645 242.752 98.7185 243.228 98.5997L252.095 96.3829C252.726 96.2251 253.338 96.7025 253.338 97.353V102.229C253.338 102.638 253.089 103.006 252.709 103.158Z" fill="#D9D9D9"/>
<path d="M269.577 207.501C269.577 207.501 271.254 209.392 271.065 210.928C270.853 212.465 269.624 214.379 269.577 215.821C269.53 217.263 269.624 218.351 269.577 218.422C269.53 218.469 268.538 218.54 268.538 218.54L268.112 218.209V213.008C268.112 213.008 265.372 212.701 263.931 213.789C262.466 214.852 258.332 215.68 256.583 214.923C254.835 214.167 253.607 208.919 253.796 208.115C253.985 207.312 258.213 209.557 258.899 209.841C259.584 210.148 259.82 210.172 259.82 210.172C259.82 210.172 257.646 209.557 257.103 210.361C256.583 211.165 257.103 212.89 258.804 213.174C260.529 213.481 262.702 211.047 264.521 210.408C266.34 209.77 269.105 208.706 269.601 207.524L269.577 207.501Z" fill="#88302C"/>
<path d="M262.017 154.622C261.025 157.293 259.726 162.611 258.544 166.346C257.363 170.105 255.922 174.076 256.631 176.771C257.316 179.489 259.111 184.075 259.111 190.245C259.111 196.414 258.426 209.463 259.324 211.401C260.222 213.34 261.049 215.183 260.576 216.365C260.08 217.547 255.851 218.564 252.449 220.809C248.834 223.197 244.464 218.304 246.212 217.264C247.96 216.223 248.22 217.476 249.543 216.649C250.866 215.822 253.843 213.245 253.701 210.125C253.559 207.004 250.087 186.534 249.118 182.019C248.149 177.504 247.653 174.596 247.322 169.396C246.968 164.195 246.779 157.246 247.322 152.329C247.866 147.412 264.805 147.057 262.017 154.622Z" fill="#E0CBAE"/>
<path d="M252.048 221.046L255.308 216.956C255.308 216.956 254.623 214.687 254.977 213.434C255.308 212.181 256.111 211.378 256.111 207.524C256.111 203.671 252.922 186.486 252.237 183.744C251.552 181.002 253.135 178.402 252.922 176.227C252.686 174.076 250.536 167.812 251.103 163.486C251.434 160.886 252.568 153.96 253.418 148.854C252.828 148.901 252.261 148.996 251.717 149.114C256.702 148.003 263.884 149.492 262.018 154.622C261.026 157.293 259.726 162.611 258.545 166.346C257.364 170.081 255.922 174.076 256.631 176.771C257.316 179.489 259.112 184.075 259.112 190.245C259.112 196.414 258.427 209.463 259.325 211.425C260.222 213.363 261.049 215.207 260.577 216.389C260.081 217.571 255.852 218.587 252.45 220.833C251.457 221.495 250.394 221.589 249.449 221.377C250.3 221.566 251.197 221.518 252.095 221.046H252.048Z" fill="#EAD6BB"/>
<path d="M266.199 131.952L248.433 132.685C248.433 132.685 247.322 145.45 246.897 150.248C246.472 155.047 246.448 170.412 246.448 170.412C246.448 170.412 251.48 173.012 255.78 172.185C260.08 171.357 269.955 169.065 269.955 169.065C269.955 169.065 270.31 164.337 270.569 159.987C270.829 155.496 271.751 145.852 270.286 141.62C268.821 137.389 266.199 131.976 266.199 131.976V131.952Z" fill="url(#paint25_linear_5_1078)"/>
<path d="M266.199 131.952L248.433 132.685C248.433 132.685 247.322 145.45 246.897 150.248C246.472 155.047 246.448 170.412 246.448 170.412C246.448 170.412 251.48 173.012 255.78 172.185C260.08 171.357 269.955 169.065 269.955 169.065C269.955 169.065 270.31 164.337 270.569 159.987C270.829 155.496 271.751 145.852 270.286 141.62C268.821 137.389 266.199 131.976 266.199 131.976V131.952Z" fill="url(#paint26_linear_5_1078)"/>
<path d="M260.009 212.843C260.009 212.843 261.97 214.663 261.545 216.743C261.096 218.824 259.915 218.965 259.915 220.478V224.355L259.017 224.709L258.025 224.331V218.374C258.025 218.374 255.638 219.013 253.37 220.715C251.102 222.393 248.291 222.558 246.661 221.731C245.031 220.904 242.007 216.696 242.81 215.845C243.613 214.994 249.425 216.72 249.425 216.72C249.425 216.72 247.228 216.956 246.874 218.067C246.519 219.178 248.456 220.596 249.945 219.935C251.457 219.273 253.134 217.169 256.087 215.963C259.04 214.758 259.82 213.268 259.985 212.819L260.009 212.843Z" fill="#88302C"/>
<g style="mix-blend-mode:multiply">
<path d="M246.897 150.248C247.275 145.899 248.22 134.978 248.386 132.992L252.118 133.654C252.118 133.654 252.449 147.412 252.567 153.676C252.662 158.616 252.048 168.261 251.764 172.137C248.835 171.641 246.425 170.388 246.425 170.388C246.425 170.388 246.448 155.023 246.874 150.225L246.897 150.248Z" fill="#C2C1BF"/>
</g>
<path d="M269.459 102.239C270.853 105.335 272.908 116.091 272.057 119.306C271.514 121.386 266.576 133.536 266.576 133.536L262.489 127.768L269.459 102.239Z" fill="url(#paint27_linear_5_1078)"/>
<path d="M255.071 105.193C253.276 106.73 247.511 111.032 246.472 114.223C245.432 117.414 246.377 118.927 246.968 121.362C247.606 124.081 248.693 125.877 248.22 131.007C247.724 136.136 246.566 150.201 246.354 151.856C246.141 153.51 247.937 154.196 249.59 154.456C251.244 154.74 260.34 155.071 265.395 153.132C270.451 151.194 271.68 150.414 271.68 149.232C271.68 148.05 271.585 142.542 269.176 137.578C266.718 132.519 265.821 127.65 266.033 124.955C266.246 122.237 270.617 110.796 270.404 106.493C270.191 102.191 268.325 98.3619 265.277 99.3547C262.23 100.324 255.071 105.193 255.071 105.193Z" fill="url(#paint28_linear_5_1078)"/>
<path d="M257.057 154.598C256.112 153.794 252.78 150.579 252.591 145.875C252.355 140.415 253.395 135.285 254.647 135.12C255.899 134.954 256.915 132.851 256.915 131.243C256.915 123.821 259.136 110.772 257.316 108.881C256.49 108.03 254.363 107.605 252.143 107.605C253.371 106.565 254.458 105.69 255.096 105.17C255.096 105.17 262.23 100.3 265.302 99.3313C268.349 98.3621 270.216 102.168 270.428 106.47C270.641 110.772 266.27 122.213 266.058 124.932C265.845 127.65 266.766 132.52 269.2 137.555C271.61 142.519 271.704 148.027 271.704 149.208C271.704 150.39 270.476 151.147 265.42 153.109C261.569 154.598 255.379 154.74 251.906 154.598C253.3 154.645 255.119 154.669 257.057 154.551V154.598Z" fill="url(#paint29_linear_5_1078)"/>
<path d="M265.349 100.206C265.349 100.206 264.215 101.411 261.734 101.837C259.277 102.262 257.978 101.908 257.151 102.499C256.324 103.09 255.143 104.815 255.143 104.815C255.143 104.815 256.749 103.562 258.474 103.421C260.198 103.279 263.506 103.255 264.64 102.451C265.774 101.648 265.585 101.128 265.585 100.915C265.585 100.702 265.349 100.182 265.349 100.182V100.206Z" fill="url(#paint30_linear_5_1078)"/>
<g style="mix-blend-mode:multiply">
<path d="M264.97 99.6147C264.97 99.6147 267.12 101.506 266.86 103.231C266.6 104.933 264.852 106.564 261.757 106.328C258.662 106.092 256.914 105.737 255.426 106.399C254.032 107.014 251.386 108.314 251.386 108.314C251.386 108.314 254.126 103.87 256.442 103.491C258.757 103.113 261.781 103.397 263.151 102.711C264.521 102.026 265.395 101.789 265.561 100.915C265.726 100.04 264.97 99.6147 264.97 99.6147Z" fill="#C2C1BF"/>
</g>
<path d="M264.971 99.6147C264.971 99.6147 266.932 100.702 266.672 102.451C266.412 104.153 264.664 105.784 261.569 105.548C258.474 105.312 256.608 105.241 255.12 105.903C253.726 106.517 251.363 108.337 251.363 108.337C251.363 108.337 254.104 103.893 256.419 103.515C258.734 103.137 261.758 103.421 263.129 102.735C264.499 102.049 265.373 101.813 265.538 100.938C265.704 100.064 264.948 99.6384 264.948 99.6384L264.971 99.6147Z" fill="url(#paint31_linear_5_1078)"/>
<path style="mix-blend-mode:color-dodge" d="M254.906 105.548C256.394 104.886 258.261 104.957 261.356 105.193C264.45 105.43 266.199 103.822 266.459 102.097C266.529 101.553 266.411 101.08 266.175 100.678C266.529 101.151 266.789 101.742 266.695 102.451C266.435 104.153 264.687 105.784 261.592 105.548C258.497 105.312 256.631 105.241 255.142 105.903C253.748 106.517 251.386 108.337 251.386 108.337C251.386 108.337 251.646 107.912 252.071 107.321C252.874 106.73 254.055 105.926 254.906 105.572V105.548Z" fill="url(#paint32_radial_5_1078)"/>
<path d="M235.51 110.349C235.627 109.568 235.642 108.847 235.514 108.209C235.087 106.269 234.826 102.092 235.763 101.541C236.701 100.99 239.665 100.81 239.665 100.81C239.665 100.81 238.986 97.4396 241.036 97.4392C242.402 98.1226 240.718 98.4465 241.035 99.4893C240.918 100.736 241.433 102.045 241.612 102.489C241.79 102.932 242.111 103.757 242.111 103.757C242.111 103.757 242.686 102.077 242.997 101.674C243.297 101.251 244.062 100.966 244.297 101.459C244.511 101.963 243.151 104.735 243.079 105.545C243.018 106.375 241.572 108.486 241.158 108.948C240.736 109.443 240.006 110.721 240.006 110.721C240.006 110.721 235.272 111.996 235.507 110.296L235.51 110.349Z" fill="#EAD6BB"/>
<path d="M239.685 109.747L241.037 109.135L241.266 107.89L234.885 107.69L234.806 109.135L239.685 109.747Z" fill="url(#paint33_linear_5_1078)"/>
<path d="M254.008 83.0916C251.929 84.7463 250.512 90.7032 251.835 94.7453C253.158 98.7875 254.906 99.1421 255.615 99.4967C256.323 99.8512 258.473 103.397 257.646 105.004C256.819 106.612 263.293 105.714 264.899 104.366C266.506 103.042 266.577 102.475 266.577 102.475C266.577 102.475 264.899 99.8985 265.679 98.0074C266.435 96.1164 269.719 89.2139 265.679 84.4626C261.639 79.7113 256.04 81.4605 254.032 83.0679L254.008 83.0916Z" fill="#E0CBAE"/>
<path d="M252.402 108.503C254.576 107.416 257.671 108.172 258.474 111.009C259.301 114.011 257.907 117.438 254.08 119.117C250.252 120.795 241.228 127.296 239.905 128.123C238.582 128.95 236.408 130.487 233.691 128.123C230.974 125.759 234.203 108.374 234.203 108.374L241.037 109.057C241.037 109.057 241.328 117.941 240.353 122.041C239.911 123.901 236.644 121.575 236.644 121.575C236.644 121.575 249.898 109.78 252.426 108.527L252.402 108.503Z" fill="url(#paint34_linear_5_1078)"/>
<g style="mix-blend-mode:multiply" opacity="0.5">
<path d="M254.198 117.816C250.371 119.495 241.346 125.995 240.023 126.823C238.7 127.65 236.526 129.187 233.81 126.823C232.836 125.976 234.203 113.84 234.887 108.373H234.202C234.202 108.373 230.998 125.735 233.715 128.123C236.432 130.487 238.605 128.95 239.928 128.123C241.251 127.295 250.253 120.795 254.103 119.117C257.293 117.722 258.781 115.122 258.71 112.569C258.309 114.673 256.868 116.658 254.222 117.816H254.198Z" fill="#C2C1BF"/>
</g>
<path d="M251.126 88.1739C251.126 88.1739 253.087 89.9232 254.41 90.4668C255.733 91.0342 256.843 93.3271 257.197 93.8944C257.552 94.4618 257.599 95.2418 257.481 96.471C256.819 102.806 252.567 102.688 253.205 108.81C254.173 117.958 263.954 123.608 270.357 120.842C275.152 118.762 276.995 111.789 273.192 103.137C271.231 98.6458 271.018 97.1329 269.695 89.3558C268.726 83.6117 263.458 78.6476 257.339 79.8532C249.094 81.4606 251.102 88.1739 251.102 88.1739H251.126Z" fill="#3D281F"/>
<g style="mix-blend-mode:multiply">
<path d="M272.995 103.31C271.577 100.071 271.057 98.3459 270.396 94.7056C268.222 101.23 262.056 105.934 254.803 105.934C254.26 105.934 253.717 105.91 253.173 105.863C252.961 106.714 252.866 107.73 253.008 109.007C254 118.155 263.757 123.805 270.16 121.039C274.956 118.959 276.798 111.985 272.995 103.334V103.31Z" fill="#C2C1BF"/>
</g>
<defs>
<filter id="filter0_d_5_1078" x="0.799999" y="87.1458" width="392.41" height="302.707" filterUnits="userSpaceOnUse" color-interpolation-filters="sRGB">
<feFlood flood-opacity="0" result="BackgroundImageFix"/>
<feColorMatrix in="SourceAlpha" type="matrix" values="0 0 0 0 0 0 0 0 0 0 0 0 0 0 0 0 0 0 127 0" result="hardAlpha"/>
<feOffset dx="-2" dy="33"/>
<feGaussianBlur stdDeviation="16.1"/>
<feComposite in2="hardAlpha" operator="out"/>
<feColorMatrix type="matrix" values="0 0 0 0 0 0 0 0 0 0 0 0 0 0 0 0 0 0 0.25 0"/>
<feBlend mode="normal" in2="BackgroundImageFix" result="effect1_dropShadow_5_1078"/>
<feBlend mode="normal" in="SourceGraphic" in2="effect1_dropShadow_5_1078" result="shape"/>
</filter>
<linearGradient id="paint0_linear_5_1078" x1="35.2598" y1="225.141" x2="363.01" y2="225.141" gradientUnits="userSpaceOnUse">
<stop offset="0.04" stop-color="#174600"/>
<stop offset="0.15" stop-color="#184800"/>
<stop offset="0.21" stop-color="#1D5103"/>
<stop offset="0.27" stop-color="#256007"/>
<stop offset="0.33" stop-color="#31750C"/>
<stop offset="0.34" stop-color="#367E0F"/>
<stop offset="0.38" stop-color="#368811"/>
<stop offset="0.45" stop-color="#36A316"/>
<stop offset="0.49" stop-color="#36B81B"/>
<stop offset="0.53" stop-color="#36A416"/>
<stop offset="0.59" stop-color="#367E0F"/>
<stop offset="0.64" stop-color="#2F710B"/>
<stop offset="0.77" stop-color="#215905"/>
<stop offset="0.9" stop-color="#194B01"/>
<stop offset="1" stop-color="#174600"/>
</linearGradient>
<linearGradient id="paint1_linear_5_1078" x1="320.816" y1="-103.173" x2="185.831" y2="245.088" gradientUnits="userSpaceOnUse">
<stop stop-color="#174600"/>
<stop offset="1" stop-color="#367E0F"/>
</linearGradient>
<linearGradient id="paint2_linear_5_1078" x1="445.296" y1="205.734" x2="50.6151" y2="205.734" gradientUnits="userSpaceOnUse">
<stop offset="0.04" stop-color="#089C21"/>
<stop offset="0.13" stop-color="#11A430"/>
<stop offset="0.31" stop-color="#28BB58"/>
<stop offset="0.56" stop-color="#4EDF99"/>
<stop offset="0.63" stop-color="#5BEBAE"/>
<stop offset="0.87" stop-color="#42C97D"/>
</linearGradient>
<linearGradient id="paint3_linear_5_1078" x1="35" y1="195.829" x2="362.751" y2="195.829" gradientUnits="userSpaceOnUse">
<stop offset="0.04" stop-color="#174600"/>
<stop offset="0.15" stop-color="#184800"/>
<stop offset="0.21" stop-color="#1D5103"/>
<stop offset="0.27" stop-color="#256007"/>
<stop offset="0.33" stop-color="#31750C"/>
<stop offset="0.34" stop-color="#367E0F"/>
<stop offset="0.38" stop-color="#368811"/>
<stop offset="0.45" stop-color="#36A316"/>
<stop offset="0.49" stop-color="#36B81B"/>
<stop offset="0.53" stop-color="#36A416"/>
<stop offset="0.59" stop-color="#367E0F"/>
<stop offset="0.64" stop-color="#2F710B"/>
<stop offset="0.77" stop-color="#215905"/>
<stop offset="0.9" stop-color="#194B01"/>
<stop offset="1" stop-color="#174600"/>
</linearGradient>
<linearGradient id="paint4_linear_5_1078" x1="320.555" y1="-132.485" x2="185.571" y2="215.8" gradientUnits="userSpaceOnUse">
<stop stop-color="#174600"/>
<stop offset="1" stop-color="#367E0F"/>
</linearGradient>
<radialGradient id="paint5_radial_5_1078" cx="0" cy="0" r="1" gradientUnits="userSpaceOnUse" gradientTransform="translate(198.863 229.184) scale(120.842 120.911)">
<stop stop-color="white"/>
<stop offset="1"/>
</radialGradient>
<linearGradient id="paint6_linear_5_1078" x1="211.908" y1="58.0668" x2="217.087" y2="67.9216" gradientUnits="userSpaceOnUse">
<stop offset="0.04" stop-color="#4C6910"/>
<stop offset="0.31" stop-color="#55781A"/>
<stop offset="0.85" stop-color="#6DA037"/>
<stop offset="0.98" stop-color="#74AB3F"/>
</linearGradient>
<linearGradient id="paint7_linear_5_1078" x1="33.1726" y1="55.7198" x2="187.653" y2="92.1666" gradientUnits="userSpaceOnUse">
<stop offset="0.1" stop-color="#3E3E3E"/>
<stop offset="0.715" stop-color="#646464"/>
<stop offset="1" stop-color="#747474"/>
</linearGradient>
<linearGradient id="paint8_linear_5_1078" x1="147.142" y1="-11.3018" x2="192.282" y2="46.2105" gradientUnits="userSpaceOnUse">
<stop offset="0.1" stop-color="#212121"/>
<stop offset="1" stop-color="#5C5C5C"/>
</linearGradient>
<linearGradient id="paint9_linear_5_1078" x1="139.914" y1="114.182" x2="155.022" y2="113.493" gradientUnits="userSpaceOnUse">
<stop offset="0.04" stop-color="#A9A9A9"/>
<stop offset="0.58" stop-color="#FDFDFD"/>
<stop offset="1" stop-color="#9B9B9B"/>
</linearGradient>
<linearGradient id="paint10_linear_5_1078" x1="143.444" y1="114.174" x2="145.711" y2="114.156" gradientUnits="userSpaceOnUse">
<stop offset="0.04" stop-color="#A9A9A9"/>
<stop offset="0.58" stop-color="#FDFDFD"/>
<stop offset="1" stop-color="#9B9B9B"/>
</linearGradient>
<linearGradient id="paint11_linear_5_1078" x1="134.528" y1="106.625" x2="168.4" y2="99.0347" gradientUnits="userSpaceOnUse">
<stop offset="0.04" stop-color="#A9A9A9"/>
<stop offset="0.58" stop-color="#FDFDFD"/>
<stop offset="1" stop-color="#9B9B9B"/>
</linearGradient>
<linearGradient id="paint12_linear_5_1078" x1="-4.82742" y1="97.7198" x2="149.653" y2="134.167" gradientUnits="userSpaceOnUse">
<stop offset="0.1" stop-color="#3E3E3E"/>
<stop offset="0.715" stop-color="#646464"/>
<stop offset="1" stop-color="#747474"/>
</linearGradient>
<linearGradient id="paint13_linear_5_1078" x1="109.142" y1="30.6982" x2="154.282" y2="88.2105" gradientUnits="userSpaceOnUse">
<stop offset="0.1" stop-color="#212121"/>
<stop offset="1" stop-color="#5C5C5C"/>
</linearGradient>
<linearGradient id="paint14_linear_5_1078" x1="101.914" y1="156.182" x2="117.022" y2="155.493" gradientUnits="userSpaceOnUse">
<stop offset="0.04" stop-color="#A9A9A9"/>
<stop offset="0.58" stop-color="#FDFDFD"/>
<stop offset="1" stop-color="#9B9B9B"/>
</linearGradient>
<linearGradient id="paint15_linear_5_1078" x1="105.444" y1="156.174" x2="107.711" y2="156.156" gradientUnits="userSpaceOnUse">
<stop offset="0.04" stop-color="#A9A9A9"/>
<stop offset="0.58" stop-color="#FDFDFD"/>
<stop offset="1" stop-color="#9B9B9B"/>
</linearGradient>
<linearGradient id="paint16_linear_5_1078" x1="96.5276" y1="148.625" x2="130.4" y2="141.035" gradientUnits="userSpaceOnUse">
<stop offset="0.04" stop-color="#A9A9A9"/>
<stop offset="0.58" stop-color="#FDFDFD"/>
<stop offset="1" stop-color="#9B9B9B"/>
</linearGradient>
<linearGradient id="paint17_linear_5_1078" x1="35.9834" y1="81.9197" x2="218.743" y2="125.038" gradientUnits="userSpaceOnUse">
<stop offset="0.1" stop-color="#3E3E3E"/>
<stop offset="0.715" stop-color="#646464"/>
<stop offset="1" stop-color="#747474"/>
</linearGradient>
<linearGradient id="paint18_linear_5_1078" x1="170.815" y1="2.62929" x2="224.219" y2="70.6696" gradientUnits="userSpaceOnUse">
<stop offset="0.1" stop-color="#212121"/>
<stop offset="1" stop-color="#5C5C5C"/>
</linearGradient>
<linearGradient id="paint19_linear_5_1078" x1="162.265" y1="151.083" x2="180.138" y2="150.268" gradientUnits="userSpaceOnUse">
<stop offset="0.04" stop-color="#A9A9A9"/>
<stop offset="0.58" stop-color="#FDFDFD"/>
<stop offset="1" stop-color="#9B9B9B"/>
</linearGradient>
<linearGradient id="paint20_linear_5_1078" x1="166.441" y1="151.074" x2="169.123" y2="151.053" gradientUnits="userSpaceOnUse">
<stop offset="0.04" stop-color="#A9A9A9"/>
<stop offset="0.58" stop-color="#FDFDFD"/>
<stop offset="1" stop-color="#9B9B9B"/>
</linearGradient>
<linearGradient id="paint21_linear_5_1078" x1="155.892" y1="142.143" x2="195.965" y2="133.163" gradientUnits="userSpaceOnUse">
<stop offset="0.04" stop-color="#A9A9A9"/>
<stop offset="0.58" stop-color="#FDFDFD"/>
<stop offset="1" stop-color="#9B9B9B"/>
</linearGradient>
<linearGradient id="paint22_linear_5_1078" x1="123.097" y1="62.5863" x2="248.157" y2="103.59" gradientUnits="userSpaceOnUse">
<stop stop-color="#D9D9D9" stop-opacity="0"/>
<stop offset="1" stop-color="white" stop-opacity="0.24"/>
</linearGradient>
<linearGradient id="paint23_linear_5_1078" x1="241.32" y1="104.28" x2="242.779" y2="98.594" gradientUnits="userSpaceOnUse">
<stop stop-color="#C1C6BF"/>
<stop offset="0.74" stop-color="#EEEFED"/>
<stop offset="1" stop-color="white"/>
</linearGradient>
<linearGradient id="paint24_linear_5_1078" x1="241.06" y1="103.916" x2="241.468" y2="103.896" gradientUnits="userSpaceOnUse">
<stop stop-color="#C1C6BF"/>
<stop offset="0.74" stop-color="#EEEFED"/>
<stop offset="1" stop-color="#7B7B7B"/>
</linearGradient>
<linearGradient id="paint25_linear_5_1078" x1="272.719" y1="152.139" x2="231.777" y2="152.139" gradientUnits="userSpaceOnUse">
<stop offset="0.04" stop-color="#089C21"/>
<stop offset="0.19" stop-color="#11A430"/>
<stop offset="0.48" stop-color="#28BB58"/>
<stop offset="0.88" stop-color="#4EDF99"/>
<stop offset="1" stop-color="#5BEBAE"/>
</linearGradient>
<linearGradient id="paint26_linear_5_1078" x1="246.488" y1="152.149" x2="271.119" y2="152.149" gradientUnits="userSpaceOnUse">
<stop offset="0.04" stop-color="#AD3511"/>
<stop offset="0.34" stop-color="#B32B13"/>
<stop offset="0.92" stop-color="#FF2222"/>
<stop offset="1" stop-color="#FF2222"/>
</linearGradient>
<linearGradient id="paint27_linear_5_1078" x1="262.505" y1="117.887" x2="272.267" y2="117.887" gradientUnits="userSpaceOnUse">
<stop offset="0.04" stop-color="#AD3511"/>
<stop offset="0.34" stop-color="#B32B13"/>
<stop offset="0.92" stop-color="#FF2222"/>
<stop offset="1" stop-color="#FF2222"/>
</linearGradient>
<linearGradient id="paint28_linear_5_1078" x1="246.048" y1="126.933" x2="271.705" y2="126.933" gradientUnits="userSpaceOnUse">
<stop offset="0.04" stop-color="#AD3511"/>
<stop offset="0.34" stop-color="#B32B13"/>
<stop offset="0.92" stop-color="#FF2222"/>
<stop offset="1" stop-color="#FF2222"/>
</linearGradient>
<linearGradient id="paint29_linear_5_1078" x1="251.938" y1="126.908" x2="271.724" y2="126.908" gradientUnits="userSpaceOnUse">
<stop offset="0.04" stop-color="#AD3511"/>
<stop offset="0.34" stop-color="#B32B13"/>
<stop offset="0.92" stop-color="#FF2222"/>
<stop offset="1" stop-color="#FF2222"/>
</linearGradient>
<linearGradient id="paint30_linear_5_1078" x1="265.325" y1="106.659" x2="259.392" y2="101.817" gradientUnits="userSpaceOnUse">
<stop offset="0.04" stop-color="#A4A390"/>
<stop offset="0.58" stop-color="#C1C6BF"/>
<stop offset="1" stop-color="#DADED7"/>
</linearGradient>
<linearGradient id="paint31_linear_5_1078" x1="266.72" y1="103.964" x2="251.387" y2="103.964" gradientUnits="userSpaceOnUse">
<stop offset="0.04" stop-color="#089C21"/>
<stop offset="0.19" stop-color="#11A430"/>
<stop offset="0.48" stop-color="#28BB58"/>
<stop offset="0.88" stop-color="#4EDF99"/>
<stop offset="1" stop-color="#5BEBAE"/>
</linearGradient>
<radialGradient id="paint32_radial_5_1078" cx="0" cy="0" r="1" gradientUnits="userSpaceOnUse" gradientTransform="translate(261.45 107.794) rotate(180) scale(6.04802 6.05146)">
<stop stop-color="white"/>
<stop offset="1"/>
</radialGradient>
<linearGradient id="paint33_linear_5_1078" x1="235.8" y1="114.316" x2="237.259" y2="108.63" gradientUnits="userSpaceOnUse">
<stop stop-color="#C1C6BF"/>
<stop offset="0.74" stop-color="#EEEFED"/>
<stop offset="1" stop-color="white"/>
</linearGradient>
<linearGradient id="paint34_linear_5_1078" x1="232.646" y1="118.705" x2="258.729" y2="118.705" gradientUnits="userSpaceOnUse">
<stop offset="0.04" stop-color="#AD3511"/>
<stop offset="0.34" stop-color="#B32B13"/>
<stop offset="0.92" stop-color="#FF2222"/>
<stop offset="1" stop-color="#FF2222"/>
</linearGradient>
</defs>
</svg>
