<svg width="1115" height="855" viewBox="0 0 1115 855" fill="none" xmlns="http://www.w3.org/2000/svg">
<g style="mix-blend-mode:screen" opacity="0.5">
<path d="M568.082 841.013L373.801 730.542C361.006 723.261 360.932 711.457 373.653 704.249L831.103 444.121C843.824 436.889 864.576 436.937 877.371 444.194L1071.65 554.664C1084.45 561.945 1084.52 573.749 1071.8 580.958L614.35 841.085C601.629 848.318 580.877 848.269 568.082 841.013ZM875.529 445.234C863.765 438.534 844.659 438.509 832.969 445.161L375.52 705.289C363.83 711.941 363.879 722.801 375.643 729.478L569.924 839.948C581.688 846.649 600.794 846.673 612.484 840.021L1069.93 579.893C1081.62 573.241 1081.57 562.381 1069.81 555.705L875.529 445.234Z" fill="white"/>
<path d="M980.834 540.417L902.395 495.813L907.478 492.935L985.893 537.539L980.834 540.417Z" fill="white"/>
<path d="M595.587 763.439L518.449 719.56C508.479 713.876 508.43 704.684 518.327 699.048C528.248 693.412 544.432 693.436 554.403 699.121L631.541 742.999C641.512 748.684 641.561 757.875 631.664 763.511C621.767 769.147 605.558 769.123 595.587 763.439ZM551.652 700.669C543.204 695.879 529.501 695.831 521.126 700.62C512.727 705.386 512.776 713.174 521.225 717.988L598.363 761.867C606.811 766.656 620.514 766.704 628.889 761.915C637.288 757.15 637.238 749.361 628.79 744.547L551.652 700.669Z" fill="white"/>
<path d="M980.22 564.05L1004.97 578.128C1006.01 578.708 1007.65 578.708 1008.66 578.128C1009.67 577.547 1009.67 576.604 1008.66 576.023L983.903 561.945C982.872 561.365 981.227 561.365 980.22 561.945C979.213 562.526 979.213 563.469 980.22 564.05ZM1002.47 579.555L977.715 565.477C976.683 564.896 975.038 564.896 974.031 565.477C973.024 566.057 973.024 567.001 974.031 567.581L998.786 581.659C999.817 582.24 1001.46 582.24 1002.47 581.659C1003.48 581.079 1003.48 580.135 1002.47 579.555ZM996.256 583.086L971.501 569.008C970.47 568.428 968.825 568.428 967.818 569.008C966.811 569.589 966.811 570.532 967.818 571.113L992.573 585.191C993.604 585.771 995.249 585.771 996.256 585.191C997.263 584.61 997.263 583.667 996.256 583.086Z" fill="white"/>
<path d="M926.759 639.979L768.455 550.19L769.879 549.367L928.208 639.156L926.759 639.979Z" fill="white"/>
<path d="M859.052 681.898L700.748 592.109L702.172 591.287L860.5 681.1L859.052 681.898Z" fill="white"/>
<path d="M898.05 659.257L739.746 569.444L741.17 568.622L899.499 658.435L898.05 659.257Z" fill="white"/>
<path d="M796.009 644.381L777.418 633.81L921.92 562.066L796.009 644.381Z" fill="white"/>
<path d="M823.44 659.959L804.85 649.388L926.807 590.464L823.44 659.959Z" fill="white"/>
<path d="M850.455 675.73L831.84 665.159L922.239 624.183L850.455 675.73Z" fill="white"/>
<path d="M796.181 711.336L637.877 621.547L639.326 620.724L797.629 710.514L796.181 711.336Z" fill="white"/>
<path d="M728.473 753.255L570.17 663.466L571.619 662.644L729.922 752.457L728.473 753.255Z" fill="white"/>
<path d="M767.471 730.614L609.168 640.801L610.617 639.979L768.92 729.792L767.471 730.614Z" fill="white"/>
<path d="M705.832 738.96L720.788 747.474L775.922 716.125L760.966 707.611L705.832 738.96Z" fill="white"/>
<path d="M676.459 722.269L691.44 730.784L775.577 682.938L760.621 674.424L676.459 722.269Z" fill="white"/>
<path d="M647.111 705.579L662.067 714.093L728.08 676.552L713.124 668.038L647.111 705.579Z" fill="white"/>
</g>
<g style="mix-blend-mode:screen" opacity="0.5">
<path d="M601.504 519.518L407.223 409.048C394.428 401.767 394.354 389.962 407.075 382.73L864.525 122.603C877.246 115.37 897.998 115.418 910.793 122.675L1105.07 233.146C1117.87 240.427 1117.94 252.231 1105.22 259.439L647.772 519.567C635.051 526.799 614.299 526.751 601.504 519.494V519.518ZM908.951 123.739C897.187 117.039 878.081 117.015 866.391 123.667L408.942 383.794C397.252 390.446 397.301 401.307 409.064 407.983L603.346 518.454C615.109 525.154 634.216 525.178 645.906 518.527L1103.36 258.399C1115.05 251.747 1115 240.886 1103.23 234.186L908.951 123.739Z" fill="white"/>
<path d="M1014.23 218.923L935.816 174.343L940.9 171.44L1019.32 216.045L1014.23 218.923Z" fill="white"/>
<path d="M961.58 238.226L971.968 244.128L977.125 241.201L966.737 235.299L961.58 238.226ZM989.478 261.762L983.093 258.133L977.936 261.06L984.321 264.688L989.478 261.762ZM995.249 251.505L981.399 243.62L976.241 246.547L990.092 254.432L995.249 251.505ZM1027.1 270.131L999.498 253.924L994.341 256.851L1021.94 273.058L1027.1 270.131ZM985.009 272.767L962.636 260.044L957.479 262.971L979.851 275.694L985.009 272.767ZM958.387 257.625L944.536 249.74L939.379 252.666L953.23 260.552L958.387 257.625ZM944.88 242.265L973.638 258.617L978.795 255.69L950.037 239.338L944.88 242.265ZM965.902 275.452L937.144 259.101L931.987 262.028L960.745 278.379L965.902 275.452ZM1015.83 276.759L993.727 264.18L988.57 267.107L1010.67 279.685L1015.83 276.759ZM1000.75 281.717L989.257 275.211L984.1 278.137L995.593 284.644L1000.75 281.717ZM962.489 232.88L952.469 227.171L947.311 230.098L957.331 235.807L962.489 232.88ZM932.896 256.682L916.761 247.49L911.604 250.417L927.738 259.609L932.896 256.682ZM940.263 247.321L928.647 240.717L923.49 243.644L935.106 250.248L940.263 247.321ZM945.789 236.92L940.558 233.944L935.401 236.871L940.632 239.846L945.789 236.92Z" fill="white"/>
<path d="M939.108 214.907L864.843 257.141L790.726 214.98L864.991 172.746L939.108 214.907ZM944.658 214.907L864.966 169.602L785.176 214.98L864.868 260.286L944.658 214.907Z" fill="white"/>
</g>
<g filter="url(#filter0_d_5_2740)">
<path d="M544.506 725.317L362.994 622.103C353.859 616.903 349.291 609.961 349.168 602.68C349.168 602.027 349.168 596.487 349.242 595.834C350.003 587.392 356.585 592.037 368.716 585.143L795.517 342.431C819.167 328.982 854.924 327.531 875.406 339.166L1056.92 442.38C1066.05 447.58 1070.6 438.437 1070.74 445.718C1070.74 446.347 1070.74 454.595 1070.67 455.248C1069.93 463.69 1063.35 472.447 1051.17 479.365L624.37 722.076C600.72 735.525 564.963 736.977 544.481 725.342L544.506 725.317Z" fill="url(#paint0_linear_5_2740)"/>
<path d="M795.542 341.706C819.191 328.257 854.948 326.805 875.43 338.44L1056.94 441.654C1065.93 446.758 1070.15 438.244 1070.67 445.379C1070.72 446.129 1070.77 454.136 1070.69 454.886C1069.98 463.352 1063.38 472.084 1051.19 479.026L624.394 721.738C600.744 735.187 564.987 736.638 544.506 725.003L362.994 621.789C353.809 616.564 349.242 609.598 349.168 602.293C349.168 601.567 349.242 596.173 349.315 595.447C350.347 587.126 356.707 591.263 368.716 584.441L795.517 341.73L795.542 341.706Z" fill="url(#paint1_linear_5_2740)"/>
<path d="M795.542 340.98C819.191 327.531 854.949 326.08 875.43 337.714L1056.94 440.928C1065.76 445.936 1069.79 438.074 1070.57 445.041C1070.67 445.911 1070.77 453.652 1070.69 454.547C1070.01 463.013 1063.4 471.769 1051.19 478.712L624.394 721.423C600.744 734.872 564.987 736.323 544.506 724.689L362.994 621.474C353.785 616.25 349.193 609.235 349.168 601.906C349.168 601.107 349.291 595.858 349.414 595.06C350.641 586.884 356.879 590.464 368.741 583.716L795.542 341.004V340.98Z" fill="url(#paint2_linear_5_2740)"/>
<path d="M795.541 340.254C819.191 326.805 854.948 325.354 875.43 336.989L1056.94 440.203C1065.59 445.113 1069.49 437.905 1070.47 444.702C1070.62 445.694 1070.77 453.192 1070.69 454.184C1070.03 462.65 1063.4 471.431 1051.19 478.373L624.394 721.084C600.744 734.533 564.987 735.985 544.505 724.35L362.994 621.136C353.76 615.887 349.143 608.848 349.192 601.494C349.192 600.624 349.339 595.52 349.511 594.625C350.936 586.57 357.051 589.618 368.74 582.966L795.541 340.254Z" fill="url(#paint3_linear_5_2740)"/>
<path d="M795.542 339.504C819.192 326.055 854.949 324.604 875.431 336.239L1056.94 439.453C1065.44 444.291 1069.22 437.711 1070.38 444.339C1070.57 445.452 1070.79 452.684 1070.69 453.821C1070.06 462.311 1063.43 471.092 1051.2 478.034L624.395 720.746C600.745 734.195 564.988 735.646 544.506 724.011L362.995 620.797C353.736 615.524 349.095 608.461 349.193 601.083C349.193 600.116 349.39 595.181 349.586 594.213C351.158 586.255 357.199 588.795 368.742 582.216L795.542 339.504Z" fill="url(#paint4_linear_5_2740)"/>
<path d="M795.543 338.779C819.193 325.33 854.95 323.879 875.432 335.513L1056.94 438.728C1065.27 443.469 1069 437.518 1070.28 444.001C1070.52 445.21 1070.79 452.225 1070.7 453.459C1070.06 461.949 1063.43 470.729 1051.2 477.696L624.396 720.407C600.746 733.856 564.989 735.308 544.507 723.673L362.996 620.459C353.688 615.161 349.071 608.074 349.194 600.672C349.194 599.632 349.44 594.867 349.685 593.803C351.38 585.965 357.347 587.973 368.742 581.49L795.543 338.779Z" fill="url(#paint5_linear_5_2740)"/>
<path d="M795.542 338.053C819.192 324.604 854.949 323.153 875.431 334.788L1056.94 438.002C1065.12 442.646 1068.8 437.349 1070.2 443.662C1070.5 444.993 1070.82 451.765 1070.72 453.12C1070.11 461.61 1063.45 470.415 1051.22 477.381L624.419 720.093C600.769 733.542 565.012 734.993 544.531 723.358L363.019 620.144C353.687 614.847 349.046 607.736 349.217 600.285C349.217 599.173 349.512 594.553 349.782 593.391C351.6 585.675 357.518 587.151 368.766 580.765L795.567 338.053H795.542Z" fill="url(#paint6_linear_5_2740)"/>
<path d="M795.543 337.328C819.193 323.879 854.95 322.427 875.432 334.062L1056.94 437.276C1064.95 441.824 1068.61 437.155 1070.11 443.323C1070.45 444.775 1070.82 451.281 1070.72 452.781C1070.11 461.296 1063.48 470.1 1051.22 477.067L624.42 719.778C600.771 733.227 565.014 734.679 544.532 723.044L363.021 619.83C353.664 614.508 349.022 607.372 349.219 599.898C349.243 598.689 349.563 594.238 349.857 593.004C351.773 585.409 357.667 586.352 368.743 580.039L795.543 337.328Z" fill="url(#paint7_linear_5_2740)"/>
<path d="M795.541 336.602C819.191 323.153 854.948 321.702 875.43 333.336L1056.94 436.551C1064.77 441.001 1068.43 436.986 1070.01 442.985C1070.42 444.557 1070.82 450.822 1070.72 452.418C1070.13 460.933 1063.47 469.762 1051.22 476.728L624.418 719.44C600.768 732.889 565.011 734.34 544.53 722.705L363.018 619.491C353.637 614.145 348.995 606.986 349.217 599.487C349.266 598.205 349.585 593.899 349.953 592.593C351.943 585.095 357.812 585.53 368.765 579.313L795.566 336.602H795.541Z" fill="url(#paint8_linear_5_2740)"/>
<path d="M795.541 335.876C819.191 322.427 854.948 320.976 875.429 332.611L1056.94 435.825C1064.63 440.203 1068.26 436.792 1069.91 442.646C1070.37 444.339 1070.84 450.338 1070.72 452.08C1070.13 460.594 1063.5 469.423 1051.22 476.414L624.418 719.125C600.768 732.574 565.011 734.025 544.529 722.391L363.018 619.177C353.588 613.831 348.971 606.623 349.216 599.1C349.265 597.745 349.634 593.585 350.027 592.182C352.114 584.804 357.959 584.707 368.765 578.588L795.565 335.876H795.541Z" fill="url(#paint9_linear_5_2740)"/>
<path d="M795.543 335.151C819.193 321.702 854.95 320.25 875.431 331.885L1056.94 435.099C1064.46 439.381 1068.12 436.599 1069.81 442.307C1070.35 444.122 1070.84 449.879 1070.72 451.717C1070.13 460.231 1063.5 469.085 1051.22 476.075L624.42 718.787C600.77 732.236 565.013 733.687 544.531 722.052L363.02 618.838C353.565 613.468 348.948 606.236 349.218 598.689C349.267 597.237 349.66 593.246 350.102 591.771C352.263 584.49 358.108 583.909 368.742 577.838L795.543 335.126V335.151Z" fill="url(#paint10_linear_5_2740)"/>
<path d="M795.543 334.401C819.193 320.952 854.95 319.5 875.432 331.135L1056.94 434.349C1064.31 438.534 1067.97 436.381 1069.71 441.944C1070.33 443.88 1070.84 449.37 1070.72 451.354C1070.16 459.893 1063.52 468.746 1051.22 475.736L624.42 718.448C600.77 731.897 565.013 733.348 544.531 721.713L363.02 618.499C353.541 613.105 348.924 605.848 349.218 598.277C349.267 596.753 349.71 592.907 350.201 591.359C352.436 584.175 358.256 583.087 368.767 577.112L795.568 334.401H795.543Z" fill="url(#paint11_linear_5_2740)"/>
<path d="M795.541 333.675C819.191 320.226 854.948 318.775 875.43 330.409L1056.94 433.624C1064.14 437.711 1067.82 436.188 1069.61 441.606C1070.3 443.638 1070.84 448.911 1070.72 450.991C1070.15 459.53 1063.52 468.407 1051.22 475.398L624.418 718.109C600.768 731.558 565.011 733.01 544.53 721.375L363.019 618.161C353.514 612.742 348.897 605.462 349.217 597.866C349.29 596.27 349.732 592.569 350.273 590.948C352.557 583.861 358.402 582.264 368.741 576.386L795.541 333.675Z" fill="url(#paint12_linear_5_2740)"/>
<path d="M795.542 332.949C819.192 319.5 854.949 318.049 875.431 329.684L1056.94 432.898C1063.97 436.889 1067.67 435.994 1069.52 441.267C1070.28 443.42 1070.84 448.427 1070.69 450.652C1070.13 459.191 1063.5 468.093 1051.17 475.083L624.37 717.795C600.72 731.244 564.963 732.695 544.481 721.06L362.97 617.846C353.417 612.428 348.825 605.099 349.168 597.479C349.242 595.786 349.733 592.254 350.298 590.537C352.656 583.57 358.501 581.442 368.692 575.636L795.493 332.925L795.542 332.949Z" fill="url(#paint13_linear_5_2740)"/>
<path d="M795.543 332.224C819.193 318.775 854.95 317.323 875.432 328.958L1056.94 432.172C1063.82 436.091 1067.55 435.776 1069.44 440.953C1070.28 443.226 1070.89 447.992 1070.72 450.314C1070.18 458.877 1063.55 467.754 1051.2 474.769L624.396 717.48C600.746 730.929 564.989 732.381 544.507 720.746L362.996 617.532C353.418 612.089 348.826 604.736 349.194 597.092C349.293 595.326 349.784 591.94 350.422 590.15C352.829 583.28 358.698 580.644 368.743 574.935L795.543 332.224Z" fill="url(#paint14_linear_5_2740)"/>
<path d="M795.544 331.498C819.194 318.049 854.951 316.597 875.433 328.232L1056.94 431.446C1063.65 435.268 1067.41 435.583 1069.35 440.614C1070.25 442.984 1070.89 447.508 1070.72 449.975C1070.18 458.538 1063.55 467.439 1051.2 474.454L624.397 717.166C600.747 730.615 564.99 732.066 544.508 720.431L362.997 617.217C353.395 611.75 348.802 604.373 349.195 596.705C349.293 594.867 349.809 591.625 350.497 589.763C352.977 582.99 358.822 579.845 368.719 574.233L795.52 331.522L795.544 331.498Z" fill="url(#paint15_linear_5_2740)"/>
<path d="M795.541 330.772C819.191 317.323 854.948 315.872 875.43 327.507L1056.94 430.721C1063.5 434.446 1067.28 435.365 1069.24 440.276C1070.25 442.743 1070.89 447.048 1070.72 449.612C1070.18 458.175 1063.57 467.101 1051.19 474.116L624.394 716.827C600.744 730.276 564.987 731.728 544.505 720.093L362.994 616.879C353.367 611.388 348.774 603.986 349.192 596.294C349.29 594.383 349.83 591.287 350.567 589.328C353.097 582.627 358.966 578.999 368.716 573.46L795.516 330.748L795.541 330.772Z" fill="url(#paint16_linear_5_2740)"/>
<path d="M795.543 330.023C819.193 316.574 854.95 315.122 875.432 326.757L1056.94 429.971C1063.33 433.6 1067.13 435.148 1069.15 439.913C1070.23 442.501 1070.89 446.541 1070.72 449.25C1070.18 457.837 1063.57 466.763 1051.2 473.777L624.396 716.489C600.746 729.938 564.989 731.389 544.507 719.754L362.996 616.54C353.32 611.049 348.777 603.599 349.219 595.883C349.342 593.875 349.882 590.948 350.692 588.916C353.271 582.313 359.165 578.177 368.743 572.734L795.543 330.023Z" fill="url(#paint17_linear_5_2740)"/>
<path d="M795.541 329.297C819.191 315.848 854.948 314.396 875.429 326.031L1056.94 429.245C1063.15 432.777 1067.01 434.93 1069.05 439.574C1070.23 442.259 1070.89 446.081 1070.72 448.911C1070.18 457.498 1063.57 466.424 1051.19 473.463L624.393 716.174C600.743 729.623 564.986 731.075 544.505 719.44L362.993 616.226C353.293 610.711 348.75 603.236 349.216 595.496C349.339 593.415 349.904 590.634 350.763 588.529C353.391 582.022 359.285 577.402 368.74 572.032L795.541 329.321V329.297Z" fill="url(#paint18_linear_5_2740)"/>
<path d="M795.542 328.571C819.192 315.122 854.949 313.671 875.431 325.306L1056.94 428.52C1063.01 431.955 1066.86 434.712 1068.95 439.235C1070.23 442.017 1070.89 445.597 1070.72 448.548C1070.2 457.135 1063.6 466.085 1051.2 473.148L624.395 715.86C600.745 729.309 564.988 730.76 544.506 719.125L362.995 615.911C353.27 610.372 348.726 602.898 349.218 595.109C349.34 592.956 349.93 590.319 350.838 588.118C353.515 581.708 359.434 576.58 368.717 571.283L795.518 328.571H795.542Z" fill="url(#paint19_linear_5_2740)"/>
<path d="M795.542 327.845C819.192 314.396 854.949 312.945 875.431 324.58L1056.94 427.794C1062.84 431.156 1066.74 434.494 1068.85 438.897C1070.25 441.775 1070.89 445.137 1070.72 448.209C1070.2 456.821 1063.6 465.771 1051.2 472.834L624.395 715.545C600.745 728.994 564.988 730.446 544.506 718.811L362.995 615.597C353.245 610.057 348.727 602.535 349.218 594.722C349.365 592.472 349.955 589.981 350.937 587.731C353.663 581.393 359.606 575.782 368.742 570.581L795.542 327.87V327.845Z" fill="url(#paint20_linear_5_2740)"/>
<path d="M544.506 718.472L362.995 615.258C342.513 603.623 345.092 583.28 368.742 569.831L795.542 327.12C819.192 313.671 854.949 312.219 875.431 323.854L1056.94 427.068C1077.42 438.703 1074.84 459.046 1051.2 472.495L624.395 715.207C600.745 728.656 564.988 730.107 544.506 718.472Z" fill="url(#paint21_linear_5_2740)"/>
</g>
<path d="M544.506 718.665L362.994 615.451C353.859 610.251 349.291 603.309 349.168 596.028C349.168 595.375 349.168 581.369 349.242 580.716C350.003 572.274 356.585 576.918 368.716 570.025L795.517 327.313C819.167 313.864 854.924 312.413 875.406 324.048L1056.92 427.262C1066.05 432.462 1070.6 423.319 1070.74 430.6C1070.74 431.229 1070.74 447.943 1070.67 448.596C1069.93 457.038 1063.35 465.795 1051.17 472.713L624.37 715.424C600.72 728.873 564.963 730.324 544.481 718.69L544.506 718.665Z" fill="url(#paint22_linear_5_2740)"/>
<path d="M795.543 326.588C819.193 313.139 854.95 311.687 875.432 323.322L1056.94 426.536C1065.88 431.616 1069.84 423.101 1070.62 430.164C1070.72 431.011 1070.77 447.169 1070.67 448.016C1069.69 456.385 1063.3 465.093 1051.22 471.963L624.42 714.674C600.77 728.123 565.013 729.575 544.532 717.94L363.02 614.726C353.909 609.549 349.44 602.631 349.219 595.399C349.194 594.576 349.292 581.006 349.44 580.184C350.79 571.96 356.832 576.096 368.767 569.299L795.568 326.588H795.543Z" fill="url(#paint23_linear_5_2740)"/>
<path d="M795.541 325.862C819.191 312.413 854.948 310.961 875.43 322.596L1056.94 425.81C1065.68 430.769 1069.32 422.908 1070.47 429.753C1070.64 430.793 1070.79 446.395 1070.64 447.484C1069.49 455.78 1063.23 464.44 1051.22 471.261L624.418 713.973C600.769 727.422 565.012 728.873 544.53 717.238L363.019 614.024C353.957 608.872 349.536 602.002 349.217 594.794C349.168 593.802 349.364 580.692 349.585 579.676C351.28 571.669 357.051 575.273 368.741 568.622L795.541 325.91V325.862Z" fill="url(#paint24_linear_5_2740)"/>
<path d="M795.542 325.136C819.192 311.687 854.949 310.236 875.431 321.871L1056.94 425.085C1065.49 429.947 1068.95 422.69 1070.33 429.318C1070.6 430.576 1070.79 445.597 1070.6 446.903C1069.32 455.152 1063.13 463.714 1051.2 470.511L624.395 713.223C600.745 726.672 564.988 728.123 544.506 716.488L362.995 613.274C353.957 608.146 349.586 601.301 349.193 594.141C349.119 592.956 349.414 580.329 349.709 579.095C351.674 571.282 357.224 574.379 368.717 567.848L795.518 325.136H795.542Z" fill="url(#paint25_linear_5_2740)"/>
<path d="M795.543 324.386C819.192 310.937 854.949 309.486 875.431 321.121L1056.94 424.335C1065.27 429.076 1068.63 422.448 1070.18 428.858C1070.55 430.334 1070.82 444.799 1070.57 446.322C1069.22 454.498 1063.06 463.013 1051.2 469.761L624.395 712.473C600.745 725.922 564.988 727.373 544.506 715.738L362.995 612.524C354.007 607.421 349.635 600.599 349.193 593.464C349.12 592.109 349.464 579.942 349.881 578.515C352.018 570.895 357.47 573.508 368.742 567.098L795.543 324.386Z" fill="url(#paint26_linear_5_2740)"/>
<path d="M795.542 323.661C819.191 310.212 854.948 308.76 875.43 320.395L1056.94 423.609C1065.07 428.229 1068.36 422.231 1070.03 428.447C1070.5 430.14 1070.84 444.025 1070.52 445.766C1069.1 453.894 1062.96 462.336 1051.19 469.036L624.394 711.748C600.744 725.197 564.987 726.648 544.505 715.013L362.994 611.799C354.03 606.719 349.684 599.947 349.217 592.835C349.119 591.287 349.561 579.604 350.052 577.983C352.311 570.533 357.69 572.661 368.741 566.372L795.542 323.661Z" fill="url(#paint27_linear_5_2740)"/>
<path d="M795.542 322.935C819.192 309.486 854.949 308.035 875.431 319.67L1056.94 422.884C1064.87 427.407 1068.14 422.013 1069.88 428.012C1070.45 429.923 1070.87 443.227 1070.5 445.21C1069 453.265 1062.88 461.659 1051.2 468.311L624.395 711.022C600.745 724.471 564.988 725.922 544.506 714.288L362.995 611.073C354.08 605.994 349.733 599.269 349.217 592.206C349.095 590.489 349.61 579.241 350.2 577.427C352.582 570.146 357.887 571.815 368.741 565.647L795.542 322.935Z" fill="url(#paint28_linear_5_2740)"/>
<path d="M795.542 322.209C819.191 308.76 854.948 307.309 875.43 318.944L1056.94 422.158C1064.68 426.56 1067.92 421.771 1069.76 427.6C1070.42 429.729 1070.91 442.477 1070.5 444.654C1068.95 452.66 1062.84 460.981 1051.22 467.585L624.418 710.296C600.769 723.745 565.012 725.197 544.53 713.562L363.019 610.348C354.153 605.292 349.782 598.616 349.242 591.577C349.094 589.666 349.684 578.902 350.371 576.894C352.852 569.783 358.132 570.968 368.741 564.921L795.542 322.209Z" fill="url(#paint29_linear_5_2740)"/>
<path d="M795.543 321.484C819.193 308.035 854.95 306.583 875.432 318.218L1056.94 421.432C1064.48 425.714 1067.72 421.529 1069.61 427.165C1070.4 429.511 1070.94 441.678 1070.45 444.073C1068.85 452.031 1062.74 460.28 1051.22 466.835L624.42 709.546C600.77 722.995 565.013 724.447 544.531 712.812L363.02 609.598C354.179 604.567 349.832 597.915 349.243 590.924C349.071 588.844 349.71 578.539 350.52 576.338C353.074 569.396 358.33 570.097 368.742 564.195L795.543 321.484Z" fill="url(#paint30_linear_5_2740)"/>
<path d="M795.541 320.758C819.19 307.309 854.948 305.858 875.429 317.492L1056.94 420.707C1064.26 424.867 1067.53 421.287 1069.47 426.754C1070.37 429.318 1070.96 440.904 1070.42 443.541C1068.8 451.426 1062.66 459.626 1051.22 466.133L624.418 708.845C600.768 722.294 565.011 723.745 544.529 712.11L363.018 608.896C354.226 603.889 349.855 597.261 349.265 590.319C349.069 588.07 349.781 578.2 350.69 575.806C353.293 569.009 358.573 569.275 368.74 563.469L795.541 320.758Z" fill="url(#paint31_linear_5_2740)"/>
<path d="M795.54 320.032C819.19 306.583 854.947 305.132 875.429 316.767L1056.94 419.981C1064.06 424.045 1067.33 421.045 1069.32 426.318C1070.35 429.076 1070.99 440.13 1070.4 442.96C1068.73 450.798 1062.59 458.925 1051.22 465.384L624.417 708.095C600.768 721.544 565.011 722.995 544.529 711.36L363.018 608.146C354.25 603.164 349.879 596.584 349.265 589.642C349.044 587.199 349.805 577.814 350.861 575.225C353.538 568.573 358.794 568.38 368.764 562.72L795.565 320.008L795.54 320.032Z" fill="url(#paint32_linear_5_2740)"/>
<path d="M795.543 319.282C819.193 305.833 854.95 304.382 875.432 316.017L1056.94 419.231C1063.87 423.174 1067.16 420.779 1069.17 425.883C1070.35 428.858 1071.04 439.332 1070.35 442.404C1068.63 450.193 1062.49 458.248 1051.2 464.658L624.396 707.369C600.746 720.818 564.989 722.27 544.507 710.635L362.996 607.421C354.278 602.462 349.882 595.907 349.243 589.013C348.998 586.4 349.808 577.451 350.987 574.693C353.713 568.186 358.993 567.533 368.718 561.994L795.519 319.282H795.543Z" fill="url(#paint33_linear_5_2740)"/>
<path d="M795.541 318.557C819.19 305.108 854.947 303.656 875.429 315.291L1056.94 418.505C1063.67 422.327 1066.98 420.513 1069.02 425.448C1070.35 428.616 1071.06 438.534 1070.32 441.823C1068.58 449.564 1062.42 457.546 1051.22 463.908L624.418 706.619C600.768 720.068 565.011 721.52 544.529 709.885L363.018 606.671C354.349 601.736 349.953 595.229 349.29 588.36C349.02 585.554 349.879 577.088 351.181 574.113C353.956 567.751 359.236 566.662 368.765 561.244L795.565 318.533L795.541 318.557Z" fill="url(#paint34_linear_5_2740)"/>
<path d="M795.542 317.831C819.192 304.382 854.949 302.931 875.43 314.565L1056.94 417.78C1063.47 421.48 1066.81 420.271 1068.88 425.036C1070.35 428.398 1071.09 437.784 1070.28 441.291C1068.51 448.983 1062.3 456.893 1051.19 463.206L624.394 705.918C600.745 719.367 564.988 720.818 544.506 709.183L362.995 605.969C354.35 601.059 349.954 594.576 349.266 587.755C348.972 584.78 349.88 576.749 351.305 573.604C354.129 567.388 359.409 565.84 368.741 560.542L795.542 317.831Z" fill="url(#paint35_linear_5_2740)"/>
<path d="M795.541 317.105C819.191 303.656 854.948 302.205 875.429 313.84L1056.94 417.054C1063.28 420.658 1066.64 420.005 1068.73 424.601C1070.35 428.157 1071.14 436.986 1070.25 440.711C1068.43 448.354 1062.22 456.192 1051.19 462.456L624.393 705.168C600.744 718.617 564.987 720.068 544.505 708.433L362.994 605.219C354.398 600.333 349.978 593.899 349.265 587.102C348.946 583.933 349.879 576.362 351.451 573.048C354.325 566.977 359.629 564.969 368.716 559.817L795.516 317.105H795.541Z" fill="url(#paint36_linear_5_2740)"/>
<path d="M795.541 316.38C819.191 302.931 854.948 301.479 875.43 313.114L1056.94 416.328C1063.06 419.811 1066.47 419.739 1068.61 424.19C1070.4 427.939 1071.21 436.236 1070.25 440.178C1068.41 447.774 1062.17 455.538 1051.22 461.755L624.418 704.466C600.769 717.915 565.012 719.367 544.53 707.732L363.019 604.518C354.448 599.656 350.027 593.246 349.291 586.497C348.922 583.159 349.929 576.023 351.624 572.54C354.546 566.59 359.851 564.171 368.741 559.115L795.541 316.404V316.38Z" fill="url(#paint37_linear_5_2740)"/>
<path d="M795.542 315.654C819.191 302.205 854.948 300.754 875.43 312.389L1056.94 415.603C1062.86 418.965 1066.3 419.473 1068.46 423.754C1070.42 427.697 1071.23 435.438 1070.2 439.598C1068.34 447.145 1062.07 454.813 1051.22 461.005L624.419 703.717C600.769 717.166 565.012 718.617 544.53 706.982L363.019 603.768C354.497 598.93 350.052 592.569 349.315 585.82C348.922 582.313 349.954 575.588 351.82 571.936C354.792 566.13 360.121 563.252 368.766 558.317L795.566 315.606L795.542 315.654Z" fill="url(#paint38_linear_5_2740)"/>
<path d="M795.543 314.904C819.192 301.455 854.949 300.004 875.431 311.639L1056.94 414.853C1062.66 418.094 1066.13 419.183 1068.31 423.319C1070.5 427.455 1071.28 434.664 1070.18 439.042C1068.26 446.541 1062 454.136 1051.22 460.28L624.419 702.991C600.77 716.44 565.013 717.892 544.531 706.257L363.02 603.043C354.547 598.229 350.078 591.892 349.316 585.191C348.899 581.49 349.93 575.225 351.969 571.404C354.965 565.719 360.318 562.405 368.766 557.616L795.567 314.904H795.543Z" fill="#242424" fill-opacity="0.6"/>
<path d="M795.541 314.179C819.191 300.73 854.948 299.278 875.43 310.913L1056.94 414.127C1062.47 417.272 1065.95 418.892 1068.16 422.884C1070.52 427.165 1071.33 433.89 1070.13 438.461C1068.19 445.911 1061.9 453.434 1051.19 459.53L624.394 702.241C600.744 715.69 564.987 717.142 544.505 705.507L362.994 602.293C354.546 597.479 350.076 591.19 349.291 584.538C348.824 580.668 349.904 574.814 352.09 570.847C355.135 565.284 360.514 561.559 368.716 556.866L795.517 314.154L795.541 314.179Z" fill="#242424" fill-opacity="0.6"/>
<path d="M795.543 313.453C819.193 300.004 854.95 298.553 875.431 310.188L1056.94 413.402C1062.27 416.425 1065.78 418.626 1068.02 422.472C1070.57 426.899 1071.38 433.116 1070.11 437.929C1068.14 445.331 1061.83 452.781 1051.2 458.828L624.395 701.54C600.746 714.989 564.989 716.44 544.507 704.805L362.996 601.591C354.597 596.802 350.102 590.561 349.292 583.933C348.801 579.87 349.881 574.451 352.239 570.315C355.333 564.873 360.712 560.712 368.718 556.165L795.518 313.453H795.543Z" fill="#242424" fill-opacity="0.6"/>
<path d="M795.542 312.727C819.192 299.278 854.949 297.827 875.431 309.462L1056.94 412.676C1062.05 415.578 1065.61 418.336 1067.87 422.037C1070.65 426.633 1071.43 432.341 1070.08 437.348C1068.07 444.702 1061.76 452.079 1051.22 458.078L624.419 700.79C600.769 714.239 565.012 715.69 544.531 704.055L363.019 600.841C354.645 596.076 350.151 589.859 349.34 583.28C348.825 579.047 349.905 574.04 352.435 569.758C355.578 564.437 360.957 559.841 368.742 555.414L795.542 312.703V312.727Z" fill="#242424" fill-opacity="0.6"/>
<path d="M544.504 703.354L362.993 600.14C342.511 588.505 345.09 568.162 368.74 554.713L795.54 312.002C819.19 298.553 854.947 297.101 875.429 308.736L1056.94 411.95C1077.42 423.585 1074.84 443.928 1051.19 457.377L624.393 700.088C600.743 713.537 564.986 714.989 544.504 703.354Z" fill="#242424" fill-opacity="0.6"/>
<path d="M377.535 555.536L797.95 316.452C818.334 304.866 849.179 303.608 866.837 313.647L1044.47 414.659C1062.13 424.698 1059.92 442.235 1039.53 453.845L619.116 692.929C598.733 704.515 567.887 705.773 550.23 695.734L372.599 594.722C354.941 584.683 357.151 567.146 377.535 555.536Z" fill="white"/>
<path d="M966.223 522.106L987.81 509.843C990.511 508.319 992.697 504.207 992.697 500.651C992.697 497.119 990.511 495.474 987.81 497.023L966.223 509.286C963.522 510.81 961.336 514.922 961.336 518.478C961.336 522.01 963.522 523.655 966.223 522.106Z" fill="url(#paint39_linear_5_2740)"/>
<path d="M964.283 521.429C964.652 521.429 965.118 521.284 965.585 521.018L987.172 508.754C989.48 507.448 991.42 503.747 991.42 500.651C991.42 499.296 990.978 497.7 989.75 497.7C989.382 497.7 988.915 497.845 988.449 498.111L966.862 510.375C964.553 511.681 962.613 515.382 962.613 518.478C962.613 519.833 963.055 521.429 964.283 521.429Z" fill="#242424"/>
<path d="M927.69 544.021L949.277 531.758C951.978 530.234 954.164 526.122 954.164 522.566C954.164 519.034 951.978 517.389 949.277 518.938L927.69 531.201C924.988 532.725 922.803 536.837 922.803 540.393C922.803 543.925 924.988 545.57 927.69 544.021Z" fill="url(#paint40_linear_5_2740)"/>
<path d="M925.75 543.344C926.118 543.344 926.585 543.199 927.052 542.933L948.638 530.669C950.947 529.363 952.887 525.662 952.887 522.566C952.887 521.211 952.445 519.615 951.217 519.615C950.849 519.615 950.382 519.76 949.915 520.026L928.329 532.29C926.02 533.596 924.08 537.297 924.08 540.393C924.08 541.748 924.522 543.344 925.75 543.344Z" fill="#242424"/>
<g style="mix-blend-mode:multiply">
<path d="M580.928 696.484C571.006 696.484 561.674 694.283 554.601 690.243L382.005 592.085C374.735 587.949 370.732 582.385 370.732 576.435C370.732 570.508 374.686 565.018 381.857 560.93L811.752 316.477C818.702 312.51 827.961 310.333 837.784 310.333C847.608 310.333 857.038 312.558 864.111 316.573L1036.71 414.732C1043.98 418.868 1047.98 424.432 1047.98 430.406C1047.98 436.381 1044.03 441.823 1036.85 445.911L606.96 690.364C600.01 694.331 590.751 696.508 580.928 696.508V696.484ZM837.76 312.776C828.354 312.776 819.562 314.832 812.956 318.581L383.061 563.034C376.676 566.662 373.164 571.428 373.164 576.435C373.164 581.442 376.725 586.304 383.208 590.005L555.805 688.163C562.509 691.961 571.399 694.065 580.903 694.065C590.309 694.065 599.101 692.009 605.707 688.26L1035.6 443.807C1041.99 440.179 1045.5 435.413 1045.5 430.406C1045.5 425.399 1041.94 420.513 1035.45 416.836L862.858 318.678C856.154 314.88 847.264 312.776 837.76 312.776Z" fill="white"/>
</g>
<path d="M958.635 387.519L915.829 363.161C914.135 362.194 914.356 360.525 916.296 359.412C918.236 358.299 921.183 358.178 922.878 359.146L965.683 383.504C967.378 384.472 967.156 386.141 965.216 387.253C963.276 388.366 960.329 388.487 958.635 387.519Z" fill="black" fill-opacity="0.47"/>
<g style="mix-blend-mode:screen" opacity="0.5">
<path d="M529.356 432.631L455.091 474.865L380.974 432.704L455.238 390.47L529.356 432.631ZM534.906 432.656L455.214 387.35L375.424 432.728L455.116 478.034L534.906 432.656Z" fill="white"/>
<path d="M632.205 491.12L557.941 533.354L483.823 491.193L558.088 448.959L632.205 491.12ZM637.756 491.12L558.064 445.814L478.273 491.193L557.965 536.499L637.756 491.12Z" fill="white"/>
<path d="M203.586 744.789L9.62401 634.488C-3.14636 627.231 -3.22004 615.451 9.47666 608.219L466.165 348.527C478.862 341.318 499.564 341.342 512.335 348.599L706.297 458.901C719.067 466.157 719.141 477.937 706.444 485.17L249.756 744.862C237.059 752.07 216.357 752.046 203.586 744.789ZM510.517 349.639C498.778 342.963 479.697 342.915 468.031 349.567L11.3431 609.283C-0.322156 615.911 -0.273032 626.772 11.4659 633.448L205.428 743.749C217.167 750.425 236.249 750.474 247.914 743.822L704.603 484.13C716.268 477.478 716.219 466.641 704.48 459.965L510.517 349.663V349.639Z" fill="white"/>
<path d="M615.652 444.678L537.359 400.17L542.418 397.292L620.711 441.799L615.652 444.678Z" fill="white"/>
<path d="M362.602 455.345L372.278 460.86L377.066 458.127L367.39 452.612L362.602 455.345Z" fill="white"/>
<path d="M393.939 467.705L381.046 460.376L376.232 463.109L389.15 470.439L393.939 467.705Z" fill="white"/>
<path d="M379.646 452.418L406.44 467.657L411.253 464.924L384.46 449.685L379.646 452.418Z" fill="white"/>
<path d="M380.481 447.435L365.181 438.727L360.393 441.46L375.668 450.168L380.481 447.435Z" fill="white"/>
<path d="M410.418 469.907L416.361 473.293L421.175 470.56L415.207 467.173L410.418 469.907Z" fill="white"/>
<path d="M363.437 450.362L354.104 445.04L349.291 447.774L358.623 453.095L363.437 450.362Z" fill="white"/>
<path d="M335.565 667.772L147.791 561.026L149.387 560.107L337.161 666.853L335.565 667.772Z" fill="white"/>
<path opacity="0.4" d="M205.724 541.602L173.602 559.889L337.456 653.065L373.974 632.311L349.168 613.719L337.456 593.278L353.836 564.364L291.973 572.395L303.197 549.706L236.545 550.842L205.724 541.602Z" fill="white"/>
<path opacity="0.5" d="M194.034 548.254L173.602 559.889L337.456 653.065L365.207 637.294L344.552 616.357L324.047 612.234L335.565 575.588L285.072 581.756L285.343 565.283L232.959 564.582L194.034 548.254Z" fill="white"/>
<path opacity="0.8" d="M186.741 552.415L173.602 559.889L337.456 653.065L351.331 645.18L353.468 630.618L315.353 628.876L307.863 599.704L265.327 590.464L264.542 579.216L214.688 572.468L186.741 552.415Z" fill="white"/>
<path d="M233.08 623.845L212.402 612.089L207.564 614.847L228.242 626.602L233.08 623.845ZM223.699 631.174L199.042 617.144L194.204 619.902L218.861 633.932L223.699 631.174ZM254.028 635.746L237.083 626.119L232.245 628.876L249.19 638.503L254.028 635.746ZM264.613 641.769L258.007 638.02L253.169 640.777L259.775 644.526L264.613 641.769ZM167.558 586.594L152.455 578.007L147.617 580.764L162.72 589.351L167.558 586.594ZM164.39 597.455L141.305 584.32L136.467 587.078L159.552 600.212L164.39 597.455ZM227.677 633.448L222.839 636.205L229.323 639.882L234.161 637.125L227.677 633.448ZM198.453 604.155L171.537 588.843L166.699 591.601L193.615 606.913L198.453 604.155ZM208.423 609.815L202.456 606.405L197.618 609.162L203.585 612.573L208.423 609.815ZM195.039 614.895L182.072 607.517L177.234 610.275L190.201 617.652L195.039 614.895ZM168.369 599.728L163.531 602.486L173.256 608.001L178.094 605.244L168.369 599.728ZM233.326 642.156L251.008 652.218L255.846 649.461L238.164 639.398L233.326 642.156ZM290.399 656.451L268.592 644.043L263.754 646.8L285.561 659.209L290.399 656.451ZM304.471 664.458L294.378 658.725L289.54 661.483L299.633 667.216L304.471 664.458ZM191.552 659.644L174.607 650.017L169.769 652.775L186.714 662.402L191.552 659.644ZM196.881 655.508L214.563 665.571L219.401 662.813L201.719 652.751L196.881 655.508ZM223.478 657.951L231.214 662.354L236.052 659.596L228.316 655.194L223.478 657.951ZM202.431 671.328L219.376 680.955L224.214 678.197L207.269 668.57L202.431 671.328ZM218.566 667.82L226.13 672.126L230.968 669.368L223.404 665.063L218.566 667.82ZM119.89 611.726L129.616 617.241L134.454 614.484L124.728 608.969L119.89 611.726ZM145.971 633.738L140.004 630.327L135.166 633.085L141.133 636.496L145.971 633.738ZM151.374 624.135L138.407 616.757L133.569 619.515L146.536 626.893L151.374 624.135ZM180.034 640.414L155.377 626.385L150.539 629.142L175.196 643.172L180.034 640.414ZM184.896 668.546L167.214 658.483L162.376 661.241L180.058 671.303L184.896 668.546ZM137.008 608.775L163.924 624.087L168.762 621.329L141.846 606.018L137.008 608.775ZM202.529 646.05L219.475 655.677L224.313 652.92L207.367 643.293L202.529 646.05ZM220.04 688.526L188.9 670.82L184.061 673.577L215.202 691.283L220.04 688.526ZM203.389 641.043L182.711 629.287L177.873 632.045L198.551 643.801L203.389 641.043ZM141.796 644.043L120.873 632.142L116.035 634.899L136.958 646.8L141.796 644.043ZM197.716 650.477L184.012 642.688L179.174 645.446L192.878 653.234L197.716 650.477ZM116.87 629.868L103.903 622.49L99.0648 625.248L112.032 632.625L116.87 629.868ZM104.247 615.5L131.163 630.811L136.001 628.054L109.085 612.742L104.247 615.5ZM123.918 646.534L97.0019 631.222L92.1639 633.98L119.08 649.292L123.918 646.534ZM170.628 647.743L149.95 635.988L145.112 638.745L165.79 650.501L170.628 647.743ZM179.494 678.149L162.548 668.522L157.71 671.279L174.656 680.906L179.494 678.149ZM133.054 657.226L153.732 668.981L158.57 666.224L137.892 654.468L133.054 657.226ZM163.236 656.21L145.799 646.292L140.961 649.05L158.398 658.967L163.236 656.21ZM123.083 651.565L129.051 654.976L133.889 652.218L127.921 648.808L123.083 651.565ZM264.662 675.899L259.824 678.657L269.918 684.39L274.756 681.632L264.662 675.899ZM242.412 694.065L247.643 697.04L252.481 694.283L247.25 691.308L242.412 694.065ZM219.573 693.751L236.518 703.378L241.356 700.62L224.411 690.993L219.573 693.751ZM137.843 603.768L122.494 595.036L117.656 597.793L133.005 606.526L137.843 603.768ZM235.168 664.603L255.846 676.359L260.684 673.601L240.006 661.846L235.168 664.603ZM167.902 626.36L173.87 629.771L178.708 627.014L172.74 623.603L167.902 626.36ZM263.238 687.752L234.21 671.255L229.372 674.013L258.4 690.509L263.238 687.752ZM244.107 689.542L228.193 680.495L223.355 683.253L239.269 692.299L244.107 689.542ZM203.266 666.321L195.53 661.918L190.692 664.676L198.428 669.078L203.266 666.321ZM120.725 606.695L111.344 601.373L106.506 604.131L115.887 609.452L120.725 606.695ZM93.0235 628.973L77.92 620.386L73.082 623.143L88.1855 631.73L93.0235 628.973ZM99.9244 620.216L89.045 614.024L84.207 616.782L95.0864 622.974L99.9244 620.216ZM105.106 610.493L100.219 607.711L95.3811 610.468L100.268 613.25L105.106 610.493Z" fill="white"/>
</g>
<g filter="url(#filter1_d_5_2740)">
<path d="M593.711 632.861L511.588 586.153C503.312 581.436 504.343 573.212 513.921 567.769C523.499 562.327 537.964 561.746 546.24 566.439L628.363 613.148C636.639 617.864 635.608 626.089 626.055 631.531C616.477 636.974 602.012 637.554 593.736 632.861H593.711Z" fill="#FF251B"/>
<g style="mix-blend-mode:multiply">
<path d="M593.711 631.797L511.588 585.088C503.312 580.371 504.343 572.147 513.921 566.705C523.499 561.262 537.964 560.682 546.24 565.374L628.363 612.083C636.639 616.8 635.608 625.024 626.055 630.467C616.477 635.909 602.012 636.49 593.736 631.797H593.711Z" fill="white"/>
</g>
</g>
<g filter="url(#filter2_d_5_2740)">
<path d="M582.11 636.286L338 497.779L524.624 391.205L768.712 529.712L582.11 636.286Z" fill="#ECECEC"/>
</g>
<g style="mix-blend-mode:color-dodge">
<path d="M582.11 634.552L340.557 496.334L338 497.779L582.11 636.286L765.129 531.198L762.593 530.909L582.11 634.552Z" fill="#231F20"/>
</g>
<g style="mix-blend-mode:multiply">
<path d="M704.978 547.836L534.533 450.901L535.434 450.385L705.879 547.32L704.978 547.836Z" fill="#CFBFE2"/>
</g>
<g style="mix-blend-mode:multiply" opacity="0.12">
<path d="M670.086 567.672L499.641 470.738L500.542 470.243L670.987 567.156L670.086 567.672Z" fill="#242424"/>
</g>
<g style="mix-blend-mode:multiply">
<path d="M722.416 537.907L551.971 440.993L552.872 440.477L723.317 537.391L722.416 537.907Z" fill="#CFBFE2"/>
</g>
<g style="mix-blend-mode:multiply" opacity="0.12">
<path d="M687.543 557.744L517.098 460.83L517.999 460.314L688.444 557.248L687.543 557.744Z" fill="#242424"/>
</g>
<g opacity="0.5">
<path d="M524.621 484.011L513.031 477.405L555.784 453.089L567.394 459.695L524.621 484.011Z" fill="#E4DBEE"/>
<path d="M547.403 496.974L535.793 490.368L601.075 453.254L612.685 459.839L547.403 496.974Z" fill="#E4DBEE"/>
<path d="M570.181 509.917L558.57 503.311L609.79 474.206L621.4 480.791L570.181 509.917Z" fill="#E4DBEE"/>
<path d="M592.962 522.88L581.352 516.274L624.125 491.958L635.736 498.543L592.962 522.88Z" fill="#E4DBEE"/>
<path d="M615.741 535.822L604.131 529.216L635.63 511.299L647.24 517.905L615.741 535.822Z" fill="#E4DBEE"/>
<path d="M638.522 548.785L626.912 542.18L669.665 517.864L681.275 524.448L638.522 548.785Z" fill="#E4DBEE"/>
<path d="M661.282 561.728L649.672 555.122L709.337 521.208L720.947 527.813L661.282 561.728Z" fill="#E4DBEE"/>
</g>
<g opacity="0.8">
<path d="M524.621 484.011L513.031 477.405L544.907 459.282L556.517 465.887L524.621 484.011Z" fill="white"/>
<path d="M547.403 496.974L535.793 490.369L584.56 462.626L596.171 469.231L547.403 496.974Z" fill="white"/>
<path d="M570.181 509.917L558.57 503.311L601.721 478.789L613.332 485.394L570.181 509.917Z" fill="white"/>
<path d="M592.962 522.879L581.352 516.274L613.248 498.13L624.838 504.735L592.962 522.879Z" fill="white"/>
<path d="M615.741 535.822L604.131 529.216L624.753 517.492L636.363 524.097L615.741 535.822Z" fill="white"/>
<path d="M638.522 548.785L626.912 542.179L658.788 524.035L670.398 530.641L638.522 548.785Z" fill="white"/>
<path d="M661.282 561.727L649.672 555.122L692.823 530.599L704.433 537.205L661.282 561.727Z" fill="white"/>
</g>
<g opacity="0.35">
<g style="mix-blend-mode:multiply" opacity="0.16">
<path d="M450.392 497.944L620.837 594.878L621.738 594.362L451.294 497.428L450.392 497.944Z" fill="#242424"/>
</g>
<g style="mix-blend-mode:multiply" opacity="0.16">
<path d="M415.52 517.781L585.964 614.715L586.866 614.199L416.421 517.286L415.52 517.781Z" fill="#242424"/>
</g>
<g style="mix-blend-mode:multiply" opacity="0.16">
<path d="M467.85 488.036L638.295 584.95L639.196 584.434L468.751 487.52L467.85 488.036Z" fill="#242424"/>
</g>
<g style="mix-blend-mode:multiply" opacity="0.16">
<path d="M432.957 507.873L603.402 604.787L604.303 604.291L433.858 507.357L432.957 507.873Z" fill="#242424"/>
</g>
<g opacity="0.6">
<path d="M562.617 600.514L574.227 607.098L617.001 582.782L605.391 576.177L562.617 600.514Z" fill="#242424"/>
<path d="M539.836 587.551L551.446 594.156L616.728 557.042L605.118 550.437L539.836 587.551Z" fill="#242424"/>
<path d="M517.078 574.608L528.688 581.193L579.887 552.088L568.277 545.482L517.078 574.608Z" fill="#242424"/>
<path d="M494.297 561.645L505.907 568.25L548.66 543.934L537.05 537.329L494.297 561.645Z" fill="#242424"/>
<path d="M471.516 548.702L483.126 555.308L514.646 537.37L503.035 530.785L471.516 548.702Z" fill="#242424"/>
<path d="M448.736 535.739L460.347 542.345L509.491 514.396L497.881 507.79L448.736 535.739Z" fill="#242424"/>
<path d="M425.955 522.797L437.565 529.402L477.342 506.779L465.732 500.173L425.955 522.797Z" fill="#242424"/>
</g>
<g opacity="0.8">
<path d="M562.617 600.514L574.227 607.099L606.124 588.975L594.514 582.37L562.617 600.514Z" fill="#242424"/>
<path d="M539.836 587.551L551.446 594.157L600.214 566.414L588.624 559.829L539.836 587.551Z" fill="#242424"/>
<path d="M517.078 574.609L528.688 581.193L571.818 556.671L560.208 550.065L517.078 574.609Z" fill="#242424"/>
<path d="M494.297 561.645L505.907 568.25L537.783 550.127L526.173 543.521L494.297 561.645Z" fill="#242424"/>
<path d="M471.516 548.703L483.126 555.308L503.748 543.563L492.158 536.958L471.516 548.703Z" fill="#242424"/>
<path d="M448.736 535.74L460.347 542.345L498.614 520.589L487.004 513.983L448.736 535.74Z" fill="#242424"/>
<path d="M425.955 522.797L437.565 529.403L460.828 516.171L449.218 509.566L425.955 522.797Z" fill="#242424"/>
</g>
</g>
<path opacity="0.7" d="M521.857 446.793C511.84 452.491 495.535 452.47 485.455 446.732C475.374 440.993 475.311 431.725 485.35 426.028C495.367 420.331 511.672 420.351 521.752 426.09C531.833 431.828 531.896 441.096 521.857 446.793Z" fill="white"/>
<path opacity="0.24" d="M438.385 495.983C428.367 501.68 412.062 501.66 401.982 495.921C391.901 490.183 391.839 480.915 401.877 475.217C411.916 469.52 428.199 469.541 438.28 475.279C448.36 481.018 448.423 490.286 438.385 495.983Z" fill="#242424"/>
<path opacity="0.47" d="M506.894 440.394C506.182 439.734 505.805 439.011 505.763 438.268C505.763 437.814 506.391 437.463 507.188 437.463C508.194 437.463 509.283 437.36 510.247 437.133C510.792 437.319 511.714 437.381 512.217 437.092C512.741 436.803 512.909 436.411 512.658 436.142C514.711 434.862 515.675 433.314 512.741 431.642C509.807 429.97 507.083 430.528 504.82 431.684C504.358 431.539 503.667 431.642 503.143 431.931C502.64 432.22 502.766 432.757 503.08 433.046C502.682 433.603 502.493 434.223 502.493 434.78C502.493 435.234 501.865 435.606 501.089 435.585C499.79 435.585 498.49 435.337 497.338 434.945C495.808 434.408 493.796 434.512 492.476 435.275L490.191 436.576C489.751 436.823 489.751 437.236 490.191 437.484L502.43 444.44C502.871 444.688 503.604 444.688 504.044 444.44L506.328 443.14C507.649 442.397 507.837 441.241 506.894 440.374V440.394Z" fill="#242424"/>
<path opacity="0.7" d="M431.008 479.057C425.077 475.692 415.458 475.672 409.569 479.016C403.68 482.36 403.701 487.83 409.632 491.194C415.563 494.559 425.182 494.58 431.071 491.236C436.96 487.892 436.939 482.422 431.008 479.036V479.057ZM428.934 490.038C424.218 492.722 416.506 492.701 411.749 489.997C406.991 487.293 406.97 482.917 411.686 480.213C416.401 477.529 424.113 477.529 428.871 480.234C433.628 482.938 433.649 487.314 428.934 490.018V490.038ZM428.242 480.646C427.655 480.316 426.712 480.316 426.125 480.646L418.099 485.208L425.643 489.502C426.23 489.832 427.173 489.832 427.76 489.502C428.347 489.171 428.347 488.635 427.76 488.304L422.353 485.229L428.284 481.864C428.871 481.534 428.871 480.997 428.284 480.667L428.242 480.646Z" fill="white"/>
<path opacity="0.41" d="M416.611 511.237L395.654 499.327L391.546 501.66L412.503 513.57L416.611 511.237ZM392.259 497.387L381.256 491.132L377.148 493.465L388.151 499.719L392.259 497.387Z" fill="#242424"/>
<path opacity="0.44" d="M458.377 444.977L481.241 457.981L485.349 455.649L462.485 442.645L458.377 444.977Z" fill="#242424"/>
<path opacity="0.7" d="M484.637 459.901L489.708 462.791L493.816 460.458L488.744 457.569L484.637 459.901Z" fill="#242424"/>
<g filter="url(#filter3_d_5_2740)">
<path d="M836.542 528.772L573 379.238L774.48 264.18L1038 413.714L836.542 528.772Z" fill="#ECECEC"/>
<path d="M836.541 528.196L574.011 379.237L774.481 264.756L1036.99 413.715L836.541 528.196Z" stroke="black" stroke-opacity="0.2"/>
</g>
<g style="mix-blend-mode:multiply" opacity="0.21">
<path d="M767.872 294.087L767.42 293.82L627.436 373.422L845.749 497.572L846.202 497.84L986.186 418.237L767.895 294.087H767.872ZM773.008 351.137L827.875 382.336L783.077 407.808L728.21 376.609L773.008 351.137ZM726.377 375.584L676.805 347.393L721.603 321.921L771.176 350.112L726.377 375.584ZM829.685 381.311L774.818 350.112L818.78 325.108L873.647 356.307L829.685 381.311ZM875.457 357.332L930.324 388.531L886.362 413.535L831.495 382.336L875.457 357.332ZM781.244 408.855L737.645 433.636L738.029 434.283L682.393 402.66L726.355 377.656L781.221 408.855H781.244ZM783.054 409.88L837.921 441.08L794.322 465.861L794.706 466.507L739.07 434.862L783.031 409.858L783.054 409.88ZM784.887 408.855L829.685 383.383L884.552 414.583L839.754 440.055L784.887 408.855ZM886.362 415.608L936.772 444.266L891.974 469.738L841.564 441.08L886.362 415.608ZM888.172 414.56L932.134 389.556L982.544 418.215L938.582 443.219L888.172 414.56ZM816.97 324.083L773.008 349.087L723.436 320.896L767.397 295.892L816.97 324.083ZM675.017 348.44L724.59 376.631L680.99 401.412L681.375 402.058L631.056 373.444L675.017 348.44ZM795.77 467.109L839.731 442.105L890.141 470.763L846.179 495.767L795.77 467.109Z" fill="#242424"/>
</g>
<path opacity="0.23" d="M676.964 346.925C681.987 349.778 726.492 342.58 739.615 350.045C752.466 357.355 728.935 383.74 745.135 392.944C761.335 402.148 857.199 373.667 871.725 381.935C886.251 390.181 858.874 422.917 873.105 431.007C887.337 439.096 912.926 433.146 921.026 437.737C929.126 442.35 914.419 450.707 919.171 453.403L846.203 494.898L632.324 373.266L676.987 346.903L676.964 346.925Z" fill="#242424"/>
<path opacity="0.3" d="M918.29 454.852C917.114 454.183 916.706 453.269 916.548 452.645C916.118 450.684 917.498 448.745 919.105 446.517C920.417 444.667 922.069 442.372 921.752 440.901C921.707 440.678 921.548 439.987 920.168 439.185C917.068 437.425 910.326 437.402 903.176 437.38C892.678 437.335 880.777 437.291 872.27 432.455C864.011 427.753 867.496 416.789 870.867 406.181C874.035 396.242 876.998 386.86 870.867 383.383C864.351 379.662 837.54 384.431 811.633 389.044C781.564 394.392 753.146 399.428 744.3 394.392C734.616 388.888 737.422 378.235 739.888 368.853C742.263 359.783 743.395 354.101 738.779 351.493C731.109 347.125 710.927 348.128 696.175 348.841C684.546 349.421 678.391 349.644 676.129 348.373L677.826 345.476C679.319 346.323 688.188 345.877 695.994 345.499C712.013 344.719 731.924 343.738 740.453 348.596C747.626 352.674 745.34 361.321 743.146 369.7C740.77 378.726 738.53 387.261 745.974 391.495C753.757 395.93 784.166 390.514 811.022 385.745C839.96 380.598 864.962 376.163 872.564 380.486C881.026 385.3 877.496 396.42 874.08 407.184C870.98 416.967 868.039 426.193 873.944 429.558C881.682 433.948 893.085 433.993 903.176 434.037C911.118 434.06 917.996 434.082 921.865 436.288C923.652 437.291 924.716 438.606 925.078 440.166C925.734 443.063 923.698 445.915 921.888 448.411C921.118 449.503 919.806 451.33 919.874 451.91L918.29 454.829V454.852Z" fill="#242424"/>
<path opacity="0.8" d="M927.697 325.843L908.715 315.057L904.28 317.575L923.263 328.361L927.697 325.843ZM909.755 327.269L887.13 314.411L882.695 316.929L905.321 329.788L909.755 327.269ZM886.609 302.488L861.925 288.449L857.49 290.967L882.175 305.007L886.609 302.488ZM905.049 312.985L890.252 304.583L885.818 307.101L900.615 315.503L905.049 312.985ZM883.464 312.316L871.586 305.564L867.151 308.082L879.03 314.834L883.464 312.316ZM853.101 294.822L848.666 297.34L863.486 306.009L867.921 303.491L853.101 294.822ZM834.955 305.519L859.64 319.559L864.074 317.041L839.39 303.001L834.955 305.519ZM863.282 321.631L868.758 324.751L873.192 322.233L867.717 319.113L863.282 321.631Z" fill="white"/>
<path opacity="0.8" d="M818.01 290.923L837.852 279.624L831.608 276.058L811.765 287.357L818.01 290.923ZM854.55 279.423L848.305 275.858L819.933 291.992L826.178 295.558L854.55 279.423ZM809.865 286.287L821.2 279.847L814.955 276.281L803.62 282.722L809.865 286.287ZM853.939 282.744L826.313 298.455L798.529 282.655L823.938 268.192L840.975 277.864L843.169 276.616L823.938 265.674L794.117 282.633L826.336 300.951L856.156 283.992L853.939 282.744Z" fill="white"/>
<g style="mix-blend-mode:color-dodge">
<path d="M836.542 526.9L575.76 377.678L573 379.238L836.542 528.772L1034.13 415.318L1031.39 415.006L836.542 526.9Z" fill="#4A6444"/>
</g>
<g filter="url(#filter4_d_5_2740)">
<path d="M698.933 458.752L242 199.489L591.33 0L1048.22 259.263L698.933 458.752Z" fill="white"/>
<path d="M698.931 457.026L245.032 199.485L591.332 1.72601L1045.19 259.267L698.931 457.026Z" stroke="black" stroke-opacity="0.21" stroke-width="3"/>
</g>
<g style="mix-blend-mode:color-dodge">
<path d="M698.933 455.506L246.786 196.785L242 199.489L698.933 458.752L1041.52 262.045L1036.77 261.504L698.933 455.506Z" fill="#FF251B"/>
</g>
<path opacity="0.11" d="M591.587 172.433C599.036 170.373 606.02 167.598 612.193 164.079C629.756 154.064 636.915 140.359 633.698 127.369C628.075 106.882 596.92 91.2026 559.331 91.2599C555.274 91.2599 551.303 91.4601 547.42 91.8321L542 74.0352C561.331 72.0609 578.604 72.8907 597.036 76.6961C606.02 78.5559 614.28 81.0166 621.728 83.9923C621.989 84.0781 622.221 84.1926 622.453 84.307C623.728 84.8221 624.974 85.3657 626.22 85.9093C627.206 86.3385 628.191 86.7963 629.148 87.2255C629.206 87.2541 629.292 87.2827 629.35 87.34C641.378 93.0052 650.246 99.6433 657.115 108.055C681.865 138.47 658.535 174.694 605.035 189L591.587 172.462V172.433Z" fill="#FF251B"/>
<path opacity="0.11" d="M802.745 295.72C810.967 293.446 818.678 290.384 825.493 286.5C844.883 275.45 852.786 260.327 849.234 245.993C843.027 223.387 808.632 206.086 767.133 206.149C762.654 206.149 758.271 206.37 753.983 206.78L748 187.142C769.341 184.964 788.41 185.879 808.76 190.078C818.678 192.131 827.797 194.846 836.02 198.129C836.308 198.224 836.564 198.35 836.82 198.477C838.228 199.045 839.604 199.645 840.979 200.245C842.067 200.718 843.155 201.224 844.211 201.697C844.275 201.729 844.371 201.76 844.435 201.823C857.713 208.075 867.504 215.4 875.087 224.682C902.411 258.243 876.655 298.214 817.591 314L802.745 295.751V295.72Z" fill="#29B532"/>
<path opacity="0.45" d="M478.617 173.204C461.956 161.79 453.914 148.999 454.001 134.057L483.95 134C483.95 134 483.95 134.258 483.95 134.402C483.892 144.984 490.522 154.678 501.533 162.163C515.283 171.512 535.835 177.449 558.838 177.42C572.962 177.42 586.222 175.126 597.55 171.168L613 186.598C567.831 201.625 512.026 196.09 478.675 173.233L478.617 173.204Z" fill="#FF251B"/>
<path opacity="0.45" d="M678.095 296.061C659.757 283.524 650.906 269.475 651.001 253.063L683.964 253C683.964 253 683.964 253.283 683.964 253.441C683.9 265.065 691.197 275.712 703.317 283.933C718.45 294.202 741.07 300.723 766.387 300.691C781.933 300.691 796.527 298.171 808.995 293.824L826 310.771C776.286 327.277 714.865 321.198 678.158 296.092L678.095 296.061Z" fill="#28A23E"/>
<path d="M484.125 133.943L454 134C454.174 104.186 490.968 79.2596 542.578 74L548 91.7799C512.192 95.0958 484.589 112.733 484.154 133.943H484.125Z" fill="#FF251B"/>
<path d="M684.33 252.937L651 253C651.192 220.204 691.901 192.786 749.001 187L755 206.558C715.382 210.205 684.843 229.606 684.362 252.937H684.33Z" fill="#0C8A14"/>
<g style="mix-blend-mode:multiply">
<path d="M361.922 165.256L763.582 393.647L765.701 392.449L364.04 164.02L361.922 165.256Z" fill="#242424"/>
</g>
<path d="M563.517 356.631L615.181 325.72L600.156 317.181L548.492 348.092L563.517 356.631Z" fill="#242424"/>
<path opacity="0.85" d="M589.683 372.086L631.54 346.778L616.515 338.239L574.658 363.547L589.683 372.086Z" fill="#242424"/>
<path opacity="0.75" d="M617.144 387.541L648.526 368.686L633.502 360.146L602.119 379.002L617.144 387.541Z" fill="#242424"/>
<path opacity="0.6" d="M643.933 402.34L666.842 387.348L651.818 378.809L628.908 393.801L643.933 402.34Z" fill="#242424"/>
<path opacity="0.4" d="M670.103 419.07L685.127 409.913L670.103 401.335L655.078 410.531L670.103 419.07Z" fill="#242424"/>
<path opacity="0.3" d="M696.226 433.907L704.738 428.574L689.714 420.035L681.201 425.367L696.226 433.907Z" fill="#242424"/>
<path d="M909 206C909 208.202 905.678 210 901.517 210C897.389 210 894 208.202 894 206C894 203.798 897.322 202 901.483 202C905.611 202 909 203.798 909 206Z" fill="url(#paint41_linear_5_2740)"/>
<path d="M912.43 199L899.615 150.315L763.936 72.8696C747.747 63.6635 749.758 47.536 768.469 36.8852L786.157 26.8055C804.868 16.1546 833.156 15.0123 849.345 24.2184L1005.06 113.054C1021.25 122.26 1019.24 138.388 1000.53 149.038L912.396 198.966L912.43 199Z" fill="#FF251B"/>
<defs>
<filter id="filter0_d_5_2740" x="311.55" y="315.998" width="796.814" height="538.801" filterUnits="userSpaceOnUse" color-interpolation-filters="sRGB">
<feFlood flood-opacity="0" result="BackgroundImageFix"/>
<feColorMatrix in="SourceAlpha" type="matrix" values="0 0 0 0 0 0 0 0 0 0 0 0 0 0 0 0 0 0 127 0" result="hardAlpha"/>
<feOffset dy="84"/>
<feGaussianBlur stdDeviation="18.8"/>
<feComposite in2="hardAlpha" operator="out"/>
<feColorMatrix type="matrix" values="0 0 0 0 0 0 0 0 0 0 0 0 0 0 0 0 0 0 0.25 0"/>
<feBlend mode="normal" in2="BackgroundImageFix" result="effect1_dropShadow_5_2740"/>
<feBlend mode="normal" in="SourceGraphic" in2="effect1_dropShadow_5_2740" result="shape"/>
</filter>
<filter id="filter1_d_5_2740" x="502" y="562.205" width="135.954" height="81.8257" filterUnits="userSpaceOnUse" color-interpolation-filters="sRGB">
<feFlood flood-opacity="0" result="BackgroundImageFix"/>
<feColorMatrix in="SourceAlpha" type="matrix" values="0 0 0 0 0 0 0 0 0 0 0 0 0 0 0 0 0 0 127 0" result="hardAlpha"/>
<feOffset dy="4"/>
<feGaussianBlur stdDeviation="2"/>
<feComposite in2="hardAlpha" operator="out"/>
<feColorMatrix type="matrix" values="0 0 0 0 0 0 0 0 0 0 0 0 0 0 0 0 0 0 0.25 0"/>
<feBlend mode="normal" in2="BackgroundImageFix" result="effect1_dropShadow_5_2740"/>
<feBlend mode="normal" in="SourceGraphic" in2="effect1_dropShadow_5_2740" result="shape"/>
</filter>
<filter id="filter2_d_5_2740" x="324.7" y="391.205" width="457.312" height="296.381" filterUnits="userSpaceOnUse" color-interpolation-filters="sRGB">
<feFlood flood-opacity="0" result="BackgroundImageFix"/>
<feColorMatrix in="SourceAlpha" type="matrix" values="0 0 0 0 0 0 0 0 0 0 0 0 0 0 0 0 0 0 127 0" result="hardAlpha"/>
<feOffset dy="38"/>
<feGaussianBlur stdDeviation="6.65"/>
<feComposite in2="hardAlpha" operator="out"/>
<feColorMatrix type="matrix" values="0 0 0 0 0 0 0 0 0 0 0 0 0 0 0 0 0 0 0.25 0"/>
<feBlend mode="normal" in2="BackgroundImageFix" result="effect1_dropShadow_5_2740"/>
<feBlend mode="normal" in="SourceGraphic" in2="effect1_dropShadow_5_2740" result="shape"/>
</filter>
<filter id="filter3_d_5_2740" x="541.3" y="264.18" width="528.4" height="334.291" filterUnits="userSpaceOnUse" color-interpolation-filters="sRGB">
<feFlood flood-opacity="0" result="BackgroundImageFix"/>
<feColorMatrix in="SourceAlpha" type="matrix" values="0 0 0 0 0 0 0 0 0 0 0 0 0 0 0 0 0 0 127 0" result="hardAlpha"/>
<feOffset dy="38"/>
<feGaussianBlur stdDeviation="15.85"/>
<feComposite in2="hardAlpha" operator="out"/>
<feColorMatrix type="matrix" values="0 0 0 0 0 0 0 0 0 0 0 0 0 0 0 0 0 0 0.25 0"/>
<feBlend mode="normal" in2="BackgroundImageFix" result="effect1_dropShadow_5_2740"/>
<feBlend mode="normal" in="SourceGraphic" in2="effect1_dropShadow_5_2740" result="shape"/>
</filter>
<filter id="filter4_d_5_2740" x="217.1" y="0" width="856.024" height="537.652" filterUnits="userSpaceOnUse" color-interpolation-filters="sRGB">
<feFlood flood-opacity="0" result="BackgroundImageFix"/>
<feColorMatrix in="SourceAlpha" type="matrix" values="0 0 0 0 0 0 0 0 0 0 0 0 0 0 0 0 0 0 127 0" result="hardAlpha"/>
<feOffset dy="54"/>
<feGaussianBlur stdDeviation="12.45"/>
<feComposite in2="hardAlpha" operator="out"/>
<feColorMatrix type="matrix" values="0 0 0 0 0 0 0 0 0 0 0 0 0 0 0 0 0 0 0.25 0"/>
<feBlend mode="normal" in2="BackgroundImageFix" result="effect1_dropShadow_5_2740"/>
<feBlend mode="normal" in="SourceGraphic" in2="effect1_dropShadow_5_2740" result="shape"/>
</filter>
<linearGradient id="paint0_linear_5_2740" x1="709.956" y1="584.393" x2="709.956" y2="672.126" gradientUnits="userSpaceOnUse">
<stop offset="0.04" stop-color="#00812F"/>
<stop offset="0.41" stop-color="#00861F"/>
<stop offset="0.98" stop-color="#009100"/>
</linearGradient>
<linearGradient id="paint1_linear_5_2740" x1="706.812" y1="573.363" x2="699.95" y2="680.436" gradientUnits="userSpaceOnUse">
<stop offset="0.04" stop-color="#00812F"/>
<stop offset="0.41" stop-color="#00861F"/>
<stop offset="0.98" stop-color="#009100"/>
</linearGradient>
<linearGradient id="paint2_linear_5_2740" x1="705.24" y1="561.147" x2="688.888" y2="687.961" gradientUnits="userSpaceOnUse">
<stop offset="0.04" stop-color="#00812F"/>
<stop offset="0.41" stop-color="#00861F"/>
<stop offset="0.98" stop-color="#009100"/>
</linearGradient>
<linearGradient id="paint3_linear_5_2740" x1="705.412" y1="547.989" x2="676.909" y2="694.496" gradientUnits="userSpaceOnUse">
<stop offset="0.04" stop-color="#00812F"/>
<stop offset="0.41" stop-color="#00861F"/>
<stop offset="0.98" stop-color="#009100"/>
</linearGradient>
<linearGradient id="paint4_linear_5_2740" x1="707.549" y1="534.177" x2="664.102" y2="699.908" gradientUnits="userSpaceOnUse">
<stop offset="0.04" stop-color="#00812F"/>
<stop offset="0.41" stop-color="#00861F"/>
<stop offset="0.98" stop-color="#009100"/>
</linearGradient>
<linearGradient id="paint5_linear_5_2740" x1="711.676" y1="520.075" x2="650.569" y2="704.06" gradientUnits="userSpaceOnUse">
<stop offset="0.04" stop-color="#00812F"/>
<stop offset="0.41" stop-color="#00861F"/>
<stop offset="0.98" stop-color="#009100"/>
</linearGradient>
<linearGradient id="paint6_linear_5_2740" x1="717.864" y1="506.021" x2="636.507" y2="706.834" gradientUnits="userSpaceOnUse">
<stop offset="0.04" stop-color="#00812F"/>
<stop offset="0.41" stop-color="#00861F"/>
<stop offset="0.98" stop-color="#009100"/>
</linearGradient>
<linearGradient id="paint7_linear_5_2740" x1="726.092" y1="492.354" x2="622.068" y2="708.107" gradientUnits="userSpaceOnUse">
<stop offset="0.04" stop-color="#00812F"/>
<stop offset="0.41" stop-color="#00861F"/>
<stop offset="0.98" stop-color="#009100"/>
</linearGradient>
<linearGradient id="paint8_linear_5_2740" x1="736.871" y1="478.422" x2="607.524" y2="707.658" gradientUnits="userSpaceOnUse">
<stop offset="0.04" stop-color="#00812F"/>
<stop offset="0.41" stop-color="#00861F"/>
<stop offset="0.98" stop-color="#009100"/>
</linearGradient>
<linearGradient id="paint9_linear_5_2740" x1="751.336" y1="463.11" x2="587.09" y2="714.694" gradientUnits="userSpaceOnUse">
<stop offset="0.04" stop-color="#00812F"/>
<stop offset="0.41" stop-color="#00861F"/>
<stop offset="0.98" stop-color="#009100"/>
</linearGradient>
<linearGradient id="paint10_linear_5_2740" x1="768.602" y1="448.572" x2="565.125" y2="720.115" gradientUnits="userSpaceOnUse">
<stop offset="0.04" stop-color="#00812F"/>
<stop offset="0.41" stop-color="#00861F"/>
<stop offset="0.98" stop-color="#009100"/>
</linearGradient>
<linearGradient id="paint11_linear_5_2740" x1="788.765" y1="435.099" x2="542.225" y2="723.165" gradientUnits="userSpaceOnUse">
<stop offset="0.04" stop-color="#00812F"/>
<stop offset="0.41" stop-color="#00861F"/>
<stop offset="0.98" stop-color="#009100"/>
</linearGradient>
<linearGradient id="paint12_linear_5_2740" x1="811.627" y1="423.222" x2="518.657" y2="723.663" gradientUnits="userSpaceOnUse">
<stop offset="0.04" stop-color="#00812F"/>
<stop offset="0.41" stop-color="#00861F"/>
<stop offset="0.98" stop-color="#009100"/>
</linearGradient>
<linearGradient id="paint13_linear_5_2740" x1="836.898" y1="413.426" x2="494.745" y2="721.421" gradientUnits="userSpaceOnUse">
<stop offset="0.04" stop-color="#00812F"/>
<stop offset="0.41" stop-color="#00861F"/>
<stop offset="0.98" stop-color="#009100"/>
</linearGradient>
<linearGradient id="paint14_linear_5_2740" x1="864.258" y1="406.169" x2="470.894" y2="716.34" gradientUnits="userSpaceOnUse">
<stop offset="0.04" stop-color="#00812F"/>
<stop offset="0.41" stop-color="#00861F"/>
<stop offset="0.98" stop-color="#009100"/>
</linearGradient>
<linearGradient id="paint15_linear_5_2740" x1="893.238" y1="401.815" x2="447.422" y2="708.348" gradientUnits="userSpaceOnUse">
<stop offset="0.04" stop-color="#00812F"/>
<stop offset="0.41" stop-color="#00861F"/>
<stop offset="0.98" stop-color="#009100"/>
</linearGradient>
<linearGradient id="paint16_linear_5_2740" x1="923.319" y1="400.582" x2="424.706" y2="697.372" gradientUnits="userSpaceOnUse">
<stop offset="0.04" stop-color="#00812F"/>
<stop offset="0.41" stop-color="#00861F"/>
<stop offset="0.98" stop-color="#009100"/>
</linearGradient>
<linearGradient id="paint17_linear_5_2740" x1="953.945" y1="402.638" x2="403.124" y2="683.371" gradientUnits="userSpaceOnUse">
<stop offset="0.04" stop-color="#00812F"/>
<stop offset="0.41" stop-color="#00861F"/>
<stop offset="0.98" stop-color="#009100"/>
</linearGradient>
<linearGradient id="paint18_linear_5_2740" x1="984.616" y1="408.298" x2="383.191" y2="666.599" gradientUnits="userSpaceOnUse">
<stop offset="0.04" stop-color="#00812F"/>
<stop offset="0.41" stop-color="#00861F"/>
<stop offset="0.98" stop-color="#009100"/>
</linearGradient>
<linearGradient id="paint19_linear_5_2740" x1="1014.8" y1="417.635" x2="365.33" y2="647.306" gradientUnits="userSpaceOnUse">
<stop offset="0.04" stop-color="#00812F"/>
<stop offset="0.41" stop-color="#00861F"/>
<stop offset="0.98" stop-color="#009100"/>
</linearGradient>
<linearGradient id="paint20_linear_5_2740" x1="1043.88" y1="430.624" x2="349.904" y2="625.701" gradientUnits="userSpaceOnUse">
<stop offset="0.04" stop-color="#00812F"/>
<stop offset="0.41" stop-color="#00861F"/>
<stop offset="0.98" stop-color="#009100"/>
</linearGradient>
<linearGradient id="paint21_linear_5_2740" x1="1071.21" y1="447.145" x2="337.237" y2="602.159" gradientUnits="userSpaceOnUse">
<stop offset="0.04" stop-color="#00812F"/>
<stop offset="0.41" stop-color="#00861F"/>
<stop offset="0.98" stop-color="#009100"/>
</linearGradient>
<linearGradient id="paint22_linear_5_2740" x1="449.34" y1="194.117" x2="935.203" y2="822.104" gradientUnits="userSpaceOnUse">
<stop offset="0.1" stop-color="#212121"/>
<stop offset="1" stop-color="#5C5C5C"/>
</linearGradient>
<linearGradient id="paint23_linear_5_2740" x1="449.378" y1="193.399" x2="935.216" y2="821.334" gradientUnits="userSpaceOnUse">
<stop offset="0.1" stop-color="#212121"/>
<stop offset="1" stop-color="#5C5C5C"/>
</linearGradient>
<linearGradient id="paint24_linear_5_2740" x1="449.37" y1="192.666" x2="935.247" y2="820.601" gradientUnits="userSpaceOnUse">
<stop offset="0.1" stop-color="#212121"/>
<stop offset="1" stop-color="#5C5C5C"/>
</linearGradient>
<linearGradient id="paint25_linear_5_2740" x1="449.342" y1="191.947" x2="935.183" y2="819.873" gradientUnits="userSpaceOnUse">
<stop offset="0.1" stop-color="#212121"/>
<stop offset="1" stop-color="#5C5C5C"/>
</linearGradient>
<linearGradient id="paint26_linear_5_2740" x1="449.343" y1="191.197" x2="935.185" y2="819.115" gradientUnits="userSpaceOnUse">
<stop offset="0.1" stop-color="#212121"/>
<stop offset="1" stop-color="#5C5C5C"/>
</linearGradient>
<linearGradient id="paint27_linear_5_2740" x1="449.357" y1="190.472" x2="935.206" y2="818.364" gradientUnits="userSpaceOnUse">
<stop offset="0.1" stop-color="#212121"/>
<stop offset="1" stop-color="#5C5C5C"/>
</linearGradient>
<linearGradient id="paint28_linear_5_2740" x1="449.352" y1="189.746" x2="935.203" y2="817.635" gradientUnits="userSpaceOnUse">
<stop offset="0.1" stop-color="#212121"/>
<stop offset="1" stop-color="#5C5C5C"/>
</linearGradient>
<linearGradient id="paint29_linear_5_2740" x1="449.371" y1="189.021" x2="935.222" y2="816.906" gradientUnits="userSpaceOnUse">
<stop offset="0.1" stop-color="#212121"/>
<stop offset="1" stop-color="#5C5C5C"/>
</linearGradient>
<linearGradient id="paint30_linear_5_2740" x1="449.366" y1="188.302" x2="935.183" y2="816.172" gradientUnits="userSpaceOnUse">
<stop offset="0.1" stop-color="#212121"/>
<stop offset="1" stop-color="#5C5C5C"/>
</linearGradient>
<linearGradient id="paint31_linear_5_2740" x1="449.38" y1="187.569" x2="935.237" y2="815.431" gradientUnits="userSpaceOnUse">
<stop offset="0.1" stop-color="#212121"/>
<stop offset="1" stop-color="#5C5C5C"/>
</linearGradient>
<linearGradient id="paint32_linear_5_2740" x1="449.374" y1="186.851" x2="935.195" y2="814.703" gradientUnits="userSpaceOnUse">
<stop offset="0.1" stop-color="#212121"/>
<stop offset="1" stop-color="#5C5C5C"/>
</linearGradient>
<linearGradient id="paint33_linear_5_2740" x1="449.35" y1="186.094" x2="935.203" y2="813.974" gradientUnits="userSpaceOnUse">
<stop offset="0.1" stop-color="#212121"/>
<stop offset="1" stop-color="#5C5C5C"/>
</linearGradient>
<linearGradient id="paint34_linear_5_2740" x1="449.385" y1="185.375" x2="935.209" y2="813.217" gradientUnits="userSpaceOnUse">
<stop offset="0.1" stop-color="#212121"/>
<stop offset="1" stop-color="#5C5C5C"/>
</linearGradient>
<linearGradient id="paint35_linear_5_2740" x1="449.359" y1="184.642" x2="935.215" y2="812.506" gradientUnits="userSpaceOnUse">
<stop offset="0.1" stop-color="#212121"/>
<stop offset="1" stop-color="#5C5C5C"/>
</linearGradient>
<linearGradient id="paint36_linear_5_2740" x1="449.353" y1="183.924" x2="935.171" y2="811.789" gradientUnits="userSpaceOnUse">
<stop offset="0.1" stop-color="#212121"/>
<stop offset="1" stop-color="#5C5C5C"/>
</linearGradient>
<linearGradient id="paint37_linear_5_2740" x1="449.368" y1="183.191" x2="935.218" y2="811.083" gradientUnits="userSpaceOnUse">
<stop offset="0.1" stop-color="#212121"/>
<stop offset="1" stop-color="#5C5C5C"/>
</linearGradient>
<linearGradient id="paint38_linear_5_2740" x1="449.383" y1="182.473" x2="935.2" y2="810.34" gradientUnits="userSpaceOnUse">
<stop offset="0.1" stop-color="#212121"/>
<stop offset="1" stop-color="#5C5C5C"/>
</linearGradient>
<linearGradient id="paint39_linear_5_2740" x1="982.112" y1="520.607" x2="973.132" y2="500.548" gradientUnits="userSpaceOnUse">
<stop offset="0.04" stop-color="#00812F"/>
<stop offset="0.41" stop-color="#00861F"/>
<stop offset="0.98" stop-color="#009100"/>
</linearGradient>
<linearGradient id="paint40_linear_5_2740" x1="946.33" y1="550.577" x2="933.482" y2="518.391" gradientUnits="userSpaceOnUse">
<stop offset="0.04" stop-color="#00812F"/>
<stop offset="0.41" stop-color="#00861F"/>
<stop offset="0.98" stop-color="#009100"/>
</linearGradient>
<linearGradient id="paint41_linear_5_2740" x1="894.024" y1="206" x2="909.015" y2="206" gradientUnits="userSpaceOnUse">
<stop offset="0.04" stop-color="#AD3511"/>
<stop offset="0.34" stop-color="#B32B13"/>
<stop offset="0.92" stop-color="#FF2222"/>
<stop offset="1" stop-color="#FF2222"/>
</linearGradient>
</defs>
</svg>
