<svg width="1121" height="863" viewBox="0 0 1121 863" fill="none" xmlns="http://www.w3.org/2000/svg">
<g style="mix-blend-mode:screen" opacity="0.5">
<path d="M568.082 849.013L373.801 738.542C361.006 731.261 360.932 719.457 373.653 712.249L831.103 452.121C843.824 444.889 864.576 444.937 877.371 452.194L1071.65 562.665C1084.45 569.946 1084.52 581.75 1071.8 588.958L614.35 849.085C601.629 856.318 580.877 856.27 568.082 849.013ZM875.529 453.234C863.765 446.534 844.659 446.51 832.969 453.162L375.52 713.289C363.83 719.941 363.879 730.802 375.643 737.478L569.924 847.949C581.688 854.649 600.794 854.673 612.484 848.021L1069.93 587.894C1081.62 581.242 1081.57 570.381 1069.81 563.705L875.529 453.234Z" fill="white"/>
<path d="M980.834 548.417L902.395 503.813L907.478 500.935L985.893 545.539L980.834 548.417Z" fill="white"/>
<path d="M595.587 771.439L518.449 727.56C508.479 721.876 508.43 712.684 518.327 707.048C528.248 701.412 544.432 701.436 554.403 707.121L631.541 751C641.512 756.684 641.561 765.876 631.664 771.512C621.767 777.148 605.558 777.124 595.587 771.439ZM551.652 708.669C543.204 703.88 529.501 703.831 521.126 708.621C512.727 713.386 512.776 721.175 521.225 725.988L598.363 769.867C606.811 774.656 620.514 774.705 628.889 769.915C637.288 765.15 637.238 757.361 628.79 752.548L551.652 708.669Z" fill="white"/>
<path d="M980.22 572.05L1004.97 586.128C1006.01 586.709 1007.65 586.709 1008.66 586.128C1009.67 585.548 1009.67 584.604 1008.66 584.024L983.903 569.946C982.872 569.365 981.227 569.365 980.22 569.946C979.213 570.526 979.213 571.47 980.22 572.05ZM1002.47 587.555L977.715 573.477C976.683 572.897 975.038 572.897 974.031 573.477C973.024 574.058 973.024 575.001 974.031 575.582L998.786 589.66C999.817 590.24 1001.46 590.24 1002.47 589.66C1003.48 589.079 1003.48 588.136 1002.47 587.555ZM996.256 591.087L971.501 577.009C970.47 576.428 968.825 576.428 967.818 577.009C966.811 577.589 966.811 578.533 967.818 579.113L992.573 593.191C993.604 593.772 995.249 593.772 996.256 593.191C997.263 592.611 997.263 591.667 996.256 591.087Z" fill="white"/>
<path d="M926.759 647.979L768.455 558.19L769.879 557.367L928.208 647.156L926.759 647.979Z" fill="white"/>
<path d="M859.052 689.898L700.748 600.109L702.172 599.287L860.5 689.1L859.052 689.898Z" fill="white"/>
<path d="M898.05 667.257L739.746 577.444L741.17 576.622L899.499 666.435L898.05 667.257Z" fill="white"/>
<path d="M796.009 652.381L777.418 641.811L921.92 570.066L796.009 652.381Z" fill="white"/>
<path d="M823.44 667.959L804.85 657.389L926.807 598.464L823.44 667.959Z" fill="white"/>
<path d="M850.455 683.73L831.84 673.159L922.239 632.183L850.455 683.73Z" fill="white"/>
<path d="M796.181 719.336L637.877 629.547L639.326 628.725L797.63 718.514L796.181 719.336Z" fill="white"/>
<path d="M728.473 761.256L570.17 671.466L571.619 670.644L729.922 760.457L728.473 761.256Z" fill="white"/>
<path d="M767.471 738.615L609.168 648.801L610.617 647.979L768.92 737.792L767.471 738.615Z" fill="white"/>
<path d="M705.832 746.96L720.788 755.474L775.922 724.126L760.966 715.611L705.832 746.96Z" fill="white"/>
<path d="M676.459 730.269L691.44 738.784L775.577 690.938L760.621 682.424L676.459 730.269Z" fill="white"/>
<path d="M647.111 713.579L662.067 722.094L728.08 684.553L713.124 676.038L647.111 713.579Z" fill="white"/>
</g>
<g style="mix-blend-mode:screen" opacity="0.5">
<path d="M601.504 527.518L407.223 417.048C394.428 409.767 394.354 397.962 407.075 390.73L864.525 130.603C877.246 123.37 897.998 123.418 910.793 130.675L1105.07 241.146C1117.87 248.427 1117.94 260.231 1105.22 267.439L647.772 527.567C635.051 534.799 614.299 534.751 601.504 527.494V527.518ZM908.951 131.739C897.187 125.039 878.081 125.015 866.391 131.667L408.942 391.794C397.252 398.446 397.301 409.307 409.064 415.983L603.346 526.454C615.109 533.154 634.216 533.178 645.906 526.527L1103.36 266.399C1115.05 259.747 1115 248.886 1103.23 242.186L908.951 131.739Z" fill="white"/>
<path d="M1014.23 226.923L935.816 182.343L940.9 179.44L1019.32 224.045L1014.23 226.923Z" fill="white"/>
<path d="M961.58 246.226L971.968 252.128L977.125 249.201L966.737 243.299L961.58 246.226ZM989.478 269.762L983.093 266.133L977.936 269.06L984.321 272.688L989.478 269.762ZM995.249 259.505L981.399 251.62L976.241 254.547L990.092 262.432L995.249 259.505ZM1027.1 278.131L999.498 261.924L994.341 264.851L1021.94 281.058L1027.1 278.131ZM985.009 280.767L962.636 268.044L957.479 270.971L979.851 283.694L985.009 280.767ZM958.387 265.625L944.536 257.74L939.379 260.666L953.23 268.552L958.387 265.625ZM944.88 250.265L973.638 266.617L978.795 263.69L950.037 247.338L944.88 250.265ZM965.902 283.452L937.144 267.101L931.987 270.028L960.745 286.379L965.902 283.452ZM1015.83 284.759L993.727 272.18L988.57 275.107L1010.67 287.685L1015.83 284.759ZM1000.75 289.717L989.257 283.211L984.1 286.137L995.593 292.644L1000.75 289.717ZM962.489 240.88L952.469 235.171L947.311 238.098L957.331 243.807L962.489 240.88ZM932.896 264.682L916.761 255.49L911.604 258.417L927.738 267.609L932.896 264.682ZM940.263 255.321L928.647 248.717L923.49 251.644L935.106 258.248L940.263 255.321ZM945.789 244.92L940.558 241.944L935.401 244.871L940.632 247.846L945.789 244.92Z" fill="white"/>
<path d="M939.108 222.907L864.843 265.141L790.726 222.98L864.991 180.746L939.108 222.907ZM944.658 222.907L864.966 177.602L785.176 222.98L864.868 268.286L944.658 222.907Z" fill="white"/>
</g>
<g filter="url(#filter0_d_5_2081)">
<path d="M544.506 733.317L362.994 630.103C353.859 624.903 349.291 617.961 349.168 610.68C349.168 610.027 349.168 604.487 349.242 603.834C350.003 595.392 356.585 600.037 368.716 593.143L795.517 350.431C819.167 336.982 854.924 335.531 875.406 347.166L1056.92 450.38C1066.05 455.58 1070.6 446.437 1070.74 453.718C1070.74 454.347 1070.74 462.595 1070.67 463.248C1069.93 471.69 1063.35 480.447 1051.17 487.365L624.37 730.076C600.72 743.525 564.963 744.977 544.481 733.342L544.506 733.317Z" fill="url(#paint0_linear_5_2081)"/>
<path d="M795.542 349.706C819.191 336.257 854.948 334.805 875.43 346.44L1056.94 449.654C1065.93 454.758 1070.15 446.244 1070.67 453.379C1070.72 454.129 1070.77 462.136 1070.69 462.886C1069.98 471.352 1063.38 480.084 1051.19 487.026L624.394 729.738C600.744 743.187 564.987 744.638 544.506 733.003L362.994 629.789C353.809 624.564 349.242 617.598 349.168 610.293C349.168 609.567 349.242 604.173 349.315 603.447C350.347 595.126 356.707 599.263 368.716 592.441L795.517 349.73L795.542 349.706Z" fill="url(#paint1_linear_5_2081)"/>
<path d="M795.542 348.98C819.191 335.531 854.949 334.08 875.43 345.714L1056.94 448.928C1065.76 453.936 1069.79 446.074 1070.57 453.041C1070.67 453.911 1070.77 461.652 1070.69 462.547C1070.01 471.013 1063.4 479.769 1051.19 486.712L624.394 729.423C600.744 742.872 564.987 744.323 544.506 732.689L362.994 629.474C353.785 624.25 349.193 617.235 349.168 609.906C349.168 609.107 349.291 603.858 349.414 603.06C350.641 594.884 356.879 598.464 368.741 591.716L795.542 349.004V348.98Z" fill="url(#paint2_linear_5_2081)"/>
<path d="M795.541 348.254C819.191 334.805 854.948 333.354 875.43 344.989L1056.94 448.203C1065.59 453.113 1069.49 445.905 1070.47 452.702C1070.62 453.694 1070.77 461.192 1070.69 462.184C1070.03 470.65 1063.4 479.431 1051.19 486.373L624.394 729.084C600.744 742.533 564.987 743.985 544.505 732.35L362.994 629.136C353.76 623.887 349.143 616.848 349.192 609.494C349.192 608.624 349.339 603.52 349.511 602.625C350.936 594.57 357.051 597.618 368.74 590.966L795.541 348.254Z" fill="url(#paint3_linear_5_2081)"/>
<path d="M795.542 347.504C819.192 334.055 854.949 332.604 875.431 344.239L1056.94 447.453C1065.44 452.291 1069.22 445.711 1070.38 452.339C1070.57 453.452 1070.79 460.684 1070.69 461.821C1070.06 470.311 1063.43 479.092 1051.2 486.034L624.395 728.746C600.745 742.195 564.988 743.646 544.506 732.011L362.995 628.797C353.736 623.524 349.095 616.461 349.193 609.083C349.193 608.116 349.39 603.181 349.586 602.213C351.158 594.255 357.199 596.795 368.742 590.216L795.542 347.504Z" fill="url(#paint4_linear_5_2081)"/>
<path d="M795.543 346.779C819.193 333.33 854.95 331.879 875.432 343.513L1056.94 446.728C1065.27 451.469 1069 445.518 1070.28 452.001C1070.52 453.21 1070.79 460.225 1070.7 461.459C1070.06 469.949 1063.43 478.729 1051.2 485.696L624.396 728.407C600.746 741.856 564.989 743.308 544.507 731.673L362.996 628.459C353.688 623.161 349.071 616.074 349.194 608.672C349.194 607.632 349.44 602.867 349.685 601.803C351.38 593.965 357.347 595.973 368.742 589.49L795.543 346.779Z" fill="url(#paint5_linear_5_2081)"/>
<path d="M795.542 346.053C819.192 332.604 854.949 331.153 875.431 342.788L1056.94 446.002C1065.12 450.646 1068.8 445.349 1070.2 451.662C1070.5 452.993 1070.82 459.765 1070.72 461.12C1070.11 469.61 1063.45 478.415 1051.22 485.381L624.419 728.093C600.769 741.542 565.012 742.993 544.531 731.358L363.019 628.144C353.687 622.847 349.046 615.736 349.217 608.285C349.217 607.173 349.512 602.553 349.782 601.391C351.6 593.675 357.518 595.151 368.766 588.765L795.567 346.053H795.542Z" fill="url(#paint6_linear_5_2081)"/>
<path d="M795.543 345.328C819.193 331.879 854.95 330.427 875.432 342.062L1056.94 445.276C1064.95 449.824 1068.61 445.155 1070.11 451.323C1070.45 452.775 1070.82 459.281 1070.72 460.781C1070.11 469.296 1063.48 478.1 1051.22 485.067L624.42 727.778C600.771 741.227 565.014 742.679 544.532 731.044L363.021 627.83C353.664 622.508 349.022 615.372 349.219 607.898C349.243 606.689 349.563 602.238 349.857 601.004C351.773 593.409 357.667 594.352 368.743 588.039L795.543 345.328Z" fill="url(#paint7_linear_5_2081)"/>
<path d="M795.541 344.602C819.191 331.153 854.948 329.702 875.43 341.336L1056.94 444.551C1064.77 449.001 1068.43 444.986 1070.01 450.985C1070.42 452.557 1070.82 458.822 1070.72 460.418C1070.13 468.933 1063.47 477.762 1051.22 484.728L624.418 727.44C600.768 740.889 565.011 742.34 544.53 730.705L363.018 627.491C353.637 622.145 348.995 614.986 349.217 607.487C349.266 606.205 349.585 601.899 349.953 600.593C351.943 593.095 357.812 593.53 368.765 587.313L795.566 344.602H795.541Z" fill="url(#paint8_linear_5_2081)"/>
<path d="M795.541 343.876C819.191 330.427 854.948 328.976 875.429 340.611L1056.94 443.825C1064.63 448.203 1068.26 444.792 1069.91 450.646C1070.37 452.339 1070.84 458.338 1070.72 460.08C1070.13 468.594 1063.5 477.423 1051.22 484.414L624.418 727.125C600.768 740.574 565.011 742.025 544.529 730.391L363.018 627.177C353.588 621.831 348.971 614.623 349.216 607.1C349.265 605.745 349.634 601.585 350.027 600.182C352.114 592.804 357.959 592.707 368.765 586.588L795.565 343.876H795.541Z" fill="url(#paint9_linear_5_2081)"/>
<path d="M795.543 343.151C819.193 329.702 854.95 328.25 875.431 339.885L1056.94 443.099C1064.46 447.381 1068.12 444.599 1069.81 450.307C1070.35 452.122 1070.84 457.879 1070.72 459.717C1070.13 468.231 1063.5 477.085 1051.22 484.075L624.42 726.787C600.77 740.236 565.013 741.687 544.531 730.052L363.02 626.838C353.565 621.468 348.948 614.236 349.218 606.689C349.267 605.237 349.66 601.246 350.102 599.771C352.263 592.49 358.108 591.909 368.742 585.838L795.543 343.126V343.151Z" fill="url(#paint10_linear_5_2081)"/>
<path d="M795.543 342.401C819.193 328.952 854.95 327.5 875.432 339.135L1056.94 442.349C1064.31 446.534 1067.97 444.381 1069.71 449.944C1070.33 451.88 1070.84 457.37 1070.72 459.354C1070.16 467.893 1063.52 476.746 1051.22 483.736L624.42 726.448C600.77 739.897 565.013 741.348 544.531 729.713L363.02 626.499C353.541 621.105 348.924 613.848 349.218 606.277C349.267 604.753 349.71 600.907 350.201 599.359C352.436 592.175 358.256 591.087 368.767 585.112L795.568 342.401H795.543Z" fill="url(#paint11_linear_5_2081)"/>
<path d="M795.541 341.675C819.191 328.226 854.948 326.775 875.43 338.409L1056.94 441.624C1064.14 445.711 1067.82 444.188 1069.61 449.606C1070.3 451.638 1070.84 456.911 1070.72 458.991C1070.15 467.53 1063.52 476.407 1051.22 483.398L624.418 726.109C600.768 739.558 565.011 741.01 544.53 729.375L363.019 626.161C353.514 620.742 348.897 613.462 349.217 605.866C349.29 604.27 349.732 600.569 350.273 598.948C352.557 591.861 358.402 590.264 368.741 584.386L795.541 341.675Z" fill="url(#paint12_linear_5_2081)"/>
<path d="M795.542 340.949C819.192 327.5 854.949 326.049 875.431 337.684L1056.94 440.898C1063.97 444.889 1067.67 443.994 1069.52 449.267C1070.28 451.42 1070.84 456.427 1070.69 458.652C1070.13 467.191 1063.5 476.093 1051.17 483.083L624.37 725.795C600.72 739.244 564.963 740.695 544.481 729.06L362.97 625.846C353.417 620.428 348.825 613.099 349.168 605.479C349.242 603.786 349.733 600.254 350.298 598.537C352.656 591.57 358.501 589.442 368.692 583.636L795.493 340.925L795.542 340.949Z" fill="url(#paint13_linear_5_2081)"/>
<path d="M795.543 340.224C819.193 326.775 854.95 325.323 875.432 336.958L1056.94 440.172C1063.82 444.091 1067.55 443.776 1069.44 448.953C1070.28 451.226 1070.89 455.992 1070.72 458.314C1070.18 466.877 1063.55 475.754 1051.2 482.769L624.396 725.48C600.746 738.929 564.989 740.381 544.507 728.746L362.996 625.532C353.418 620.089 348.826 612.736 349.194 605.092C349.293 603.326 349.784 599.94 350.422 598.15C352.829 591.28 358.698 588.644 368.743 582.935L795.543 340.224Z" fill="url(#paint14_linear_5_2081)"/>
<path d="M795.544 339.498C819.194 326.049 854.951 324.597 875.433 336.232L1056.94 439.446C1063.65 443.268 1067.41 443.583 1069.35 448.614C1070.25 450.984 1070.89 455.508 1070.72 457.975C1070.18 466.538 1063.55 475.439 1051.2 482.454L624.397 725.166C600.747 738.615 564.99 740.066 544.508 728.431L362.997 625.217C353.395 619.75 348.802 612.373 349.195 604.705C349.293 602.867 349.809 599.625 350.497 597.763C352.977 590.99 358.822 587.845 368.719 582.233L795.52 339.522L795.544 339.498Z" fill="url(#paint15_linear_5_2081)"/>
<path d="M795.541 338.772C819.191 325.323 854.948 323.872 875.43 335.507L1056.94 438.721C1063.5 442.446 1067.28 443.365 1069.24 448.276C1070.25 450.743 1070.89 455.048 1070.72 457.612C1070.18 466.175 1063.57 475.101 1051.19 482.116L624.394 724.827C600.744 738.276 564.987 739.728 544.505 728.093L362.994 624.879C353.367 619.388 348.774 611.986 349.192 604.294C349.29 602.383 349.83 599.287 350.567 597.328C353.097 590.627 358.966 586.999 368.716 581.46L795.516 338.748L795.541 338.772Z" fill="url(#paint16_linear_5_2081)"/>
<path d="M795.543 338.023C819.193 324.574 854.95 323.122 875.432 334.757L1056.94 437.971C1063.33 441.6 1067.13 443.148 1069.15 447.913C1070.23 450.501 1070.89 454.541 1070.72 457.25C1070.18 465.837 1063.57 474.763 1051.2 481.777L624.396 724.489C600.746 737.938 564.989 739.389 544.507 727.754L362.996 624.54C353.32 619.049 348.777 611.599 349.219 603.883C349.342 601.875 349.882 598.948 350.692 596.916C353.271 590.313 359.165 586.177 368.743 580.734L795.543 338.023Z" fill="url(#paint17_linear_5_2081)"/>
<path d="M795.541 337.297C819.191 323.848 854.948 322.396 875.429 334.031L1056.94 437.245C1063.15 440.777 1067.01 442.93 1069.05 447.574C1070.23 450.259 1070.89 454.081 1070.72 456.911C1070.18 465.498 1063.57 474.424 1051.19 481.463L624.393 724.174C600.743 737.623 564.986 739.075 544.505 727.44L362.993 624.226C353.293 618.711 348.75 611.236 349.216 603.496C349.339 601.415 349.904 598.634 350.763 596.529C353.391 590.022 359.285 585.402 368.74 580.032L795.541 337.321V337.297Z" fill="url(#paint18_linear_5_2081)"/>
<path d="M795.542 336.571C819.192 323.122 854.949 321.671 875.431 333.306L1056.94 436.52C1063.01 439.955 1066.86 442.712 1068.95 447.235C1070.23 450.017 1070.89 453.597 1070.72 456.548C1070.2 465.135 1063.6 474.085 1051.2 481.148L624.395 723.86C600.745 737.309 564.988 738.76 544.506 727.125L362.995 623.911C353.27 618.372 348.726 610.898 349.218 603.109C349.34 600.956 349.93 598.319 350.838 596.118C353.515 589.708 359.434 584.58 368.717 579.283L795.518 336.571H795.542Z" fill="url(#paint19_linear_5_2081)"/>
<path d="M795.542 335.845C819.192 322.396 854.949 320.945 875.431 332.58L1056.94 435.794C1062.84 439.156 1066.74 442.494 1068.85 446.897C1070.25 449.775 1070.89 453.137 1070.72 456.209C1070.2 464.821 1063.6 473.771 1051.2 480.834L624.395 723.545C600.745 736.994 564.988 738.446 544.506 726.811L362.995 623.597C353.245 618.057 348.727 610.535 349.218 602.722C349.365 600.472 349.955 597.981 350.937 595.731C353.663 589.393 359.606 583.782 368.742 578.581L795.542 335.87V335.845Z" fill="url(#paint20_linear_5_2081)"/>
<path d="M544.506 726.472L362.995 623.258C342.513 611.623 345.092 591.28 368.742 577.831L795.542 335.12C819.192 321.671 854.949 320.219 875.431 331.854L1056.94 435.068C1077.42 446.703 1074.84 467.046 1051.2 480.495L624.395 723.207C600.745 736.656 564.988 738.107 544.506 726.472Z" fill="url(#paint21_linear_5_2081)"/>
</g>
<path d="M544.506 726.665L362.994 623.451C353.859 618.251 349.291 611.309 349.168 604.028C349.168 603.375 349.168 589.369 349.242 588.716C350.003 580.274 356.585 584.918 368.716 578.025L795.517 335.313C819.167 321.864 854.924 320.413 875.406 332.048L1056.92 435.262C1066.05 440.462 1070.6 431.319 1070.74 438.6C1070.74 439.229 1070.74 455.943 1070.67 456.596C1069.93 465.038 1063.35 473.795 1051.17 480.713L624.37 723.424C600.72 736.873 564.963 738.324 544.481 726.69L544.506 726.665Z" fill="url(#paint22_linear_5_2081)"/>
<path d="M795.543 334.588C819.193 321.139 854.95 319.687 875.432 331.322L1056.94 434.536C1065.88 439.616 1069.84 431.101 1070.62 438.164C1070.72 439.011 1070.77 455.169 1070.67 456.016C1069.69 464.385 1063.3 473.093 1051.22 479.963L624.42 722.674C600.77 736.123 565.013 737.575 544.532 725.94L363.02 622.726C353.909 617.549 349.44 610.631 349.219 603.399C349.194 602.576 349.292 589.006 349.44 588.184C350.79 579.96 356.832 584.096 368.767 577.299L795.568 334.588H795.543Z" fill="url(#paint23_linear_5_2081)"/>
<path d="M795.541 333.862C819.191 320.413 854.948 318.961 875.43 330.596L1056.94 433.81C1065.68 438.769 1069.32 430.908 1070.47 437.753C1070.64 438.793 1070.79 454.395 1070.64 455.484C1069.49 463.78 1063.23 472.44 1051.22 479.261L624.418 721.973C600.769 735.422 565.012 736.873 544.53 725.238L363.019 622.024C353.957 616.872 349.536 610.002 349.217 602.794C349.168 601.802 349.364 588.692 349.585 587.676C351.28 579.669 357.051 583.273 368.741 576.622L795.541 333.91V333.862Z" fill="url(#paint24_linear_5_2081)"/>
<path d="M795.542 333.136C819.192 319.687 854.949 318.236 875.431 329.871L1056.94 433.085C1065.49 437.947 1068.95 430.69 1070.33 437.318C1070.6 438.576 1070.79 453.597 1070.6 454.903C1069.32 463.152 1063.13 471.714 1051.2 478.511L624.395 721.223C600.745 734.672 564.988 736.123 544.506 724.488L362.995 621.274C353.957 616.146 349.586 609.301 349.193 602.141C349.119 600.956 349.414 588.329 349.709 587.095C351.674 579.282 357.224 582.379 368.717 575.848L795.518 333.136H795.542Z" fill="url(#paint25_linear_5_2081)"/>
<path d="M795.543 332.386C819.192 318.937 854.949 317.486 875.431 329.121L1056.94 432.335C1065.27 437.076 1068.63 430.448 1070.18 436.858C1070.55 438.334 1070.82 452.799 1070.57 454.322C1069.22 462.498 1063.06 471.013 1051.2 477.761L624.395 720.473C600.745 733.922 564.988 735.373 544.506 723.738L362.995 620.524C354.007 615.421 349.635 608.599 349.193 601.464C349.12 600.109 349.464 587.942 349.881 586.515C352.018 578.895 357.47 581.508 368.742 575.098L795.543 332.386Z" fill="url(#paint26_linear_5_2081)"/>
<path d="M795.542 331.661C819.191 318.212 854.948 316.76 875.43 328.395L1056.94 431.609C1065.07 436.229 1068.36 430.231 1070.03 436.447C1070.5 438.14 1070.84 452.025 1070.52 453.766C1069.1 461.894 1062.96 470.336 1051.19 477.036L624.394 719.748C600.744 733.197 564.987 734.648 544.505 723.013L362.994 619.799C354.03 614.719 349.684 607.947 349.217 600.835C349.119 599.287 349.561 587.604 350.052 585.983C352.311 578.533 357.69 580.661 368.741 574.372L795.542 331.661Z" fill="url(#paint27_linear_5_2081)"/>
<path d="M795.542 330.935C819.192 317.486 854.949 316.035 875.431 327.67L1056.94 430.884C1064.87 435.407 1068.14 430.013 1069.88 436.012C1070.45 437.923 1070.87 451.227 1070.5 453.21C1069 461.265 1062.88 469.659 1051.2 476.311L624.395 719.022C600.745 732.471 564.988 733.922 544.506 722.288L362.995 619.073C354.08 613.994 349.733 607.269 349.217 600.206C349.095 598.489 349.61 587.241 350.2 585.427C352.582 578.146 357.887 579.815 368.741 573.647L795.542 330.935Z" fill="url(#paint28_linear_5_2081)"/>
<path d="M795.542 330.209C819.191 316.76 854.948 315.309 875.43 326.944L1056.94 430.158C1064.68 434.56 1067.92 429.771 1069.76 435.6C1070.42 437.729 1070.91 450.477 1070.5 452.654C1068.95 460.66 1062.84 468.981 1051.22 475.585L624.418 718.296C600.769 731.745 565.012 733.197 544.53 721.562L363.019 618.348C354.153 613.292 349.782 606.616 349.242 599.577C349.094 597.666 349.684 586.902 350.371 584.894C352.852 577.783 358.132 578.968 368.741 572.921L795.542 330.209Z" fill="url(#paint29_linear_5_2081)"/>
<path d="M795.543 329.484C819.193 316.035 854.95 314.583 875.432 326.218L1056.94 429.432C1064.48 433.714 1067.72 429.529 1069.61 435.165C1070.4 437.511 1070.94 449.678 1070.45 452.073C1068.85 460.031 1062.74 468.28 1051.22 474.835L624.42 717.546C600.77 730.995 565.013 732.447 544.531 720.812L363.02 617.598C354.179 612.567 349.832 605.915 349.243 598.924C349.071 596.844 349.71 586.539 350.52 584.338C353.074 577.396 358.33 578.097 368.742 572.195L795.543 329.484Z" fill="url(#paint30_linear_5_2081)"/>
<path d="M795.541 328.758C819.19 315.309 854.948 313.858 875.429 325.492L1056.94 428.707C1064.26 432.867 1067.53 429.287 1069.47 434.754C1070.37 437.318 1070.96 448.904 1070.42 451.541C1068.8 459.426 1062.66 467.626 1051.22 474.133L624.418 716.845C600.768 730.294 565.011 731.745 544.529 720.11L363.018 616.896C354.226 611.889 349.855 605.261 349.265 598.319C349.069 596.07 349.781 586.2 350.69 583.806C353.293 577.009 358.573 577.275 368.74 571.469L795.541 328.758Z" fill="url(#paint31_linear_5_2081)"/>
<path d="M795.54 328.032C819.19 314.583 854.947 313.132 875.429 324.767L1056.94 427.981C1064.06 432.045 1067.33 429.045 1069.32 434.318C1070.35 437.076 1070.99 448.13 1070.4 450.96C1068.73 458.798 1062.59 466.925 1051.22 473.384L624.417 716.095C600.768 729.544 565.011 730.995 544.529 719.36L363.018 616.146C354.25 611.164 349.879 604.584 349.265 597.642C349.044 595.199 349.805 585.814 350.861 583.225C353.538 576.573 358.794 576.38 368.764 570.72L795.565 328.008L795.54 328.032Z" fill="url(#paint32_linear_5_2081)"/>
<path d="M795.543 327.282C819.193 313.833 854.95 312.382 875.432 324.017L1056.94 427.231C1063.87 431.174 1067.16 428.779 1069.17 433.883C1070.35 436.858 1071.04 447.332 1070.35 450.404C1068.63 458.193 1062.49 466.248 1051.2 472.658L624.396 715.369C600.746 728.818 564.989 730.27 544.507 718.635L362.996 615.421C354.278 610.462 349.882 603.907 349.243 597.013C348.998 594.4 349.808 585.451 350.987 582.693C353.713 576.186 358.993 575.533 368.718 569.994L795.519 327.282H795.543Z" fill="url(#paint33_linear_5_2081)"/>
<path d="M795.541 326.557C819.19 313.108 854.947 311.656 875.429 323.291L1056.94 426.505C1063.67 430.327 1066.98 428.513 1069.02 433.448C1070.35 436.616 1071.06 446.534 1070.32 449.823C1068.58 457.564 1062.42 465.546 1051.22 471.908L624.418 714.619C600.768 728.068 565.011 729.52 544.529 717.885L363.018 614.671C354.349 609.736 349.953 603.229 349.29 596.36C349.02 593.554 349.879 585.088 351.181 582.113C353.956 575.751 359.236 574.662 368.765 569.244L795.565 326.533L795.541 326.557Z" fill="url(#paint34_linear_5_2081)"/>
<path d="M795.542 325.831C819.192 312.382 854.949 310.931 875.43 322.565L1056.94 425.78C1063.47 429.48 1066.81 428.271 1068.88 433.036C1070.35 436.398 1071.09 445.784 1070.28 449.291C1068.51 456.983 1062.3 464.893 1051.19 471.206L624.394 713.918C600.745 727.367 564.988 728.818 544.506 717.183L362.995 613.969C354.35 609.059 349.954 602.576 349.266 595.755C348.972 592.78 349.88 584.749 351.305 581.604C354.129 575.388 359.409 573.84 368.741 568.542L795.542 325.831Z" fill="url(#paint35_linear_5_2081)"/>
<path d="M795.541 325.105C819.191 311.656 854.948 310.205 875.429 321.84L1056.94 425.054C1063.28 428.658 1066.64 428.005 1068.73 432.601C1070.35 436.157 1071.14 444.986 1070.25 448.711C1068.43 456.354 1062.22 464.192 1051.19 470.456L624.393 713.168C600.744 726.617 564.987 728.068 544.505 716.433L362.994 613.219C354.398 608.333 349.978 601.899 349.265 595.102C348.946 591.933 349.879 584.362 351.451 581.048C354.325 574.977 359.629 572.969 368.716 567.817L795.516 325.105H795.541Z" fill="url(#paint36_linear_5_2081)"/>
<path d="M795.541 324.38C819.191 310.931 854.948 309.479 875.43 321.114L1056.94 424.328C1063.06 427.811 1066.47 427.739 1068.61 432.19C1070.4 435.939 1071.21 444.236 1070.25 448.178C1068.41 455.774 1062.17 463.538 1051.22 469.755L624.418 712.466C600.769 725.915 565.012 727.367 544.53 715.732L363.019 612.518C354.448 607.656 350.027 601.246 349.291 594.497C348.922 591.159 349.929 584.023 351.624 580.54C354.546 574.59 359.851 572.171 368.741 567.115L795.541 324.404V324.38Z" fill="url(#paint37_linear_5_2081)"/>
<path d="M795.542 323.654C819.191 310.205 854.948 308.754 875.43 320.389L1056.94 423.603C1062.86 426.965 1066.3 427.473 1068.46 431.754C1070.42 435.697 1071.23 443.438 1070.2 447.598C1068.34 455.145 1062.07 462.813 1051.22 469.005L624.419 711.717C600.769 725.166 565.012 726.617 544.53 714.982L363.019 611.768C354.497 606.93 350.052 600.569 349.315 593.82C348.922 590.313 349.954 583.588 351.82 579.936C354.792 574.13 360.121 571.252 368.766 566.317L795.566 323.606L795.542 323.654Z" fill="url(#paint38_linear_5_2081)"/>
<path d="M795.543 322.904C819.192 309.455 854.949 308.004 875.431 319.639L1056.94 422.853C1062.66 426.094 1066.13 427.183 1068.31 431.319C1070.5 435.455 1071.28 442.664 1070.18 447.042C1068.26 454.541 1062 462.136 1051.22 468.28L624.419 710.991C600.77 724.44 565.013 725.892 544.531 714.257L363.02 611.043C354.547 606.229 350.078 599.892 349.316 593.191C348.899 589.49 349.93 583.225 351.969 579.404C354.965 573.719 360.318 570.405 368.766 565.616L795.567 322.904H795.543Z" fill="#242424" fill-opacity="0.6"/>
<path d="M795.541 322.179C819.191 308.73 854.948 307.278 875.43 318.913L1056.94 422.127C1062.47 425.272 1065.95 426.892 1068.16 430.884C1070.52 435.165 1071.33 441.89 1070.13 446.461C1068.19 453.911 1061.9 461.434 1051.19 467.53L624.394 710.241C600.744 723.69 564.987 725.142 544.505 713.507L362.994 610.293C354.546 605.479 350.076 599.19 349.291 592.538C348.824 588.668 349.904 582.814 352.09 578.847C355.135 573.284 360.514 569.559 368.716 564.866L795.517 322.154L795.541 322.179Z" fill="#242424" fill-opacity="0.6"/>
<path d="M795.543 321.453C819.193 308.004 854.95 306.553 875.431 318.188L1056.94 421.402C1062.27 424.425 1065.78 426.626 1068.02 430.472C1070.57 434.899 1071.38 441.116 1070.11 445.929C1068.14 453.331 1061.83 460.781 1051.2 466.828L624.395 709.54C600.746 722.989 564.989 724.44 544.507 712.805L362.996 609.591C354.597 604.802 350.102 598.561 349.292 591.933C348.801 587.87 349.881 582.451 352.239 578.315C355.333 572.873 360.712 568.712 368.718 564.165L795.518 321.453H795.543Z" fill="#242424" fill-opacity="0.6"/>
<path d="M795.542 320.727C819.192 307.278 854.949 305.827 875.431 317.462L1056.94 420.676C1062.05 423.578 1065.61 426.336 1067.87 430.037C1070.65 434.633 1071.43 440.341 1070.08 445.348C1068.07 452.702 1061.76 460.079 1051.22 466.078L624.419 708.79C600.769 722.239 565.012 723.69 544.531 712.055L363.019 608.841C354.645 604.076 350.151 597.859 349.34 591.28C348.825 587.047 349.905 582.04 352.435 577.758C355.578 572.437 360.957 567.841 368.742 563.414L795.542 320.703V320.727Z" fill="#242424" fill-opacity="0.6"/>
<path d="M544.504 711.354L362.993 608.14C342.511 596.505 345.09 576.162 368.74 562.713L795.54 320.002C819.19 306.553 854.947 305.101 875.429 316.736L1056.94 419.95C1077.42 431.585 1074.84 451.928 1051.19 465.377L624.393 708.088C600.743 721.537 564.986 722.989 544.504 711.354Z" fill="#242424" fill-opacity="0.6"/>
<path d="M377.535 563.536L797.95 324.452C818.334 312.866 849.179 311.608 866.837 321.647L1044.47 422.659C1062.13 432.698 1059.92 450.235 1039.53 461.845L619.116 700.929C598.733 712.515 567.887 713.773 550.23 703.734L372.599 602.722C354.941 592.683 357.151 575.146 377.535 563.536Z" fill="white"/>
<path d="M966.223 530.106L987.81 517.843C990.511 516.319 992.697 512.207 992.697 508.651C992.697 505.119 990.511 503.474 987.81 505.023L966.223 517.286C963.522 518.81 961.336 522.922 961.336 526.478C961.336 530.01 963.522 531.655 966.223 530.106Z" fill="url(#paint39_linear_5_2081)"/>
<path d="M964.283 529.429C964.652 529.429 965.118 529.284 965.585 529.018L987.172 516.754C989.48 515.448 991.42 511.747 991.42 508.651C991.42 507.296 990.978 505.7 989.75 505.7C989.382 505.7 988.915 505.845 988.449 506.111L966.862 518.375C964.553 519.681 962.613 523.382 962.613 526.478C962.613 527.833 963.055 529.429 964.283 529.429Z" fill="#242424"/>
<path d="M927.69 552.021L949.277 539.758C951.978 538.234 954.164 534.122 954.164 530.566C954.164 527.034 951.978 525.389 949.277 526.938L927.69 539.201C924.988 540.725 922.803 544.837 922.803 548.393C922.803 551.925 924.988 553.57 927.69 552.021Z" fill="url(#paint40_linear_5_2081)"/>
<path d="M925.75 551.344C926.118 551.344 926.585 551.199 927.052 550.933L948.638 538.669C950.947 537.363 952.887 533.662 952.887 530.566C952.887 529.211 952.445 527.615 951.217 527.615C950.849 527.615 950.382 527.76 949.915 528.026L928.329 540.29C926.02 541.596 924.08 545.297 924.08 548.393C924.08 549.748 924.522 551.344 925.75 551.344Z" fill="#242424"/>
<g style="mix-blend-mode:multiply">
<path d="M580.928 704.484C571.006 704.484 561.674 702.283 554.601 698.243L382.005 600.085C374.735 595.949 370.732 590.385 370.732 584.435C370.732 578.508 374.686 573.018 381.857 568.93L811.752 324.477C818.702 320.51 827.961 318.333 837.784 318.333C847.608 318.333 857.038 320.558 864.111 324.573L1036.71 422.732C1043.98 426.868 1047.98 432.432 1047.98 438.406C1047.98 444.381 1044.03 449.823 1036.85 453.911L606.96 698.364C600.01 702.331 590.751 704.508 580.928 704.508V704.484ZM837.76 320.776C828.354 320.776 819.562 322.832 812.956 326.581L383.061 571.034C376.676 574.662 373.164 579.428 373.164 584.435C373.164 589.442 376.725 594.304 383.208 598.005L555.805 696.163C562.509 699.961 571.399 702.065 580.903 702.065C590.309 702.065 599.101 700.009 605.707 696.26L1035.6 451.807C1041.99 448.179 1045.5 443.413 1045.5 438.406C1045.5 433.399 1041.94 428.513 1035.45 424.836L862.858 326.678C856.154 322.88 847.264 320.776 837.76 320.776Z" fill="white"/>
</g>
<path d="M958.635 395.519L915.829 371.161C914.135 370.194 914.356 368.525 916.296 367.412C918.236 366.299 921.183 366.178 922.878 367.146L965.683 391.504C967.378 392.472 967.156 394.141 965.216 395.253C963.276 396.366 960.329 396.487 958.635 395.519Z" fill="black" fill-opacity="0.47"/>
<g style="mix-blend-mode:screen" opacity="0.5">
<path d="M529.356 440.632L455.091 482.866L380.974 440.704L455.238 398.47L529.356 440.632ZM534.906 440.656L455.214 395.35L375.424 440.728L455.116 486.034L534.906 440.656Z" fill="white"/>
<path d="M632.205 499.121L557.941 541.355L483.823 499.193L558.088 456.959L632.205 499.121ZM637.756 499.121L558.063 453.815L478.273 499.193L557.965 544.499L637.756 499.121Z" fill="white"/>
<path d="M203.586 752.789L9.62401 642.488C-3.14636 635.231 -3.22004 623.451 9.47666 616.219L466.165 356.527C478.862 349.319 499.564 349.343 512.335 356.599L706.297 466.901C719.067 474.157 719.141 485.937 706.444 493.17L249.756 752.862C237.059 760.07 216.357 760.046 203.586 752.789ZM510.517 357.639C498.778 350.963 479.697 350.915 468.031 357.567L11.3431 617.283C-0.322156 623.911 -0.273032 634.772 11.4659 641.448L205.428 751.749C217.167 758.425 236.249 758.474 247.914 751.822L704.603 492.13C716.268 485.478 716.219 474.641 704.48 467.965L510.517 357.664V357.639Z" fill="white"/>
<path d="M615.652 452.678L537.359 408.17L542.418 405.292L620.711 449.799L615.652 452.678Z" fill="white"/>
<path d="M362.602 463.345L372.278 468.86L377.066 466.127L367.39 460.612L362.602 463.345Z" fill="white"/>
<path d="M393.939 475.706L381.046 468.376L376.232 471.11L389.15 478.439L393.939 475.706Z" fill="white"/>
<path d="M379.646 460.418L406.44 475.657L411.253 472.924L384.46 457.685L379.646 460.418Z" fill="white"/>
<path d="M380.481 455.435L365.181 446.727L360.393 449.461L375.668 458.169L380.481 455.435Z" fill="white"/>
<path d="M410.418 477.907L416.361 481.293L421.175 478.56L415.207 475.174L410.418 477.907Z" fill="white"/>
<path d="M363.437 458.362L354.104 453.041L349.291 455.774L358.623 461.095L363.437 458.362Z" fill="white"/>
<path d="M335.565 675.772L147.791 569.027L149.387 568.107L337.161 674.853L335.565 675.772Z" fill="white"/>
<path opacity="0.4" d="M205.724 549.603L173.602 567.889L337.456 661.065L373.974 640.311L349.168 621.719L337.456 601.279L353.836 572.364L291.973 580.395L303.197 557.706L236.545 558.843L205.724 549.603Z" fill="white"/>
<path opacity="0.5" d="M194.034 556.255L173.602 567.889L337.456 661.065L365.207 645.294L344.552 624.357L324.047 620.234L335.565 583.588L285.072 589.756L285.343 573.284L232.959 572.582L194.034 556.255Z" fill="white"/>
<path opacity="0.8" d="M186.741 560.415L173.602 567.89L337.456 661.065L351.331 653.18L353.468 638.618L315.353 636.876L307.863 607.705L265.327 598.464L264.542 587.217L214.688 580.468L186.741 560.415Z" fill="white"/>
<path d="M233.08 631.845L212.402 620.089L207.564 622.847L228.242 634.603L233.08 631.845ZM223.699 639.174L199.042 625.145L194.204 627.902L218.861 641.932L223.699 639.174ZM254.028 643.746L237.083 634.119L232.245 636.876L249.19 646.504L254.028 643.746ZM264.613 649.769L258.007 646.02L253.169 648.777L259.775 652.527L264.613 649.769ZM167.558 594.594L152.455 586.007L147.617 588.765L162.72 597.352L167.558 594.594ZM164.39 605.455L141.305 592.32L136.467 595.078L159.552 608.212L164.39 605.455ZM227.677 641.448L222.839 644.206L229.323 647.882L234.161 645.125L227.677 641.448ZM198.453 612.155L171.537 596.844L166.699 599.601L193.615 614.913L198.453 612.155ZM208.423 617.815L202.456 614.405L197.618 617.162L203.585 620.573L208.423 617.815ZM195.039 622.895L182.072 615.518L177.234 618.275L190.201 625.653L195.039 622.895ZM168.369 607.729L163.531 610.486L173.256 616.001L178.094 613.244L168.369 607.729ZM233.326 650.156L251.008 660.219L255.846 657.461L238.164 647.399L233.326 650.156ZM290.399 664.452L268.592 652.043L263.754 654.8L285.561 667.209L290.399 664.452ZM304.471 672.458L294.378 666.725L289.54 669.483L299.633 675.216L304.471 672.458ZM191.552 667.645L174.607 658.017L169.769 660.775L186.714 670.402L191.552 667.645ZM196.881 663.508L214.563 673.571L219.401 670.813L201.719 660.751L196.881 663.508ZM223.478 665.951L231.214 670.354L236.052 667.596L228.316 663.194L223.478 665.951ZM202.431 679.328L219.376 688.955L224.214 686.198L207.269 676.57L202.431 679.328ZM218.566 675.82L226.13 680.126L230.968 677.369L223.404 673.063L218.566 675.82ZM119.89 619.726L129.616 625.241L134.454 622.484L124.728 616.969L119.89 619.726ZM145.971 641.738L140.004 638.328L135.166 641.085L141.133 644.496L145.971 641.738ZM151.374 632.135L138.407 624.758L133.569 627.515L146.536 634.893L151.374 632.135ZM180.034 648.414L155.377 634.385L150.539 637.142L175.196 651.172L180.034 648.414ZM184.896 676.546L167.214 666.484L162.376 669.241L180.058 679.304L184.896 676.546ZM137.008 616.775L163.924 632.087L168.762 629.329L141.846 614.018L137.008 616.775ZM202.529 654.05L219.475 663.678L224.313 660.92L207.367 651.293L202.529 654.05ZM220.04 696.526L188.9 678.82L184.061 681.577L215.202 699.284L220.04 696.526ZM203.389 649.043L182.711 637.288L177.873 640.045L198.551 651.801L203.389 649.043ZM141.796 652.043L120.873 640.142L116.035 642.899L136.958 654.8L141.796 652.043ZM197.716 658.477L184.012 650.688L179.174 653.446L192.878 661.235L197.716 658.477ZM116.87 637.868L103.903 630.49L99.0648 633.248L112.032 640.626L116.87 637.868ZM104.247 623.5L131.163 638.811L136.001 636.054L109.085 620.742L104.247 623.5ZM123.918 654.534L97.0019 639.223L92.1639 641.98L119.08 657.292L123.918 654.534ZM170.628 655.744L149.95 643.988L145.112 646.745L165.79 658.501L170.628 655.744ZM179.494 686.149L162.548 676.522L157.71 679.279L174.656 688.907L179.494 686.149ZM133.054 665.226L153.732 676.982L158.57 674.224L137.892 662.468L133.054 665.226ZM163.236 664.21L145.799 654.292L140.961 657.05L158.398 666.967L163.236 664.21ZM123.083 659.566L129.051 662.976L133.889 660.219L127.921 656.808L123.083 659.566ZM264.662 683.9L259.824 686.657L269.918 692.39L274.756 689.632L264.662 683.9ZM242.412 702.065L247.643 705.041L252.481 702.283L247.25 699.308L242.412 702.065ZM219.573 701.751L236.518 711.378L241.356 708.621L224.411 698.993L219.573 701.751ZM137.843 611.768L122.494 603.036L117.656 605.794L133.005 614.526L137.843 611.768ZM235.168 672.603L255.846 684.359L260.684 681.602L240.006 669.846L235.168 672.603ZM167.902 634.361L173.87 637.771L178.708 635.014L172.74 631.603L167.902 634.361ZM263.238 695.752L234.21 679.255L229.372 682.013L258.4 698.51L263.238 695.752ZM244.107 697.542L228.193 688.495L223.355 691.253L239.269 700.3L244.107 697.542ZM203.266 674.321L195.53 669.918L190.692 672.676L198.428 677.078L203.266 674.321ZM120.725 614.695L111.344 609.374L106.506 612.131L115.887 617.453L120.725 614.695ZM93.0235 636.973L77.92 628.386L73.082 631.144L88.1855 639.731L93.0235 636.973ZM99.9244 628.217L89.045 622.024L84.207 624.782L95.0864 630.974L99.9244 628.217ZM105.106 618.493L100.219 615.711L95.3811 618.469L100.268 621.25L105.106 618.493Z" fill="white"/>
</g>
<g filter="url(#filter1_d_5_2081)">
<path d="M561.711 631.656L479.588 584.948C471.312 580.231 472.343 572.007 481.921 566.564C491.499 561.122 505.964 560.541 514.24 565.234L596.363 611.942C604.64 616.659 603.608 624.883 594.055 630.326C584.477 635.769 570.012 636.349 561.736 631.656H561.711Z" fill="#FF251B"/>
<g style="mix-blend-mode:multiply">
<path d="M561.711 630.592L479.588 583.883C471.312 579.166 472.343 570.942 481.921 565.5C491.499 560.057 505.964 559.477 514.24 564.169L596.363 610.878C604.64 615.595 603.608 623.819 594.055 629.262C584.477 634.704 570.012 635.285 561.736 630.592H561.711Z" fill="white"/>
</g>
</g>
<g filter="url(#filter2_d_5_2081)">
<path d="M887.542 485.591L624 336.058L825.48 221L1089 370.533L887.542 485.591Z" fill="#ECECEC"/>
<path d="M887.541 485.016L625.011 336.057L825.481 221.575L1087.99 370.535L887.541 485.016Z" stroke="black" stroke-opacity="0.2"/>
</g>
<g style="mix-blend-mode:multiply" opacity="0.21">
<path d="M818.872 250.907L818.42 250.639L678.436 330.242L896.749 454.392L897.202 454.659L1037.19 375.057L818.895 250.907H818.872ZM824.008 307.956L878.875 339.156L834.077 364.628L779.21 333.428L824.008 307.956ZM777.377 332.403L727.805 304.213L772.603 278.741L822.176 306.931L777.377 332.403ZM880.685 338.131L825.818 306.931L869.78 281.927L924.647 313.127L880.685 338.131ZM926.457 314.152L981.324 345.351L937.362 370.355L882.495 339.156L926.457 314.152ZM832.244 365.675L788.645 390.456L789.029 391.102L733.393 359.48L777.355 334.476L832.221 365.675H832.244ZM834.054 366.7L888.921 397.899L845.322 422.68L845.706 423.327L790.07 391.682L834.031 366.678L834.054 366.7ZM835.887 365.675L880.685 340.203L935.552 371.402L890.754 396.874L835.887 365.675ZM937.362 372.427L987.772 401.086L942.973 426.558L892.564 397.899L937.362 372.427ZM939.172 371.38L983.134 346.376L1033.54 375.035L989.582 400.039L939.172 371.38ZM867.97 280.902L824.008 305.906L774.436 277.716L818.397 252.712L867.97 280.902ZM726.017 305.26L775.59 333.451L731.99 358.232L732.375 358.878L682.056 330.264L726.017 305.26ZM846.77 423.928L890.731 398.924L941.141 427.583L897.179 452.587L846.77 423.928Z" fill="#242424"/>
</g>
<path opacity="0.23" d="M727.964 303.744C732.987 306.597 777.492 299.399 790.615 306.864C803.466 314.174 779.935 340.559 796.135 349.763C812.335 358.967 908.199 330.487 922.725 338.754C937.251 347 909.874 379.737 924.105 387.826C938.337 395.916 963.926 389.966 972.026 394.556C980.126 399.169 965.419 407.526 970.171 410.223L897.203 451.718L683.324 330.085L727.987 303.722L727.964 303.744Z" fill="#242424"/>
<path opacity="0.3" d="M969.29 411.671C968.114 411.003 967.706 410.089 967.548 409.465C967.118 407.504 968.498 405.565 970.105 403.336C971.417 401.487 973.069 399.191 972.752 397.721C972.707 397.498 972.548 396.807 971.168 396.005C968.068 394.244 961.326 394.222 954.176 394.2C943.678 394.155 931.777 394.11 923.27 389.275C915.011 384.572 918.496 373.608 921.867 363C925.035 353.061 927.998 343.679 921.867 340.203C915.351 336.481 888.54 341.25 862.633 345.863C832.564 351.212 804.146 356.248 795.3 351.212C785.616 345.707 788.422 335.055 790.888 325.673C793.263 316.603 794.395 310.92 789.779 308.313C782.109 303.945 761.927 304.948 747.175 305.661C735.546 306.24 729.391 306.463 727.129 305.193L728.826 302.296C730.319 303.143 739.188 302.697 746.994 302.318C763.013 301.538 782.924 300.558 791.453 305.416C798.626 309.494 796.34 318.141 794.146 326.52C791.77 335.545 789.53 344.08 796.974 348.315C804.757 352.749 835.166 347.334 862.022 342.565C890.96 337.417 915.962 332.982 923.564 337.306C932.026 342.119 928.496 353.24 925.08 364.003C921.98 373.786 919.039 383.012 924.944 386.378C932.682 390.768 944.085 390.812 954.176 390.857C962.118 390.879 968.996 390.901 972.865 393.108C974.652 394.11 975.716 395.425 976.078 396.985C976.734 399.882 974.698 402.735 972.888 405.231C972.118 406.323 970.806 408.15 970.874 408.729L969.29 411.649V411.671Z" fill="#242424"/>
<path opacity="0.8" d="M978.697 282.663L959.715 271.877L955.28 274.395L974.263 285.181L978.697 282.663ZM960.755 284.089L938.13 271.23L933.695 273.749L956.321 286.607L960.755 284.089ZM937.609 259.308L912.925 245.268L908.49 247.787L933.175 261.826L937.609 259.308ZM956.049 269.804L941.252 261.403L936.818 263.921L951.615 272.322L956.049 269.804ZM934.464 269.136L922.586 262.383L918.151 264.901L930.03 271.654L934.464 269.136ZM904.101 251.642L899.666 254.16L914.486 262.829L918.921 260.311L904.101 251.642ZM885.955 262.339L910.64 276.378L915.074 273.86L890.39 259.82L885.955 262.339ZM914.282 278.451L919.758 281.571L924.192 279.053L918.717 275.933L914.282 278.451Z" fill="white"/>
<path opacity="0.8" d="M869.01 247.742L888.852 236.444L882.608 232.878L862.765 244.177L869.01 247.742ZM905.55 236.243L899.305 232.677L870.933 248.812L877.178 252.377L905.55 236.243ZM860.865 243.107L872.2 236.666L865.955 233.101L854.62 239.541L860.865 243.107ZM904.939 239.564L877.313 255.275L849.529 239.474L874.938 225.011L891.975 234.683L894.169 233.435L874.938 222.493L845.117 239.452L877.336 257.77L907.156 240.812L904.939 239.564Z" fill="white"/>
<g style="mix-blend-mode:color-dodge">
<path d="M887.542 483.719L626.76 334.498L624 336.058L887.542 485.591L1085.13 372.138L1082.39 371.826L887.542 483.719Z" fill="#4A6444"/>
</g>
<g filter="url(#filter3_d_5_2081)">
<path d="M642.92 670.069L354 506.137L574.882 380L863.776 543.932L642.92 670.069Z" fill="#ECECEC"/>
</g>
<g style="mix-blend-mode:color-dodge">
<path d="M642.92 668.017L357.026 504.427L354 506.137L642.92 670.07L859.535 545.691L856.534 545.349L642.92 668.017Z" fill="#231F20"/>
</g>
<path d="M598.444 510.926C604.819 509.167 610.796 506.797 616.08 503.792C631.111 495.241 637.238 483.539 634.484 472.447C629.672 454.954 603.008 441.566 570.837 441.615C567.364 441.615 563.966 441.786 560.642 442.104L556.004 426.908C572.548 425.222 587.332 425.93 603.107 429.18C610.796 430.768 617.866 432.869 624.24 435.41C624.464 435.483 624.662 435.581 624.86 435.678C625.952 436.118 627.018 436.582 628.085 437.046C628.928 437.413 629.772 437.804 630.59 438.17C630.64 438.195 630.714 438.219 630.764 438.268C641.058 443.105 648.648 448.773 654.526 455.956C675.709 481.926 655.742 512.856 609.953 525.071L598.444 510.95V510.926Z" fill="#575757" fill-opacity="0.1"/>
<path d="M501.414 511.561C487.077 501.837 480.157 490.941 480.231 478.213L506.003 478.164C506.003 478.164 506.003 478.384 506.003 478.506C505.953 487.521 511.658 495.779 521.133 502.155C532.965 510.12 550.65 515.177 570.444 515.152C582.598 515.152 594.008 513.198 603.756 509.826L617.051 522.97C578.183 535.772 530.162 531.057 501.463 511.585L501.414 511.561Z" fill="#454545" fill-opacity="0.6"/>
<path d="M506.002 478.164L480.23 478.213C480.379 452.731 511.856 431.427 556.007 426.932L560.646 442.128C530.013 444.962 506.399 460.036 506.027 478.164H506.002Z" fill="#3D3D3D"/>
<path d="M732.608 498.808L742.157 493.384L732.657 487.985L723.108 493.409L732.608 498.808Z" fill="black"/>
<path d="M714.648 509.02L724.198 503.596L714.698 498.197L705.148 503.621L714.648 509.02Z" fill="black"/>
<path d="M696.69 519.232L706.264 513.808L696.764 508.384L687.189 513.832L696.69 519.232Z" fill="black"/>
<path opacity="0.5" d="M678.733 529.444L688.307 523.996L678.807 518.597L669.233 524.045L678.733 529.444Z" fill="black"/>
<path opacity="0.5" d="M660.797 539.656L670.347 534.208L660.847 528.809L651.297 534.257L660.797 539.656Z" fill="black"/>
<path opacity="0.5" d="M642.842 549.868L652.391 544.42L642.891 539.021L633.342 544.469L642.842 549.868Z" fill="black"/>
<path d="M624.881 560.081L634.43 554.633L624.93 549.233L615.381 554.682L624.881 560.081Z" fill="black"/>
<path opacity="0.5" d="M606.924 570.293L616.473 564.845L606.973 559.446L597.424 564.869L606.924 570.293Z" fill="black"/>
<path d="M749.578 508.458L759.128 503.035L749.628 497.635L740.078 503.059L749.578 508.458Z" fill="black"/>
<path opacity="0.5" d="M731.619 518.671L741.193 513.247L731.693 507.848L722.119 513.271L731.619 518.671Z" fill="black"/>
<path opacity="0.8" d="M713.66 528.883L723.234 523.459L713.734 518.035L704.16 523.483L713.66 528.883Z" fill="black"/>
<path opacity="0.5" d="M695.724 539.095L705.274 533.647L695.774 528.248L686.224 533.696L695.724 539.095Z" fill="black"/>
<path opacity="0.8" d="M677.767 549.307L687.317 543.859L677.817 538.46L668.267 543.908L677.767 549.307Z" fill="black"/>
<path d="M659.812 559.519L669.362 554.071L659.862 548.672L650.312 554.12L659.812 559.519Z" fill="black"/>
<path opacity="0.5" d="M641.851 569.731L651.401 564.283L641.901 558.884L632.351 564.332L641.851 569.731Z" fill="black"/>
<path opacity="0.5" d="M623.894 579.944L633.444 574.496L623.969 569.096L614.394 574.52L623.894 579.944Z" fill="black"/>
<path opacity="0.5" d="M766.541 518.109L776.116 512.685L766.616 507.286L757.041 512.71L766.541 518.109Z" fill="black"/>
<path d="M748.582 528.321L758.156 522.897L748.656 517.498L739.082 522.922L748.582 528.321Z" fill="black"/>
<path d="M730.65 538.533L740.2 533.109L730.7 527.686L721.15 533.134L730.65 538.533Z" fill="black"/>
<path d="M712.689 548.745L722.239 543.297L712.739 537.898L703.189 543.346L712.689 548.745Z" fill="black"/>
<path opacity="0.5" d="M694.73 558.957L704.28 553.509L694.78 548.11L685.23 553.558L694.73 558.957Z" fill="black"/>
<path d="M676.775 569.17L686.325 563.722L676.825 558.322L667.275 563.77L676.775 569.17Z" fill="black"/>
<path opacity="0.5" d="M658.815 579.382L668.364 573.933L658.889 568.534L649.314 573.982L658.815 579.382Z" fill="black"/>
<path d="M640.857 589.594L650.432 584.146L640.932 578.747L631.357 584.17L640.857 589.594Z" fill="black"/>
<path d="M783.51 527.759L793.084 522.335L783.584 516.936L774.01 522.359L783.51 527.759Z" fill="black"/>
<path opacity="0.5" d="M765.547 537.971L775.122 532.547L765.622 527.148L756.072 532.572L765.547 537.971Z" fill="black"/>
<path opacity="0.5" d="M747.615 548.183L757.165 542.759L747.665 537.336L738.115 542.784L747.615 548.183Z" fill="black"/>
<path d="M729.658 558.395L739.208 552.947L729.708 547.548L720.158 552.996L729.658 558.395Z" fill="black"/>
<path d="M711.701 568.607L721.251 563.159L711.751 557.76L702.201 563.208L711.701 568.607Z" fill="black"/>
<path d="M693.742 578.82L703.292 573.371L693.816 567.972L684.242 573.42L693.742 578.82Z" fill="black"/>
<path opacity="0.8" d="M675.783 589.032L685.357 583.584L675.857 578.184L666.283 583.632L675.783 589.032Z" fill="black"/>
<path opacity="0.8" d="M657.824 599.244L667.399 593.796L657.899 588.397L648.349 593.82L657.824 599.244Z" fill="black"/>
<path opacity="0.5" d="M800.473 537.409L810.048 531.985L800.548 526.586L790.998 532.01L800.473 537.409Z" fill="black"/>
<path d="M782.539 547.621L792.089 542.197L782.589 536.798L773.039 542.222L782.539 547.621Z" fill="black"/>
<path opacity="0.8" d="M764.58 557.833L774.13 552.385L764.63 546.986L755.08 552.434L764.58 557.833Z" fill="black"/>
<path opacity="0.8" d="M746.623 568.046L756.173 562.597L746.673 557.198L737.123 562.646L746.623 568.046Z" fill="black"/>
<path opacity="0.5" d="M728.666 578.258L738.216 572.809L728.716 567.41L719.166 572.858L728.666 578.258Z" fill="black"/>
<path opacity="0.5" d="M710.707 588.47L720.281 583.022L710.781 577.622L701.207 583.07L710.707 588.47Z" fill="black"/>
<path opacity="0.5" d="M692.748 598.682L702.322 593.234L692.822 587.834L683.248 593.283L692.748 598.682Z" fill="black"/>
<path opacity="0.5" d="M674.814 608.894L684.364 603.446L674.864 598.047L665.314 603.471L674.814 608.894Z" fill="black"/>
<path d="M817.463 547.059L827.013 541.635L817.513 536.236L807.963 541.66L817.463 547.059Z" fill="black"/>
<path d="M799.504 557.271L809.053 551.848L799.553 546.424L790.004 551.872L799.504 557.271Z" fill="black"/>
<path opacity="0.5" d="M781.545 567.483L791.094 562.035L781.594 556.636L772.045 562.084L781.545 567.483Z" fill="black"/>
<path d="M763.588 577.696L773.138 572.247L763.638 566.848L754.088 572.296L763.588 577.696Z" fill="black"/>
<path opacity="0.5" d="M745.631 587.907L755.205 582.459L745.705 577.06L736.131 582.508L745.631 587.907Z" fill="black"/>
<path opacity="0.5" d="M727.674 598.12L737.248 592.671L727.748 587.272L718.174 592.72L727.674 598.12Z" fill="black"/>
<path d="M709.736 608.332L719.286 602.884L709.786 597.484L700.236 602.932L709.736 608.332Z" fill="black"/>
<path opacity="0.2" d="M691.779 618.52L701.329 613.096L691.829 607.697L682.279 613.12L691.779 618.52Z" fill="black"/>
<g style="mix-blend-mode:multiply">
<path d="M429.826 484.492L683.797 628.903L685.136 628.146L431.166 483.71L429.826 484.492Z" fill="#242424"/>
</g>
<path d="M557.295 605.498L589.962 585.953L580.462 580.554L547.795 600.099L557.295 605.498Z" fill="#242424"/>
<path opacity="0.85" d="M573.84 615.27L600.306 599.268L590.806 593.869L564.34 609.871L573.84 615.27Z" fill="#242424"/>
<path opacity="0.75" d="M591.204 625.043L611.047 613.12L601.547 607.721L581.703 619.644L591.204 625.043Z" fill="#242424"/>
<path opacity="0.6" d="M608.143 634.4L622.628 624.921L613.128 619.521L598.643 629.001L608.143 634.4Z" fill="#242424"/>
<path opacity="0.4" d="M624.69 644.979L634.19 639.189L624.69 633.765L615.19 639.579L624.69 644.979Z" fill="#242424"/>
<path opacity="0.3" d="M641.207 654.36L646.59 650.988L637.09 645.589L631.707 648.961L641.207 654.36Z" fill="#242424"/>
<path opacity="0.8" d="M586.986 487.741C587.606 487.399 588.177 487.008 588.772 486.568L596.387 487.618L596.809 487.203C598.173 485.884 599.19 484.442 599.884 482.952L600.107 482.488L593.435 480.143C593.658 479.116 593.634 478.066 593.435 477.04L600.083 474.719L599.859 474.255C599.165 472.764 598.123 471.323 596.734 470.004L596.312 469.588L588.698 470.614C587.482 469.735 586.391 469.1 584.828 468.416L586.639 464.091L585.895 463.847C583.563 463.065 581.033 462.479 578.404 462.064L577.585 461.941L573.517 465.728C571.707 465.606 569.871 465.606 568.06 465.728L563.943 461.917L563.124 462.039C560.495 462.43 557.965 463.016 555.658 463.774L554.939 464.018L556.799 468.342C556.03 468.684 555.361 469.026 554.741 469.368C554.145 469.71 553.55 470.101 552.955 470.541L545.34 469.491L544.918 469.906C543.554 471.225 542.537 472.667 541.842 474.157L541.619 474.621L548.316 476.966C548.093 477.993 548.118 479.043 548.316 480.069L541.669 482.39L541.892 482.854C542.587 484.345 543.653 485.786 545.017 487.105L545.439 487.521L553.054 486.495C554.269 487.374 555.361 488.009 556.923 488.693L555.113 493.018L555.857 493.262C558.188 494.044 560.718 494.63 563.348 495.045L564.166 495.168L568.234 491.381C570.045 491.503 571.88 491.503 573.691 491.381L577.808 495.192L578.627 495.07C581.256 494.679 583.786 494.093 586.118 493.335L586.837 493.091L584.977 488.767C585.771 488.425 586.416 488.083 587.036 487.741H586.986ZM584.183 492.456C582.497 492.969 580.686 493.409 578.825 493.702L574.807 489.988L574.063 490.062C571.98 490.233 569.871 490.233 567.788 490.062L567.043 489.988L563.075 493.677C561.19 493.36 559.404 492.944 557.692 492.407L559.453 488.18L558.833 487.936C556.948 487.154 555.782 486.495 554.393 485.42L553.947 485.078L546.53 486.079C545.613 485.102 544.844 484.076 544.298 483.025L550.797 480.778L550.673 480.362C550.35 479.165 550.325 477.968 550.673 476.795L550.797 476.38L544.273 474.108C544.819 473.033 545.563 472.031 546.481 471.054L553.897 472.08L554.344 471.738C555.038 471.201 555.683 470.761 556.378 470.37C557.047 469.979 557.841 469.613 558.784 469.222L559.404 468.978L557.593 464.751C559.28 464.238 561.09 463.798 562.951 463.505L566.969 467.219L567.713 467.145C569.797 466.974 571.905 466.974 573.989 467.145L574.733 467.219L578.701 463.529C580.587 463.847 582.372 464.262 584.084 464.8L582.323 469.026L582.943 469.271C584.828 470.053 585.994 470.737 587.383 471.787L587.829 472.129L595.246 471.127C596.164 472.105 596.933 473.131 597.478 474.181L590.98 476.429L591.104 476.844C591.426 478.017 591.451 479.239 591.104 480.411L590.98 480.827L597.503 483.099C596.957 484.149 596.213 485.175 595.295 486.153L587.854 485.126L587.408 485.468C586.713 486.006 586.068 486.446 585.399 486.837C584.729 487.228 583.96 487.594 582.993 487.985L582.372 488.229L584.183 492.456ZM577.784 474.621C573.939 472.447 567.713 472.422 563.893 474.597C560.073 476.771 560.098 480.314 563.943 482.488C567.788 484.662 574.013 484.687 577.833 482.488C581.653 480.314 581.628 476.771 577.784 474.597V474.621ZM565.53 481.584C562.579 479.898 562.554 477.186 565.506 475.525C568.433 473.864 573.22 473.864 576.171 475.525C579.123 477.211 579.123 479.923 576.196 481.584C573.269 483.245 568.482 483.245 565.53 481.584Z" fill="#242424"/>
<g filter="url(#filter4_d_5_2081)">
<path d="M681.804 441.554L242 192.011L578.234 0L1018 249.543L681.804 441.554Z" fill="white"/>
<path d="M681.803 440.979L243.011 192.009L578.235 0.575338L1016.99 249.545L681.803 440.979Z" stroke="black" stroke-opacity="0.28"/>
</g>
<g style="mix-blend-mode:color-dodge">
<path d="M681.804 438.43L246.606 189.407L242 192.011L681.804 441.554L1011.54 252.221L1006.97 251.7L681.804 438.43Z" fill="#231F20"/>
</g>
<g style="mix-blend-mode:multiply" opacity="0.11">
<path d="M903.172 282.196L596.087 107.553L597.711 106.623L904.796 281.266L903.172 282.196Z" fill="#242424"/>
</g>
<g style="mix-blend-mode:multiply" opacity="0.12">
<path d="M840.307 317.935L533.222 143.292L534.845 142.4L841.93 317.006L840.307 317.935Z" fill="#242424"/>
</g>
<g style="mix-blend-mode:multiply" opacity="0.11">
<path d="M934.588 264.308L627.503 89.7017L629.127 88.772L936.212 263.378L934.588 264.308Z" fill="#242424"/>
</g>
<g style="mix-blend-mode:multiply" opacity="0.12">
<path d="M871.758 300.047L564.673 125.441L566.297 124.511L873.382 299.155L871.758 300.047Z" fill="#242424"/>
</g>
<g opacity="0.5">
<path d="M578.228 167.205L557.347 155.304L634.373 111.495L655.291 123.396L578.228 167.205Z" fill="#FF251B"/>
<path d="M619.275 190.56L598.357 178.66L715.973 111.792L736.891 123.656L619.275 190.56Z" fill="#FF251B"/>
<path d="M660.312 213.878L639.394 201.978L731.675 149.54L752.592 161.404L660.312 213.878Z" fill="#FF251B"/>
<path d="M701.355 237.233L680.437 225.333L757.501 181.523L778.419 193.386L701.355 237.233Z" fill="#FF251B"/>
<path d="M742.396 260.552L721.478 248.651L778.228 216.37L799.146 228.271L742.396 260.552Z" fill="#FF251B"/>
<path d="M783.441 283.907L762.523 272.006L839.549 228.196L860.467 240.06L783.441 283.907Z" fill="#FF251B"/>
<path d="M824.447 307.225L803.529 295.324L911.026 234.221L931.944 246.122L824.447 307.225Z" fill="#FF251B"/>
</g>
<g opacity="0.8">
<path d="M578.228 167.205L557.347 155.304L614.777 122.652L635.695 134.552L578.228 167.205Z" fill="white"/>
<path d="M619.275 190.56L598.357 178.66L686.22 128.677L707.138 140.577L619.275 190.56Z" fill="white"/>
<path d="M660.312 213.878L639.394 201.978L717.138 157.796L738.056 169.697L660.312 213.878Z" fill="white"/>
<path d="M701.355 237.233L680.437 225.332L737.905 192.643L758.785 204.543L701.355 237.233Z" fill="white"/>
<path d="M742.396 260.551L721.478 248.651L758.632 227.527L779.55 239.428L742.396 260.551Z" fill="white"/>
<path d="M783.441 283.906L762.523 272.006L819.953 239.316L840.871 251.217L783.441 283.906Z" fill="white"/>
<path d="M824.447 307.224L803.529 295.324L881.273 251.142L902.19 263.043L824.447 307.224Z" fill="white"/>
</g>
<g style="mix-blend-mode:multiply" opacity="0.16">
<path d="M444.495 192.308L751.579 366.952L753.203 366.022L446.118 191.379L444.495 192.308Z" fill="url(#paint41_linear_5_2081)"/>
</g>
<g style="mix-blend-mode:multiply" opacity="0.16">
<path d="M381.665 228.048L688.75 402.691L690.373 401.761L383.288 227.155L381.665 228.048Z" fill="url(#paint42_linear_5_2081)"/>
</g>
<g style="mix-blend-mode:multiply" opacity="0.16">
<path d="M475.945 174.457L783.03 349.063L784.654 348.134L477.569 173.528L475.945 174.457Z" fill="url(#paint43_linear_5_2081)"/>
</g>
<g style="mix-blend-mode:multiply" opacity="0.16">
<path d="M413.081 210.197L720.165 384.803L721.789 383.91L414.704 209.267L413.081 210.197Z" fill="url(#paint44_linear_5_2081)"/>
</g>
<g opacity="0.6">
<path d="M646.686 377.104L667.604 388.968L744.668 345.158L723.75 333.258L646.686 377.104Z" fill="url(#paint45_linear_5_2081)"/>
<path d="M605.643 353.749L626.561 365.65L744.177 298.783L723.259 286.882L605.643 353.749Z" fill="url(#paint46_linear_5_2081)"/>
<path d="M564.641 330.431L585.559 342.295L677.801 289.857L656.884 277.956L564.641 330.431Z" fill="url(#paint47_linear_5_2081)"/>
<path d="M523.596 307.076L544.514 318.977L621.54 275.167L600.623 263.267L523.596 307.076Z" fill="url(#paint48_linear_5_2081)"/>
<path d="M482.551 283.758L503.469 295.658L560.257 263.34L539.339 251.477L482.551 283.758Z" fill="url(#paint49_linear_5_2081)"/>
<path d="M441.512 260.403L462.43 272.304L550.972 221.949L530.054 210.048L441.512 260.403Z" fill="url(#paint50_linear_5_2081)"/>
<path d="M400.467 237.085L421.385 248.985L493.05 208.225L472.132 196.325L400.467 237.085Z" fill="url(#paint51_linear_5_2081)"/>
</g>
<g opacity="0.8">
<path d="M646.686 377.105L667.604 388.968L725.071 356.316L704.154 344.415L646.686 377.105Z" fill="url(#paint52_linear_5_2081)"/>
<path d="M605.643 353.75L626.561 365.65L714.424 315.667L693.543 303.804L605.643 353.75Z" fill="url(#paint53_linear_5_2081)"/>
<path d="M564.641 330.432L585.559 342.295L663.265 298.114L642.347 286.213L564.641 330.432Z" fill="url(#paint54_linear_5_2081)"/>
<path d="M523.596 307.076L544.514 318.977L601.944 286.324L581.026 274.423L523.596 307.076Z" fill="url(#paint55_linear_5_2081)"/>
<path d="M482.551 283.758L503.469 295.659L540.623 274.498L519.743 262.597L482.551 283.758Z" fill="url(#paint56_linear_5_2081)"/>
<path d="M441.512 260.403L462.43 272.304L531.376 233.106L510.458 221.205L441.512 260.403Z" fill="url(#paint57_linear_5_2081)"/>
<path d="M400.467 237.085L421.385 248.986L463.296 225.147L442.379 213.247L400.467 237.085Z" fill="url(#paint58_linear_5_2081)"/>
</g>
<path opacity="0.7" d="M573.249 100.152C555.201 110.416 525.825 110.379 507.664 100.04C489.502 89.7014 489.389 73.0032 507.475 62.7389C525.523 52.4745 554.899 52.5117 573.06 62.8504C591.222 73.1892 591.335 89.8874 573.249 100.152Z" fill="white"/>
<path opacity="0.75" d="M422.859 188.775C404.811 199.039 375.435 199.002 357.273 188.663C339.112 178.325 338.999 161.627 357.085 151.362C375.171 141.098 404.509 141.135 422.67 151.474C440.832 161.812 440.945 178.511 422.859 188.775Z" fill="#FF251B"/>
<path d="M546.291 88.6231C545.007 87.433 544.328 86.1314 544.252 84.7925C544.252 83.9744 545.385 83.3421 546.82 83.3421C548.632 83.3421 550.596 83.1562 552.332 82.7471C553.314 83.0818 554.975 83.1934 555.882 82.6727C556.826 82.1521 557.128 81.4455 556.675 80.962C560.375 78.6562 562.112 75.867 556.826 72.8546C551.539 69.8422 546.631 70.8464 542.553 72.929C541.722 72.6687 540.476 72.8546 539.532 73.3753C538.626 73.8959 538.853 74.8629 539.419 75.3835C538.702 76.3876 538.362 77.5034 538.362 78.5075C538.362 79.3257 537.229 79.9951 535.832 79.9579C533.491 79.9579 531.15 79.5116 529.074 78.805C526.317 77.838 522.692 78.024 520.314 79.4L516.198 81.743C515.405 82.1893 515.405 82.9331 516.198 83.3793L538.249 95.9123C539.042 96.3585 540.363 96.3585 541.156 95.9123L545.272 93.5693C547.65 92.2305 547.99 90.1479 546.291 88.5859V88.6231Z" fill="#FF251B"/>
<path opacity="0.7" d="M409.569 158.28C398.884 152.218 381.553 152.181 370.943 158.205C360.333 164.23 360.371 174.085 371.056 180.147C381.742 186.209 399.073 186.246 409.683 180.222C420.293 174.197 420.255 164.342 409.569 158.243V158.28ZM405.831 178.065C397.336 182.899 383.441 182.862 374.87 177.99C366.299 173.118 366.261 165.234 374.757 160.362C383.252 155.528 397.147 155.528 405.718 160.4C414.289 165.271 414.327 173.156 405.831 178.028V178.065ZM404.585 161.143C403.528 160.548 401.829 160.548 400.772 161.143L386.31 169.362L399.903 177.098C400.96 177.693 402.66 177.693 403.717 177.098C404.774 176.503 404.774 175.536 403.717 174.941L393.975 169.4L404.661 163.338C405.718 162.743 405.718 161.776 404.661 161.181L404.585 161.143Z" fill="white"/>
<path opacity="0.41" d="M383.631 216.258L345.873 194.8L338.473 199.002L376.231 220.461L383.631 216.258ZM339.757 191.304L319.934 180.035L312.533 184.238L332.356 195.506L339.757 191.304Z" fill="url(#paint59_linear_5_2081)"/>
<path opacity="0.44" d="M458.879 96.8792L500.073 120.309L507.473 116.106L466.28 92.6768L458.879 96.8792Z" fill="#FF251B"/>
<path opacity="0.7" d="M506.189 123.767L515.327 128.974L522.727 124.771L513.59 119.565L506.189 123.767Z" fill="#FF251B"/>
<defs>
<filter id="filter0_d_5_2081" x="311.55" y="323.998" width="796.814" height="538.801" filterUnits="userSpaceOnUse" color-interpolation-filters="sRGB">
<feFlood flood-opacity="0" result="BackgroundImageFix"/>
<feColorMatrix in="SourceAlpha" type="matrix" values="0 0 0 0 0 0 0 0 0 0 0 0 0 0 0 0 0 0 127 0" result="hardAlpha"/>
<feOffset dy="84"/>
<feGaussianBlur stdDeviation="18.8"/>
<feComposite in2="hardAlpha" operator="out"/>
<feColorMatrix type="matrix" values="0 0 0 0 0 0 0 0 0 0 0 0 0 0 0 0 0 0 0.25 0"/>
<feBlend mode="normal" in2="BackgroundImageFix" result="effect1_dropShadow_5_2081"/>
<feBlend mode="normal" in="SourceGraphic" in2="effect1_dropShadow_5_2081" result="shape"/>
</filter>
<filter id="filter1_d_5_2081" x="470" y="561" width="135.954" height="81.8257" filterUnits="userSpaceOnUse" color-interpolation-filters="sRGB">
<feFlood flood-opacity="0" result="BackgroundImageFix"/>
<feColorMatrix in="SourceAlpha" type="matrix" values="0 0 0 0 0 0 0 0 0 0 0 0 0 0 0 0 0 0 127 0" result="hardAlpha"/>
<feOffset dy="4"/>
<feGaussianBlur stdDeviation="2"/>
<feComposite in2="hardAlpha" operator="out"/>
<feColorMatrix type="matrix" values="0 0 0 0 0 0 0 0 0 0 0 0 0 0 0 0 0 0 0.25 0"/>
<feBlend mode="normal" in2="BackgroundImageFix" result="effect1_dropShadow_5_2081"/>
<feBlend mode="normal" in="SourceGraphic" in2="effect1_dropShadow_5_2081" result="shape"/>
</filter>
<filter id="filter2_d_5_2081" x="592.3" y="221" width="528.4" height="334.291" filterUnits="userSpaceOnUse" color-interpolation-filters="sRGB">
<feFlood flood-opacity="0" result="BackgroundImageFix"/>
<feColorMatrix in="SourceAlpha" type="matrix" values="0 0 0 0 0 0 0 0 0 0 0 0 0 0 0 0 0 0 127 0" result="hardAlpha"/>
<feOffset dy="38"/>
<feGaussianBlur stdDeviation="15.85"/>
<feComposite in2="hardAlpha" operator="out"/>
<feColorMatrix type="matrix" values="0 0 0 0 0 0 0 0 0 0 0 0 0 0 0 0 0 0 0.25 0"/>
<feBlend mode="normal" in2="BackgroundImageFix" result="effect1_dropShadow_5_2081"/>
<feBlend mode="normal" in="SourceGraphic" in2="effect1_dropShadow_5_2081" result="shape"/>
</filter>
<filter id="filter3_d_5_2081" x="339.7" y="380" width="538.376" height="334.369" filterUnits="userSpaceOnUse" color-interpolation-filters="sRGB">
<feFlood flood-opacity="0" result="BackgroundImageFix"/>
<feColorMatrix in="SourceAlpha" type="matrix" values="0 0 0 0 0 0 0 0 0 0 0 0 0 0 0 0 0 0 127 0" result="hardAlpha"/>
<feOffset dy="30"/>
<feGaussianBlur stdDeviation="7.15"/>
<feComposite in2="hardAlpha" operator="out"/>
<feColorMatrix type="matrix" values="0 0 0 0 0 0 0 0 0 0 0 0 0 0 0 0 0 0 0.25 0"/>
<feBlend mode="normal" in2="BackgroundImageFix" result="effect1_dropShadow_5_2081"/>
<feBlend mode="normal" in="SourceGraphic" in2="effect1_dropShadow_5_2081" result="shape"/>
</filter>
<filter id="filter4_d_5_2081" x="228.7" y="0" width="802.6" height="492.854" filterUnits="userSpaceOnUse" color-interpolation-filters="sRGB">
<feFlood flood-opacity="0" result="BackgroundImageFix"/>
<feColorMatrix in="SourceAlpha" type="matrix" values="0 0 0 0 0 0 0 0 0 0 0 0 0 0 0 0 0 0 127 0" result="hardAlpha"/>
<feOffset dy="38"/>
<feGaussianBlur stdDeviation="6.65"/>
<feComposite in2="hardAlpha" operator="out"/>
<feColorMatrix type="matrix" values="0 0 0 0 0 0 0 0 0 0 0 0 0 0 0 0 0 0 0.25 0"/>
<feBlend mode="normal" in2="BackgroundImageFix" result="effect1_dropShadow_5_2081"/>
<feBlend mode="normal" in="SourceGraphic" in2="effect1_dropShadow_5_2081" result="shape"/>
</filter>
<linearGradient id="paint0_linear_5_2081" x1="709.956" y1="592.393" x2="709.956" y2="680.126" gradientUnits="userSpaceOnUse">
<stop offset="0.04" stop-color="#00812F"/>
<stop offset="0.41" stop-color="#00861F"/>
<stop offset="0.98" stop-color="#009100"/>
</linearGradient>
<linearGradient id="paint1_linear_5_2081" x1="706.812" y1="581.363" x2="699.95" y2="688.436" gradientUnits="userSpaceOnUse">
<stop offset="0.04" stop-color="#00812F"/>
<stop offset="0.41" stop-color="#00861F"/>
<stop offset="0.98" stop-color="#009100"/>
</linearGradient>
<linearGradient id="paint2_linear_5_2081" x1="705.24" y1="569.147" x2="688.888" y2="695.961" gradientUnits="userSpaceOnUse">
<stop offset="0.04" stop-color="#00812F"/>
<stop offset="0.41" stop-color="#00861F"/>
<stop offset="0.98" stop-color="#009100"/>
</linearGradient>
<linearGradient id="paint3_linear_5_2081" x1="705.412" y1="555.989" x2="676.909" y2="702.496" gradientUnits="userSpaceOnUse">
<stop offset="0.04" stop-color="#00812F"/>
<stop offset="0.41" stop-color="#00861F"/>
<stop offset="0.98" stop-color="#009100"/>
</linearGradient>
<linearGradient id="paint4_linear_5_2081" x1="707.549" y1="542.177" x2="664.102" y2="707.908" gradientUnits="userSpaceOnUse">
<stop offset="0.04" stop-color="#00812F"/>
<stop offset="0.41" stop-color="#00861F"/>
<stop offset="0.98" stop-color="#009100"/>
</linearGradient>
<linearGradient id="paint5_linear_5_2081" x1="711.676" y1="528.075" x2="650.569" y2="712.06" gradientUnits="userSpaceOnUse">
<stop offset="0.04" stop-color="#00812F"/>
<stop offset="0.41" stop-color="#00861F"/>
<stop offset="0.98" stop-color="#009100"/>
</linearGradient>
<linearGradient id="paint6_linear_5_2081" x1="717.864" y1="514.021" x2="636.507" y2="714.834" gradientUnits="userSpaceOnUse">
<stop offset="0.04" stop-color="#00812F"/>
<stop offset="0.41" stop-color="#00861F"/>
<stop offset="0.98" stop-color="#009100"/>
</linearGradient>
<linearGradient id="paint7_linear_5_2081" x1="726.092" y1="500.354" x2="622.068" y2="716.107" gradientUnits="userSpaceOnUse">
<stop offset="0.04" stop-color="#00812F"/>
<stop offset="0.41" stop-color="#00861F"/>
<stop offset="0.98" stop-color="#009100"/>
</linearGradient>
<linearGradient id="paint8_linear_5_2081" x1="736.871" y1="486.422" x2="607.524" y2="715.658" gradientUnits="userSpaceOnUse">
<stop offset="0.04" stop-color="#00812F"/>
<stop offset="0.41" stop-color="#00861F"/>
<stop offset="0.98" stop-color="#009100"/>
</linearGradient>
<linearGradient id="paint9_linear_5_2081" x1="751.336" y1="471.11" x2="587.09" y2="722.694" gradientUnits="userSpaceOnUse">
<stop offset="0.04" stop-color="#00812F"/>
<stop offset="0.41" stop-color="#00861F"/>
<stop offset="0.98" stop-color="#009100"/>
</linearGradient>
<linearGradient id="paint10_linear_5_2081" x1="768.602" y1="456.572" x2="565.125" y2="728.115" gradientUnits="userSpaceOnUse">
<stop offset="0.04" stop-color="#00812F"/>
<stop offset="0.41" stop-color="#00861F"/>
<stop offset="0.98" stop-color="#009100"/>
</linearGradient>
<linearGradient id="paint11_linear_5_2081" x1="788.765" y1="443.099" x2="542.225" y2="731.165" gradientUnits="userSpaceOnUse">
<stop offset="0.04" stop-color="#00812F"/>
<stop offset="0.41" stop-color="#00861F"/>
<stop offset="0.98" stop-color="#009100"/>
</linearGradient>
<linearGradient id="paint12_linear_5_2081" x1="811.627" y1="431.222" x2="518.657" y2="731.663" gradientUnits="userSpaceOnUse">
<stop offset="0.04" stop-color="#00812F"/>
<stop offset="0.41" stop-color="#00861F"/>
<stop offset="0.98" stop-color="#009100"/>
</linearGradient>
<linearGradient id="paint13_linear_5_2081" x1="836.898" y1="421.426" x2="494.745" y2="729.421" gradientUnits="userSpaceOnUse">
<stop offset="0.04" stop-color="#00812F"/>
<stop offset="0.41" stop-color="#00861F"/>
<stop offset="0.98" stop-color="#009100"/>
</linearGradient>
<linearGradient id="paint14_linear_5_2081" x1="864.258" y1="414.169" x2="470.894" y2="724.34" gradientUnits="userSpaceOnUse">
<stop offset="0.04" stop-color="#00812F"/>
<stop offset="0.41" stop-color="#00861F"/>
<stop offset="0.98" stop-color="#009100"/>
</linearGradient>
<linearGradient id="paint15_linear_5_2081" x1="893.238" y1="409.815" x2="447.422" y2="716.348" gradientUnits="userSpaceOnUse">
<stop offset="0.04" stop-color="#00812F"/>
<stop offset="0.41" stop-color="#00861F"/>
<stop offset="0.98" stop-color="#009100"/>
</linearGradient>
<linearGradient id="paint16_linear_5_2081" x1="923.319" y1="408.582" x2="424.706" y2="705.372" gradientUnits="userSpaceOnUse">
<stop offset="0.04" stop-color="#00812F"/>
<stop offset="0.41" stop-color="#00861F"/>
<stop offset="0.98" stop-color="#009100"/>
</linearGradient>
<linearGradient id="paint17_linear_5_2081" x1="953.945" y1="410.638" x2="403.124" y2="691.371" gradientUnits="userSpaceOnUse">
<stop offset="0.04" stop-color="#00812F"/>
<stop offset="0.41" stop-color="#00861F"/>
<stop offset="0.98" stop-color="#009100"/>
</linearGradient>
<linearGradient id="paint18_linear_5_2081" x1="984.616" y1="416.298" x2="383.191" y2="674.599" gradientUnits="userSpaceOnUse">
<stop offset="0.04" stop-color="#00812F"/>
<stop offset="0.41" stop-color="#00861F"/>
<stop offset="0.98" stop-color="#009100"/>
</linearGradient>
<linearGradient id="paint19_linear_5_2081" x1="1014.8" y1="425.635" x2="365.33" y2="655.306" gradientUnits="userSpaceOnUse">
<stop offset="0.04" stop-color="#00812F"/>
<stop offset="0.41" stop-color="#00861F"/>
<stop offset="0.98" stop-color="#009100"/>
</linearGradient>
<linearGradient id="paint20_linear_5_2081" x1="1043.88" y1="438.624" x2="349.904" y2="633.701" gradientUnits="userSpaceOnUse">
<stop offset="0.04" stop-color="#00812F"/>
<stop offset="0.41" stop-color="#00861F"/>
<stop offset="0.98" stop-color="#009100"/>
</linearGradient>
<linearGradient id="paint21_linear_5_2081" x1="1071.21" y1="455.145" x2="337.237" y2="610.159" gradientUnits="userSpaceOnUse">
<stop offset="0.04" stop-color="#00812F"/>
<stop offset="0.41" stop-color="#00861F"/>
<stop offset="0.98" stop-color="#009100"/>
</linearGradient>
<linearGradient id="paint22_linear_5_2081" x1="449.34" y1="202.117" x2="935.203" y2="830.104" gradientUnits="userSpaceOnUse">
<stop offset="0.1" stop-color="#212121"/>
<stop offset="1" stop-color="#5C5C5C"/>
</linearGradient>
<linearGradient id="paint23_linear_5_2081" x1="449.378" y1="201.399" x2="935.216" y2="829.334" gradientUnits="userSpaceOnUse">
<stop offset="0.1" stop-color="#212121"/>
<stop offset="1" stop-color="#5C5C5C"/>
</linearGradient>
<linearGradient id="paint24_linear_5_2081" x1="449.37" y1="200.666" x2="935.247" y2="828.601" gradientUnits="userSpaceOnUse">
<stop offset="0.1" stop-color="#212121"/>
<stop offset="1" stop-color="#5C5C5C"/>
</linearGradient>
<linearGradient id="paint25_linear_5_2081" x1="449.342" y1="199.947" x2="935.183" y2="827.873" gradientUnits="userSpaceOnUse">
<stop offset="0.1" stop-color="#212121"/>
<stop offset="1" stop-color="#5C5C5C"/>
</linearGradient>
<linearGradient id="paint26_linear_5_2081" x1="449.343" y1="199.197" x2="935.185" y2="827.115" gradientUnits="userSpaceOnUse">
<stop offset="0.1" stop-color="#212121"/>
<stop offset="1" stop-color="#5C5C5C"/>
</linearGradient>
<linearGradient id="paint27_linear_5_2081" x1="449.357" y1="198.472" x2="935.206" y2="826.364" gradientUnits="userSpaceOnUse">
<stop offset="0.1" stop-color="#212121"/>
<stop offset="1" stop-color="#5C5C5C"/>
</linearGradient>
<linearGradient id="paint28_linear_5_2081" x1="449.352" y1="197.746" x2="935.203" y2="825.635" gradientUnits="userSpaceOnUse">
<stop offset="0.1" stop-color="#212121"/>
<stop offset="1" stop-color="#5C5C5C"/>
</linearGradient>
<linearGradient id="paint29_linear_5_2081" x1="449.371" y1="197.021" x2="935.222" y2="824.906" gradientUnits="userSpaceOnUse">
<stop offset="0.1" stop-color="#212121"/>
<stop offset="1" stop-color="#5C5C5C"/>
</linearGradient>
<linearGradient id="paint30_linear_5_2081" x1="449.366" y1="196.302" x2="935.183" y2="824.172" gradientUnits="userSpaceOnUse">
<stop offset="0.1" stop-color="#212121"/>
<stop offset="1" stop-color="#5C5C5C"/>
</linearGradient>
<linearGradient id="paint31_linear_5_2081" x1="449.38" y1="195.569" x2="935.237" y2="823.431" gradientUnits="userSpaceOnUse">
<stop offset="0.1" stop-color="#212121"/>
<stop offset="1" stop-color="#5C5C5C"/>
</linearGradient>
<linearGradient id="paint32_linear_5_2081" x1="449.374" y1="194.851" x2="935.195" y2="822.703" gradientUnits="userSpaceOnUse">
<stop offset="0.1" stop-color="#212121"/>
<stop offset="1" stop-color="#5C5C5C"/>
</linearGradient>
<linearGradient id="paint33_linear_5_2081" x1="449.35" y1="194.094" x2="935.203" y2="821.974" gradientUnits="userSpaceOnUse">
<stop offset="0.1" stop-color="#212121"/>
<stop offset="1" stop-color="#5C5C5C"/>
</linearGradient>
<linearGradient id="paint34_linear_5_2081" x1="449.385" y1="193.375" x2="935.209" y2="821.217" gradientUnits="userSpaceOnUse">
<stop offset="0.1" stop-color="#212121"/>
<stop offset="1" stop-color="#5C5C5C"/>
</linearGradient>
<linearGradient id="paint35_linear_5_2081" x1="449.359" y1="192.642" x2="935.215" y2="820.506" gradientUnits="userSpaceOnUse">
<stop offset="0.1" stop-color="#212121"/>
<stop offset="1" stop-color="#5C5C5C"/>
</linearGradient>
<linearGradient id="paint36_linear_5_2081" x1="449.353" y1="191.924" x2="935.171" y2="819.789" gradientUnits="userSpaceOnUse">
<stop offset="0.1" stop-color="#212121"/>
<stop offset="1" stop-color="#5C5C5C"/>
</linearGradient>
<linearGradient id="paint37_linear_5_2081" x1="449.368" y1="191.191" x2="935.218" y2="819.083" gradientUnits="userSpaceOnUse">
<stop offset="0.1" stop-color="#212121"/>
<stop offset="1" stop-color="#5C5C5C"/>
</linearGradient>
<linearGradient id="paint38_linear_5_2081" x1="449.383" y1="190.473" x2="935.2" y2="818.34" gradientUnits="userSpaceOnUse">
<stop offset="0.1" stop-color="#212121"/>
<stop offset="1" stop-color="#5C5C5C"/>
</linearGradient>
<linearGradient id="paint39_linear_5_2081" x1="982.112" y1="528.607" x2="973.132" y2="508.548" gradientUnits="userSpaceOnUse">
<stop offset="0.04" stop-color="#00812F"/>
<stop offset="0.41" stop-color="#00861F"/>
<stop offset="0.98" stop-color="#009100"/>
</linearGradient>
<linearGradient id="paint40_linear_5_2081" x1="946.33" y1="558.577" x2="933.482" y2="526.391" gradientUnits="userSpaceOnUse">
<stop offset="0.04" stop-color="#00812F"/>
<stop offset="0.41" stop-color="#00861F"/>
<stop offset="0.98" stop-color="#009100"/>
</linearGradient>
<linearGradient id="paint41_linear_5_2081" x1="444.992" y1="279.161" x2="753.508" y2="279.161" gradientUnits="userSpaceOnUse">
<stop offset="0.04" stop-color="#AD3511"/>
<stop offset="0.34" stop-color="#B32B13"/>
<stop offset="0.92" stop-color="#FF2222"/>
<stop offset="1" stop-color="#FF2222"/>
</linearGradient>
<linearGradient id="paint42_linear_5_2081" x1="382.162" y1="314.919" x2="690.678" y2="314.919" gradientUnits="userSpaceOnUse">
<stop offset="0.04" stop-color="#AD3511"/>
<stop offset="0.34" stop-color="#B32B13"/>
<stop offset="0.92" stop-color="#FF2222"/>
<stop offset="1" stop-color="#FF2222"/>
</linearGradient>
<linearGradient id="paint43_linear_5_2081" x1="476.443" y1="261.291" x2="784.959" y2="261.291" gradientUnits="userSpaceOnUse">
<stop offset="0.04" stop-color="#AD3511"/>
<stop offset="0.34" stop-color="#B32B13"/>
<stop offset="0.92" stop-color="#FF2222"/>
<stop offset="1" stop-color="#FF2222"/>
</linearGradient>
<linearGradient id="paint44_linear_5_2081" x1="413.578" y1="297.03" x2="722.094" y2="297.03" gradientUnits="userSpaceOnUse">
<stop offset="0.04" stop-color="#AD3511"/>
<stop offset="0.34" stop-color="#B32B13"/>
<stop offset="0.92" stop-color="#FF2222"/>
<stop offset="1" stop-color="#FF2222"/>
</linearGradient>
<linearGradient id="paint45_linear_5_2081" x1="646.844" y1="361.111" x2="744.765" y2="361.111" gradientUnits="userSpaceOnUse">
<stop offset="0.04" stop-color="#AD3511"/>
<stop offset="0.34" stop-color="#B32B13"/>
<stop offset="0.92" stop-color="#FF2222"/>
<stop offset="1" stop-color="#FF2222"/>
</linearGradient>
<linearGradient id="paint46_linear_5_2081" x1="605.866" y1="326.264" x2="744.314" y2="326.264" gradientUnits="userSpaceOnUse">
<stop offset="0.04" stop-color="#AD3511"/>
<stop offset="0.34" stop-color="#B32B13"/>
<stop offset="0.92" stop-color="#FF2222"/>
<stop offset="1" stop-color="#FF2222"/>
</linearGradient>
<linearGradient id="paint47_linear_5_2081" x1="564.824" y1="310.124" x2="677.913" y2="310.124" gradientUnits="userSpaceOnUse">
<stop offset="0.04" stop-color="#AD3511"/>
<stop offset="0.34" stop-color="#B32B13"/>
<stop offset="0.92" stop-color="#FF2222"/>
<stop offset="1" stop-color="#FF2222"/>
</linearGradient>
<linearGradient id="paint48_linear_5_2081" x1="523.754" y1="291.12" x2="621.637" y2="291.12" gradientUnits="userSpaceOnUse">
<stop offset="0.04" stop-color="#AD3511"/>
<stop offset="0.34" stop-color="#B32B13"/>
<stop offset="0.92" stop-color="#FF2222"/>
<stop offset="1" stop-color="#FF2222"/>
</linearGradient>
<linearGradient id="paint49_linear_5_2081" x1="482.677" y1="273.566" x2="560.334" y2="273.566" gradientUnits="userSpaceOnUse">
<stop offset="0.04" stop-color="#AD3511"/>
<stop offset="0.34" stop-color="#B32B13"/>
<stop offset="0.92" stop-color="#FF2222"/>
<stop offset="1" stop-color="#FF2222"/>
</linearGradient>
<linearGradient id="paint50_linear_5_2081" x1="441.689" y1="241.174" x2="551.081" y2="241.174" gradientUnits="userSpaceOnUse">
<stop offset="0.04" stop-color="#AD3511"/>
<stop offset="0.34" stop-color="#B32B13"/>
<stop offset="0.92" stop-color="#FF2222"/>
<stop offset="1" stop-color="#FF2222"/>
</linearGradient>
<linearGradient id="paint51_linear_5_2081" x1="400.617" y1="222.654" x2="493.141" y2="222.654" gradientUnits="userSpaceOnUse">
<stop offset="0.04" stop-color="#AD3511"/>
<stop offset="0.34" stop-color="#B32B13"/>
<stop offset="0.92" stop-color="#FF2222"/>
<stop offset="1" stop-color="#FF2222"/>
</linearGradient>
<linearGradient id="paint52_linear_5_2081" x1="646.812" y1="366.691" x2="725.149" y2="366.691" gradientUnits="userSpaceOnUse">
<stop offset="0.04" stop-color="#AD3511"/>
<stop offset="0.34" stop-color="#B32B13"/>
<stop offset="0.92" stop-color="#FF2222"/>
<stop offset="1" stop-color="#FF2222"/>
</linearGradient>
<linearGradient id="paint53_linear_5_2081" x1="605.818" y1="334.725" x2="714.531" y2="334.725" gradientUnits="userSpaceOnUse">
<stop offset="0.04" stop-color="#AD3511"/>
<stop offset="0.34" stop-color="#B32B13"/>
<stop offset="0.92" stop-color="#FF2222"/>
<stop offset="1" stop-color="#FF2222"/>
</linearGradient>
<linearGradient id="paint54_linear_5_2081" x1="564.8" y1="314.253" x2="663.362" y2="314.253" gradientUnits="userSpaceOnUse">
<stop offset="0.04" stop-color="#AD3511"/>
<stop offset="0.34" stop-color="#B32B13"/>
<stop offset="0.92" stop-color="#FF2222"/>
<stop offset="1" stop-color="#FF2222"/>
</linearGradient>
<linearGradient id="paint55_linear_5_2081" x1="523.723" y1="296.699" x2="602.021" y2="296.699" gradientUnits="userSpaceOnUse">
<stop offset="0.04" stop-color="#AD3511"/>
<stop offset="0.34" stop-color="#B32B13"/>
<stop offset="0.92" stop-color="#FF2222"/>
<stop offset="1" stop-color="#FF2222"/>
</linearGradient>
<linearGradient id="paint56_linear_5_2081" x1="482.645" y1="279.127" x2="540.68" y2="279.127" gradientUnits="userSpaceOnUse">
<stop offset="0.04" stop-color="#AD3511"/>
<stop offset="0.34" stop-color="#B32B13"/>
<stop offset="0.92" stop-color="#FF2222"/>
<stop offset="1" stop-color="#FF2222"/>
</linearGradient>
<linearGradient id="paint57_linear_5_2081" x1="441.657" y1="246.753" x2="531.465" y2="246.753" gradientUnits="userSpaceOnUse">
<stop offset="0.04" stop-color="#AD3511"/>
<stop offset="0.34" stop-color="#B32B13"/>
<stop offset="0.92" stop-color="#FF2222"/>
<stop offset="1" stop-color="#FF2222"/>
</linearGradient>
<linearGradient id="paint58_linear_5_2081" x1="400.569" y1="231.115" x2="463.358" y2="231.115" gradientUnits="userSpaceOnUse">
<stop offset="0.04" stop-color="#AD3511"/>
<stop offset="0.34" stop-color="#B32B13"/>
<stop offset="0.92" stop-color="#FF2222"/>
<stop offset="1" stop-color="#FF2222"/>
</linearGradient>
<linearGradient id="paint59_linear_5_2081" x1="312.648" y1="200.247" x2="383.702" y2="200.247" gradientUnits="userSpaceOnUse">
<stop offset="0.04" stop-color="#AD3511"/>
<stop offset="0.34" stop-color="#B32B13"/>
<stop offset="0.92" stop-color="#FF2222"/>
<stop offset="1" stop-color="#FF2222"/>
</linearGradient>
</defs>
</svg>
