<svg width="283" height="161" viewBox="0 0 283 161" fill="none" xmlns="http://www.w3.org/2000/svg">
<g clip-path="url(#clip0_51_1185)">
<rect width="283" height="161" fill="url(#paint0_linear_51_1185)"/>
<g clip-path="url(#clip1_51_1185)">
<g style="mix-blend-mode:multiply" opacity="0.9">
<path fill-rule="evenodd" clip-rule="evenodd" d="M136.489 193.001L144.342 -24.4115L15.8799 -27.2302L23.6962 194.337L136.489 193.001Z" fill="#666777"/>
</g>
<path fill-rule="evenodd" clip-rule="evenodd" d="M23.6961 194.337L17.0176 -28.998L141.671 -26.2411L134.535 192.903L23.6961 194.337Z" fill="#242424"/>
<g style="mix-blend-mode:multiply" opacity="0.9">
<path fill-rule="evenodd" clip-rule="evenodd" d="M27.0233 -17.0432L25.3042 -19.1078L30.7212 194.485L31.3643 194.337L27.0233 -17.0432Z" fill="#180C13"/>
</g>
<path fill-rule="evenodd" clip-rule="evenodd" d="M132.816 -16.0664L128.586 192.112L31.364 194.337L27.0229 -17.0431L132.816 -16.0664Z" fill="#767676"/>
<g opacity="0.5">
<path d="M73.1545 104.471H38.3273V104.249L32.7124 -11.7891H76.3083V-11.5418L73.1545 104.471ZM38.7849 103.989H72.6969L75.8259 -11.3193H33.2071L38.7849 103.989Z" fill="black"/>
<path d="M122.464 104.471H82.0344V104.236L81.3418 -11.7892H127.98V-11.5419L122.476 104.471H122.464ZM82.5044 103.989H122.019L127.473 -11.3194H81.8118L82.5044 103.989Z" fill="black"/>
<path d="M38.0181 128.838V107.957H38.2531L122.204 106.906V107.154L121.128 126.6H120.906L38.0181 128.838ZM38.488 108.427V128.344L120.671 126.131L121.685 107.376L38.4757 108.427H38.488Z" fill="black"/>
<path d="M39.4651 191.357V191.122L38.0181 132.72H73.1668V190.702L39.4774 191.369L39.4651 191.357ZM38.5004 133.19L39.9227 190.875L72.6845 190.232V133.19H38.5004Z" fill="black"/>
<path d="M79.8579 191.394V191.147L81.342 132.683H81.5646L121.153 131.138V131.385L119.508 190.726L79.8579 191.394ZM81.7996 133.128L80.3402 190.9L119.039 190.257L120.659 131.62L81.7996 133.128Z" fill="black"/>
</g>
<g style="mix-blend-mode:multiply" opacity="0.9">
<path fill-rule="evenodd" clip-rule="evenodd" d="M132.816 -16.0664L131.443 -15.6955L127.733 192.989L128.735 193.051L132.816 -16.0664Z" fill="#180C13"/>
</g>
<path fill-rule="evenodd" clip-rule="evenodd" d="M38.2529 108.192L40.578 109.639H119.694L121.945 107.142L38.2529 108.192Z" fill="#242424"/>
<path fill-rule="evenodd" clip-rule="evenodd" d="M38.2529 132.955L40.578 134.34H69.6543L72.9194 132.955H38.2529Z" fill="#242424"/>
<path fill-rule="evenodd" clip-rule="evenodd" d="M81.5767 132.906L84.4459 134.34H119.149L120.906 131.385L81.5767 132.906Z" fill="#242424"/>
<path fill-rule="evenodd" clip-rule="evenodd" d="M32.3784 112.198L31.1787 89.3144L40.2689 89.0795L40.0216 112.198H32.3784Z" fill="#C9C9C9"/>
<path fill-rule="evenodd" clip-rule="evenodd" d="M35.0869 93.4189L35.7177 97.202L59.0677 95.3105V92.4794L35.0869 93.4189Z" fill="#E2DDE7"/>
<path fill-rule="evenodd" clip-rule="evenodd" d="M35.0867 93.4189L34.0107 96.1388L34.5549 98.9699H37.2387L40.1822 96.8435L35.7175 97.202L35.0867 93.4189Z" fill="#4A4448"/>
<path fill-rule="evenodd" clip-rule="evenodd" d="M59.0678 95.3104L58.4866 95.7431L35.7178 97.2019L59.0678 95.3104Z" fill="#4A4448"/>
<g style="mix-blend-mode:multiply" opacity="0.9">
<path fill-rule="evenodd" clip-rule="evenodd" d="M34.5552 98.9698L37.1029 106.375H54.9123V103.853L40.269 102.679L37.2389 98.9698H34.5552Z" fill="#847171"/>
</g>
<path fill-rule="evenodd" clip-rule="evenodd" d="M69.481 107.797L70.0622 109.639H84.5076V107.611L69.481 107.797Z" fill="#4F4F4F"/>
<path fill-rule="evenodd" clip-rule="evenodd" d="M86.6597 109.639L87.3152 107.611L90.3823 107.537L89.5413 109.639H86.6597Z" fill="#4F4F4F"/>
<path fill-rule="evenodd" clip-rule="evenodd" d="M90.8028 134.34L90.3823 132.56L95.8983 132.349V134.34H90.8028Z" fill="#4F4F4F"/>
<path fill-rule="evenodd" clip-rule="evenodd" d="M51.7832 132.869V134.34H54.5164L55.5924 132.955L51.7832 132.869Z" fill="#4F4F4F"/>
</g>
<g clip-path="url(#clip2_51_1185)">
<path d="M163.282 101.204V104.52C172.703 111.752 181.559 112.32 185.486 109.699C183.123 103.818 180.723 100.33 178.837 98.2845C172.66 106.979 163.282 101.204 163.282 101.204Z" fill="#EDBFA2"/>
<path d="M197.67 93.1534L186.639 75.894C185.916 85.6294 182.63 92.9465 178.837 98.2845C180.723 100.328 183.123 103.818 185.486 109.699C195.287 103.16 197.67 93.1521 197.67 93.1521V93.1534Z" fill="#D41E17"/>
<path d="M200.444 130.37C200.709 131.663 210.079 186.347 210.647 214.644C210.656 215.119 211.005 215.516 211.475 215.582C212.665 215.749 214.98 215.962 217.227 215.544C217.534 215.487 217.766 215.233 217.785 214.921C218.112 209.648 220.745 165.064 217.521 144.076C217.521 144.076 244.158 200.179 248.196 215.65C248.295 216.025 248.64 216.279 249.028 216.259C250.168 216.199 252.542 215.994 254.425 215.299C255.1 215.05 255.486 214.341 255.315 213.641C253.059 204.383 237.249 140.598 226.515 126.544L200.446 130.37H200.444Z" fill="#3F302A"/>
<path d="M217.521 144.425C217.609 144.425 217.697 144.392 217.766 144.325C217.904 144.19 217.907 143.968 217.771 143.83L214.204 140.179C214.07 140.04 213.848 140.038 213.709 140.174C213.571 140.308 213.569 140.53 213.704 140.669L217.271 144.318C217.34 144.388 217.43 144.424 217.521 144.424V144.425Z" fill="#2D1F1A"/>
<path d="M185.219 61.9047C192.061 60.111 204.683 57.3017 214.729 57.9009C217.037 58.0393 218.886 59.8647 219.017 62.1738C220.534 88.9528 222.609 112.715 226.514 126.541C217.734 130.018 209.031 131.63 200.445 130.367C194.012 116.578 188.387 100.661 183.582 82.5827C183.582 82.5827 180.764 68.1644 183.501 63.3582C183.927 62.6093 184.489 62.0939 185.217 61.9022L185.219 61.9047Z" fill="#C11C16"/>
<path d="M198.653 44.3521C198.653 44.3521 202.222 53.2788 203.919 58.2322C204.171 58.9697 203.598 59.7403 202.905 60.097C201.017 61.0694 196.985 62.6371 192.593 61.1988C191.869 60.9615 191.395 60.262 191.412 59.5003L191.712 45.7294L198.653 44.3521Z" fill="#EDBFA2"/>
<path d="M188.074 34.0189C188.074 34.0189 185.141 41.845 185.126 45.873C185.111 49.9009 184.38 52.5528 189.063 53.1215C193.747 53.6902 197.537 51.1729 199.447 47.0612C199.447 47.0612 202.447 40.7241 201.572 38.2373C200.697 35.7504 188.074 34.0189 188.074 34.0189Z" fill="#EDBFA2"/>
<path d="M197.714 44.267L197.128 44.2975C197.128 44.2975 199.288 39.2096 197.119 38.4479C194.949 37.6863 186.445 36.4054 184.475 33.5123C182.577 30.7233 183.944 26.9214 186.226 25.7586C186.371 25.6849 186.548 25.7459 186.631 25.8842L186.844 26.2409C186.99 26.4847 187.358 26.4275 187.422 26.1508C187.483 25.888 187.829 25.8144 187.983 26.0353C188.584 26.8998 190.165 28.2746 194.239 28.8103C200.021 29.5707 203.927 31.6945 204.225 35.6501C204.244 35.9001 204.519 36.0245 204.726 35.8836C205.136 35.6044 205.805 35.4482 206.749 36.1616C208.391 37.4032 207.925 40.8687 204.623 43.871C204.466 44.0132 204.481 44.2696 204.664 44.3762C205.309 44.7507 206.291 45.6711 203.944 47.0878C201.543 48.5362 200.076 48.4689 199.516 48.3559C199.365 48.3255 199.259 48.196 199.26 48.0424L199.295 44.5209C199.297 44.3394 199.146 44.1934 198.963 44.2023L197.712 44.267H197.714Z" fill="black"/>
<path d="M197.606 45.0085C197.606 45.0085 198.624 40.0539 200.884 41.3107C203.146 42.5674 200.032 46.8467 198.28 47.1222L197.606 45.0085Z" fill="#EDBFA2"/>
<path d="M236.722 97.5699C240.105 107.07 236.655 120.347 236.655 120.347L241.115 121.538C241.115 121.538 248.421 111.587 247.103 96.369C242.987 95.7406 239.131 96.7054 236.722 97.5699Z" fill="#EDBFA2"/>
<path d="M247.104 96.3689C246.956 94.6577 246.722 92.8462 246.377 90.9218C243.363 74.1372 221.861 61.2256 216.802 58.3986C216.331 58.1358 215.759 58.49 215.776 59.0295L216.495 81.8465C228.471 83.4574 234.139 90.315 236.723 97.5711C239.131 96.7066 242.988 95.7406 247.104 96.3702V96.3689Z" fill="#D41E17"/>
<path d="M145.109 87.1324L261.721 131.597C266.679 133.489 269.088 139.454 266.95 144.546L266.598 145.382C264.706 149.887 259.712 151.879 255.47 149.821L140.567 94.0585L145.109 87.1324Z" fill="#075515"/>
<path opacity="0.23" d="M154.247 62.7093C155.181 33.6303 131.949 9.28588 102.358 8.33456C72.7671 7.38324 48.0221 30.1852 47.0886 59.2643C46.1552 88.3433 69.3867 112.688 98.9778 113.639C128.569 114.59 153.314 91.7883 154.247 62.7093Z" fill="white"/>
<path d="M41.0493 59.07C40.0104 91.4269 65.8612 118.516 98.7878 119.574C131.714 120.633 159.248 95.2606 160.287 62.9038C161.326 30.5469 135.475 3.45823 102.549 2.39952C69.6223 1.3408 42.0882 26.7145 41.0493 59.07ZM49.807 59.3519C50.6925 31.7478 74.1826 10.1025 102.272 11.0051C130.362 11.9077 152.415 35.0179 151.53 62.6207C150.644 90.2247 127.154 111.87 99.0643 110.967C70.9746 110.065 48.9204 86.9559 49.807 59.3519Z" fill="url(#paint1_linear_51_1185)"/>
<path d="M155.503 69.8146C155.392 69.7968 155.316 69.6928 155.334 69.5823C155.553 68.2164 155.721 66.8238 155.834 65.4401C155.843 65.3284 155.943 65.2472 156.052 65.2548C156.164 65.2637 156.247 65.3614 156.237 65.4731C156.123 66.867 155.954 68.271 155.734 69.6471C155.717 69.7473 155.631 69.8184 155.533 69.8184C155.523 69.8184 155.512 69.8184 155.501 69.8159L155.503 69.8146ZM155.451 53.2484C154.903 49.5022 153.95 45.8031 152.619 42.2537C148.852 32.2035 142.201 23.5231 133.385 17.153C124.358 10.6306 113.648 6.9911 102.412 6.63058C91.8493 6.2891 81.478 8.89781 72.4323 14.1711C72.3359 14.2269 72.2115 14.1952 72.1545 14.0975C72.0974 14.001 72.1304 13.8766 72.228 13.8194C81.3397 8.50809 91.782 5.88288 102.425 6.22436C113.742 6.58742 124.53 10.2536 133.622 16.8229C142.502 23.24 149.202 31.9839 152.999 42.109C154.34 45.6863 155.299 49.4134 155.852 53.1887C155.868 53.2992 155.791 53.4032 155.68 53.4185C155.67 53.4198 155.66 53.421 155.651 53.421C155.552 53.421 155.466 53.3487 155.451 53.2471V53.2484Z" fill="#89D579"/>
<path d="M259.527 147.913C259.556 147.913 259.587 147.907 259.616 147.896C263.248 146.545 265.139 144.326 265.241 141.298C265.342 138.253 263.517 135.432 260.698 134.281L246.499 128.477C246.344 128.413 246.169 128.495 246.108 128.661C246.048 128.826 246.127 129.011 246.283 129.076L260.483 134.88C263.059 135.932 264.728 138.502 264.636 141.273C264.544 144.011 262.787 146.036 259.414 147.29C259.257 147.348 259.175 147.531 259.23 147.699C259.276 147.835 259.399 147.918 259.527 147.913Z" fill="#89D579"/>
<path d="M157.655 103.425C156.878 103.039 156.323 102.326 156.127 101.481C155.745 99.8428 155.454 97.2821 157.213 96.8593C159.833 96.2294 163.345 101.568 163.345 101.568L164.815 105.452L166.588 106.782C164.699 106.929 161.402 105.438 157.654 103.425L157.655 103.425Z" fill="#EDBFA2"/>
<path d="M236.953 118.823L230.961 119.73C230.961 119.73 235.912 121.508 236.06 124.331C236.209 127.154 234.284 133.002 233.384 134.594C232.399 136.336 245.871 132.002 241.114 118.821H236.951L236.953 118.823Z" fill="#EDBFA2"/>
</g>
</g>
<defs>
<linearGradient id="paint0_linear_51_1185" x1="6.69426" y1="198.701" x2="402.034" y2="110.258" gradientUnits="userSpaceOnUse">
<stop stop-color="#086444"/>
<stop offset="1" stop-color="#61CC70"/>
</linearGradient>
<linearGradient id="paint1_linear_51_1185" x1="164.308" y1="60.9932" x2="-86.9803" y2="63.0393" gradientUnits="userSpaceOnUse">
<stop stop-color="#075515"/>
<stop offset="1" stop-color="#0FBB2E"/>
</linearGradient>
<clipPath id="clip0_51_1185">
<rect width="283" height="161" fill="white"/>
</clipPath>
<clipPath id="clip1_51_1185">
<rect width="128.462" height="223.483" fill="white" transform="translate(15.8799 -28.9983)"/>
</clipPath>
<clipPath id="clip2_51_1185">
<rect width="226.712" height="228.557" fill="white" transform="translate(41.019 2.36792)"/>
</clipPath>
</defs>
</svg>
