<svg width="283" height="160" viewBox="0 0 283 160" fill="none" xmlns="http://www.w3.org/2000/svg">
<g clip-path="url(#clip0_51_1302)">
<rect width="283" height="160" fill="url(#paint0_linear_51_1302)"/>
<g clip-path="url(#clip1_51_1302)">
<g style="mix-blend-mode:multiply" opacity="0.9">
<path fill-rule="evenodd" clip-rule="evenodd" d="M222.04 166.801L228.847 -21.6235L117.513 -24.0664L124.287 167.958L222.04 166.801Z" fill="#666777"/>
</g>
<path fill-rule="evenodd" clip-rule="evenodd" d="M124.287 167.958L118.499 -25.5986L226.532 -23.2093L220.347 166.715L124.287 167.958Z" fill="#242424"/>
<g style="mix-blend-mode:multiply" opacity="0.9">
<path fill-rule="evenodd" clip-rule="evenodd" d="M127.17 -15.2378L125.68 -17.0271L130.375 168.087L130.932 167.958L127.17 -15.2378Z" fill="#180C13"/>
</g>
<path fill-rule="evenodd" clip-rule="evenodd" d="M218.857 -14.3914L215.191 166.03L130.932 167.958L127.17 -15.2378L218.857 -14.3914Z" fill="#767676"/>
<g opacity="0.5">
<path d="M167.151 90.0746H136.967V89.8818L132.101 -10.6842H169.884V-10.4699L167.151 90.0746ZM137.364 89.6568H166.754L169.466 -10.2771H132.53L137.364 89.6568Z" fill="black"/>
<path d="M209.885 90.0745H174.846V89.8709L174.246 -10.6843H214.666V-10.47L209.896 90.0745H209.885ZM175.254 89.6566H209.5L214.226 -10.2772H174.653L175.254 89.6566Z" fill="black"/>
<path d="M136.699 111.193V93.096H136.903L209.661 92.1853V92.3996L208.728 109.253H208.535L136.699 111.193ZM137.107 93.5032V110.764L208.332 108.846L209.211 92.5924L137.096 93.5032H137.107Z" fill="black"/>
<path d="M137.953 165.376V165.172L136.699 114.557H167.161V164.808L137.964 165.387L137.953 165.376ZM137.117 114.964L138.35 164.958L166.743 164.401V114.964H137.117Z" fill="black"/>
<path d="M172.96 165.408V165.194L174.246 114.525H174.439L208.749 113.186V113.4L207.324 164.829L172.96 165.408ZM174.643 114.911L173.378 164.979L206.916 164.422L208.321 113.604L174.643 114.911Z" fill="black"/>
</g>
<g style="mix-blend-mode:multiply" opacity="0.9">
<path fill-rule="evenodd" clip-rule="evenodd" d="M218.857 -14.3912L217.667 -14.0698L214.452 166.79L215.32 166.844L218.857 -14.3912Z" fill="#180C13"/>
</g>
<path fill-rule="evenodd" clip-rule="evenodd" d="M136.903 93.2998L138.918 94.5534H207.485L209.436 92.389L136.903 93.2998Z" fill="#242424"/>
<path fill-rule="evenodd" clip-rule="evenodd" d="M136.903 114.761L138.918 115.961H164.117L166.947 114.761H136.903Z" fill="#242424"/>
<path fill-rule="evenodd" clip-rule="evenodd" d="M174.45 114.718L176.937 115.961H207.013L208.535 113.4L174.45 114.718Z" fill="#242424"/>
<path fill-rule="evenodd" clip-rule="evenodd" d="M131.812 96.7713L130.772 76.9388L138.65 76.7352L138.436 96.7713H131.812Z" fill="#C9C9C9"/>
<path fill-rule="evenodd" clip-rule="evenodd" d="M134.159 80.4959L134.705 83.7746L154.942 82.1353V79.6816L134.159 80.4959Z" fill="#E2DDE7"/>
<path fill-rule="evenodd" clip-rule="evenodd" d="M134.159 80.4958L133.226 82.853L133.698 85.3067H136.024L138.575 83.4638L134.705 83.7745L134.159 80.4958Z" fill="#4A4448"/>
<path fill-rule="evenodd" clip-rule="evenodd" d="M154.942 82.1351L154.438 82.5101L134.705 83.7744L154.942 82.1351Z" fill="#4A4448"/>
<g style="mix-blend-mode:multiply" opacity="0.9">
<path fill-rule="evenodd" clip-rule="evenodd" d="M133.698 85.3066L135.906 91.7246H151.341V89.5389L138.65 88.521L136.024 85.3066H133.698Z" fill="#847171"/>
</g>
<path fill-rule="evenodd" clip-rule="evenodd" d="M163.967 92.957L164.471 94.5534H176.99V92.7963L163.967 92.957Z" fill="#4F4F4F"/>
<path fill-rule="evenodd" clip-rule="evenodd" d="M178.855 94.5533L179.423 92.7961L182.081 92.7318L181.352 94.5533H178.855Z" fill="#4F4F4F"/>
<path fill-rule="evenodd" clip-rule="evenodd" d="M182.446 115.961L182.082 114.418L186.862 114.236V115.961H182.446Z" fill="#4F4F4F"/>
<path fill-rule="evenodd" clip-rule="evenodd" d="M148.629 114.686V115.961H150.998L151.93 114.761L148.629 114.686Z" fill="#4F4F4F"/>
</g>
<g clip-path="url(#clip2_51_1302)">
<path d="M126.222 98.2664L121.29 103.134C114.288 102.461 108.891 100.28 104.746 97.5157C107.24 91.3084 109.773 87.6274 111.763 85.4698C118.282 94.6446 126.222 98.2681 126.222 98.2681V98.2664Z" fill="url(#paint1_linear_51_1302)"/>
<path d="M91.8877 80.0524L103.53 61.8383C104.293 72.112 107.762 79.836 111.765 85.4683C109.775 87.6259 107.242 91.3069 104.748 97.5141C94.4053 90.6137 91.8894 80.0507 91.8894 80.0507L91.8877 80.0524Z" fill="#AA2B14"/>
<path d="M88.9596 119.33C88.6791 120.694 78.7928 178.406 78.1929 208.27C78.1828 208.771 77.8144 209.19 77.3193 209.259C76.0639 209.435 73.6189 209.66 71.25 209.22C70.9256 209.159 70.6805 208.892 70.6603 208.563C70.3139 202.998 67.536 155.944 70.9391 133.795C70.9391 133.795 42.826 193.005 38.5646 209.332C38.4615 209.729 38.0965 209.996 37.6859 209.975C36.4812 209.91 33.9787 209.694 31.99 208.962C31.2769 208.7 30.8714 207.949 31.0505 207.212C33.4313 197.442 50.117 130.124 61.4464 115.292L88.9596 119.33Z" fill="#3F302A"/>
<path d="M70.9368 134.164C70.8439 134.164 70.7509 134.128 70.6783 134.059C70.533 133.917 70.5296 133.682 70.6732 133.537L74.4379 129.685C74.5798 129.539 74.8147 129.536 74.96 129.68C75.1053 129.822 75.1087 130.057 74.965 130.202L71.2004 134.054C71.1277 134.128 71.0331 134.166 70.9368 134.166V134.164Z" fill="#281E19"/>
<path d="M105.029 47.0751C97.807 45.1813 84.4872 42.2172 73.8826 42.8496C71.4478 42.995 69.4962 44.9226 69.3577 47.3591C67.7558 75.6205 65.5677 100.7 61.4448 115.29C70.7111 118.959 79.8963 120.662 88.9581 119.328C95.7473 104.776 101.683 87.9775 106.754 68.8993C106.754 68.8993 109.729 53.683 106.84 48.6104C106.389 47.8191 105.798 47.2763 105.029 47.0734V47.0751Z" fill="#C92D12"/>
<path d="M87.6584 27.2783C87.6584 27.2783 85.8352 38.1642 85.2912 43.1996C85.2033 44.018 85.6308 44.7908 86.3624 45.1678C88.3546 46.1942 92.6092 47.8479 97.2457 46.3312C98.0095 46.0809 98.5096 45.342 98.4927 44.5388L98.1751 30.0057L87.6601 27.28L87.6584 27.2783Z" fill="url(#paint2_linear_51_1302)"/>
<path d="M99.5518 15.2157C99.5518 15.2157 103.07 23.3032 103.306 27.549C103.543 31.7948 104.457 34.5492 99.5518 35.4031C94.6466 36.2587 90.5153 33.812 88.2765 29.5848C88.2765 29.5848 84.7687 23.0698 85.5561 20.3999C86.3435 17.7317 99.5518 15.2157 99.5518 15.2157Z" fill="url(#paint3_linear_51_1302)"/>
<path d="M89.9531 26.5444H90.5732C90.5732 26.5444 88.0184 21.301 90.264 20.3795C92.5096 19.458 101.401 17.6436 103.32 14.4868C105.17 11.4432 103.52 7.51021 101.053 6.41114C100.897 6.34181 100.713 6.41452 100.632 6.5667L100.427 6.95391C100.287 7.21938 99.8969 7.1788 99.8124 6.89135C99.733 6.61742 99.3647 6.55824 99.216 6.80004C98.6279 7.74355 97.0379 9.27887 92.7732 10.0668C86.7207 11.1845 82.7195 13.6363 82.6215 17.8212C82.6147 18.0867 82.3326 18.2321 82.1061 18.0951C81.6601 17.8229 80.9436 17.6944 79.989 18.4992C78.328 19.8976 79.0072 23.5245 82.6502 26.5089C82.8226 26.651 82.8226 26.9215 82.635 27.0433C81.9743 27.4727 80.9909 28.4974 83.5407 29.8619C86.1496 31.2586 87.6939 31.1064 88.2769 30.9559C88.434 30.9154 88.5388 30.7733 88.5287 30.611L88.2989 26.9012C88.287 26.7101 88.4391 26.5478 88.6317 26.5478H89.9531V26.5444Z" fill="black"/>
<path d="M90.1052 27.3207C90.1052 27.3207 88.7635 22.155 86.4487 23.6024C84.1338 25.0515 87.65 29.3903 89.5104 29.5848L90.1052 27.3207Z" fill="url(#paint4_linear_51_1302)"/>
<path d="M14.998 111.376L10.2466 112.578C2.09218 114.641 -3.39087 120.772 -2.00025 126.274L-0.347734 132.815C1.04119 138.317 8.77829 141.105 16.9327 139.042L21.6842 137.84C21.9984 137.761 22.311 137.674 22.6219 137.581L161.954 95.8623L158.355 81.6133L15.946 111.158C15.6283 111.224 15.3123 111.297 14.998 111.376ZM17.0443 117.905C23.1829 116.352 28.9076 118.052 29.8285 121.702C30.751 125.353 26.5217 129.57 20.3831 131.124C14.2444 132.676 8.51977 130.977 7.59889 127.326C6.67632 123.676 10.9056 119.459 17.0443 117.905Z" fill="#2FA817"/>
<path d="M204.681 62.2509L177.11 69.2258C175.147 69.7229 173.527 71.1027 172.721 72.9627L168.596 82.4941C167.418 85.2148 168.219 88.3869 170.548 90.2215L178.704 96.6468C180.296 97.8998 182.377 98.3428 184.341 97.8473L211.911 90.8741C216.07 89.8224 219.603 94.1663 217.639 97.9826C212.942 107.113 204.323 114.333 193.353 117.11C173.525 122.125 155.977 110.103 151.157 91.0179C146.336 71.9329 156.067 53.0103 175.896 47.9951C186.865 45.2204 197.878 47.476 206.347 53.2757C209.887 55.7005 208.841 61.2026 204.681 62.2543V62.2509Z" fill="#2FA817"/>
<path d="M205.337 64.8515L177.766 71.8246C175.803 72.3218 174.181 73.7015 173.376 75.5615L169.252 85.093C168.074 87.8136 168.875 90.9857 171.203 92.8203L179.359 99.2456C180.951 100.499 183.033 100.942 184.996 100.446L212.567 93.4713C216.725 92.4196 220.258 96.7634 218.295 100.58C213.598 109.711 204.979 116.931 194.009 119.705C174.181 124.72 156.633 112.698 151.812 93.6133C146.992 74.5284 156.724 55.6057 176.551 50.5906C187.521 47.8158 198.534 50.0715 207.003 55.8712C210.543 58.2959 209.497 63.798 205.337 64.8498V64.8515Z" fill="#075515"/>
<path d="M15.522 113.451L10.7706 114.653C2.61611 116.716 -2.86694 122.847 -1.47633 128.349L0.176192 134.89C1.56512 140.392 9.30222 143.18 17.4567 141.117L22.2081 139.915C22.5224 139.835 22.835 139.749 23.1459 139.656L162.478 97.937L158.879 83.688L16.4716 113.233C16.1539 113.299 15.8379 113.371 15.5237 113.451H15.522ZM17.5682 119.979C23.7068 118.427 29.4315 120.126 30.3524 123.777C31.275 127.428 27.0457 131.645 20.907 133.199C14.7684 134.751 9.0437 133.052 8.12281 129.401C7.20024 125.75 11.4295 121.533 17.5682 119.979Z" fill="#075515"/>
<path d="M50.6712 84.7143C47.1009 94.7412 49.1116 105.49 49.1116 105.49L44.4041 106.746C44.4041 106.746 38.3229 99.5078 39.7135 83.4461C44.0577 82.7833 48.1282 83.8012 50.6712 84.7143Z" fill="url(#paint5_linear_51_1302)"/>
<path d="M39.7131 83.446C39.8686 81.6401 40.1153 79.7277 40.4802 77.697C43.6602 59.9833 66.3545 46.3565 71.6939 43.3721C72.1907 43.0948 72.7939 43.4685 72.777 44.0383L72.0183 68.1182C59.3794 69.8175 53.3979 77.0545 50.6691 84.7141C48.1261 83.8011 44.0573 82.7832 39.7114 83.446H39.7131Z" fill="#AA2B15"/>
<path d="M136.151 107.101C137.033 106.858 137.749 106.229 138.123 105.394C138.846 103.774 139.659 101.177 137.922 100.387C135.333 99.21 130.626 104.037 130.626 104.037L128.326 107.768L126.222 108.791C128.15 109.321 131.864 108.437 136.151 107.101Z" fill="url(#paint6_linear_51_1302)"/>
<path d="M48.7972 103.135H54.6165C54.6165 103.135 49.8955 105.968 49.7383 108.948C49.5812 111.927 51.6122 118.1 52.5635 119.78C53.6026 121.618 39.3856 117.044 44.404 103.135H48.7972Z" fill="url(#paint7_linear_51_1302)"/>
</g>
</g>
<defs>
<linearGradient id="paint0_linear_51_1302" x1="6.69426" y1="197.467" x2="401.798" y2="108.524" gradientUnits="userSpaceOnUse">
<stop stop-color="#086444"/>
<stop offset="1" stop-color="#61CC70"/>
</linearGradient>
<linearGradient id="paint1_linear_51_1302" x1="119.69" y1="86.7363" x2="94.5534" y2="153.301" gradientUnits="userSpaceOnUse">
<stop stop-color="#FEBBBA"/>
<stop offset="1" stop-color="#FF928E"/>
</linearGradient>
<linearGradient id="paint2_linear_51_1302" x1="80.8" y1="50.3182" x2="108.697" y2="18.4595" gradientUnits="userSpaceOnUse">
<stop stop-color="#FEBBBA"/>
<stop offset="1" stop-color="#FF928E"/>
</linearGradient>
<linearGradient id="paint3_linear_51_1302" x1="84.2871" y1="34.5881" x2="64.1643" y2="49.975" gradientUnits="userSpaceOnUse">
<stop stop-color="#FEBBBA"/>
<stop offset="1" stop-color="#FF928E"/>
</linearGradient>
<linearGradient id="paint4_linear_51_1302" x1="97.7949" y1="19.0726" x2="77.6721" y2="34.4594" gradientUnits="userSpaceOnUse">
<stop stop-color="#FEBBBA"/>
<stop offset="1" stop-color="#FF928E"/>
</linearGradient>
<linearGradient id="paint5_linear_51_1302" x1="47.819" y1="89.5451" x2="19.5473" y2="130.351" gradientUnits="userSpaceOnUse">
<stop stop-color="#FEBBBA"/>
<stop offset="1" stop-color="#FF928E"/>
</linearGradient>
<linearGradient id="paint6_linear_51_1302" x1="137.347" y1="93.4052" x2="112.211" y2="159.97" gradientUnits="userSpaceOnUse">
<stop stop-color="#FEBBBA"/>
<stop offset="1" stop-color="#FF928E"/>
</linearGradient>
<linearGradient id="paint7_linear_51_1302" x1="58.6345" y1="96.9358" x2="30.0381" y2="138.213" gradientUnits="userSpaceOnUse">
<stop stop-color="#FEBBBA"/>
<stop offset="1" stop-color="#FF928E"/>
</linearGradient>
<clipPath id="clip0_51_1302">
<rect width="283" height="160" fill="white"/>
</clipPath>
<clipPath id="clip1_51_1302">
<rect width="111.334" height="193.685" fill="white" transform="translate(117.513 -25.5986)"/>
</clipPath>
<clipPath id="clip2_51_1302">
<rect width="221.069" height="219.07" fill="white" transform="translate(-2.21631 6.38232)"/>
</clipPath>
</defs>
</svg>
