<svg width="489" height="489" viewBox="0 0 489 489" fill="none" xmlns="http://www.w3.org/2000/svg">
<circle cx="244.5" cy="237.936" r="139.48" fill="#2E700B"/>
<circle cx="244.5" cy="242.312" r="194.178" fill="#2E700B" fill-opacity="0.18"/>
<circle cx="244.5" cy="244.5" r="244.5" fill="#2E700B" fill-opacity="0.06"/>
<g clip-path="url(#clip0_77_3418)">
<path fill-rule="evenodd" clip-rule="evenodd" d="M441.26 49.4934C441.26 49.4934 377.363 284.025 352.92 476.436L83.7408 443.787C83.7408 443.787 83.7517 443.698 83.7711 443.537C83.7949 442.743 83.9145 440.114 84.1039 435.862C85.348 409.318 90.0853 319.757 101.891 222.125C107.856 172.646 115.652 121.071 125.73 74.5909C129.424 57.4355 133.453 40.9547 137.805 25.5453C137.771 25.5231 285.355 22.0534 429.665 41.2412L441.278 49.4955L441.26 49.4934Z" fill="url(#paint0_radial_77_3418)"/>
<path fill-rule="evenodd" clip-rule="evenodd" d="M429.649 41.2212C429.649 41.2212 379.178 224.68 343.972 475.351L352.92 476.436C352.92 476.436 386.359 246.613 441.259 49.4934L429.649 41.2212Z" fill="#292929"/>
<g style="mix-blend-mode:multiply" opacity="0.5">
<path fill-rule="evenodd" clip-rule="evenodd" d="M406.062 47.4156L329.761 466.401L84.0505 436.599L140.403 38.3386L406.062 47.4156Z" fill="#7E6DA5"/>
</g>
<path fill-rule="evenodd" clip-rule="evenodd" d="M405.512 51.3513C402.749 59.6367 333.529 268.874 325.637 462.895L126.088 440.556L84.0854 435.86L82.0315 435.611C82.0315 435.611 71.7704 392.604 77.0084 312.811C78.7607 286.111 82.2606 255.313 88.4618 220.623C96.1475 177.728 107.924 128.9 125.696 74.5687C129.568 62.6689 133.747 50.4803 138.226 38.0565C138.226 38.0565 242.333 33.678 405.596 51.1079C405.596 51.1079 405.585 51.1971 405.494 51.3491L405.512 51.3513Z" fill="white"/>
<path style="mix-blend-mode:multiply" opacity="0.5" fill-rule="evenodd" clip-rule="evenodd" d="M189.822 37.4689C189.822 37.4689 179.727 54.8076 181.606 59.1829C183.468 63.556 185.729 65.3878 189.612 66.0942C193.494 66.8185 336.658 76.9209 340.89 76.5467C344.205 76.2606 346.603 74.1246 347.4 71.7401C348.743 67.6834 352.983 46.0304 352.983 46.0304L350.018 45.6708C350.018 45.6708 345.132 66.8288 339.188 69.5126C333.244 72.1965 194.391 62.11 191.832 60.4956C189.273 58.8813 195.893 37.7706 195.893 37.7706L189.822 37.4689Z" fill="#EBEBEB"/>
<path d="M191.534 61.9083C190.48 61.7805 189.696 61.6673 189.259 61.5418C185.287 60.5167 181.182 57.8999 181.585 54.5802C181.613 54.3482 188.286 29.9659 192.138 28.8394C194.093 28.2615 204.747 28.5759 209.225 28.7205L209.061 33.2101C202.943 32.9933 196.029 32.9154 193.87 33.0881C191.967 36.2258 186.797 51.9525 186.098 54.8741C186.457 55.3523 187.823 56.4959 190.389 57.1513C192.304 57.6551 206.206 58.6894 225.825 59.8013C226.654 59.8474 227.438 59.6529 228.14 59.249C231.32 57.3889 242.828 51.4138 257.72 52.9485C272.097 54.4025 283.724 61.6443 286.939 63.8272C287.541 64.2443 288.202 64.4694 288.939 64.5226C290.555 64.6461 293.086 64.8445 296.154 65.1079C307.873 66.0584 332.245 68.0366 334.948 67.7125C338.372 67.2766 340.595 65.5359 341.757 62.3808C343.113 58.6696 347.228 44.3182 348.379 39.4593C346.564 39.1848 343.247 39.036 340.455 39.0415L340.457 34.5503C352.036 34.5603 353.03 35.9304 353.171 37.9035C353.344 40.0615 346.862 61.533 345.991 63.9267C344.255 68.6784 340.628 71.5346 335.514 72.1638C332.605 72.5355 314.294 71.0933 295.791 69.5915C292.722 69.346 290.21 69.1319 288.594 69.0084C287.103 68.8999 285.644 68.3789 284.404 67.5403C281.424 65.5127 270.639 58.8076 257.251 57.4192C243.718 56.0313 233.294 61.4316 230.408 63.11C228.945 63.9648 227.264 64.3767 225.554 64.278C215.044 63.6732 198.042 62.6433 191.523 61.8526L191.534 61.9083Z" fill="#CCCCCC"/>
<path fill-rule="evenodd" clip-rule="evenodd" d="M205.388 25.6835L203.566 27.8531C203.566 27.8531 200.836 27.6488 200.123 30.3875C199.547 32.5995 201.434 34.223 201.434 34.223L200.987 37.6097C200.987 37.6097 290.435 42.3196 340.2 45.3311L342.56 41.5607C342.56 41.5607 339.092 36.6848 342.063 34.6003L343.699 32.1727C343.699 32.1727 266.531 26.3263 205.374 25.6456L205.388 25.6835Z" fill="#D5D5D5"/>
<path style="mix-blend-mode:screen" fill-rule="evenodd" clip-rule="evenodd" d="M200.901 28.9063C200.901 28.9063 310.24 34.435 340.433 36.8294C340.433 36.8294 340.777 35.042 342.077 34.6382C342.077 34.6382 245.617 28.263 203.564 27.871C203.564 27.871 201.553 27.8625 200.919 28.9084L200.901 28.9063Z" fill="url(#paint1_radial_77_3418)"/>
<path fill-rule="evenodd" clip-rule="evenodd" d="M317.498 64.9983C317.498 64.9983 313.469 68.7837 317.329 72.8196C317.329 72.8196 333.908 75.3919 338.493 75.0969C343.06 74.7996 344.992 72.7701 346.387 68.14C347.8 63.5122 350.744 51.047 350.744 51.047C350.744 51.047 347.988 48.0686 343.302 50.0901C343.302 50.0901 340.189 61.4118 339.586 63.0954C338.734 65.4913 336.99 66.4207 335.218 66.3869C333.448 66.3352 317.481 64.9962 317.481 64.9962L317.498 64.9983Z" fill="#383838"/>
<path fill-rule="evenodd" clip-rule="evenodd" d="M208.777 64.8328C208.777 64.8328 206.354 62.0941 209.594 57.1988C209.594 57.1988 196.55 56.5584 192.763 55.8093C188.975 55.0601 189.023 52.8745 189.171 50.9004C189.318 48.9441 192.065 41.0914 192.065 41.0914C192.065 41.0914 189.307 38.1308 185.01 40.2357C185.01 40.2357 181.159 52.2647 181.27 55.683C181.386 58.9027 183.831 62.0606 188.458 62.9116C193.085 63.7626 208.777 64.8328 208.777 64.8328Z" fill="#383838"/>
<path fill-rule="evenodd" clip-rule="evenodd" d="M209.576 57.1966L210.372 58.8507L209.488 58.816C209.488 58.816 208.585 60.5898 208.945 63.2958L209.829 63.3305C209.829 63.3305 209.777 63.9038 208.759 64.8307C208.759 64.8307 207.483 63.6979 207.814 60.9672C208.145 58.2365 209.558 57.1945 209.558 57.1945L209.576 57.1966Z" fill="url(#paint2_radial_77_3418)"/>
<path style="mix-blend-mode:screen" fill-rule="evenodd" clip-rule="evenodd" d="M235.158 57.5648C235.158 57.5648 247.024 52.3756 268.49 56.5005C268.49 56.5005 248.745 48.3465 235.158 57.5648Z" fill="url(#paint3_radial_77_3418)"/>
<path style="mix-blend-mode:screen" opacity="0.5" fill-rule="evenodd" clip-rule="evenodd" d="M393.762 36.9047C393.762 36.9047 416.891 39.5652 421.235 44.2394C425.468 48.7914 378.296 233.447 367.176 329.605C367.176 329.605 409.059 106.077 429.648 41.2212C429.648 41.2212 410.945 38.681 393.762 36.9047Z" fill="url(#paint4_radial_77_3418)"/>
<path fill-rule="evenodd" clip-rule="evenodd" d="M139.577 118.359L336.945 131.341C336.945 131.341 344.134 105.537 351.321 88.4246L153.263 77.695C153.263 77.695 144.42 95.0226 139.577 118.359Z" fill="#FF2222"/>
<path style="mix-blend-mode:multiply" opacity="0.2" fill-rule="evenodd" clip-rule="evenodd" d="M325.637 462.895L82.0315 435.611C82.0315 435.611 71.7704 392.604 77.0241 312.831C166.945 442.143 315.463 384.202 335.152 342.908C357.643 189.904 403.077 57.8293 405.53 51.3534C402.767 59.6389 333.547 268.877 325.653 462.915L325.637 462.895Z" fill="#DEDEDE"/>
<path fill-rule="evenodd" clip-rule="evenodd" d="M325.637 462.895C325.637 462.895 320.513 313.731 405.514 51.3334C405.514 51.3334 334.24 268.997 325.637 462.895Z" fill="#989898"/>
<g style="mix-blend-mode:multiply" opacity="0.3">
<path fill-rule="evenodd" clip-rule="evenodd" d="M352.587 157.923C277.547 152.172 202.323 149.875 127.207 145.491C128.133 142.634 128.597 141.205 129.559 138.351C204.603 142.582 279.748 144.633 354.696 150.247C353.851 153.331 353.428 154.874 352.587 157.923Z" fill="#CACACA"/>
<path fill-rule="evenodd" clip-rule="evenodd" d="M348.69 171.83C287.725 167.025 226.668 164.328 165.615 161.143C166.473 158.259 166.918 156.828 167.813 153.93C228.841 157.022 289.88 159.572 350.797 164.316C349.96 167.33 349.542 168.837 348.692 171.812L348.69 171.83Z" fill="#CACACA"/>
<path fill-rule="evenodd" clip-rule="evenodd" d="M341.063 198.994C276.674 193.883 212.179 190.842 147.71 187.133C148.476 184.256 148.868 182.818 149.669 179.945C214.162 183.602 278.7 186.595 343.107 191.708C342.281 194.633 341.869 196.086 341.063 198.994Z" fill="#CACACA"/>
<path fill-rule="evenodd" clip-rule="evenodd" d="M206.718 176.85C177.505 175.335 148.295 173.802 119.114 171.875C119.933 169.004 120.361 167.571 121.214 164.722C150.399 166.614 179.596 168.109 208.793 169.604C207.951 172.508 207.539 173.961 206.718 176.85Z" fill="#CACACA"/>
<path fill-rule="evenodd" clip-rule="evenodd" d="M162.265 160.972C146.672 160.131 138.842 159.689 123.034 158.677C123.907 155.813 124.353 154.382 125.259 151.539C141.051 152.531 148.866 152.954 164.461 153.777C163.568 156.657 163.138 158.108 162.265 160.972Z" fill="#CACACA"/>
<path fill-rule="evenodd" clip-rule="evenodd" d="M143.177 186.855C132.129 186.203 126.589 185.857 115.423 185.118C116.189 182.241 116.581 180.804 117.381 177.949C128.546 178.687 134.088 179.015 145.137 179.667C144.335 182.54 143.943 183.978 143.177 186.855Z" fill="#CACACA"/>
<path fill-rule="evenodd" clip-rule="evenodd" d="M344.855 185.509C300.231 181.962 255.556 179.423 210.842 177.06C211.666 174.154 212.075 172.718 212.919 169.796C257.624 172.086 302.303 174.589 346.93 178.118C346.1 181.078 345.686 182.549 344.858 185.491L344.855 185.509Z" fill="#CACACA"/>
<path fill-rule="evenodd" clip-rule="evenodd" d="M335.609 218.707C270.884 213.682 206.029 210.47 141.227 206.667C141.922 203.781 142.278 202.339 143.008 199.457C207.883 203.251 272.78 206.414 337.591 211.486C336.787 214.377 336.395 215.814 335.609 218.707Z" fill="#B7B7B7"/>
<path fill-rule="evenodd" clip-rule="evenodd" d="M332.034 232.055C279.561 228.063 227.032 225.133 174.507 222.167C175.186 219.261 175.524 217.817 176.221 214.913C228.837 217.872 281.422 220.791 333.961 224.828C333.193 227.723 332.802 229.16 332.034 232.055Z" fill="#B7B7B7"/>
<path fill-rule="evenodd" clip-rule="evenodd" d="M169.899 221.898C157.228 221.176 150.876 220.804 138.101 220.033C138.762 217.125 139.083 215.679 139.759 212.791C152.551 213.564 158.904 213.936 171.595 214.642C170.899 217.546 170.56 218.99 169.899 221.898Z" fill="#B7B7B7"/>
<path d="M106.447 218.784L106.64 217.938C108.565 209.243 109.569 205 111.763 196.32L111.908 195.721L112.538 195.762C122.174 196.405 126.977 196.698 136.513 197.275L137.412 197.33L137.197 198.209C134.98 206.923 133.976 211.166 132.042 219.787L131.895 220.403L131.248 220.361C121.715 219.766 116.929 219.476 107.311 218.834L106.429 218.782L106.447 218.784ZM113.041 197.29C111.022 205.267 110.038 209.494 108.283 217.395C117.129 217.978 121.894 218.285 130.711 218.811C132.489 210.877 133.508 206.654 135.507 198.692C126.746 198.155 121.978 197.866 113.043 197.272L113.041 197.29Z" fill="#E5E3E9"/>
<path fill-rule="evenodd" clip-rule="evenodd" d="M326.209 254.965C307.101 253.517 287.976 252.211 268.858 250.997C269.526 248.036 269.866 246.574 270.567 243.634C289.721 244.853 308.881 246.163 328.023 247.633C327.288 250.55 326.928 252.028 326.209 254.965Z" fill="#B7B7B7"/>
<path fill-rule="evenodd" clip-rule="evenodd" d="M264.615 250.718C220.849 248.017 177.067 245.587 133.296 242.922C133.869 239.985 134.154 238.534 134.746 235.6C178.593 238.238 222.468 240.644 266.308 243.335C265.625 246.277 265.285 247.739 264.618 250.7L264.615 250.718Z" fill="#B7B7B7"/>
<path fill-rule="evenodd" clip-rule="evenodd" d="M322.956 268.642C294.281 266.577 265.585 264.69 236.876 262.91C237.492 259.924 237.799 258.44 238.432 255.457C267.197 257.225 295.949 259.1 324.693 261.192C323.99 264.15 323.646 265.647 322.958 268.625L322.956 268.642Z" fill="#B7B7B7"/>
<path fill-rule="evenodd" clip-rule="evenodd" d="M232.18 262.63C198.372 260.594 164.577 258.614 130.776 256.525C131.298 253.564 131.567 252.093 132.105 249.152C165.962 251.23 199.833 253.183 233.716 255.192C233.084 258.158 232.778 259.642 232.18 262.63Z" fill="#B7B7B7"/>
<path d="M99.3619 255.232L99.4972 254.415C101.004 245.579 101.798 241.274 103.55 232.504L103.682 231.868L104.347 231.913C113.947 232.552 118.733 232.843 128.231 233.433L129.094 233.484L128.919 234.332C127.131 243.098 126.319 247.4 124.777 256.232L124.661 256.888L123.996 256.843C114.536 256.239 109.77 255.933 100.206 255.298L99.3797 255.234L99.3619 255.232ZM104.904 233.447C103.294 241.492 102.502 245.779 101.124 253.852C109.932 254.449 114.662 254.751 123.421 255.307C124.841 247.184 125.651 242.9 127.294 234.877C118.551 234.342 113.803 234.038 104.922 233.449L104.904 233.447Z" fill="#E5E3E9"/>
<path fill-rule="evenodd" clip-rule="evenodd" d="M310.644 332.799C292.031 331.303 273.416 329.823 254.782 328.36C255.218 325.063 255.453 323.425 255.92 320.167C274.597 321.582 293.274 322.996 311.945 324.463C311.399 327.766 311.142 329.437 310.626 332.797L310.644 332.799Z" fill="#C4C4C4"/>
<path fill-rule="evenodd" clip-rule="evenodd" d="M190.911 338.398C167.693 336.324 144.476 334.232 121.247 332.103C121.48 328.98 121.615 327.421 121.882 324.32C145.163 326.329 168.446 328.32 191.735 330.257C191.397 333.494 191.218 335.121 190.911 338.398Z" fill="#B7B7B7"/>
<path fill-rule="evenodd" clip-rule="evenodd" d="M250.652 328.04C218.787 325.534 186.922 323.027 155.045 320.465C155.372 317.317 155.543 315.762 155.902 312.654C187.865 315.1 219.819 317.473 251.786 319.883C251.321 323.123 251.086 324.761 250.65 328.058L250.652 328.04Z" fill="#B7B7B7"/>
<path fill-rule="evenodd" clip-rule="evenodd" d="M150.326 320.073C139.252 319.183 133.689 318.725 122.494 317.784C122.795 314.706 122.945 313.166 123.264 310.09C134.483 310.98 140.051 311.402 151.165 312.261C150.806 315.368 150.653 316.926 150.328 320.055L150.326 320.073Z" fill="#B7B7B7"/>
<path fill-rule="evenodd" clip-rule="evenodd" d="M308.379 348.625C280.777 346.237 253.174 343.849 225.574 341.443C225.943 338.101 226.127 336.439 226.509 333.135C254.198 335.407 281.887 337.679 309.572 339.986C309.085 343.404 308.839 345.131 308.379 348.625Z" fill="#B7B7B7"/>
<path fill-rule="evenodd" clip-rule="evenodd" d="M220.123 340.963C210.35 340.103 205.472 339.675 195.699 338.815C196.026 335.523 196.188 333.894 196.544 330.659C206.341 331.467 211.239 331.88 221.036 332.688C220.638 335.972 220.472 337.637 220.123 340.963Z" fill="#B7B7B7"/>
<path d="M90.5095 330.005L90.5625 329.269C91.2043 320.092 91.5826 315.629 92.4859 306.538L92.5746 305.806L93.2934 305.857C102.751 306.624 107.437 306.993 116.772 307.727L117.544 307.784L117.451 308.552C116.502 317.727 116.099 322.242 115.388 331.537L115.333 332.291L114.583 332.2C105.314 331.366 100.655 330.928 91.2461 330.058L90.5138 329.969L90.5095 330.005ZM93.9175 307.436C93.0851 315.793 92.709 320.239 92.1223 328.661C100.777 329.475 105.42 329.894 113.968 330.695C114.626 322.136 115.026 317.639 115.905 309.197C107.307 308.517 102.639 308.15 93.9153 307.454L93.9175 307.436Z" fill="#E5E3E9"/>
<path fill-rule="evenodd" clip-rule="evenodd" d="M317.79 292.555C298.91 291.171 280.004 289.856 261.109 288.596C261.682 285.515 261.96 283.973 262.549 280.911C281.502 282.141 300.446 283.443 319.377 284.852C318.735 287.907 318.401 289.46 317.79 292.555Z" fill="#B7B7B7"/>
<path fill-rule="evenodd" clip-rule="evenodd" d="M256.921 288.306C213.625 285.463 170.329 282.765 127.039 279.869C127.474 276.879 127.691 275.384 128.162 272.399C171.552 275.217 214.966 277.838 258.359 280.638C257.77 283.7 257.495 285.224 256.921 288.306Z" fill="#B7B7B7"/>
<path fill-rule="evenodd" clip-rule="evenodd" d="M314.979 307.065C286.958 304.988 258.942 303.021 230.904 301.087C231.392 297.959 231.654 296.397 232.158 293.289C260.276 295.16 288.368 297.1 316.464 299.15C315.847 302.299 315.547 303.874 314.961 307.063L314.979 307.065Z" fill="#B7B7B7"/>
<path fill-rule="evenodd" clip-rule="evenodd" d="M225.368 300.706C191.953 298.427 158.555 296.151 125.153 293.766C125.521 290.732 125.739 289.237 126.14 286.225C159.627 288.512 193.124 290.71 226.62 292.925C226.118 296.015 225.856 297.577 225.368 300.706Z" fill="#B7B7B7"/>
<path d="M94.0552 292.258L94.1505 291.473C95.2237 282.475 95.8076 278.109 97.1422 269.198L97.2245 268.519L97.9433 268.57C107.488 269.221 112.216 269.541 121.653 270.178L122.461 270.24L122.362 271.061C120.953 279.982 120.349 284.364 119.214 293.426L119.127 294.14L118.409 294.089C109.031 293.404 104.324 293.069 94.8232 292.351L94.033 292.292L94.0552 292.258ZM98.5181 270.107C97.3079 278.291 96.7061 282.655 95.726 290.885C104.474 291.53 109.162 291.881 117.82 292.515C118.867 284.184 119.471 279.802 120.735 271.624C112.052 271.042 107.342 270.724 98.5337 270.127L98.5181 270.107Z" fill="#E5E3E9"/>
</g>
<path d="M211.596 437.707L211.742 436.204L312.199 446.378L312.053 447.881L211.596 437.707Z" fill="#367E0F"/>
<path fill-rule="evenodd" clip-rule="evenodd" d="M111.31 206.769L114.93 204.274L119.854 212.532C119.854 212.532 127.718 199.251 137.837 193.071L141.106 195.261C141.106 195.261 127.393 204.319 121.826 217.498L117.021 216.915C117.021 216.915 113.617 209.421 111.293 206.767L111.31 206.769Z" fill="url(#paint5_linear_77_3418)"/>
<path fill-rule="evenodd" clip-rule="evenodd" d="M103.622 241.767L107.241 239.273L112.166 247.531C112.166 247.531 120.029 234.25 130.149 228.07L133.417 230.259C133.417 230.259 119.705 239.317 114.137 252.497L109.333 251.914C109.333 251.914 105.928 244.42 103.604 241.765L103.622 241.767Z" fill="url(#paint6_linear_77_3418)"/>
<path fill-rule="evenodd" clip-rule="evenodd" d="M92.2489 316.561L95.8681 314.066L100.793 322.324C100.793 322.324 108.656 309.043 118.776 302.863L122.044 305.052C122.044 305.052 108.332 314.11 102.764 327.29L97.9595 326.707C97.9595 326.707 94.5551 319.213 92.231 316.558L92.2489 316.561Z" fill="url(#paint7_linear_77_3418)"/>
<path style="mix-blend-mode:screen" opacity="0.5" fill-rule="evenodd" clip-rule="evenodd" d="M343.972 475.351C343.972 475.351 357.347 304.109 394.965 188.961C394.965 188.961 348.537 420.378 343.972 475.351Z" fill="url(#paint8_radial_77_3418)"/>
<path d="M317.197 120.962L312.635 119.814L318.981 94.5925L323.202 95.6544L328.421 113.863L332.419 97.9735L337.011 99.1292L330.665 124.351L326.414 123.281L321.195 105.072L317.197 120.962Z" fill="white"/>
<path d="M313.874 107.535C312.103 115.382 306.382 120.234 299.952 118.783C293.521 117.332 290.44 110.492 292.21 102.646C293.981 94.7999 299.702 89.9471 306.132 91.3984C312.563 92.8497 315.644 99.6893 313.874 107.535ZM296.986 103.724C295.84 108.801 297.371 113.067 301.054 113.898C304.706 114.723 307.921 111.527 309.066 106.45C310.212 101.374 308.682 97.1074 305.03 96.2831C301.347 95.4517 298.132 98.6471 296.986 103.724Z" fill="white"/>
<path d="M283.656 117.553L286.118 91.8041L290.896 92.2611L288.434 118.01L283.656 117.553Z" fill="white"/>
<path d="M265.407 98.1603L265.8 94.051L283.479 95.7417L283.086 99.851L276.62 99.2326L274.88 117.422L270.102 116.965L271.841 98.7756L265.407 98.1603Z" fill="white"/>
<path d="M249.128 116.923L244.175 116.667L253.639 92.262L259.391 92.5593L266.225 117.806L261.08 117.54L259.635 112.025L251.134 111.585L249.128 116.923ZM256.062 98.0772L252.634 107.36L258.547 107.665L256.062 98.0772Z" fill="white"/>
<path d="M231.304 114.309C224.933 113.699 221.126 108.803 221.781 101.954C222.436 95.1052 227.07 91.0158 233.919 91.6708C239.302 92.1856 242.776 95.861 242.89 100.726L238.111 100.269C237.773 97.7613 236.144 95.9661 233.405 95.7041C229.678 95.3477 227.066 98.1197 226.655 102.42C226.243 106.72 228.187 109.928 232.009 110.294C234.558 110.537 237.266 109.446 238.01 106.367L238.038 106.08L232.495 105.55L232.858 101.76L242.828 102.713L241.643 115.105L238.298 114.785L238.076 112.063C236.748 113.511 234.457 114.61 231.304 114.309Z" fill="white"/>
<path d="M211.216 114.003L210.917 91.6049L215.717 91.541L216.015 113.939L211.216 114.003Z" fill="white"/>
<path d="M207.179 112.925L193.725 110.364L197.913 88.3595L202.628 89.257L199.212 107.207L207.951 108.87L207.179 112.925Z" fill="white"/>
<path d="M173.744 108.433L175.876 86.135L184.349 86.9454C189.51 87.4389 192.297 89.8913 191.941 93.6183C191.672 96.4215 189.864 97.8559 187.264 98.1537C190.189 98.8192 192.079 100.575 191.774 103.761C191.403 107.647 188.11 109.807 182.631 109.283L173.744 108.433ZM184.117 90.7164L180.295 90.3508L179.777 95.7661L183.599 96.1317C185.638 96.3266 186.949 95.3912 187.108 93.7348C187.266 92.0783 186.188 90.9144 184.117 90.7164ZM183.565 99.8573L179.423 99.4613L178.884 105.1L183.025 105.496C185.319 105.715 186.725 104.789 186.89 103.068C187.064 101.253 185.826 100.074 183.565 99.8573Z" fill="white"/>
<path d="M170.854 98.1024C169.241 105.601 164.246 110.372 158.704 109.18C153.162 107.988 150.571 101.584 152.185 94.0857C153.798 86.5872 158.793 81.8161 164.335 83.0083C169.877 84.2006 172.468 90.6039 170.854 98.1024ZM156.301 94.9713C155.257 99.8233 156.534 103.829 159.709 104.512C162.856 105.189 165.668 102.063 166.712 97.2111C167.755 92.3591 166.478 88.3537 163.331 87.6766C160.156 86.9936 157.345 90.1192 156.301 94.9713Z" fill="white"/>
</g>
<defs>
<radialGradient id="paint0_radial_77_3418" cx="0" cy="0" r="1" gradientUnits="userSpaceOnUse" gradientTransform="translate(258.611 242.691) rotate(6.9157) scale(192.043 191.905)">
<stop stop-color="#2FA817"/>
<stop offset="0.99" stop-color="#075515"/>
</radialGradient>
<radialGradient id="paint1_radial_77_3418" cx="0" cy="0" r="1" gradientUnits="userSpaceOnUse" gradientTransform="translate(271.488 31.7811) rotate(6.9157) scale(49.9448 49.9089)">
<stop stop-color="white"/>
<stop offset="1"/>
</radialGradient>
<radialGradient id="paint2_radial_77_3418" cx="0" cy="0" r="1" gradientUnits="userSpaceOnUse" gradientTransform="translate(208.972 60.9809) rotate(6.9157) scale(2.84268 2.84063)">
<stop stop-color="#5178FE"/>
<stop offset="0.99" stop-color="#713592"/>
</radialGradient>
<radialGradient id="paint3_radial_77_3418" cx="0" cy="0" r="1" gradientUnits="userSpaceOnUse" gradientTransform="translate(251.915 56.283) rotate(6.9157) scale(11.8925 11.8839)">
<stop stop-color="white"/>
<stop offset="1"/>
</radialGradient>
<radialGradient id="paint4_radial_77_3418" cx="0" cy="0" r="1" gradientUnits="userSpaceOnUse" gradientTransform="translate(437.628 43.5655) rotate(6.9157) scale(104.765 104.69)">
<stop stop-color="#9281A4"/>
<stop offset="1"/>
</radialGradient>
<linearGradient id="paint5_linear_77_3418" x1="111.756" y1="203.092" x2="139.744" y2="206.487" gradientUnits="userSpaceOnUse">
<stop stop-color="#FF6E27"/>
<stop offset="1" stop-color="#E03347"/>
</linearGradient>
<linearGradient id="paint6_linear_77_3418" x1="104.068" y1="238.091" x2="132.056" y2="241.485" gradientUnits="userSpaceOnUse">
<stop stop-color="#FF6E27"/>
<stop offset="1" stop-color="#E03347"/>
</linearGradient>
<linearGradient id="paint7_linear_77_3418" x1="92.6948" y1="312.884" x2="120.683" y2="316.279" gradientUnits="userSpaceOnUse">
<stop stop-color="#FF6E27"/>
<stop offset="1" stop-color="#E03347"/>
</linearGradient>
<radialGradient id="paint8_radial_77_3418" cx="0" cy="0" r="1" gradientUnits="userSpaceOnUse" gradientTransform="translate(357.913 396.867) rotate(6.9157) scale(103.182 103.108)">
<stop stop-color="#9281A4"/>
<stop offset="1"/>
</radialGradient>
<clipPath id="clip0_77_3418">
<rect width="331.046" height="441.395" fill="white" transform="translate(113.455 2.76099) rotate(6.9157)"/>
</clipPath>
</defs>
</svg>
